<?xml version="1.0" encoding="UTF-8"?>
<svg id="_圖層_1" data-name="圖層 1" xmlns="http://www.w3.org/2000/svg" viewBox="0 0 1831 1013">
  <defs>
    <style>
      .cls-1 {
        fill: #323943;
      }

      .cls-2 {
        fill: #202935;
      }

      .cls-3 {
        fill: #655b4b;
      }

      .cls-4 {
        fill: #333943;
      }

      .cls-5 {
        fill: #202936;
      }

      .cls-6 {
        fill: #665c4c;
      }

      .cls-7 {
        fill: #212a36;
      }

      .cls-8 {
        fill: #222d36;
      }

      .cls-9 {
        fill: #313843;
      }
    </style>
  </defs>
  <path class="cls-7" d="M1831,340v303l-57.94-14.05-40.8-8.4-18.72-1.03c-19.97-1.1-51.08,2.98-70.8,9.18s-40.4,11.7-61.46,15.45l-40.2,7.15-9.55-14.84-21.37-61.45c-3.97-11.41-.77-47.56-6.15-61.13l-7.66-19.32c-.36-.91-2.69-1.81-2.66-3.55l.73-42.84,2.65-85.33,53.87,9.23,35.22,8.86,31.25-.46,36.21-.94c5.41-.14,11.94-.17,16.01-3.86l27.31-24.67c3.15-2.85,8.96-3.67,13.1-4.7l51.16-12.84c2.04-.51,5.5.42,7.82.72l48.02,6.34,13.96-.53Z"/>
  <path class="cls-7" d="M1831,170v167l-12.03.83-57.56-7.59-52.32,13.24c-4.37,1.11-10.34,1.99-13.68,4.98l-27.96,24.97c-3.08,2.75-8.42,3.08-12.53,3.21l-28.35.85-38.72.81-38.47-9.59-52.31-8.9.7-27.83,1.71-86.58,1.86-70.41,67.62,1.52,56-.54,48.14-.95c46.31.94,91.63-.49,137.76-4.19l20.12-.85Z"/>
  <path class="cls-1" d="M984.41.04l-2.69,19.94.48,19.03-5.78,11.54-13.32,7.63c-13.51,10.14-26.04,20.98-36.94,33.9-3.29,3.9-7.39,8.04-9.2,12.71-3.81,9.85-2.55,20.39-3.14,30.81l-25.01,16.22c-4.88,3.16-10.11,5.54-13.07,11.05l21.75-2.62,89.47-.37c2.06,0,3.75-.05,5.17-.74,2.41,1.06,5.17-.18,7.69-.17l12.03.06c2.52.01,4.89.2,6.65-3.38,1.2,3.26,3.42,3.39,6.18,3.37l10.41-.07c2.49-.02,5.03.34,7.63-.17l84.18.22,30.58.55,91.77.47-33.4-39.83-15.87-47.13c-2.71-5.13-6.21-10.16-6.79-16.07-1.12-11.44-.3-22.53.73-33.93L1196,0h5l-3.11,35.03c-.43,4.89-1.23,9.58-.28,14.32,4.29,6.41,7.27,13.54,6.68,21.24l8.37,24.66,7.79,21.47,35.24,43.19,48.84-.34c.97-3.48,3.01-7.2,3-10.71l-3.09-35.11c-.9-10.27,4.46-19.88,9.24-29.04l17.49-33.43,5.84-24.41c.72-2.99,2.96-6.55,5.44-8.35l18.57-13.45c2.04-1.48,3.02-2.77,1.96-5.07h11l-24.23,16.74c-4.18,2.83-8.66,6.03-9.88,11.17l-5.79,24.26-17.51,33.42c-4.5,8.59-8.62,17.61-9.22,27.48l3.2,36.02-2.48,10.49,21.6-.16,106.25-.33,57.49-.12c1.25-6.73.16-12.34-.01-18.64l-2.34-85.27,1.35-25.98.86-29.07,7.7-.02-.81,25-.98,35.08,2.79,98.96,70.54.61c2.71-4.84,5.12-9.39,9.11-13.33l20.22,2.73,65.14-39.89,51.69-28.42,39.25-21.88,65.76-35.74c-.8-4.48-3.37-8.84-1.09-12.86,1.15-2.03,6.46-1.04,8.37-1.25v17.51c-3.14-2.18-5.85-1.13-8.97.58l-58.11,31.76-41.78,23.32-55.99,31.07-58.08,35.77c-3.17,1.95-6.09,3.6-10.11,2.92l-14.97-2.53c-2.32,3.05-4.44,4.97-6.46,9.59l57.03.46h25.19s25.25.15,25.25.15l29.02-.36,42-1.15,51.01-3.2,24.99-.87-.02,4.39c-3.95,1.18-8.39.44-13,.68l-50.57,2.6-90.45,1.75-128.56.21-165.35.53-108.32,1.54-35.71.57-13.1-1.03-88.5-1.25c-3.47,3.15-8.28,3.08-11.71-.06l-49.41.28c-2.87,2.71-6.38,2.02-9.39.04l-64.92-.25c.5,1.21,1.67,1.16,3.41,1.66l-16.29.05-11.17-.98-65.9.33c-13.82.07-26.8.4-40.04,3.94l-34.38,6.69-28.4,8.65,2.88,7.11,15.75-4.61c9.44-2.76,18.42-4.14,28.05-6.1l25.32-5.15,20.87-1.4,112.82-1.52,51.9,1.59c2.92-2.16,6.4-2.56,9.43.11l49.4-1.19c4.26-.1,7.51.03,11.69-.01l81.05-.92,91.67-.35,111.86-.41,14.22-.68,108.77-.05,19.95.53,7.36.36,116.7-.38,43.19-.1,92.84-4.47c2.44-.12,4.27-.29,6.05.68v2.62s-20.11.85-20.11.85c-46.13,3.7-91.45,5.13-137.76,4.19l-48.14.95-56,.54-67.62-1.52-1.86,70.41-1.71,86.58-.7,27.83,52.31,8.9,38.47,9.59,38.72-.81,28.35-.85c4.11-.12,9.45-.46,12.53-3.21l27.96-24.97c3.35-2.99,9.31-3.88,13.68-4.98l52.32-13.24,57.56,7.59,12.03-.83v3l-13.96.53-48.02-6.34c-2.32-.31-5.78-1.23-7.82-.72l-51.16,12.84c-4.14,1.04-9.95,1.86-13.1,4.7l-27.31,24.67c-4.08,3.68-10.61,3.72-16.01,3.86l-36.21.94-31.25.46-35.22-8.86-53.87-9.23-2.65,85.33-.73,42.84c-.03,1.74,2.3,2.64,2.66,3.55l7.66,19.32c5.38,13.57,2.18,49.72,6.15,61.13l21.37,61.45,9.55,14.84,40.2-7.15c21.06-3.75,41.07-9.03,61.46-15.45s50.83-10.28,70.8-9.18l18.72,1.03,40.8,8.4,57.94,14.05v8l-26.75-7.26-61.4-14.48-25.83-2.97-22.05,1-.78,47.71-.95,32.01-.31,58.07-3.79,26.96-5.63,60.56-7.47,75.17,44.13,6.08,27.7,9.22c2.42,1.13,4.65,2.22,7.25,2.03l-4.72,7.28-20.91-7.74c-10.51-3.93-21.78-3.79-32.9-5.17l-21.46-2.67-1.46,16.73,47.18,6.82,18.23,10.62-1.87,3.19-16.38-11.23-47.59-6.36-2.88,29.74-25.15,22.83c-.24,1.18.56,3.09.78,3.85h-9.55s2.59-3.04,2.59-3.04l-6.72-10.34-21.6-32.3-6.98-17.34-18.73,5.2-45.08-6.95-68.26-7.24-2.86,51.03-1.07,20.97h-7.75s2.79-47.95,2.79-47.95l1.05-24.83-113.74-7.33-20.21-.84.03,34.98c0,4.35-1.81,9.46-3.73,13.23l-10.76,21.13c-1.94,3.81-3.53,7.67-3.69,11.61h-4.06c2.64-8.77,7.01-16.61,11.22-25.04l4.3-8.61c1.95-3.92,3.93-9.24,3.93-13.64l-.04-30.74c0-1.27-.32-2.8-.99-3.4-.56-.5-2.66-.38-2.89.45-4.57,16.24,6.48,29.36-6.71,52.45-5.21,9.11-9.57,18.49-10.86,28.52l-3.62.02c2.28-18.19,18.06-36.19,18.01-47.99l-.07-15.85c-1.7-6.11-.96-11.92.28-18.01l-70.91-5.36c-3.42,26.16-5.1,52.23-5.73,78.75l-2.58,8.47h-5.44s3.07-9.57,3.07-9.57l5.73-78.22-74.25-7.65-13.37,1.71-.6-3.31,14.9-1.32,30.97,4.2,42.84,3.56,5.1-46.47-47.98-9.91-20.59-2.33-29.37,3.44c-2.14.25-4.23.06-5.31,2.1l-2.27-10.33,27.66-4.48c13.84-2.18,26.99.99,40.5,4.03l38.47,8.65,2.25-13.88,12.07-63.1c.36-1.91-.11-3.8-1.3-4.68-.71-.53-2.28-.74-3.63-.92l-33.48-4.55-20.22,12.86-45.94,26.95-23.27,12.33c-.24-.83-.95-2.35-1.46-3.1,1.65.38,2.9-.55,4.51-1.47l38.69-22.22,44.11-26.65-15.63-6.45c-26.83-8.98-52.74-18.52-78.99-30.76l-16.87,22.5-12.17,13.25-3.03-4.73,11.17-11.65,35.82-50.08,23.47-31.8-20.17-36.93-34.52-63.22-22.5-30.06-69.39,41.82-17.98,13.05c-1.55,1.12-2.84,1.85-2.81,3.71-.68-1.38-.8-3.15-1.03-4.31l19.66-14.61,72.46-43.64,23.47,32.02,34.89,63.03,20.47,37.25,37.24-23.01c9.57-8.47,18.48-16.8,25.8-27.33l22.12-31.86-60.19-50.49-18.15-18.9-40.55-54.29-60.67,33.15-24.49,13.7-74.85,42.61-1.3-2.47,49.89-28.58,60.1-33.84,49.82-27.16-11.62-16.46-28.93-37.94-13.84-23.17-9.25-23.74c-2.84-7.28-2.72-15.2-2.73-23.38l-.13-164.6-24.6-.7-29.86-.97-49.07-.09-26.45.49-27.95.84-15,.95c-9.15.58-17.19,1.21-26.09,3.23l-40.85,9.25-28.95,7.54-1.62,14.37,1.76,22.85c-3.86-3.66-5.2-8.88-7.74-13.36l-16.07-28.32,17.22-8.73,3.68-21.01,2.85-12.19,5.62-34.32.04-8.94.47-10.31-3.31-16.88-1.7-8.04c-1-4.74-2.31-9.79-4.71-14.17-.5-.9.13-2.76.18-4.04,1.54-.87,3.02-2.43,5.2-2.7.29.99,1.44,1.63,2.1,2.17.37,2.87,1.62,6.12,3.05,8.74l1.68,8.12c1.95,8.7,3.65,17.38,4.32,26.3.34,4.46-.64,9.15.83,13.64l-1.96,20.04-10.12,49.62c21.24-8.38,43.3-14.25,66.06-18.39l8.28-9.05c10.61-8.33,22.19-15.04,33.58-22.29,1.04-9.78-1.12-21.02,3.47-29.89,8.2-15.83,22.31-27.46,35.36-39.21,7.73-6.96,15.46-11.96,25.02-16.04l3.92-9.96.23-19.8L979,0l5.4.03ZM1403.25,318.26l-9.4,27.86,27.49,8.32,53.61,5.78,14.8-.27.8-47.34.84-33.25,1.09-58.75.74-45.46-30.34,1.02-116.41.41-75.54.43,14,31.09,7.59,13.36c16.54,10.59,32.31,21.08,46.41,34.62l30.56,29.32,16.08,15.04,17.66,17.82ZM1358.45,454.11c2.4-3.45,1.96-5.53,2.65-9.05l7.57-38.67,28.62-87.24-12.34-12.11-18.59-17.58c-16.9-15.98-32.35-32.71-51.53-46.23l-26.45-18.64-8.32-14.6-15.02-32.83-31.14.61-97.71.43c-1.72,53.49-1.71,106.22-.09,159.67l2.29,22.74c6.82,16.51,16.55,30.64,26.89,45.07l35.1,48.98,39.18,51.78,21.05,25.98,13.51,18.3c2.19-4.61,4.2-7.84,7.61-11.1l46.4-44.48c12.38-11.86,20.47-26.84,30.32-41.02ZM1181.75,442.86l-34.72-48.7-15.46-30.63-4.52-22.83.44-109.39-.43-52.69-52.69.34.6,43.08.85,76.96-.18,37.94c-.05,10.66.55,20.47,4.01,30.35,5.65,16.11,13.05,30.12,23.1,44l38.78,53.57,40.23-22ZM1122.11,443.43l-28.81-40.65-8.03-13.94-9.81-25.24c-1.49-3.84-2.19-8.45-2.22-12.79l-.78-124.24-.43-46.09c0-.28-.61-.63-.89-.54l-.49,63.82v50.48s.54,58.74.54,58.74c.03,3.63.49,7.86,1.74,11.14l9.4,24.78,13.75,23.11,24.94,32.35,1.09-.92ZM808.75,190.48c1.04-.29.5-2.53-.53-3.12-1.63-.93-7.96,1.69-7.26,5.26l7.79-2.14ZM1482.03,661.72l.83-35.73,1.15-34.99.47-31.43,1.04-47.97.97-39.15.96-38.11,1.83-71.48-20.08-.19-47.09-4.95-29.25-8.82-19.56,60.14-6.96,36.08c-.88,4.57-.81,7.75-3.54,11.74-9.71,14.18-17.95,29.38-30.51,41.42l-46.93,44.97c-3.75,3.6-6.41,7.52-7.53,12.55l40.89,54.48,18.8,22.22c7.86,7.57,16.4,15.7,27.17,18.59,14.78,3.96,29.71,4.19,44.93,5.32l72.42,5.34ZM1122.52,443.94l-.53.57c.01,1.73.89,3.39,3.21,4.26-.25-3.1-1.72-3.6-2.68-4.83ZM1270.41,558.82l-19.38-25.82-14.94-17.25-52.62-70.67-40.41,22.23,25.72,35.9,30.23,37.8,57.69,48.69,13.71-30.87ZM1125.15,450.23c1.83,2.16,3.24.74,1.08-1.08l-1.08,1.08ZM1127.5,451.01l-.5.49.5,1.49.49-.52-.49-1.46ZM1128.77,454.84l1.08-1.08c-1.82-2.15-3.24-.74-1.08,1.08ZM1132.47,457.21l-1.53-2.3-1.55,1.04,1.76,2.64,1.33-1.37ZM1132.81,457.72l-1.49,1.13,5.66,8.49,1.55-1.04-5.72-8.59ZM1147.12,478.99c-1.89-3.6-3.87-7.55-7.7-10.18.54,4.86,5,7.55,6.96,11.27l.73-1.09ZM1147.5,480l-.41.82,2.36,3.28.98-1.21c-.7-1.66-1.78-2.4-2.93-2.89ZM1150.78,483.5l-.87,1.05c-.11.39.77,1.74,1.57,1.65.68-.08.63-1.22.32-1.57l-1.01-1.13ZM1155.11,489c0-.61-.5-1.11-1.11-1.11s-1.11.5-1.11,1.11.5,1.11,1.11,1.11,1.11-.5,1.11-1.11ZM1156.5,492l-.5.5.5.5.5-.5-.5-.5ZM1159.5,496l-.5.5.5.5.5-.5-.5-.5ZM1161.06,499.6c.54.8,1.34,0,.54-.54l-.54.54ZM1162.4,500.94l.54-.54c-.54-.8-1.34,0-.54.54ZM1535.18,651.32l-8.07-11.59-21.59-62.11c-3.83-11.01-.64-39.6-5.94-61.33l-6.2-15.55-.8,19.87-.61,25.43-1.01,65.93-.87,49.36c6.54-1.13,13.29-1.41,19.47-3.83,5.79-2.27,10.88-5.51,17.39-5.08,2.83.19,6.25.67,8.23-1.1ZM1166.84,505.98c-.79-.08-1.05.76-.41,1.12l.41-1.12ZM1167.68,506.65l-.57,1.17,1.22,1.53.57-1.17-1.22-1.53ZM1169.54,508.9l-.71,1.09.63,1.1.92-1.18-.83-1.02ZM1170.81,510.45l-.77,1.44c4.9,6.72,9.16,13.43,15.31,18.44l.79-.91-15.33-18.96ZM1186.55,529.9l-.9.77.67.67.78-.88-.55-.56ZM1187.57,530.9l-.35,1.57c.81-.12.95-1.01.35-1.57ZM1285.03,612.96l15.86-13-26.98-36.42-13.26,29.55,24.38,19.87ZM1258.27,781.25l5.63-4.67.9-54.62,2.94-69.02c.5-11.83,5.9-26.8,13.66-35.96l-22.75-19.09-13.57,20.15c-4.75,7.05-9.17,13.78-15.17,19.87-8.31,10.21-17.74,19.02-28.8,26.14l-30.03,18-40.72,56.9c22.05,10.12,43.69,17.4,65.6,26.04l29.48,11.63c10.79,2.61,21.34,4.19,32.86,4.63ZM1374.44,782.16l9.31-63.08,1.01-23.07,2.58-33.4-10.16-.93-19.14-4.84-17.47-11.46-14.08-13.85-21.06-25.62-16.18,13.3c-7.34,7.39-10.52,16.49-13.79,26.66-3.26,39.21-3.36,78.3-3.54,118.06l-.8,19.01,60.73,8.32,41.96,5.86.65-14.96ZM1586.44,821.02l95.29,21.6,4.5-50.59,3.71-25.07.67-53.18.6-35.81,1.08-29.03c.26-7.01,1.11-13.89-.38-20.98-18.53-.05-35.73,4.73-53.59,9.23l-70.36,17.72-21.84,3.54,16.26,24.17,30.19,43.8c1.3,9.18-.2,17.62-1.28,26.7-.57,4.81-.14,9.6-2.12,14.26l-3.2,27.57.45,26.06ZM1540.52,816.13c14.18.4,27.09.88,40.9,4.03l-.07-28.92,2.89-23.87c1.63-5.58,1.91-10.81,2.36-16.71.54-7.05,2.9-15.23.94-22.19l-27.27-39.71-19.34-28.8c-8.2-.33-14.73,2.88-21.76,6.23-4.4,2.09-9.8-.58-14.13.42l-14.92,3.44-2.09,22.01-5.07,73.93-2.13,46.9c9.54,2.06,18.63,2.09,28.2,2.36l31.49.89ZM1425.14,804.37l46.64,7.31,9.6-141.22-88.27-7.8-6,80.26-7.11,40.08-.38,14.69,45.53,6.69ZM1339.88,828.26l11.26-16.01,14.12-13.11-54.85-7.54-39.4-5.78-8.29,44.94-6.36,37.48,71.4,13.35c2.79-18.65,4.62-36.35,12.11-53.32ZM1334.89,881.5c2.76-21.04,7.44-54.17,21.49-66.07l17.63-14.94c-2.7-1.52-5.36-.53-7.7,1.85l-14.38,14.6-9.19,12.65c-6.92,15.42-8.9,31.9-11.6,48.47-.3,1.83-.6,3.4,1.02,4.29.69.38,2.48,1.03,2.73-.85ZM1466.11,902.18l5.48-87.44-54.6-8.73-37.97-5.38-13.97,11.36c-9.37,7.62-15.67,16.49-19.05,28.15-4.15,14.31-6.73,28.75-8.25,43.52l128.38,18.52ZM1582.06,834.1l-.36-10.94c-10.93-2.24-21.49-3.87-32.71-4.24l-37.99-.78c-10.21-.21-19.73-.19-30.57-2.4l-2.5,36.32-4.23,50.51,120.63,14.88-5.24-21.61-7.03-61.74ZM1600.17,918.09l73.09,9.35,7.93-81.87-94.25-21.32,1.91,27.8,5.07,42.9,6.25,23.14ZM1326.49,890.37l-29.62-5.22-42.09-8.33-5.07,46.11,70.79,5.34,6-37.91ZM1327.53,926.18c2.83-11.82,4.93-22.43,5.78-34.42-.9-.37-1.94-.52-3.79-.64l-5.33,34.01c-.11.72-.37,2.54-.2,3.17.15.55,1.45.39,2.23.26.87-.14,1.08-.71,1.31-2.38ZM1463.78,937.36l1.38-25.63-91.21-13.58-37.59-6.13c-1.3,13.02-3.28,24.49-6.33,36.9l20.11,1.02,113.65,7.43ZM1585.29,952.23l17.48-5.34-5.9-20.03-123.73-14.29-1.2,25.54,69.64,7.31,43.71,6.81ZM1670.71,953.2l1.36-16.87-69.42-8.74,5.3,18.28,62.76,7.32ZM1667.92,984.62l2.38-28.46-61.04-7.41,5.97,16.17,27.64,42.1,25.06-22.4Z"/>
  <path class="cls-3" d="M163.63,0l-5.57,20.15-.34,15.91c-.09,4.36.14,8.64.19,12.95l.49,35.87-5.11,22.55c-1.1,4.86-3.55,9.57-6.17,13.74l-23.49,37.47-42.17,74.84-18.14,60.01-10.27,26.65-11.98,22.73,43.54,108.37,6.55,15.62c5.73,16.73,11.9,32.86,18.73,49.18,1.16,2.78,3.69,4.26,6.15,5.97l-9.36,23.64c-5.69,14.37-10.81,28.44-17.27,42.01l-2.48,5.21-18.17,36.88c-3.53,7.17-4.2,14.51-4.61,21.88l-.52,9.3-1.42,7.47-1.72,43.3c-.36,9.14-3.36,17.31-8.27,25.45l14.74,8.86c2.79,1.68,3.68,4.56,6.9,6.28l20.17,10.76,45.53,23.64c2.36,2.84,6.03,5.22,10.53,4.07,6.96,1.69,13.81,1.29,20.99,1.15l27.91-1.98c8.53-4.65,16.73-9.53,24.47-15.42,1.33-2.82,3.86-4.23,5.82-6.27,1.51-1.57,1.76-4.48,3.58-5.6,0,3.69-3.3,6.12-2.84,9.33-.69.75-.65,1.26-.94,2.13-6.18,7.18-11.49,15.73-13.89,25.01-.87-.3-1.75.14-1.98.62-.33.68-.31,1.59-.19,2.26-.38.12-.77.76-1.02,1.02-.55.53-.91,1.21-1,2l-1.01.99c-.56.55-.91,1.23-.99,2.01l-1.02,1.01c-1.34.47-1.85,1.65-1.89,3.05-.29.46-.86,1.38-1.02,1.99-.5.52-1.06,1.15-1.09,1.91-1.35.55-1.86,1.66-2.07,3.01l-.97,2-.95,1.02-.97,1.01c-.64.57-.77,1.29-.98,2.02l-1.06,1.98-1,.99-1,1c-.53.54-.84,1.26-1,2.01-1.14.03-1.98.85-2,1.99l-1,1c-.54.54-.85,1.26-1,2.01-1.14.03-1.98.85-2,1.99l-1,1c-.54.54-.85,1.26-1,2.01-1.14.03-1.98.85-2,1.99l-1.01.99c-.52.51-.78,1.44-1.03,1.97-.51.1-1.86.31-1.98.97-6.28,2.14-13.7,1.86-17.61-4.15-3.5-5.38-3.98-12.05-.25-17.06,3.34-4.49,9.61-7.15,15.2-5.43l.64-.81c-1.09-2.2-2.85-3.8-5.39-5.07l-7.17-3.61c-4.78,6.1-7.02,12.61-8.56,20.02-2.7,12.98,3.79,28.57-.75,45.24-.27-.04-.83-.46-1.07.45-.1.37-.07.89,0,1.49h-.5l-.85.33,1.02,1.02.33-.85v-.5c.59.09.8-.27,1.08-.52.44-.38.47-1.02,0-1.42,1.54.09,2.89-1.73,3.96-3.02l19.56-23.49c.68-.82.29-2.04.39-2.61.57-.31,1.52.09,1.98-.97.45-.55,1.05-1.11,1.03-1.97.3-.29.65-.77,1.01-.99.92-.46,1.5-1.12,2-1.99.44-.63.82-1.24,1-2.01.18-.3.7-.81,1-1,.92-.46,1.5-1.12,2-1.99.43-.61.84-1.28,1-2.01.19-.29.7-.81,1-1,.9-.45,1.6-1.08,2-1.99l1-2.01c.18-.32.71-.74,1-1,.28-.23.81-.69,1-.99.61-.6.74-1.31,1.06-1.98l.98-2.02c.11-.33.69-.77.97-1.01s.79-.7.95-1.02c.57-.49.84-1.4.97-2,1.32-.5,2.09-1.58,2.07-3.01.76-.31.81-1.37,1.09-1.91l1.02-1.99c.43-.25,1.35-.22,1.64-.88.33-.75.36-1.47.26-2.17l1.02-1.01c.54-.54.91-1.24.99-2.01l1.01-.99c.55-.54.91-1.23,1-2l1.02-1.02c1.78-.33,1.48-1.89,2.17-2.88,5.26-7.93,10.89-15.96,13.89-25.01.13-.75,1.16-.84.94-2.13,2.5-2.71,3.53-6.63,5.15-9.88l3.26-6.53,10.53-20.61,8.32-18.9.19-.41.76-2.52.2-.48c8.93-21.13,17.02-42.15,25.14-64.15l33.93-91.93,21.53-53.64,25.08-49.97,30.3-53.64,36.67-54.22,43.67-56.26c-4.73-3.14-9.64-7.35-12.19-12.25-1.49-3.46-1.3-10.59-.05-14.18l11.69-33.42c6.34-18.14,15.1-34.81,23.73-51.93l6.72-16.13c1.19.38,2.88.63,4.17,1-2.96,8.76-6.67,16.68-11.07,25-11.32,21.4-19.95,43.18-27.68,66.11-2.57,7.61-5.85,14.52-3.82,22.57,3.32,3.63,7.77,6.6,10.34,11.39l45.29-48.15,60.93-55.55c.69-.63,1.8-1.04,2.32-2.03l1.48-.82,6.66-5.87,58.09-42.13c20.17-14.63,40.8-27.19,61.39-39.62-2.55-3.54-3.01-7.33-4.46-11.12l-27.58-72.29c-1.29-3.39-2.69-6.24-2.72-9.39h7l8.57,23.46,24.2,62.68c7.95-5.84,16.78-11.35,22.6-19.55,4.75-6.7,9.84-13.94,11.21-21.92l4.77-27.71c.83-4.79-2.35-10.19-4.33-13.76,2.68-.32,3.86,2.2,6.04,3.8l4.03,2.96c-2.04,3.02-1.72,6.35-2.33,9.92l-4.24,24.7c-1.32,7.72-5.89,13.47-9.72,20.81l22.38-10.93c-3.16-.48-5.14-2.12-7.4-4.2-6.08-5.61-3.02-17.66,1.64-21.25,3.98-3.07,8.55-4.87,13.71-3.88,1.29,1.92,3.45,3.48,3.84,6.13-4.11-3.29-9.43-3.23-13.7-.48-3.82,2.47-6.31,7.95-5.14,13.35,1.32,6.07,8.36,7.65,14.03,6.33,5.02-1.17,8.63-4,12.91-6.15,1.37.6,2.08,1.92,2.25,3.39l-40.34,20.26c-8.21,4.13-15.2,10.06-22.12,16.01l68.67-37.61c.2.02.44-.04.59-.23l61.16-31.96c-9.37,1.42-18.57,2.99-26.42,7.71-11.62,6.97-21.89,15.64-33.87,21-.72.35-1.49.02-1.76-.6s-.12-1.68-.07-2.24l12.57-7.34,22.98-15.47c-4.49-.94-7.7-.43-11.07-2.13l-19.75-5.04-30.94-3.06L762.39.01h2.61c2.82,2.61,6.79,3.45,11,3.89l26.44,2.77,23.68,6.05c8.71,2.23,20.67,1.1,29.2-2.46L879,0h32l-39.26,20.8c-11.68,6.13-23.1,16.22-28.57,28.22l-9.78,21.46-12.2,19.56c-4.5,7.22-6.65,15.03-8.18,22.92-1.47-4.49-.49-9.19-.83-13.64,3.97-8.87,8.84-16.58,14.54-25.2l-9.7,2.4c-3.01.74-6.21-2.59-9.16-3.49l-1.68-8.12c2.4,4.41,7.71,8.36,12.65,7.34,7.24-1.49,10.7-6.31,9.64-12.85-.94-5.79-6.91-9.45-13.71-8.39l-11.62,5.15c-.66-.55-1.81-1.19-2.1-2.17-.65-2.2-6.49,1.4-10.8,4.88,2.48-.88,4.41-1.52,5.6-2.18-.04,1.28-.67,3.13-.18,4.04-10,4.2-21.05,10.73-17.79,19.78,1.19,3.31,4.08,5.89,8.02,6.7s7.84.15,10.23-2.56,3.92-6.2,4.25-9.75l1.7,8.04c-3.47,7-9.99,9.18-18.87,7.84l14.12,10.97c3.63,2.03,5.97,4.96,7.6,8.38l-.04,8.94-5.75-11.06-13.99-11.05c-6.73-5.32-23.91-11.8-33.84-9.44-10.12,2.41-18.66,7.51-28.06,12.34l21.88,39.11,30.38,56.36,16.07,28.32c2.54,4.47,3.88,9.69,7.74,13.36l17.16,34.66,53.96,94.74,15.26,25.92,25.54,47.54,45.85,86.01c5.99,11.24,10.36,22.4,17.62,32.27l1.3,2.47,19.74,39.63c.88,1.77,2.09,2.26,3.03,2.74.24,1.16.35,2.94,1.03,4.31l18.2,36.61,19.36,40.94,43.49,65.2,15.86,22.43,3.03,4.73,16.5,22.58,19.85,29.22c.51.75,1.22,2.27,1.46,3.1l6.89,26.8,2.27,10.33,9.45,46.74.6,3.31,12.93,55.95,10.95,37.76-7.63.02c.22-1.36-.16-2.67-.65-4.32l-14.29-48.4-8.68-39.6-.97-4.82-9.34-46.7-2.75-10.32-3.67-15.39c-1.34-5.61-2.27-11.53-5.77-16.31l-20.68-28.28-2.16-2.45-29.7-42.56-2.81-5.11-29.64-42.62c-9.75-14.02-15.6-29.51-23.19-44.83l-31.77-64.18-16.7-31.1-2.75-4.44-18.1-34.03-44-83.88-35.41-64.7-56.29-96.78-21.01,9.42c-1.29.58-3.1,1.85-4.33,2.3l-22.25,8.11-6.33,2.69-28.08,10.89c-1.39.54-2.27,1.33-2.65,2.4-2.75-.73-5.14.81-7.59,1.77l-96.7,38.05-6.84,2.7-81.2,32.01-13.25,5.93-23.15,13.88-24.85,19.13c-11.98,11.11-23.36,22.59-33.12,35.72-4.18,5.63-7.29,13.28-8.97,19.96l-7.98,31.75-.84,2.97-12.6,51.22-1.1,5.35-9.1,35.48-13.11,33.8c-.27.69-.57,1.55-.93,2.17l-10.61,18.19-10.22,17.37-2.58,4.23-6.81,14.89c-3.52,14.28-3.95,28.62-4.04,43.44l-.38,62.95.37,4.33-.49,8.74c.35,19.18-.68,37.72-2.67,56.22l-1.14,3.74-12.47,44.55-1.6,5.76,96.55,78.69h-12.6c-.21-1.56-1.28-2.16-2.76-3.38l-83.47-68.86c-1.47,1.34-1.51,3.46-2.04,5.18l-9.22,29.62c-.59,1.89-.59,4.01-.59,5.36-1.8,1.1-1.78,3.13-2.33,4.87l-7.24,22.69c-.53,1.67-.65,3.18-.73,4.48h-5.01s9.02-30.17,9.02-30.17l2.01-5.52,10.54-35.58c.47-.68,1.94-3.18,1.35-4.41l-31.19-25.87c.03-3.03-1.59-5.1-4.77-4.93l-17.32-13.73c-3.27-2.59-7.05-3.98-10.29-7.82-1.48,1.89-.42,2.97-.35,4.36-3.06,1.82-4.84,5.28-3.41,8.15,1.28,2.58-1.77,4.68-2.74,7.02l-20.17,48.88-14.97,32-12.03,27.67h-9.13l34.74-82.01,19.73-52.04-10.5-8.27-15.59-12.76-8.81,4.25c-1.77.85-4.81-.79-6.92,1.36,10.56,2.32,20.8,5.06,30.22,9.52l-15.04-1.85-30.49.28c-6.78.06-12.45,2.12-18.63,4.34s-11,4.83-14.07,10.39c-1.01-.22-1.49,1.03-1.99,1.44l-2.38,1.97-6.47,6.39c-.48.48-1.05.65-1.52.77-.56.15-1.34-.12-1.81-.91l6.02-7.31-1.11-.57-13.96,16.2c2.67-.2,3.67-2.53,5.06-4.07.62-.16,1.12.15,1.28.52.19.4.14.97.06,1.4l-7.97,8.06-1-.09,1.88-4.79-4.38,4.46-3.72,4.1-58.29,66.59-20.81,28.33c-1.08,1.47-1.85,2.77-1.94,4.3h-9.59s20.56-28.39,20.56-28.39l45.33-54.51,17.39-20.05,1.63-1.85,14.3-16.28c.48-.55,1.48-.89,1.68-1.92.07-.36.69-.84,1.02-1.06,6.25-4.01,1.99-6.68,4.54-9.38.38,1.69,1.05,2,1.57,1.86.6-.16,1.9-.58,1.97-1.11.11-.91-1.63-1.66-3.23-1.48,4.56-9.98,4.81-20.56,2.46-31.28-2.61-11.92-4.08-23.23-4.12-35.62,0-1.46-.82-3.31.75-3.9l3.77,19.5c2.15-7.31,3.83-13,8.66-18.61l-14.34-8.09-99.1-54.07c-1.24-.68-3.02,2.62-2.86,3.26l-19.26,42.87L0,849.61v-10.61s.93-.48.93-.48l43.07-94.37-37.53-20.54c-2.28-1.25-4.19-2.56-6.45-2.91v-8.17c2.11.24,3.8,1.54,5.89,2.66l41.4,22.25,6.32-12.87c3.07-8.91,3.17-18.13,3.63-27.57l1.89-38.85,1.07-9.03c1.06-8.99,2.66-17.52,6.88-26.05l16.17-32.66c.69-1.39,1.57-2.63.58-4.39.51.01,1.67-.3,2.06-1.13,6.11-12.78,10.67-25.78,16.05-38.93l8.97-21.88c-2.01-1.79-3.72-3.7-4.83-6.27-6.89-15.92-12.87-31.8-18.5-48.25-2.26-6.58-5.05-12.05-7.67-18.56l-40.93-101.97c-.83-2.07-1.39-4.31-3.07-6.2l12.61-23.28,9.55-24.52,19.56-63.47,46.67-82.17,19.72-31.33c2.34-3.72,4.43-8.25,5.4-12.61l5.07-22.64-.78-35.64-.06-13.3.42-14.84c.17-5.85,4.53-13.09,4.18-19.04h5.36ZM858.42,25.4c4.33-3.42,9.02-5.65,13.08-8.69l-54.24,27.46c-5.07,2.56-9.8,4.73-13.93,7.81,19.99-10.38,38.34-13.34,55.08-26.58ZM832.2,63.39l7.61-16.55,5.24-8.04-22.56,8.8c6.84,3.32,10.43,8.4,9.71,15.79ZM781.14,63.7c.48.5.99.46,1.36.31.93-1.16,2.11-1.91,3.37-2.71-.48-.5-.99-.46-1.36-.31-.93,1.16-2.11,1.91-3.37,2.71ZM761.84,77.28l17.09-12.41-39.14,21.83c7.56-1.73,15.3-4.53,22.04-9.42ZM779.51,88.82c-4.97-5.04-6.63-8.93-5.3-15.29-6.22,3.96-10.36,7.66-16.4,10.09l9.88.65c4.03,1.57,6.89,4.36,11.82,4.55ZM720.83,88.54c1.98-.86.38-1.81-.14-1.62-.32.12-1.2,1.02-1.55,1.47-.16.2.56.64,1.69.15ZM736.85,89.53c1.9-.82.45-1.83-.18-1.6-.31.11-1.17,1.01-1.53,1.47-.14.18.55.63,1.71.14ZM781.66,90.48l-.65.02.65.02h.68l.65-.02-.65-.02h-.68ZM731.85,92.52c1.93-.8.4-1.84-.17-1.58-.33.15-.93.68-1.59,1.52-.15.19.61.54,1.76.06ZM726.84,95.54c1.94-.83.41-1.83-.16-1.61-.31.12-1.12.94-1.55,1.48-.16.2.57.61,1.71.13ZM721.88,98.52c1.8-.77.54-1.85-.22-1.59-.34.12-1.1.93-1.54,1.48-.16.2.56.62,1.75.1ZM716.86,101.53c1.88-.79.47-1.85-.18-1.6-.33.12-1.09.91-1.55,1.49-.14.18.57.6,1.74.11ZM602.9,178.13c-2.92,1.33-5.42,3.89-8.09,5.83l-5.17,3.77-50.5,45.39-39.58,40.42-17,19.81c2.38.77,3.64,1.96,5.24,3.89l22.66,27.28c.71.85.93,2.82,2.64,3.64l31.02-20.97,24.79-13.38,112.49-50.81c.84,1.25,1.57,2.54,2.19,2.71s2.04-.67,2.58-1.11c.66-.53.49-2.08-.06-3.74l66.29-30.59c1.82-.84,4.58,4.75,3.43,6.63l-76.33,35.62-121.07,56.83-31.18,18.91-9.08,7.08c-1.63,1.27,1.21,3,1.75,3.7l3.11,5.96,17.11,41.49,74.91-29.52,7.33-3,96.85-38.25,7.03-2.48,30.71-12.79c2.19-.05,4.24-1.21,6.26-2.04l48.24-19.76-34.19-64.44-8.86-15.54-13.19-25.91-34.28-63.59c-1.1-2.04-2.28-4.08-3.79-5.54l-2.79.96c-.65.22-1.58-1.09-2.34-1.73l-20.18,12.11-58.87,40.01-30.08,23.16ZM292.21,652.85c.51.2.34.51.23.69l-5.19,8.73-25.41,63.59-14.21,30.8c-.38.67-1.5,1.36-1.69,2.3-.05.24-.01.55.01.8-9.82,19.32-21.15,37.63-32.42,56.58-5.45,9.16-11.28,17.1-17.58,25.65l-3.05,4.14-17.59,22.08-15.74,18.53c9.66-6.65,16.19-16.84,23.68-26.55l9.97-12.92,13.73-18.22,10.14-15.96,7.39-3.5c5.85-1.46,12.14,1.75,15.02,6.8,3.24,5.66,1.95,12.49-1.76,16.85-4.19,4.92-9.99,6.36-16.89,4.48.73,3.24,2.77,4.78,4.9,6.54l7.52,6.2c5.62-5.39,8.02-12.61,8.84-20.34l.87-8.12-2.91-26.05c-.73-6.52-2.37-13.3-1.06-19.88l7.06-15.17c.54-.12,1.08.42.87,1.11l-4.71,16.07c-1.64,15.79,8.14,37.42,7.86,48.93l-.41,16.8-.77,13.61c-.45-1.42-1.88-2.32-1.92-4.42l-.49-26.16c-1.62,9.99-3.06,18.81-10.41,25.99l15.07,11.91,7.29,6.13,9.19-39.2,13.76-82.21,10.79-58.36,7.09-24.93,21.66-63.31,17.66-36.34,21.91-41.11,52.19-86.67c9.55-15.86,19.45-30.65,31.64-44.39l25.85-29.15,24.38-22.62c4.61-4.28,9.22-8.15,14.62-11.36-.28-2.49-2.07-3.21-2.97-4.35l-25.03-31.83-26.07,31.13c-17.17,20.51-31.28,42.47-46,64.89l-27.04,44.91-25.87,50.18-20.61,47.38-43.39,119.34ZM332.39,927.61l10.46-35.93c2.48-8.54,4.45-16.59,4.69-25.58l1.43-52.61.1-3.2.51-74.82.34-8.11,3.7-24.87,7.08-15.85c.57-1.27,1.69-2.86,2.54-4.31,7.07-12.12,15.71-22.97,20.91-36.11l14.16-35.78,8.1-32.91,1.48-5.26,21.13-87,9.34-20.92c11.44-12.72,22.18-25.55,35.04-36.83l23.14-17.87,22.42-13.62,17.16-8.01-16.56-40.5c-.76-1.85-1.86-3.09-3.04-4.62-.9-1.16-.84-2.91-2.92-4.54l-28.8,23.51-12.63,12.37-39.57,51.33-65.24,104.66c-14.33,22.99-24.98,47.14-36.26,71.74l-18.18,52.11c-6.1,17.48-11.27,35.78-14.75,54.25-6.39,34.02-12.61,67.16-17.15,101.6l-7.75,42.3c-1.62,8.85-3.66,17.03-6.65,25.72l61.47,50.86c1,.83,1.42,1.87,2.53,1.91,1.84.07,1.39-1.92,1.74-3.11ZM419.5,436l-.5.5.5.5.5-.5-.5-.5ZM409.41,452.75c4.6-5.01,6.53-9.81,9.4-14.73-4.12,4.59-7.22,9.57-9.4,14.73ZM406.03,457.54c.96,1.23,1.19-.96,2.95-3.05l-.53-.51-2.42,3.57ZM405.5,459l-.5.5.5.5.5-.5-.5-.5ZM311.5,583l-1.9,5.7,1.5.5,1.9-5.7-1.5-.5ZM308.39,589.6l-22.98,64.33,2.47.88,22.98-64.33-2.47-.88ZM299.05,684.03c-.14-1.25-1.48-.88-1.2.21-.36,2.25,2.04,1.66,1.2-.21ZM287.84,737.45c.22.08.49.26.81.61l9.23-51.13-4.45,18.51-5.59,32.01ZM197.11,799.51c3.83,1.33,6.28,3.72,9,6.99l11.81-23.9c-9.49,7.4-19.9,10.42-32.39,11.63,4.09,1.21,7.85,2.14,11.58,5.28ZM180.03,797.54c-2.98-2.09-5.48-2.44-8.03-2.41l-18.17.22,14.98,7.99c3.47-3.37,7.01-5.27,11.21-5.8ZM202.29,810.94c.4-3.92-4.03-4.82-5.97-6.14-7.57-5.13-16.53-6.08-24.25.38l24.58,15.02c1.8-3.1,5.33-6.23,5.64-9.26ZM222.74,833.94c4.9,2.98,11.2-.68,13.58-5.03s1.69-10.42-2.48-13.67c-5.8-4.52-12.84-1.5-16.68,3.96-2.16,3.07-3.26,5.72-.28,9.21,1.33,1.55,3.37,4.01,5.86,5.53ZM178.62,819.91l-1.08.87c.63,1.17,2.08.1,1.08-.87ZM185.79,835.05c-.24-6.1-8.64-12.28-13.67-11.4-6.39,1.11-9.78,6.76-8.93,11.59.9,5.14,4.55,10.02,10.79,9.26,4.33-.53,11.14-4.77,11.82-9.44ZM272.4,834.07c.93-.88.92-3.42.16-5.09-.02,0-.26.23-.52.53-.08,1.46-.32,3.06.36,4.56ZM264.91,870.25l7.37-34.68c-.16-.03-.61-.3-.99-.67l-9.31,40c2.03-.86,2.53-2.77,2.93-4.66ZM226.69,854.96l-22.21-17.93-8.17,11.46c6.36,10.77,20.69,14.74,30.38,6.47ZM214.95,867.73c-4.44-1.84-8.16-3.15-11.55-6.2-4.11-2.17-7.65-4.7-10.09-8.83l-13.97,19.39,9.82-2.84c8.76-1.74,16.88-1.29,25.79-1.51ZM257.28,891.09c2.43-2.98,3.5-5.66,3.63-9.33-2.65,2.39-3.91,5.58-3.63,9.33ZM248.9,911.44c.14.56.76.7.97.04l7.19-19.3c-.16-.25-.95-.33-1.19.29l-6.97,18.97ZM245.94,919.46l.61.56,2.51-6.48-.61-.56-2.51,6.48ZM240.89,932.44c.2.11.46.32.67.59l4.55-11.48c-.2-.11-.45-.32-.67-.59l-4.55,11.48ZM239.34,937.93l1.67-2.48c.33-.48-.08-1.37-.6-1.39-.82,1.59-1.67,2.44-1.08,3.87ZM235.15,948.01c3.03-2.58,3.99-6.11,3.46-9.17-2.16,3.05-3.45,5.77-3.46,9.17ZM229.09,962.01l5.97-11.23c.8-1.51-1.21-2.27-1.69-.72l-4.28,11.95ZM228.5,963l-.5.5.5.5.5-.5-.5-.5ZM227.5,965l-.5.5.5.5.5-.5-.5-.5Z"/>
  <path class="cls-7" d="M1501,0h330v9c-1.91.2-7.22-.78-8.37,1.25-2.29,4.02.28,8.38,1.09,12.86l-65.76,35.74-39.25,21.88-51.69,28.42-65.14,39.89-20.22-2.73c-3.99,3.94-6.39,8.48-9.11,13.33l-70.54-.61-2.79-98.96.98-35.08L1501,0Z"/>
  <path class="cls-9" d="M792.66,291.61l16.64,33.19,50.23,96.62,30.45,56.5,28.4,26.71c10.58,9.95,17.28,22.08,24.41,34.65l15.28,26.96c3.49-1.8,5.81-3.71,9.41-4.65l2.75,4.44-8.82,4.98c8.09,14.37,17.04,27.26,22.98,42.52,2.03,5.23,2.44,11.74,2.46,17.4l.13,36.16.65,84.47,43.37-1.34,40.53-1.45,2.81,5.11-44.32,1.28-40.49,1.2-.93,33.52c-.2,7.09-7.19,11.71-14.16,14.4l88.66,36.51c1.26.52,2,1.42,3.02.81.68-.41,1.68-1.4,2-2.49l6.04-21.03c.95-3.29,3.69-7.68,7.21-8.35,5.54-1.06,9.23-3.29,13.72-6.69l8.96-6.58,2.16,2.45c-6.54,2.59-12.19,11.01-18.87,12.25-4.91.91-8.95,2.71-10.44,7.95l-6.15,21.73c-.29,1.02-1.42,1.86-1.47,2.71-.04.7,2.21.69,2.87,1.34l10.1,9.91c3.48,3.42,3.76,8.76,5.79,13.58l47.46-8.35c.21-.61.49-.99.81-1.14l2.75,10.32-69.75,12.09.95,8.7.14,27.99,74.59.15c1.27,0,2.35-.08,2.99-.64.3-.27.29-1.18.42-1.59l.97,4.82-19.3.18c-7.77-1.54-15.27-.28-23.08-.23l-36.7.23.25,64.53.16,27.62h-2.71s-.46-34.73-.46-34.73l-.34-27.27.72-30.3-33.19-.76-4.91,30-18.16,63.05h-3.1c.31-2.45,1.28-4.72,2.08-7.45l16.6-57.22,2.06-15.22-45,4.13-20.21,5.82c-14.35,4.13-27.65,9.39-41.17,16.96l26.73,52.96-3.64.02c.42-2.44-1.29-4.24-2.5-6.57l-23.43-45.44-41.1,23.51,13.66,28.47-3.63.03c.21-2.06-.9-3.92-1.98-6l-10.75-20.83-41.77,24.34c-1.21.71-1.66,1.44-1.5,2.49h-8.42s50.45-29.6,50.45-29.6l-19.57-41.6c-12.32,4.22-24.1,9.34-35.15,16.54-10.01,5.37-18.88,11.42-28.31,18.75l25.6,35.89-3.6.02-24.46-34-36,30.51c-1.36,1.16-2.7,1.72-2.54,3.49h-18c.14-.48.38-1.81-.35-2.6l-45.63-49.34-13.24-13.86-32.68-22.95-13.74,22.14-11.36,16.63-12.86,10.42,31.54,39.55h-6.68s-11.36-15.19-11.36-15.19c-3.15,5.02-6.24,9.7-8.06,15.17l-5.92.02,10.46-19.25-14.15-17.23-17.39,15.68c5.98,6.77,11.66,13.07,18.91,18.41.67.49.61,2.08.12,2.41h-6.61c-.06-1.27-.91-1.98-1.97-3l-14.42-13.74-15.62,13.74c-1.12.98-1.93,1.72-2.39,2.97l-5.01-.03,20.19-19.19c-.07-.92-1.61-2.57-2.89-2.77l-20.62,18.24c-1.38,1.22-2.31,2.23-2.67,3.71l-5.59.06,27.02-24.98-45.12-44.82-15.31-12.27-32.37,36.32-35.02,41.91c-1.12,1.34-1.95,2.49-2.5,3.84h-8.09s-96.55-78.68-96.55-78.68l1.6-5.76c-.06,2.28,1.34,3.25,3.12,4.74l39.9,33.58c3.15-6.04,2.17-11.23,2.29-16.94.37-18.12,13.83-26.32,12.96-30.23-.27-1.2-1.57-1.89-2.79-2.87l-39.24-31.7c-1.3-1.05-2.54-1.4-3.76-1.13l1.14-3.74,11.48,8.06,34.38,27.97,21.41-24.76,15.53-19.04-65.57-47.84-14.06-9.33-.37-4.33c3.37.07,6.18,1.7,9.19,3.83l36.44,25.73,33.79-46.98,9.28-11.77,18.47-18.07-14.07-12.86-39.39-29.61-42.49-31.54,2.58-4.23,41.29,30.41,42.12,31.53c10.4-13.55,19.61-27.95,19.21-43.77l-.82-32.62-.71-21.75c-11.99-.85-23.13.57-34.94.6l-45.34.03c.36-.62.67-1.49.93-2.17l22.35-.4,34.05-.93,21.97-.3c.56,0,1.02-.54,1.01-1.09l-.89-29-.09-12v-25c0-.35-.13-1.01-.98-1.01l-10.03.02-12.03.04-18.76.33c-5.01.09-9.75.97-14.39.07l1.1-5.35c5.15,1.61,10.46.29,16.26.24l86.97-.68-5.73-49.79-28.45-.86-56.45-.14.84-2.97,48.65.9,37.89.37,13.68,113.11,2.65,25.79c1.16,23.51,2.3,46.29,1.83,69.89-.31,15.66.61,30.47,1.87,45.99.51,6.26-.32,12.58,1.75,18.44l5.75,16.27,54.57,42.64,23.45-17.88c12.79-9.75,26.39-18.21,41.23-24.58l26.17-7.53-.44-101.71v-100.33s-2.09-89.21-2.09-89.21l-1.2-38.01c-.27-8.73-2.66-16.41-8.95-22.29-7.27-6.8-14.29-13.86-19.05-22.89l-35.25-67.33,6.84-2.7,32.26,61.15,8.76,14.33,16.88,18.04c2.63,2.81,4.52,9,4.68,13.04l2.31,55.73.8,36.5.64,27.38.94,29.09-.25,100.62-.42,48.29.6,40.01,66.07-.03,8.05-1.18,80.67-.81c1.98-4.01,1.21-7.35.67-11.51l-18.56-144.3-3.82-71.29-8.3-143.8c-.33-5.77-1.13-12.37-3.57-17.34l-22.71-46.28c-1.65-3.36-6.61-8.32-10.03-9.61l-35.84-13.47-12.34-6.6c-5.94-3.18-8.78-9.86-10.78-16,2.45-.96,4.83-2.5,7.59-1.77l4.37,8.72c2.14,4.24,7.01,6.75,11.66,8.26l35.56,11.54-20.85-41.81,6.33-2.69c-.41,1.63.16,3.1,1.08,4.85l19.32,36.96c1.42,1.45,5.15-.78,6.6-1.64l15.02-8.95-19.78-39.33c1.23-.45,3.04-1.72,4.33-2.3ZM982.24,785.1l.19-24.86-.04-24.45-.27-101.72c-.02-6.29-.49-13.1-2.51-18.77-4.31-12.1-11.26-22.26-17.66-33.28l-23.44-40.32c-16.72-35.55-45.04-48.59-51.62-60.42l-25.45-45.74-51.05-97.77-20.68,12.38,19.07,37.93,11.11,28.8c2.77,7.19,2.25,15.41,2.72,23.51l11.45,199.67,19.71,155.87,28.24.83,27.02.15,13,1.32,39.02-.29c11.88-.09,21.11-2.67,21.19-12.86ZM521.04,621.47l-5.15-43.67-46.15.2,1.15,68.04,53.26-.78-3.11-23.79ZM464.83,760.26l22.36-15.16,16.34-6.53c7.44-2.97,15.25-3.35,23.61-3.78.57-28.97-.62-57.33-2.53-86.54l-26.59.63-27.11.08.62,23.49.71,27.51c.3,11.54-1.75,21.83-7.76,31.54-3.72,6.01-6.7,12.04-11.9,17.72l12.24,11.05ZM540.37,896.27l51.22-41.91-54.47-42.61-6.3-17.41-2.28-25.93-1.49-30.58c-12.71-.09-24.3,3.5-35.57,8.87,1.55,13.8,1.27,27.78-3.73,40.16l20.23,24.17,10.83,52.12,5.59,13.46,15.98,19.67ZM489.14,759.5c.09-3.71,1.67-7.1-.63-10.39-.52-.75-2.95-.18-3.02,1.16l-1.31,24.88c-.16,3.08-2.66,6.01,1.07,8.5,3.81-7.59,3.66-15.25,3.88-24.15ZM480.33,777.9c2.82-9.13,1.68-16.46,1.89-25.65l-15.88,10.55,13.99,15.1ZM435.94,868.43l25.95-36.71,16.46-47.65-15.9-18.1-11.98,11.47c-5.78,5.53-10.7,11.11-15.41,17.69l-33.91,47.37,34.8,25.93ZM469.4,828.2l14-38.03c.25-.69-2.03-2.67-2.6-2.23l-16.63,45.21-25.16,38.1c11.22-13.62,22.81-26.8,30.39-43.05ZM509.88,923.51l26.28-23.93-15.49-19.31-7.08-17.69-10.15-48.93-17.59-20.75-7.18,18.76-7.08,19.99c-8.11,15.06-18.85,27.69-29.54,41.19l34.43,25.65,33.39,25.01ZM903,801.59l-20.01.07-27.8-.12c5.77,4.71,10.78,7.58,14.09,13.5l11.52-2.26,22.21-11.19ZM905.17,913.99l55.49-18.21,54.47-13.68,26.62-5.41c6.69-11.36,12.99-22.31,21.67-32.57l-89.65-36.81c-3.02-.7-5.45-2.86-7.81-4.29l-49.9.15c-3.58.01-7.59,1.69-10.68,3.2l-22.81,11.16-10.95,2.48,9.19,27.17,5.68,18.37,16.67,42.29c.76,1.93.03,4.96,2,6.15ZM695.95,966.61l41.1,44.04,47.09-40.85c-2.56-6.6-4.19-12.71-4.26-19.85l-8.11-77.96-10.17-64.84-73.52.24-29.84,7.74c-21.83,11.47-41.18,25.15-60.56,41.2l31.33,28.66,21.74,23.64-8,12.98,32.72,22.98,20.48,22.01ZM853.08,931.65l43.4-14.72-21.28-60.03-13.43-39.43-13-9.56-84.07-.17c6.16,30.38,9.55,59.7,12.65,90.01l6.1,59.71,3.33,10.69,37.49-23.92,28.81-12.58ZM1080.09,856.52c-4.5-4.15-7.56-8.72-13.47-10.99-8.25,8.86-14.4,18.96-20.56,30.23l38.78-6.8-4.75-12.44ZM607.01,954.52l13.9-20.59,20.12-31.99-21.03-20.94-24.89-22.91-27.39,21.6-24.3,20.53,11.87,14.5,19.86,24.18,20.66,25.57,11.2-9.94ZM492.15,942.19l13.57-14.39-31.38-24.15-35.47-26.82-37.12,43.81,12.18,10.55,51.25,42.1,26.98-31.1ZM1067.62,917.91l.39-17.92c.14-6.18-.29-11.92-2.24-18.01l-26.31,4.49-4.6,30.76,32.76.68ZM944.36,946.24l40.62-12.15,45.03-4.02,6.19-42.77-62.97,14.77-30,9.19-38.56,13.09,16.92,32.83,22.77-10.93ZM591.88,967.86l-20.15-24.59-11.1-14.97-21.23-24.69-25.81,23.29,33.63,29.84,26.63,27.78c5.52-6.59,11.13-11.37,18.03-16.67ZM640.64,918.67l5.74-9.28c.78-1.25-1.7-3.94-3.56-4.54l-6.87,11.45c-.78,1.3,3.69,3.97,4.68,2.37ZM602.11,969.89c4.13-3.27,8.95-5.29,11.59-9.16l12.57-18.42,11.81-19.29c-1.02-1.71-3.09-3.04-4.74-2.77l-12.86,20.19-11.87,17.2-10.11,8.92c-1.11.98,2.01,4.6,3.6,3.33ZM434.7,1010.4l28.67-34.66-47.81-39.28-16.71-13.89c-8.47,7.43-13.95,17.97-14.06,29.39-.05,5.98.17,11.18-2.21,17.1l29.95,24.39,22.17,16.95ZM909.58,963.13l9.14-4.98-17.05-33.15-43.57,15.67,19.58,41.12,31.89-18.67ZM579.64,989.86l16.22-15.25c.67-.63-.77-3.46-2.11-3.93l-17.4,15.89c1.13,1.64,1.78,2.29,3.3,3.29Z"/>
  <path class="cls-7" d="M1831,651v55.36s-26.98,65.51-26.98,65.51l-31.45,77.66c-4.37,10.79-6.84,20.75-6.8,32.54l.12,38.9c.03,9.27-6.23,17.17-10.74,24.13-2.6.19-4.83-.9-7.25-2.03l-27.7-9.22-44.13-6.08,7.47-75.17,5.63-60.56,3.79-26.96.31-58.07.95-32.01.78-47.71,22.05-1,25.83,2.97,61.4,14.48,26.75,7.26Z"/>
  <path class="cls-7" d="M505,0c.35,13.29,3.24,26.28,5.21,39.87l3.41,23.56,2.19,26.59c-.56,19.56-3.89,38.36-6.75,57.04-1.94.58-3.57-.01-5.54-.57l-34.18-9.7c-16.13-4.58-31.5-9.81-47.1-15.98l-13.29-2.7-37.08-13.92-27.3-8.76-52.02-15.13c-4.58-1.33-7.95-3.8-12.75-5.32l-99.3-31.37c-8.08-2.55-15.09-5.6-22.77-7.56l.34-15.91L163.63,0h341.38Z"/>
  <path class="cls-7" d="M1196,0l-2.07,23.05c-1.03,11.39-1.85,22.49-.73,33.93.58,5.91,4.08,10.94,6.79,16.07l15.87,47.13,33.4,39.83-91.77-.47-30.58-.55-84.18-.22c-9.27-3.78-14.54-11.51-17.73-20.91l-16.68-49.32-21.3-54.73c-2.07-11.55-1.19-22.84.97-33.81h208Z"/>
  <path class="cls-5" d="M153.73,47.18l.78,35.64-5.07,22.64c-.98,4.36-3.06,8.89-5.4,12.61l-19.72,31.33-46.67,82.17-19.56,63.47-9.55,24.52-12.61,23.28-14.05,24.09-19.57,29.5c-.56.85-1.84.8-2.3-.02V136c4.1-4.64,4.6-14.62,9.51-22.74,1.85-3.05,16.33-8.35,19.49-18.02l7.95-24.32c3.86-7.65,10.74-13.3,13.43-21.5l6.3-19.22c.25-.78-.5-3.31.75-3.51.64-.1,1.62.97,2.72,1.1l24.83,3.07,34.26,6.83,34.49,9.49Z"/>
  <path class="cls-7" d="M1493.29.02l-.86,29.07-1.35,25.98,2.34,85.27c.17,6.3,1.26,11.91.01,18.64l-57.49.12-106.25.33-21.6.16,2.48-10.49-3.2-36.02c.6-9.86,4.72-18.89,9.22-27.48l17.51-33.42,5.79-24.26c1.23-5.14,5.71-8.34,9.88-11.17L1374,0l119.29.02Z"/>
  <path class="cls-7" d="M678,0c.03,3.16,1.43,6,2.72,9.39l27.58,72.29c1.45,3.79,1.91,7.58,4.46,11.12-20.59,12.43-41.21,25-61.39,39.62l-58.09,42.13c.1-.57.13-1.21-.13-1.87-.39-1.02-1.52-.72-2.68-1.05l-77.53-22.29c3.29-19.75,5.71-39.17,7.31-59.3l-2.25-25.15-3.43-23.75c-2.03-14.04-5.13-27.43-5.04-41.15h168.45Z"/>
  <path class="cls-7" d="M1363,0c1.05,2.31.07,3.6-1.96,5.07l-18.57,13.45c-2.49,1.8-4.73,5.35-5.44,8.35l-5.84,24.41-17.49,33.43c-4.79,9.15-10.15,18.77-9.24,29.04l3.09,35.11c0,3.51-2.03,7.24-3,10.71l-48.84.34-35.24-43.19-7.79-21.47-8.37-24.66c.59-7.7-2.39-14.83-6.68-21.24-.95-4.74-.16-9.43.28-14.32L1201,0h162Z"/>
  <path class="cls-7" d="M979,0l-2.15,17.99-.23,19.8-3.92,9.96c-9.56,4.08-17.29,9.08-25.02,16.04-13.05,11.75-27.16,23.38-35.36,39.21-4.6,8.87-2.43,20.11-3.47,29.89-11.39,7.25-22.97,13.96-33.58,22.29l-8.28,9.05c-22.76,4.14-44.82,10.01-66.06,18.39l10.12-49.62,1.96-20.04c1.53-7.89,3.68-15.7,8.18-22.92l12.2-19.56,9.78-21.46c5.47-12,16.89-22.1,28.57-28.22L911,0h68Z"/>
  <path class="cls-7" d="M1831,26.51v127.49s-24.99.87-24.99.87l-51.01,3.2-42,1.15-29.02.36-25.25-.14h-25.19s-57.03-.47-57.03-.47c2.02-4.62,4.14-6.54,6.46-9.59l14.97,2.53c4.02.68,6.94-.97,10.11-2.92l58.08-35.77,55.99-31.07,41.78-23.32,58.11-31.76c3.11-1.7,5.83-2.76,8.97-.58Z"/>
  <path class="cls-5" d="M83.84,586.02l-45.01-21.85L0,545.11v-137.11c9.39-12.86,19.04-25.61,27.19-39.75l9.9-17.19c.57-.99,1.31-1.65,1.91-2.02l40.93,101.97c2.61,6.51,5.41,11.98,7.67,18.56,5.63,16.44,11.61,32.33,18.5,48.25,1.11,2.57,2.82,4.47,4.83,6.27l-8.97,21.88c-5.39,13.15-9.94,26.14-16.05,38.93-.4.83-1.55,1.15-2.06,1.13Z"/>
  <path class="cls-2" d="M143.36,891.92l-14.3,16.28c.07-.83.21-1.78-.14-2.49-.48-1-1.76-1.12-3.03-1.64l-66.01-26.93L0,854v-4.39s26.87-56.72,26.87-56.72l19.26-42.87c1.59-.51,2.84.41,4.57,1.35l45.96,24.92,35.94,19.15,6.07,4.65c5.13,3.93,5.18,8.35,5.55,13.97l1.06,15.94,4.59,30.02c.66,4.33-.39,9.75-2.42,13.51l-8.38,15.58c-.75,1.39.76,2.81,1.57,2.79l2.72.03Z"/>
  <path class="cls-2" d="M127.42,910.04l-17.39,20.05-45.33,54.51-20.56,28.39H0v-151l36.87,14.1,45.75,17.22,37.98,16.11c2.54,1.08,4.34,2.05,6.82.6Z"/>
  <path class="cls-7" d="M1460,1013h-148.27c.16-3.95,1.75-7.81,3.69-11.62l10.76-21.13c1.92-3.77,3.74-8.88,3.73-13.23l-.03-34.98,20.21.84,113.74,7.33-1.05,24.83-2.79,47.96Z"/>
  <path class="cls-2" d="M198.47,1012.99H53.74c.09-1.53.86-2.83,1.94-4.3l20.81-28.33,58.29-66.59c.65,1.14,1.41,2.1,2.85,2.72l85.83,37.08-24.99,59.42Z"/>
  <polygon class="cls-7" points="1636.45 1012.99 1467.75 1012.99 1468.81 992.02 1471.67 940.99 1539.93 948.23 1585.01 955.18 1603.74 949.99 1610.72 967.33 1632.32 999.62 1639.04 1009.96 1636.45 1012.99"/>
  <path class="cls-7" d="M1831,958l-32.75-4.3-37.51-3.91,6.82-13.23c2.01-3.9,3.91-8.56,4.79-12.93,3.05-15.19-3.95-43.82,2.46-60.16l19.96-50.87,36.23-84.03v229.43Z"/>
  <path class="cls-7" d="M1149.38,920.68l8.68,39.6,14.29,48.4c.49,1.66.87,2.96.65,4.32h-102.29s-.16-27.62-.16-27.62l-.25-64.53,36.7-.23c7.81-.05,15.31-1.31,23.08.23l19.3-.18Z"/>
  <path class="cls-6" d="M1830.98,158.4v8.99c-1.78-.97-3.61-.8-6.05-.68l-92.84,4.47-43.19.1-116.7.38-7.36-.36-19.95-.53-108.77.05-14.22.68-111.86.41-91.67.35-81.05.92c-4.18.05-7.43-.09-11.69.01l-49.4,1.19c-3.03-2.66-6.5-2.27-9.43-.11l-51.9-1.59-112.82,1.52-20.87,1.4-25.32,5.15c-9.63,1.96-18.62,3.34-28.05,6.1l-15.75,4.61-2.88-7.11,28.4-8.65,34.38-6.69c13.24-3.54,26.22-3.87,40.04-3.94l65.9-.33,11.17.98,16.29-.05c-1.74-.51-2.91-.45-3.41-1.66l64.92.25c3.01,1.98,6.52,2.67,9.39-.04l49.41-.28c3.43,3.14,8.24,3.21,11.71.06l88.5,1.25,13.1,1.03,35.71-.57,108.32-1.54,165.35-.53,128.56-.21,90.45-1.75,50.57-2.6c4.61-.24,9.05.5,13-.68Z"/>
  <polygon class="cls-7" points="1235.56 1012.98 1180.63 1012.98 1169.68 975.22 1156.75 919.27 1170.12 917.56 1244.37 925.21 1238.63 1003.43 1235.56 1012.98"/>
  <path class="cls-7" d="M733,1013h-98.32s-31.54-39.56-31.54-39.56l12.86-10.42,11.36-16.63,13.74-22.14,32.68,22.95,13.24,13.86,45.63,49.34c.73.79.49,2.11.35,2.6Z"/>
  <path class="cls-7" d="M1008.56,1012.98h-58.92s-26.73-52.97-26.73-52.97c13.52-7.57,26.82-12.82,41.17-16.96l20.21-5.82,45-4.13-2.06,15.22-16.6,57.22c-.79,2.73-1.76,5-2.08,7.44Z"/>
  <path class="cls-7" d="M543,1013h-103.31c.55-1.35,1.38-2.51,2.5-3.85l35.02-41.91,32.37-36.32,15.31,12.27,45.12,44.82-27.02,24.98Z"/>
  <path class="cls-7" d="M1302,1013h-61l2.58-8.47c.63-26.52,2.31-52.59,5.73-78.75l70.91,5.36c-1.24,6.09-1.98,11.91-.28,18.01l.07,15.85c.05,11.8-15.73,29.8-18.01,47.99Z"/>
  <polygon class="cls-7" points="1831 963 1831 1013 1723.04 1013 1757.25 954.66 1813.96 960.86 1831 963"/>
  <path class="cls-7" d="M83.26,590.41l-16.17,32.66c-4.22,8.53-5.82,17.06-6.88,26.05L0,621v-70l39.14,18.85,44.11,20.56Z"/>
  <path class="cls-7" d="M59.14,658.15l-1.89,38.85c-.46,9.44-.56,18.66-3.63,27.57l-6.32,12.87-41.4-22.25c-2.08-1.12-3.77-2.43-5.88-2.66v-82.86c.94.29,2.11.34,3.38.97l55.74,27.51Z"/>
  <polygon class="cls-5" points="1068 1013 1011.66 1012.99 1029.82 949.94 1034.73 919.94 1067.92 920.7 1067.2 951 1067.54 978.27 1068 1013"/>
  <path class="cls-7" d="M750,0c-.24,1.58,1.44,2.15,2.03,3.2,1.98,3.57,5.15,8.96,4.33,13.76l-4.77,27.71c-1.37,7.98-6.46,15.22-11.21,21.92-5.82,8.2-14.65,13.71-22.6,19.55l-24.2-62.68L685,0h65Z"/>
  <path class="cls-7" d="M0,124V12.7s29.23,8.05,29.23,8.05l23.62,5.35c.77.93.86,3.73.45,4.89l-6.32,18.05-13.33,21.44-8.05,24.09c-3.7,7.66-11.67,11.2-18.16,15.87C3.02,115.75,3.62,124.29,0,124Z"/>
  <path class="cls-8" d="M1737.22,974.17l-22.68,38.82h-68.55c-.22-.76-1.02-2.67-.78-3.85l25.15-22.83,2.88-29.74,47.59,6.36,16.38,11.23Z"/>
  <path class="cls-7" d="M824.58,1012.99l-6.98-.02-25.6-35.89c9.43-7.34,18.3-13.39,28.31-18.75,11.06-7.19,22.83-12.31,35.15-16.54l19.57,41.6-50.45,29.59Z"/>
  <path class="cls-5" d="M158.27,0c.34,5.95-4.02,13.19-4.18,19.04l-.42,14.84-32.97-8.35-46.63-7.69-16.75-.29L0,3V0h158.27Z"/>
  <path class="cls-7" d="M0,839v-118.3c2.28.34,4.19,1.66,6.46,2.91l37.53,20.54L.93,838.52l-.93.48Z"/>
  <path class="cls-7" d="M274,1013l-55.37-.03c.2-1.54.64-3.13,1.37-4.95l18.8-47.17,47.51,13.02-12.31,39.14Z"/>
  <path class="cls-6" d="M1830.99,728.57l-36.23,84.03-19.96,50.87c-6.41,16.35.58,44.97-2.46,60.16-.88,4.37-2.78,9.02-4.79,12.93l-6.82,13.23-3.49,4.87-34.21,58.34h-8.49s22.68-38.83,22.68-38.83l1.87-3.19,11.32-18.6,4.72-7.28c4.52-6.97,10.77-14.86,10.74-24.13l-.12-38.9c-.04-11.8,2.43-21.76,6.8-32.54l31.45-77.66,26.99-65.51v22.21Z"/>
  <path class="cls-7" d="M374.61,1012.97l-13.1.02-34.47-27.98-6.11-4.1c0-1.35,0-3.47.59-5.36l9.22-29.62,37.7,29.55,19.32,15.39-10.97,17.92c-.91,1.48-1.84,2.66-2.18,4.17Z"/>
  <path class="cls-9" d="M153.66,33.88l.06,13.3-34.49-9.49-34.26-6.83-24.83-3.07c-1.1-.14-2.08-1.21-2.72-1.1-1.25.2-.49,2.73-.75,3.51l-6.3,19.22c-2.69,8.2-9.57,13.85-13.43,21.5l-7.95,24.32c-3.16,9.67-17.64,14.97-19.49,18.02C4.6,121.39,4.1,131.37,0,136v-12c3.62.29,3.02-8.25,7.44-13.55,6.49-4.67,14.46-8.21,18.16-15.87l8.05-24.09,13.33-21.44,6.32-18.05c.41-1.16.32-3.96-.45-4.89l-23.62-5.35L0,12.7V3s57.31,14.54,57.31,14.54l16.75.29,46.63,7.69,32.97,8.35Z"/>
  <path class="cls-7" d="M946,1013l-53.37-.03-13.66-28.47,41.1-23.51,23.43,45.44c1.2,2.34,2.91,4.13,2.5,6.57Z"/>
  <path class="cls-1" d="M245.03,873.04c.45.06,1.98-.19,1.8-.52l-.7-1.85,10.5,8.27-19.73,52.04-34.74,82.01h-3.68s24.99-59.42,24.99-59.42l-85.83-37.08c-1.45-.62-2.2-1.58-2.85-2.72l3.72-4.1,2.5.33,1,.09c3.64,3.02,8.34,3.95,13.03,5.97l60.71,26.12,10.39,4.21c3.51-3.28,2.85-7.95,4.42-11.95l9.53-24.32,10.44-30.22-15.53-2.84-38.02,2.99c-10.06.79-18.85,5.23-26.66,11.23l-15.32,11.77c-1.36-.27-4.12-1.88-5.01-1.01.08-.44.13-1-.06-1.4-.17-.37-.67-.68-1.28-.52l3.99-4.25c.47.79,1.25,1.06,1.81.91.47-.13,1.04-.3,1.52-.77l6.47-6.39c.69.5,2.13.57,2.54-.1.22-.36.01-1.49-.16-1.87.49-.41.98-1.66,1.99-1.44,2.6.56,13.47-9.28,23.2-10.18l33.04-3.07c2.72-.25,5.56.57,6.96-1.75l15.04,1.85Z"/>
  <path class="cls-1" d="M327.17,941.68l-33.59-29.27-7.7-4.29c-2.85-3.04-6.46-5.14-10.39-6.61-5-1.87-10.37.46-12.54,5.6l-18.01,42.83-4.01,5.27c4.01,2.4,7.49,3.26,11.52,4.38l53.88,15c3.67,1.02,6.74,2.76,10.28,2.68l-2.01,5.52-25.48-7.88-10.3,32.92c-.59,1.9-1.1,3.52-1.23,5.12l-3.61.04,12.31-39.14-47.51-13.02-18.8,47.17c-.73,1.83-1.17,3.42-1.37,4.95l-7.35.03,12.03-27.67,14.97-32,20.17-48.88c.97-2.34,4.02-4.44,2.74-7.02-1.42-2.87.35-6.33,3.41-8.15-.07-1.4-1.14-2.48.35-4.36,3.25,3.84,7.02,5.22,10.29,7.82l17.32,13.73c3.18-.17,4.8,1.9,4.77,4.93l31.19,25.87c.6,1.24-.88,3.74-1.35,4.41Z"/>
  <path class="cls-3" d="M988,0c-2.16,10.97-3.05,22.26-.97,33.81l21.3,54.73,16.68,49.32c3.18,9.41,8.46,17.13,17.73,20.91-2.6.52-5.14.16-7.63.17-5.77-4.47-10.31-10.34-12.63-17.23-2.52,8.57-2.37,10.53,2.22,17.3-2.76.02-4.98-.11-6.18-3.37-1.75,3.58-4.13,3.39-6.65,3.38,1.93-3.12,5.14-6.69,4.18-10.93l-3.71-16.51c-1.55,11.23-4.42,20.65-12.51,27.37-2.52-.01-5.28,1.23-7.69.17,6.02-2.96,11.31-8.34,13.6-15.52,2.69-8.43,4.91-18.39,2.68-27.21l-7.05-27.94-16.92-41.78c-1.04-2.58-2.2-5.25-2.26-7.67l-.48-19.03L984.41.04l3.6-.03ZM1018.42,129.61l-6.4-17.8,6.05,28.49c1.84-3.59,1.15-7.15.35-10.69Z"/>
  <path class="cls-7" d="M814,1013h-63c-.16-1.77,1.18-2.33,2.54-3.49l36-30.51,24.46,34Z"/>
  <path class="cls-7" d="M314.62,982.79l-9.02,30.18h-27.99c.13-1.61.63-3.24,1.23-5.13l10.3-32.92,25.48,7.88Z"/>
  <path class="cls-1" d="M129.05,908.2l-1.63,1.85c-2.48,1.45-4.28.48-6.82-.6l-37.98-16.11-45.75-17.22L0,862v-8l59.88,23.14,66.01,26.93c1.27.52,2.55.64,3.03,1.64.34.72.21,1.67.14,2.49Z"/>
  <path class="cls-7" d="M879,0l-23.68,10.26c-8.53,3.56-20.49,4.69-29.2,2.46l-23.68-6.05-26.44-2.77c-4.21-.44-8.18-1.28-11-3.9h114Z"/>
  <path class="cls-7" d="M889,1013h-56c-.16-1.05.29-1.78,1.5-2.49l41.77-24.34,10.75,20.83c1.07,2.08,2.18,3.94,1.98,6Z"/>
  <path class="cls-3" d="M509.55,0c-.09,13.72,3.01,27.1,5.04,41.15l3.43,23.75,2.25,25.15c-1.61,20.13-4.02,39.55-7.31,59.3-1.58-.46-2.95-.3-4.58.19l.7-2.47c2.85-18.68,6.19-37.48,6.75-57.04l-2.19-26.59-3.41-23.56c-1.97-13.59-4.86-26.58-5.21-39.87h4.55Z"/>
  <path class="cls-7" d="M352,1013l-41.39-.04c.09-1.3.2-2.8.73-4.48l7.24-22.69c1.97.67,3.72,1.8,5.48,3.19l26.88,21.15c1.07.84,1.3,1.98,1.07,2.87Z"/>
  <path class="cls-7" d="M602.66,1012.99h-2.05c.49-.32.55-1.91-.12-2.4-7.26-5.33-12.93-11.64-18.91-18.41l17.39-15.68,14.15,17.23-10.46,19.25Z"/>
  <path class="cls-4" d="M419,1013h-6c.09-.46.09-1.75-.61-2.32l-22.15-17.86-10.17,16.29c-.84,1.34-1.22,2.61-1.07,3.88l-4.4-.02c.33-1.52,1.27-2.69,2.18-4.17l10.97-17.92-19.32-15.39-37.7-29.55c.54-1.72.57-3.84,2.04-5.18l83.47,68.86c1.48,1.22,2.55,1.82,2.76,3.38Z"/>
  <path class="cls-1" d="M60.2,649.12l-1.07,9.03-55.74-27.51c-1.27-.63-2.43-.68-3.37-.97l-.03-8.67,60.2,28.12Z"/>
  <path class="cls-9" d="M83.84,586.02c.99,1.76.11,3-.58,4.39l-44.11-20.56L0,551v-5.89l38.83,19.07,45.01,21.85Z"/>
  <path class="cls-4" d="M762.39.01l7.6,7.02,9.73,10.21,13.05,18.02c1.17,1.61,1.53,4.19,3.42,4.82-.05.57-.21,1.61.07,2.24s1.04.95,1.76.6c-.77.39-.87,2.71-.87,3.25-.14.19-.38.25-.59.23-1.83-.23-4.56.5-6.22,1.33-.17-1.48-.88-2.8-2.25-3.39-1.55-4.73-4.17-9.91-8.1-13.06-.39-2.66-2.55-4.21-3.84-6.13-1.17-1.74-2.01-3.7-3.85-5.46l-10.2-9.72-4.03-2.96c-2.18-1.6-3.36-4.12-6.04-3.8-.58-1.05-2.27-1.62-2.03-3.2h12.39Z"/>
  <path class="cls-9" d="M39,349.04c-.59.37-1.33,1.03-1.91,2.02l-9.9,17.19c-8.15,14.14-17.8,26.9-27.19,39.75v-11.59c.45.82,1.74.86,2.3.02l19.57-29.5,14.05-24.09c1.68,1.89,2.24,4.13,3.07,6.2Z"/>
  <path class="cls-7" d="M413,1013h-34c-.15-1.26.23-2.53,1.07-3.88l10.17-16.29,22.15,17.86c.71.57.7,1.85.61,2.32Z"/>
  <polygon class="cls-1" points="1831 958 1831 963 1813.96 960.86 1757.25 954.66 1760.73 949.79 1798.25 953.7 1831 958"/>
  <path class="cls-2" d="M1307.68,1012.99l-2.05-.02c1.29-10.03,5.65-19.41,10.86-28.52,13.19-23.08,2.14-36.21,6.71-52.45.24-.84,2.33-.95,2.89-.45.68.6.99,2.13.99,3.4l.04,30.74c0,4.4-1.97,9.72-3.93,13.64l-4.3,8.61c-4.21,8.43-8.58,16.27-11.22,25.04Z"/>
  <path class="cls-7" d="M594,1013l-34.4-.03c.46-1.24,1.27-1.98,2.39-2.97l15.62-13.74,14.42,13.74c1.06,1.01,1.92,1.73,1.97,2.99Z"/>
  <path class="cls-9" d="M361.5,1013h-9.5c.24-.89,0-2.03-1.07-2.87l-26.88-21.15c-1.76-1.38-3.5-2.52-5.48-3.19.56-1.74.53-3.77,2.33-4.87l6.11,4.1,34.47,27.98Z"/>
  <path class="cls-7" d="M628,1013l-19.42-.02c1.82-5.46,4.91-10.15,8.06-15.17l11.36,15.19Z"/>
  <path class="cls-2" d="M554.59,1012.94h-5.99c.36-1.49,1.29-2.5,2.67-3.72l20.62-18.24c1.29.21,2.83,1.85,2.89,2.77l-20.19,19.19Z"/>
  <path class="cls-7" d="M974.68,558.12c-7.25-9.87-11.62-21.02-17.62-32.27l-45.85-86.01-25.54-47.54-15.26-25.92-53.96-94.74-17.16-34.66-1.76-22.85,1.62-14.37,28.95-7.54,40.85-9.25c8.9-2.01,16.94-2.65,26.09-3.23l15-.95,27.95-.84,26.45-.49,49.07.09,29.86.97,24.6.7.13,164.6c0,8.19-.11,16.1,2.73,23.38l9.25,23.74,13.84,23.17,28.93,37.94,11.62,16.46-49.82,27.16-60.1,33.84-49.89,28.58Z"/>
  <path class="cls-7" d="M1358.45,454.11c-9.85,14.18-17.94,29.16-30.32,41.02l-46.4,44.48c-3.41,3.27-5.42,6.49-7.61,11.1l-13.51-18.3-21.05-25.98-39.18-51.78-35.1-48.98c-10.34-14.43-20.08-28.56-26.89-45.07l-2.29-22.74c-1.62-53.46-1.63-106.18.09-159.67l97.71-.43,31.14-.61,15.02,32.83,8.32,14.6,26.45,18.64c19.18,13.52,34.63,30.25,51.53,46.23l18.59,17.58,12.34,12.11-28.62,87.24-7.57,38.67c-.69,3.52-.26,5.6-2.65,9.05Z"/>
  <path class="cls-7" d="M1482.03,661.72l-72.42-5.34c-15.22-1.12-30.15-1.36-44.93-5.32-10.77-2.88-19.31-11.02-27.17-18.59l-18.8-22.22-40.89-54.48c1.12-5.02,3.77-8.95,7.53-12.55l46.93-44.97c12.56-12.04,20.8-27.24,30.51-41.42,2.73-3.99,2.66-7.17,3.54-11.74l6.96-36.08,19.56-60.14,29.25,8.82,47.09,4.95,20.08.19-1.83,71.48-.96,38.11-.97,39.15-1.04,47.97-.47,31.43-1.15,34.99-.83,35.73Z"/>
  <path class="cls-7" d="M1403.25,318.26l-17.66-17.82-16.08-15.04-30.56-29.32c-14.11-13.54-29.87-24.03-46.41-34.62l-7.59-13.36-14-31.09,75.54-.43,116.41-.41,30.34-1.02-.74,45.46-1.09,58.75-.84,33.25-.8,47.34-14.8.27-53.61-5.78-27.49-8.32,9.4-27.86Z"/>
  <path class="cls-7" d="M998.75,602.96c-.94-.48-2.14-.97-3.03-2.74l-19.74-39.63,74.85-42.61,24.49-13.7,60.67-33.15,40.55,54.29,18.15,18.9,60.19,50.49-22.12,31.86c-7.32,10.53-16.23,18.86-25.8,27.33l-37.24,23.01-20.47-37.25-34.89-63.03-23.47-32.02-72.46,43.64-19.66,14.61Z"/>
  <path class="cls-7" d="M1586.44,821.02l-.45-26.06,3.2-27.57c1.98-4.65,1.54-9.45,2.12-14.26,1.08-9.08,2.58-17.52,1.28-26.7l-30.19-43.8-16.26-24.17,21.84-3.54,70.36-17.72c17.86-4.5,35.06-9.28,53.59-9.23,1.49,7.09.64,13.97.38,20.98l-1.08,29.03-.6,35.81-.67,53.18-3.71,25.07-4.5,50.59-95.29-21.6Z"/>
  <path class="cls-7" d="M1096.69,772.45l-15.86-22.43-43.49-65.2-19.36-40.94-18.2-36.61c-.03-1.85,1.26-2.58,2.81-3.71l17.98-13.05,69.39-41.82,22.5,30.06,34.52,63.22,20.17,36.93-23.47,31.8-35.82,50.08-11.17,11.65Z"/>
  <path class="cls-5" d="M1374.44,782.16l-.65,14.96-41.96-5.86-60.73-8.32.8-19.01c.19-39.75.28-78.85,3.54-118.06,3.27-10.17,6.45-19.27,13.79-26.66l16.18-13.3,21.06,25.62,14.08,13.85,17.47,11.46,19.14,4.84,10.16.93-2.58,33.4-1.01,23.07-9.31,63.08Z"/>
  <path class="cls-7" d="M1181.75,442.86l-40.23,22-38.78-53.57c-10.05-13.88-17.46-27.89-23.1-44-3.46-9.88-4.07-19.69-4.01-30.35l.18-37.94-.85-76.96-.6-43.08,52.69-.34.43,52.69-.44,109.39,4.52,22.83,15.46,30.63,34.72,48.7Z"/>
  <path class="cls-7" d="M1540.52,816.13l-31.49-.89c-9.56-.27-18.66-.3-28.2-2.36l2.13-46.9,5.07-73.93,2.09-22.01,14.92-3.44c4.33-1,9.73,1.67,14.13-.42,7.04-3.35,13.56-6.56,21.76-6.23l19.34,28.8,27.27,39.71c1.96,6.97-.4,15.15-.94,22.19-.46,5.9-.73,11.13-2.36,16.71l-2.89,23.87.07,28.92c-13.81-3.14-26.72-3.63-40.9-4.03Z"/>
  <path class="cls-7" d="M1258.27,781.25c-11.51-.44-22.06-2.02-32.86-4.63l-29.48-11.63c-21.91-8.64-43.54-15.92-65.6-26.04l40.72-56.9,30.03-18c11.05-7.12,20.49-15.93,28.8-26.14,6.01-6.1,10.42-12.82,15.17-19.87l13.57-20.15,22.75,19.09c-7.76,9.15-13.16,24.12-13.66,35.96l-2.94,69.02-.9,54.62-5.63,4.67Z"/>
  <polygon class="cls-7" points="1425.14 804.37 1379.61 797.68 1379.99 782.98 1387.1 742.91 1393.11 662.65 1481.38 670.45 1471.78 811.67 1425.14 804.37"/>
  <path class="cls-7" d="M1466.11,902.18l-128.38-18.52c1.53-14.78,4.1-29.21,8.25-43.52,3.38-11.66,9.68-20.53,19.05-28.15l13.97-11.36,37.97,5.38,54.6,8.73-5.48,87.44Z"/>
  <path class="cls-7" d="M1582.06,834.1l7.03,61.74,5.24,21.61-120.63-14.88,4.23-50.51,2.5-36.32c10.84,2.21,20.36,2.19,30.57,2.4l37.99.78c11.22.37,21.79,2,32.71,4.24l.36,10.94Z"/>
  <path class="cls-7" d="M992.14,159.13c-1.42.7-3.11.74-5.17.74l-89.47.37-21.75,2.62c2.96-5.51,8.19-7.88,13.07-11.05l25.01-16.22c.59-10.42-.67-20.96,3.14-30.81,1.81-4.67,5.91-8.8,9.2-12.71,10.9-12.92,23.43-23.76,36.94-33.9l13.32-7.63,5.78-11.54c.06,2.42,1.21,5.1,2.26,7.67l16.92,41.78,7.05,27.94c2.22,8.82.01,18.78-2.68,27.21-2.29,7.18-7.58,12.56-13.6,15.52Z"/>
  <polygon class="cls-7" points="1600.17 918.09 1593.91 894.95 1588.84 852.04 1586.93 824.25 1681.18 845.57 1673.25 927.44 1600.17 918.09"/>
  <path class="cls-7" d="M1144.43,858.89l-6.89-26.8,23.27-12.33,45.94-26.95,20.22-12.86,33.48,4.55c1.35.18,2.92.4,3.63.92,1.19.88,1.66,2.77,1.3,4.68l-12.07,63.1-2.25,13.88-38.47-8.65c-13.51-3.04-26.66-6.2-40.5-4.03l-27.66,4.48Z"/>
  <polygon class="cls-7" points="1270.41 558.82 1256.7 589.68 1199.01 541 1168.78 503.2 1143.06 467.3 1183.47 445.07 1236.09 515.74 1251.03 532.99 1270.41 558.82"/>
  <path class="cls-7" d="M1339.88,828.26c-7.5,16.98-9.33,34.67-12.11,53.32l-71.4-13.35,6.36-37.48,8.29-44.94,39.4,5.78,54.85,7.54-14.12,13.11-11.26,16.01Z"/>
  <path class="cls-7" d="M1136.08,828.98l-19.85-29.22-16.5-22.58,12.17-13.25,16.87-22.5c26.25,12.24,52.16,21.79,78.99,30.76l15.63,6.45-44.11,26.65-38.69,22.22c-1.61.92-2.86,1.86-4.51,1.47Z"/>
  <path class="cls-7" d="M804.86,119.07l-5.62,34.32-2.85,12.19-3.68,21.01-17.22,8.73-30.38-56.36-21.88-39.11c9.41-4.83,17.95-9.93,28.06-12.34,9.94-2.36,27.11,4.12,33.84,9.44l13.99,11.05,5.75,11.06Z"/>
  <path class="cls-7" d="M1156.15,915.96l-9.45-46.74c1.09-2.04,3.17-1.85,5.31-2.1l29.37-3.44,20.59,2.33,47.98,9.91-5.1,46.47-42.84-3.56-30.97-4.2-14.9,1.32Z"/>
  <path class="cls-7" d="M1463.78,937.36l-113.65-7.43-20.11-1.02c3.05-12.41,5.03-23.88,6.33-36.9l37.59,6.13,91.21,13.58-1.38,25.63Z"/>
  <polygon class="cls-7" points="1585.29 952.23 1541.58 945.42 1471.93 938.11 1473.13 912.57 1596.87 926.86 1602.76 946.89 1585.29 952.23"/>
  <polygon class="cls-7" points="1326.49 890.37 1320.49 928.27 1249.7 922.93 1254.78 876.82 1296.87 885.14 1326.49 890.37"/>
  <path class="cls-7" d="M1535.18,651.32c-1.98,1.77-5.4,1.28-8.23,1.1-6.51-.43-11.6,2.81-17.39,5.08-6.18,2.42-12.94,2.7-19.47,3.83l.87-49.36,1.01-65.93.61-25.43.8-19.87,6.2,15.55c5.3,21.72,2.11,50.32,5.94,61.33l21.59,62.11,8.07,11.59Z"/>
  <polygon class="cls-7" points="1667.92 984.62 1642.86 1007.01 1615.23 964.92 1609.26 948.75 1670.3 956.16 1667.92 984.62"/>
  <path class="cls-7" d="M1750.41,952.39l-11.32,18.6-18.23-10.62-47.18-6.82,1.46-16.73,21.46,2.67c11.12,1.38,22.39,1.24,32.9,5.17l20.91,7.74Z"/>
  <polygon class="cls-7" points="1670.71 953.2 1607.95 945.88 1602.65 927.59 1672.07 936.33 1670.71 953.2"/>
  <polygon class="cls-5" points="1285.03 612.96 1260.65 593.09 1273.91 563.54 1300.89 599.96 1285.03 612.96"/>
  <path class="cls-7" d="M1121.02,444.35l-24.94-32.35-13.75-23.11-9.4-24.78c-1.24-3.27-1.7-7.51-1.74-11.14l-.54-58.74v-50.48s.48-63.82.48-63.82c.28-.09.89.26.89.54l.43,46.09.78,124.24c.03,4.33.73,8.95,2.22,12.79l9.81,25.24,8.03,13.94,28.81,40.65.4.52c.96,1.23,2.43,1.73,2.68,4.83-2.32-.87-3.2-2.54-3.21-4.26-.03-.35-.47-.74-.96-.16Z"/>
  <path class="cls-7" d="M795.64,60.73c2.4,4.38,3.71,9.42,4.71,14.17-.33,3.55-1.95,7.15-4.25,9.75s-6.47,3.34-10.23,2.56-6.83-3.39-8.02-6.7c-3.26-9.04,7.79-15.58,17.79-19.78Z"/>
  <path class="cls-7" d="M806.17,64.91c-1.43-2.63-2.68-5.87-3.05-8.74l11.62-5.15c6.8-1.06,12.77,2.59,13.71,8.39,1.06,6.54-2.4,11.36-9.64,12.85-4.94,1.02-10.25-2.93-12.65-7.34Z"/>
  <path class="cls-2" d="M1334.89,881.5c-.25,1.88-2.03,1.23-2.73.85-1.61-.88-1.32-2.45-1.02-4.29,2.69-16.58,4.68-33.05,11.6-48.47l9.19-12.65,14.38-14.6c2.34-2.38,4.99-3.36,7.7-1.85l-17.63,14.94c-14.05,11.9-18.73,45.04-21.49,66.07Z"/>
  <path class="cls-7" d="M804.9,110.13c-1.63-3.42-3.97-6.35-7.6-8.38l-14.12-10.97c8.88,1.34,15.4-.85,18.87-7.84l3.31,16.88-.47,10.31Z"/>
  <path class="cls-7" d="M812.18,99.32c-.68-8.92-2.37-17.6-4.32-26.3,2.95.9,6.16,4.24,9.16,3.49l9.7-2.4c-5.7,8.62-10.57,16.33-14.54,25.2Z"/>
  <path class="cls-7" d="M1011.87,159.02l-12.03-.06c8.08-6.72,10.96-16.14,12.51-27.37l3.71,16.51c.95,4.24-2.25,7.81-4.18,10.93Z"/>
  <path class="cls-2" d="M1327.53,926.18c-.24,1.66-.44,2.23-1.31,2.38-.78.13-2.08.29-2.23-.26-.17-.63.08-2.45.2-3.17l5.33-34.01c1.85.12,2.89.27,3.79.64-.85,11.99-2.95,22.61-5.78,34.42Z"/>
  <path class="cls-7" d="M1035.1,158.95l-10.41.07c-4.59-6.77-4.74-8.73-2.22-17.3,2.31,6.9,6.85,12.77,12.63,17.23Z"/>
  <path class="cls-7" d="M1166.43,507.11c-.64-.36-.39-1.2.41-1.12l.84.66,1.22,1.53.64.73.83,1.02.44.53,15.33,18.96.41.48.55.56.47.44c.6.57.46,1.46-.35,1.57l-.9-1.13-.67-.67-.3-.34c-6.15-5-10.41-11.71-15.31-18.44l-.58-.79-.63-1.1-.5-.65-1.22-1.53c-.28-.36-.5-.61-.69-.71Z"/>
  <path class="cls-3" d="M808.75,190.48l-7.79,2.14c-.69-3.57,5.63-6.19,7.26-5.26,1.03.59,1.57,2.83.53,3.12Z"/>
  <path class="cls-7" d="M1146.39,480.08c-1.96-3.72-6.43-6.41-6.96-11.27,3.83,2.63,5.8,6.58,7.7,10.18-.17.57.1.9.38,1.02,1.16.49,2.23,1.22,2.93,2.89.13.3.26.52.34.61l1.01,1.13c.31.35.36,1.49-.32,1.57-.79.09-1.67-1.26-1.57-1.65l-.45-.45-2.36-3.28-.7-.75Z"/>
  <rect class="cls-7" x="1133.03" y="454.27" width="1.87" height="13.7" transform="translate(-65.34 706.45) rotate(-33.69)"/>
  <path class="cls-7" d="M801.02,53.99c-2.18.27-3.66,1.83-5.2,2.7-1.18.67-3.12,1.3-5.6,2.18,4.3-3.48,10.15-7.08,10.8-4.88Z"/>
  <path class="cls-7" d="M1125.15,450.23c1.83,2.16,3.24.74,1.08-1.08.63,1.31,1.28,1.87,1.27,1.85l.49,1.46c.06.17.5.7,1.85,1.29-1.82-2.15-3.24-.74-1.08,1.08-.63-1.31-1.27-1.87-1.26-1.86l-.5-1.49s-.53-.63-1.85-1.27Z"/>
  <circle class="cls-7" cx="1154" cy="489" r="1.11"/>
  <path class="cls-7" d="M1161.06,499.6c.54.8,1.34,0,.54-.54l1.34,1.34c-.54-.8-1.34,0-.54.54l-1.34-1.34Z"/>
  <rect class="cls-7" x="1159.15" y="496.15" width=".71" height=".71" transform="translate(-11.47 965.31) rotate(-45)"/>
  <rect class="cls-7" x="1156.15" y="492.15" width=".71" height=".71" transform="translate(-9.52 962.02) rotate(-45)"/>
  <path class="cls-7" d="M617.87,360.53l35.25,67.33c4.77,9.03,11.79,16.09,19.05,22.89,6.28,5.88,8.67,13.56,8.95,22.29l1.2,38.01,2.09,89.21v100.33s.43,101.71.43,101.71l-26.17,7.53c-14.83,6.38-28.43,14.83-41.23,24.58l-23.45,17.88-54.57-42.64-5.75-16.27c-2.07-5.86-1.25-12.17-1.75-18.44-1.25-15.51-2.18-30.32-1.87-45.99.47-23.6-.67-46.38-1.83-69.89l-2.65-25.79-13.68-113.11-37.89-.37-48.65-.9,7.98-31.75c1.68-6.68,4.79-14.33,8.97-19.96,9.76-13.13,21.13-24.61,33.12-35.72l24.85-19.13,23.15-13.88,13.25-5.93,81.2-32.01Z"/>
  <path class="cls-8" d="M721.42,319.78c1.99,6.14,4.83,12.82,10.78,16l12.34,6.6,35.84,13.47c3.43,1.29,8.39,6.25,10.03,9.61l22.71,46.28c2.44,4.98,3.24,11.57,3.57,17.34l8.3,143.8,3.82,71.29,18.56,144.3c.53,4.16,1.3,7.5-.67,11.51l-80.67.81-8.05,1.18-66.07.03-.6-40.01.42-48.29.25-100.62-.94-29.09-.64-27.38-.8-36.5-2.31-55.73c-.17-4.04-2.06-10.23-4.68-13.04l-16.88-18.04-8.76-14.33-32.26-61.15,96.7-38.05Z"/>
  <path class="cls-5" d="M257.28,716.05l-8.32,18.9c-.35-.31-1.07-.74-1.52-.68-.63.08-1.17.76-1.63,1.55l-7.33,12.64c-8.23,1.45-9.48,16.26-23.51,25.5-17.7,11.66-15.88,11.53-40.96,11.87l-34.46.86-45.53-23.64-20.17-10.76c-3.22-1.72-4.11-4.6-6.9-6.28l-14.74-8.86c4.9-8.14,7.9-16.31,8.27-25.45l1.72-43.3,1.42-7.47,14.74,4.75,36.17,13.81,17.1,5.93,38.55,8.49,87.09,22.15Z"/>
  <path class="cls-5" d="M504.66,160.91l-6.72,16.13c-8.63,17.12-17.38,33.79-23.73,51.93l-11.69,33.42c-1.25,3.59-1.44,10.71.05,14.18,2.55,4.9,7.46,9.1,12.19,12.25l-43.67,56.26-36.67,54.22-30.3,53.64-25.08,49.97-21.53,53.64-33.93,91.93c-8.12,22-16.21,43.02-25.14,64.15,0-1.21-.1-2.38-.66-3.67-.91-2.11-50.21-13.2-64.4-16.63l-58.72-14.22-48.96-17.71-21.55-8.79c.41-7.37,1.08-14.72,4.61-21.88l18.17-36.88,143.81,42.16c17.04,5.05,33.59,9.15,50.19,15.23,1.49-1.14,2.16-3.42,1.74-4.83-17.06-6.23-34.11-10.41-51.65-15.62l-141.61-42.15c6.46-13.57,11.58-27.64,17.27-42.01l9.36-23.64c-2.46-1.72-4.99-3.19-6.15-5.97-6.83-16.32-13-32.46-18.73-49.18l-6.55-15.62-43.54-108.37,11.98-22.73,10.27-26.65,18.14-60.01,42.17-74.84,23.49-37.47c2.62-4.17,5.06-8.88,6.17-13.74l5.11-22.55-.49-35.87,69.37,22.79,49.61,15.54,146.76,47.9,81.02,25.66Z"/>
  <path class="cls-7" d="M510.46,324.51l-22.66-27.28c-1.6-1.92-2.86-3.12-5.24-3.89l17-19.81,39.58-40.42,50.5-45.39,5.17-3.77c.56-.39.86.13.69.61l-.74,2.06,39.09,11.58,18.76,7.3c5.9,2.3,9.56,7.94,12.87,12.97,5.32,8.08,9.18,12.06,5.24,23.27l-30.3,13.73-68.65,32.26c-14.31,6.73-27.9,13.37-40.83,22.22l-20.49,14.55Z"/>
  <path class="cls-7" d="M768.41,198.65c-4.63,1.07-8.27,3.34-12.54,5.29l-50.05,22.93c-6.84,3.13-12.8,3.23-18.26-2.65l-13.08-17.77c-13.67-18.58-38.29-21.12-60.59-28.27-4.04-1.3-7.25-1.75-10.98-.05l30.08-23.16,58.87-40.01,20.18-12.11c.76.64,1.69,1.96,2.34,1.73l2.79-.96c1.51,1.46,2.69,3.5,3.79,5.54l34.28,63.59,13.19,25.91Z"/>
  <path class="cls-7" d="M353.05,810.97l.38-62.95c.09-14.82.52-29.15,4.04-43.44l6.81-14.89,42.49,31.54,39.39,29.61,14.07,12.86-18.47,18.07-9.28,11.77-33.79,46.98-36.44-25.73c-3.01-2.13-5.82-3.76-9.19-3.83Z"/>
  <path class="cls-2" d="M407.9,572.24l-50.94-12.64c9.12-17.69,19.4-33.83,29.68-50.96l38.93-64.91,18.98-26.32,35.13-41.72,20.98-20.03c5.08-4.85,10.05-9.39,15.88-12.78,1.18,1.53,2.28,2.77,3.04,4.62l16.56,40.5-17.16,8.01-22.42,13.62-23.14,17.87c-12.86,11.28-23.61,24.11-35.04,36.83l-9.34,20.92-21.13,87Z"/>
  <path class="cls-5" d="M506.21,326.85l-33.47,29.88-22.75,24.28-19.49,24.49-16.26,22.84-50.13,83.7c-17.16,28.66-31.67,57.61-46.69,87.38l-17.25,51.58-4.91-1.33c-.99,1.37-1.52,2.8-3.05,3.19l43.39-119.34,20.61-47.38,25.87-50.18,27.04-44.91c14.72-22.43,28.83-44.39,46-64.89l26.07-31.13,25.03,31.83Z"/>
  <path class="cls-7" d="M967.48,561.58c-3.6.94-5.92,2.85-9.41,4.65l-15.28-26.96c-7.13-12.57-13.83-24.7-24.41-34.65l-28.4-26.71-30.45-56.5-50.23-96.62-16.64-33.19,21.01-9.42,56.29,96.78,35.41,64.7,44,83.88,18.1,34.03Z"/>
  <path class="cls-7" d="M1074.33,753.85l29.7,42.56-8.96,6.58c-4.49,3.4-8.17,5.63-13.72,6.69-3.52.67-6.27,5.06-7.21,8.35l-6.04,21.03c-.31,1.09-1.32,2.08-2,2.49-1.02.62-1.76-.29-3.02-.81l-88.66-36.51c6.97-2.69,13.97-7.31,14.16-14.4l.93-33.52,40.49-1.2,44.32-1.28Z"/>
  <polygon class="cls-7" points="719.22 315.7 622.37 353.95 603.75 311.33 597.55 295.1 686.71 253.98 719.22 315.7"/>
  <path class="cls-7" d="M366.86,685.45l10.22-17.37,10.61-18.19,45.34-.03c11.81-.03,22.95-1.45,34.94-.6l.71,21.75.82,32.62c.4,15.81-8.81,30.21-19.21,43.77l-42.12-31.53-41.29-30.41Z"/>
  <path class="cls-7" d="M348.97,813.49l-1.43,52.61c-.24,8.99-2.21,17.05-4.69,25.58l-10.46,35.93-34.56-27.41-15.2-13.82c-3.62-3.29-6.8-6.78-8.71-11.57l11.82-59.86,1.27-10.85,61.96,9.39Z"/>
  <path class="cls-7" d="M1071.53,748.75l-40.53,1.45-43.37,1.34-.65-84.47-.13-36.16c-.02-5.65-.43-12.17-2.46-17.4-5.94-15.26-14.88-28.15-22.98-42.52l8.82-4.98,16.7,31.1,31.77,64.18c7.58,15.32,13.44,30.82,23.19,44.83l29.64,42.62Z"/>
  <path class="cls-7" d="M406.41,577.5l-8.1,32.91-14.16,35.78c-5.2,13.15-13.84,24-20.91,36.11l-21.42-16.04c-6.96-5.1-15.39-6.67-23.99-9.46l18.37-53.73,18.17-38.65c18.21,5.36,34.7,9.23,52.04,13.06Z"/>
  <path class="cls-7" d="M582.82,183.28l-60.93,55.55-45.29,48.15c-2.57-4.79-7.02-7.76-10.34-11.39-2.03-8.05,1.26-14.96,3.82-22.57,7.73-22.93,16.35-44.7,27.68-66.11,4.4-8.32,8.12-16.24,11.07-25l73.99,21.37Z"/>
  <path class="cls-9" d="M509.06,147.07l-.7,2.47c1.63-.49,3-.64,4.58-.19l77.53,22.29c1.16.33,2.28.03,2.68,1.05.25.66.23,1.3.13,1.87l-6.66,5.87c-.52-.9-1.97-.46-1.48.82-.52.99-1.63,1.4-2.32,2.03l-73.99-21.37c-1.29-.37-2.98-.63-4.17-1l-81.02-25.66-146.76-47.9-49.61-15.54-69.37-22.79c-.06-4.31-.29-8.59-.19-12.95,7.68,1.96,14.69,5,22.77,7.56l99.3,31.37c4.8,1.52,8.17,3.98,12.75,5.32l52.02,15.13,27.3,8.76,37.08,13.92,13.29,2.7c15.6,6.17,30.97,11.4,47.1,15.98l34.18,9.7c1.97.56,3.6,1.15,5.54.57Z"/>
  <path class="cls-1" d="M768.41,198.65l8.86,15.54-14.01,4.28-34.21,15.53,15.41,29.59,18.76,34.8c-2.02.83-4.07,1.99-6.26,2.04l-14.17-27.22-18.62-36.54-29.42,13.51,31.51,63.05-7.03,2.48-32.51-61.72-89.16,41.11,6.2,16.23,18.62,42.63-7.33,3c-.02-2.36-1.08-4.46-2.16-6.9l-22.74-51.49-21.16,10.43-30.75,17.33-18.33,12.71c-.54-.7-3.37-2.43-1.75-3.7l9.08-7.08,31.18-18.91,121.07-56.83,76.33-35.62c1.15-1.88-1.61-7.47-3.43-6.63l-66.29,30.59c.55,1.66.72,3.21.06,3.74-.55.44-1.95,1.27-2.58,1.11s-1.34-1.46-2.19-2.71l-112.49,50.81-24.79,13.38-31.02,20.97c-1.71-.82-1.93-2.78-2.64-3.64l20.49-14.55c12.93-8.85,26.52-15.5,40.83-22.22l68.65-32.26,30.3-13.73c3.94-11.21.07-15.2-5.24-23.27-3.31-5.03-6.97-10.67-12.87-12.97l-18.76-7.3-39.09-11.58.74-2.06c.17-.48-.13-1-.69-.61,2.66-1.94,5.16-4.49,8.09-5.83,3.73-1.7,6.94-1.25,10.98.05,22.31,7.15,46.92,9.69,60.59,28.27l13.08,17.77c5.47,5.88,11.42,5.78,18.26,2.65l50.05-22.93c4.27-1.96,7.91-4.23,12.54-5.29ZM765.22,206.88l-8.6,3.78c-1.22.54-.34,1.74.11,2.19,1.89,1.92,5.02-1.47,8.49-5.97Z"/>
  <path class="cls-7" d="M411.92,573.09l12.6-51.22,56.45.14,28.45.86,5.73,49.79-86.97.68c-5.8.05-11.11,1.37-16.26-.24Z"/>
  <path class="cls-5" d="M615.04,356.96l-74.91,29.52-17.11-41.49-3.11-5.96,18.33-12.71,30.75-17.33,21.16-10.43,22.74,51.49c1.08,2.44,2.14,4.54,2.16,6.9Z"/>
  <path class="cls-4" d="M516.53,342.88c-5.83,3.39-10.8,7.93-15.88,12.78l-20.98,20.03-35.13,41.72-18.98,26.32-38.93,64.91c-10.27,17.13-20.56,33.27-29.68,50.96l50.94,12.64-1.48,5.26c-17.34-3.83-33.83-7.71-52.04-13.06l-18.17,38.65-18.37,53.73c8.6,2.8,17.03,4.37,23.99,9.46l21.42,16.04c-.85,1.46-1.97,3.05-2.54,4.31l-22.46-16.87c-7.28-3.22-14.31-6.21-21.92-7.97-6.98,18.57-11.47,36.84-15.35,55.97,16.84,3.59,32.68,7.63,48.95,9.59l-.34,8.11-50.02-10.17-5.98,34.41-6.3,41.55,61.79,9.03-.1,3.2-61.96-9.39-1.27,10.85-11.82,59.86c1.91,4.79,5.09,8.27,8.71,11.57l15.2,13.82,34.56,27.41c-.35,1.19.1,3.18-1.74,3.11-1.12-.04-1.54-1.09-2.53-1.91l-61.47-50.86c2.99-8.69,5.03-16.87,6.65-25.72l7.75-42.3c4.54-34.44,10.75-67.59,17.15-101.6,3.47-18.47,8.65-36.77,14.75-54.25l18.18-52.11c11.28-24.61,21.93-48.76,36.26-71.74l65.24-104.66,39.57-51.33,12.63-12.37,28.8-23.51c2.08,1.63,2.02,3.37,2.92,4.54Z"/>
  <path class="cls-7" d="M350.26,880.25c1.99-18.5,3.02-37.04,2.67-56.22l.49-8.74,14.06,9.33,65.57,47.84-15.53,19.04-21.41,24.76-34.38-27.97-11.48-8.06Z"/>
  <polygon class="cls-8" points="349.58 735.46 349.07 810.29 287.28 801.26 293.57 759.71 299.56 725.29 349.58 735.46"/>
  <path class="cls-5" d="M142,910.09l7.97-8.06c.89-.87,3.65.74,5.01,1.01l15.32-11.77c7.81-6,16.61-10.43,26.66-11.23l38.02-2.99,15.53,2.84-10.44,30.22-9.53,24.32c-1.57,4-.91,8.67-4.42,11.95l-10.39-4.21-60.71-26.12c-4.69-2.02-9.39-2.96-13.03-5.97Z"/>
  <path class="cls-7" d="M327.17,941.68l-10.54,35.58c-3.55.08-6.62-1.66-10.28-2.68l-53.88-15c-4.03-1.12-7.51-1.97-11.52-4.38l4.01-5.27,18.01-42.83c2.16-5.14,7.54-7.46,12.54-5.6,3.92,1.47,7.53,3.57,10.39,6.61l7.7,4.29,33.59,29.27Z"/>
  <polygon class="cls-7" points="777.27 214.19 811.46 278.63 763.22 298.4 744.46 263.59 729.05 234 763.25 218.47 777.27 214.19"/>
  <path class="cls-4" d="M251.17,864.72l-2.26-7.33.77-13.61.41-16.8c1.01-.82,1.42-3.16,1.03-5.04l-4.79-23.22c-2.48-12.03-.29-24.41,3.37-36,.54-1.72-.64-3.1-1.72-3.69.05-.62-.04-1.67-.37-2.36.87-.28,2.12-2.07,3.51-1.56,9.38,5.62-3.9,21.02-.49,39.17l5.18,27.66-1.45,26.25c-.22,4.01-1.25,7.58,1.87,11.57l2.84-9.85,23.04-128.53-15.69-2.91,2.9-7.43,14.38,2.97c3.99-20,8.31-38.82,14.9-57.72l-6.19-2.74c.11-.18.28-.49-.23-.69,1.53-.39,2.06-1.83,3.05-3.19l4.91,1.33,17.25-51.58c15.02-29.77,29.53-58.72,46.69-87.38l50.13-83.7,16.26-22.84,19.49-24.49,22.75-24.28,33.47-29.88c.9,1.15,2.69,1.86,2.97,4.35-5.41,3.21-10.01,7.08-14.62,11.36l-24.38,22.62-25.85,29.15c-12.18,13.74-22.09,28.53-31.64,44.39l-52.19,86.67-21.91,41.11-17.66,36.34-21.66,63.31-7.09,24.93-10.79,58.36-13.76,82.21-9.19,39.2-7.29-6.13Z"/>
  <path class="cls-5" d="M1139.07,869.16l9.34,46.7c-.13.42-.12,1.32-.42,1.59-.63.57-1.72.64-2.99.64l-74.59-.15-.14-27.99-.95-8.7,69.75-12.09Z"/>
  <path class="cls-7" d="M443.97,578.05l.49,52.4.56,15.94-34.05.93-22.35.4,13.11-33.8,9.1-35.48c4.63.9,9.37.02,14.39-.07l18.76-.33Z"/>
  <path class="cls-7" d="M1106.2,798.86l20.68,28.28c3.5,4.78,4.43,10.7,5.77,16.31l3.67,15.39c-.33.15-.6.54-.81,1.14l-47.46,8.35c-2.03-4.82-2.31-10.16-5.79-13.58l-10.1-9.91c-.66-.65-2.91-.64-2.87-1.34.05-.85,1.18-1.7,1.47-2.71l6.15-21.73c1.48-5.24,5.52-7.04,10.44-7.95,6.68-1.24,12.33-9.66,18.87-12.25Z"/>
  <path class="cls-7" d="M360.7,686.63l-7.08,15.85-3.7,24.87c-16.26-1.97-32.1-6-48.95-9.59,3.88-19.13,8.36-37.4,15.35-55.97,7.61,1.76,14.64,4.75,21.92,7.97l22.46,16.87Z"/>
  <path class="cls-7" d="M336.66,928.54l12.47-44.55c1.22-.27,2.46.08,3.76,1.13l39.24,31.7c1.22.98,2.53,1.67,2.79,2.87.86,3.9-12.6,12.11-12.96,30.23-.12,5.71.86,10.9-2.29,16.94l-39.9-33.58c-1.78-1.5-3.18-2.46-3.12-4.74Z"/>
  <polygon class="cls-7" points="756.96 300.43 726.25 313.22 694.74 250.18 724.16 236.67 742.78 273.21 756.96 300.43"/>
  <path class="cls-5" d="M247.63,756.66l14.21-30.8,25.41-63.59,5.19-8.73,6.19,2.74c-6.59,18.9-10.91,37.72-14.9,57.72l-14.38-2.97-2.9,7.43,15.69,2.91-23.04,128.53-2.84,9.85c-3.12-3.99-2.09-7.56-1.87-11.57l1.45-26.25-5.18-27.66c-3.4-18.15,9.88-33.54.49-39.17-1.39-.51-2.64,1.27-3.51,1.56Z"/>
  <path class="cls-1" d="M258.43,712.63l-.2.48c-.75-.44-1.2.16-1.16.55.07.66.33,1.81.4,1.97l-.19.41-87.09-22.15-38.55-8.49-17.1-5.93-36.17-13.81-14.74-4.75.52-9.3,21.55,8.79,48.96,17.71,58.72,14.22c14.2,3.44,63.49,14.52,64.4,16.63.56,1.29.66,2.46.66,3.67Z"/>
  <path class="cls-7" d="M788.33,293.92l19.78,39.33-15.02,8.95c-1.46.87-5.19,3.09-6.6,1.64l-19.32-36.96c-.92-1.75-1.49-3.23-1.08-4.85l22.25-8.11Z"/>
  <path class="cls-7" d="M759.74,304.72l20.85,41.81-35.56-11.54c-4.65-1.51-9.51-4.02-11.66-8.26l-4.37-8.72c.38-1.08,1.27-1.87,2.65-2.4l28.08-10.89Z"/>
  <path class="cls-7" d="M796.19,40.08c-1.89-.63-2.25-3.21-3.42-4.82l-13.05-18.02-9.73-10.21,30.94,3.06,19.75,5.04c3.37,1.71,6.58,1.2,11.07,2.13l-22.98,15.47-12.57,7.34Z"/>
  <path class="cls-4" d="M148.09,800.83c-.99.14-1.29.91-.86,1.75l2.77,5.45c-1.57.59-.75,2.43-.75,3.9.04,12.39,1.51,23.7,4.12,35.62,2.35,10.72,2.1,21.31-2.46,31.28,1.6-.18,3.34.58,3.23,1.48-.07.53-1.36.95-1.97,1.11-.53.14-1.19-.17-1.57-1.86-2.55,2.7,1.71,5.37-4.54,9.38-1.45-1.19-1.44.62-1.02,1.06-.2,1.03-1.2,1.37-1.68,1.92l-2.72-.03c-.81.02-2.32-1.4-1.57-2.79l8.38-15.58c2.02-3.76,3.08-9.17,2.42-13.51l-4.59-30.02-1.06-15.94c-.37-5.62-.43-10.04-5.55-13.97l-6.07-4.65-35.94-19.15-45.96-24.92c-1.73-.94-2.97-1.87-4.57-1.35-.17-.64,1.61-3.94,2.86-3.26l99.1,54.07Z"/>
  <path class="cls-7" d="M246.07,760.87l-7.06,15.17c-1.31,6.58.33,13.37,1.06,19.88l2.91,26.05-.87,8.12c-.82,7.73-3.23,14.95-8.84,20.34l-7.52-6.2c-2.14-1.76-4.17-3.3-4.9-6.54,6.9,1.88,12.7.44,16.89-4.48,3.71-4.36,5-11.19,1.76-16.85-2.88-5.04-9.17-8.26-15.02-6.8l-7.39,3.5-10.14,15.96-13.73,18.22-.33-1.14,3.05-4.14c6.3-8.55,12.13-16.49,17.58-25.65,11.27-18.94,22.6-37.25,32.42-56.58l.12,1.11Z"/>
  <path class="cls-4" d="M248.96,734.94l-10.53,20.61-3.26,6.53c-.75-.26-2.11-.03-2.31.55-1.82,1.12-2.07,4.03-3.58,5.6-1.97,2.05-4.49,3.45-5.82,6.27-7.74,5.89-15.94,10.77-24.47,15.42l-27.91,1.98c-7.18.13-14.03.53-20.99-1.15-4.5,1.15-8.17-1.24-10.53-4.07l34.46-.86c25.08-.33,23.26-.2,40.96-11.87,14.02-9.24,15.28-24.05,23.51-25.5l7.33-12.64c.46-.79,1-1.47,1.63-1.55.45-.06,1.16.37,1.52.68Z"/>
  <path class="cls-8" d="M181.97,845.97c-.46,1.06-1.41.66-1.98.97.12-.66,1.47-.87,1.98-.97Z"/>
  <path class="cls-8" d="M194,831.01c-.4.91-1.1,1.55-2,1.99.02-1.14.86-1.96,2-1.99Z"/>
  <path class="cls-8" d="M215.19,799.1c-.68,1-.39,2.55-2.17,2.88-.13-.67-.14-1.58.19-2.26.23-.48,1.11-.92,1.98-.62Z"/>
  <path class="cls-8" d="M181.97,845.97c.25-.54.52-1.46,1.03-1.97.01.87-.58,1.43-1.03,1.97Z"/>
  <path class="cls-8" d="M212,803c.25-.26.64-.9,1.02-1.02l-1.02,1.02Z"/>
  <path class="cls-8" d="M211,805c.08-.79.44-1.47,1-2-.09.77-.44,1.46-1,2Z"/>
  <path class="cls-8" d="M183,843.99l1.01-.99c-.35.22-.71.7-1.01.99Z"/>
  <path class="cls-8" d="M215.19,799.1c2.4-9.28,7.71-17.83,13.89-25.01-3,9.05-8.63,17.08-13.89,25.01Z"/>
  <path class="cls-8" d="M210,805.99l1.01-.99-1.01.99Z"/>
  <path class="cls-8" d="M209.01,808c.08-.78.44-1.46.99-2.01-.08.76-.45,1.47-.99,2.01Z"/>
  <path class="cls-8" d="M207.99,809.01l1.02-1.01-1.02,1.01Z"/>
  <path class="cls-8" d="M186.01,841.01c-.5.88-1.08,1.53-2,1.99.02-1.14.86-1.96,2-1.99Z"/>
  <path class="cls-8" d="M155,878c-.06-.6-.09-1.11,0-1.49.24-.91.8-.49,1.07-.45.47.4.44,1.04,0,1.42-.28.24-.49.61-1.08.52Z"/>
  <path class="cls-8" d="M206.1,812.06c.04-1.4.55-2.58,1.89-3.05.1.71.07,1.42-.26,2.17-.29.66-1.21.63-1.64.88Z"/>
  <path class="cls-8" d="M179.98,846.94c-.1.56.29,1.79-.39,2.61l-19.56,23.49c-1.07,1.29-2.42,3.11-3.96,3.02,4.55-16.67-1.95-32.27.75-45.24,1.54-7.41,3.78-13.92,8.56-20.02l7.17,3.61c2.54,1.28,4.3,2.87,5.39,5.07.12.24.48.42.66.44,1,.97-.45,2.04-1.08.87l-.22-.49c-5.59-1.72-11.86.94-15.2,5.43-3.73,5.02-3.25,11.68.25,17.06,3.91,6.01,11.33,6.29,17.61,4.15Z"/>
  <path class="cls-8" d="M205.08,814.05c.15-.61.72-1.53,1.02-1.99l-1.02,1.99Z"/>
  <path class="cls-8" d="M186.01,841.01c.15-.75.46-1.47,1-2.01-.17.77-.56,1.37-1,2.01Z"/>
  <path class="cls-8" d="M203.99,815.97c.03-.76.59-1.39,1.09-1.91-.28.54-.33,1.6-1.09,1.91Z"/>
  <path class="cls-8" d="M201.92,818.97c.21-1.35.72-2.46,2.07-3.01.03,1.43-.74,2.51-2.07,3.01Z"/>
  <path class="cls-8" d="M187.01,839l1-1c-.3.19-.82.7-1,1Z"/>
  <path class="cls-8" d="M190.01,836.01c-.49.87-1.08,1.54-2,1.99.02-1.14.86-1.96,2-1.99Z"/>
  <path class="cls-8" d="M200.95,820.98l.97-2c-.13.6-.4,1.52-.97,2Z"/>
  <path class="cls-8" d="M200.01,822l.95-1.02c-.16.32-.66.78-.95,1.02Z"/>
  <path class="cls-8" d="M199.04,823.01l.97-1.01c-.28.24-.86.67-.97,1.01Z"/>
  <path class="cls-8" d="M229.08,774.09c.29-.88.25-1.38.94-2.13.22,1.29-.81,1.39-.94,2.13Z"/>
  <path class="cls-8" d="M198.06,825.03c.21-.73.34-1.45.98-2.02l-.98,2.02Z"/>
  <path class="cls-8" d="M197,827.01l1.06-1.98c-.32.67-.45,1.38-1.06,1.98Z"/>
  <path class="cls-8" d="M235.17,762.08c-1.62,3.25-2.65,7.17-5.15,9.88-.46-3.21,2.84-5.64,2.84-9.33.2-.58,1.57-.81,2.31-.55Z"/>
  <path class="cls-8" d="M196,828l1-.99c-.19.29-.72.75-1,.99Z"/>
  <path class="cls-8" d="M190.01,836.01c.15-.75.46-1.47,1-2.01-.16.73-.57,1.39-1,2.01Z"/>
  <path class="cls-8" d="M195,829l1-1c-.29.26-.82.69-1,1Z"/>
  <path class="cls-8" d="M194,831.01c.16-.75.46-1.47,1-2.01l-1,2.01Z"/>
  <path class="cls-8" d="M191.01,834l1-1c-.3.19-.81.71-1,1Z"/>
  <polygon class="cls-8" points="155 878 155 878.5 154.68 879.34 153.66 878.32 154.5 878 155 878"/>
  <path class="cls-7" d="M779.99,31.29c3.93,3.15,6.54,8.32,8.1,13.06-4.28,2.15-7.9,4.98-12.91,6.15-5.66,1.31-12.71-.27-14.03-6.33-1.17-5.4,1.32-10.88,5.14-13.35,4.27-2.76,9.59-2.82,13.7.48Z"/>
  <path class="cls-7" d="M222.74,833.94c-2.49-1.52-4.53-3.98-5.86-5.53-2.98-3.48-1.88-6.14.28-9.21,3.84-5.46,10.89-8.48,16.68-3.96,4.17,3.25,4.82,9.38,2.48,13.67s-8.68,8.01-13.58,5.03Z"/>
  <path class="cls-7" d="M226.69,854.96c-9.69,8.27-24.03,4.3-30.38-6.47l8.17-11.46,22.21,17.93Z"/>
  <path class="cls-7" d="M214.95,867.73c-8.9.22-17.03-.23-25.79,1.51l-9.82,2.84,13.97-19.39c2.44,4.14,5.98,6.67,10.09,8.83,3.38,3.05,7.1,4.36,11.55,6.2Z"/>
  <path class="cls-7" d="M797.14,46.18c0-.54.11-2.87.87-3.25,11.98-5.37,22.25-14.03,33.87-21,7.85-4.71,17.05-6.29,26.42-7.71l-61.16,31.96Z"/>
  <path class="cls-7" d="M776.14,25.15c-5.17-.99-9.73.81-13.71,3.88-4.65,3.59-7.72,15.64-1.64,21.25,2.25,2.08,4.23,3.72,7.4,4.2l-22.38,10.93c3.82-7.34,8.39-13.09,9.72-20.81l4.24-24.7c.61-3.57.29-6.9,2.33-9.92l10.2,9.72c1.84,1.76,2.68,3.72,3.85,5.46Z"/>
  <path class="cls-7" d="M229.98,871.19c-1.39,2.33-4.24,1.5-6.96,1.75l-33.04,3.07c-9.73.9-20.6,10.75-23.2,10.18,3.07-5.56,8.09-8.23,14.07-10.39s11.85-4.28,18.63-4.34l30.49-.28Z"/>
  <path class="cls-7" d="M796.55,46.41l-68.67,37.61c6.92-5.96,13.91-11.89,22.12-16.01l40.34-20.26c1.66-.83,4.39-1.56,6.22-1.33Z"/>
  <path class="cls-8" d="M248.91,857.4l2.26,7.33-15.07-11.91c7.35-7.18,8.78-16,10.41-25.99l.49,26.16c.04,2.1,1.47,3,1.92,4.42Z"/>
  <path class="cls-7" d="M832.2,63.39c.72-7.39-2.87-12.47-9.71-15.79l22.56-8.8-5.24,8.04-7.61,16.55Z"/>
  <path class="cls-7" d="M248,759.03c1.08.59,2.26,1.97,1.72,3.69-3.66,11.59-5.85,23.98-3.37,36l4.79,23.22c.39,1.89-.02,4.22-1.03,5.04.28-11.51-9.49-33.14-7.86-48.93l4.71-16.07c.2-.69-.34-1.23-.87-1.11l-.12-1.11c-.03-.25-.06-.56-.01-.8l2.06.06Z"/>
  <path class="cls-8" d="M246.13,870.67l.7,1.85c.17.33-1.35.57-1.8.52-9.42-4.46-19.66-7.2-30.22-9.52,2.11-2.16,5.15-.51,6.92-1.36l8.81-4.25,15.59,12.76Z"/>
  <path class="cls-7" d="M858.42,25.4c-16.74,13.23-35.09,16.2-55.08,26.58,4.12-3.08,8.86-5.24,13.93-7.81l54.24-27.46c-4.06,3.04-8.75,5.27-13.08,8.69Z"/>
  <rect class="cls-8" x="263.99" y="620.9" width="68.31" height="2.62" transform="translate(-388.09 693.71) rotate(-70.35)"/>
  <path class="cls-7" d="M779.51,88.82c-4.93-.19-7.79-2.98-11.82-4.55l-9.88-.65c6.04-2.43,10.18-6.13,16.4-10.09-1.33,6.35.33,10.24,5.3,15.29Z"/>
  <path class="cls-7" d="M761.84,77.28c-6.75,4.9-14.48,7.7-22.04,9.42l39.14-21.83-17.09,12.41Z"/>
  <path class="cls-4" d="M264.91,870.25c-.4,1.89-.9,3.8-2.93,4.66l9.31-40c.38.37.83.64.99.67l-7.37,34.68Z"/>
  <path class="cls-8" d="M193.22,847.27l-9.97,12.92c-7.49,9.7-14.02,19.9-23.68,26.55l15.74-18.53,17.59-22.08.33,1.14Z"/>
  <path class="cls-4" d="M287.84,737.45l5.59-32.01,4.45-18.51-9.23,51.13c-.32-.35-.59-.53-.81-.61Z"/>
  <path class="cls-4" d="M235.15,948.01c0-3.4,1.3-6.12,3.46-9.17.53,3.06-.44,6.59-3.46,9.17Z"/>
  <path class="cls-4" d="M257.28,891.09c-.28-3.75.98-6.94,3.63-9.33-.13,3.67-1.2,6.35-3.63,9.33Z"/>
  <path class="cls-4" d="M229.09,962.01l4.28-11.95c.48-1.55,2.5-.79,1.69.72l-5.97,11.23Z"/>
  <rect class="cls-8" x="308.3" y="585.31" width="6.01" height="1.58" transform="translate(-343.16 696.09) rotate(-71.57)"/>
  <path class="cls-4" d="M248.9,911.44l6.97-18.97c.23-.63,1.03-.54,1.19-.29l-7.19,19.3c-.21.66-.83.53-.97-.04Z"/>
  <path class="cls-8" d="M152.62,895.87l-3.99,4.25c-1.39,1.54-2.39,3.88-5.06,4.07l13.96-16.2,1.11.57-6.02,7.31Z"/>
  <path class="cls-4" d="M409.41,452.75c2.18-5.16,5.28-10.14,9.4-14.73-2.87,4.92-4.8,9.72-9.4,14.73Z"/>
  <path class="cls-4" d="M272.4,834.07c-.68-1.51-.45-3.1-.36-4.56.26-.3.5-.52.52-.53.77,1.67.78,4.21-.16,5.09Z"/>
  <path class="cls-7" d="M164.81,887.64c.17.39.38,1.52.16,1.87-.41.67-1.85.6-2.54.1l2.38-1.97Z"/>
  <polygon class="cls-8" points="141 910 138.49 909.67 142.87 905.21 141 910"/>
  <path class="cls-7" d="M248,759.03l-2.06-.06c.19-.94,1.31-1.63,1.69-2.3.33.69.42,1.74.37,2.36Z"/>
  <path class="cls-4" d="M240.89,932.44l4.55-11.48c.22.27.47.48.67.59l-4.55,11.48c-.21-.27-.47-.49-.67-.59Z"/>
  <polygon class="cls-4" points="245.94 919.46 248.45 912.98 249.06 913.54 246.55 920.02 245.94 919.46"/>
  <path class="cls-4" d="M299.05,684.03c.84,1.87-1.56,2.46-1.2.21-.27-1.1,1.07-1.46,1.2-.21Z"/>
  <path class="cls-4" d="M406.03,457.54l2.42-3.57.53.51c-1.77,2.1-2,4.28-2.95,3.05Z"/>
  <path class="cls-7" d="M736.85,89.53c-1.16.5-1.85.05-1.71-.14.36-.46,1.23-1.35,1.53-1.47.62-.23,2.07.79.18,1.6Z"/>
  <path class="cls-4" d="M239.34,937.93c-.59-1.43.26-2.28,1.08-3.87.52.02.92.91.6,1.39l-1.67,2.48Z"/>
  <polygon class="cls-7" points="781.66 90.48 782.34 90.48 782.99 90.5 782.34 90.52 781.66 90.52 781.01 90.5 781.66 90.48"/>
  <path class="cls-7" d="M731.85,92.52c-1.15.48-1.91.13-1.76-.06.66-.84,1.25-1.37,1.59-1.52.58-.26,2.1.78.17,1.58Z"/>
  <path class="cls-7" d="M726.84,95.54c-1.14.49-1.87.07-1.71-.13.43-.54,1.24-1.36,1.55-1.48.57-.22,2.1.78.16,1.61Z"/>
  <path class="cls-7" d="M721.88,98.52c-1.2.51-1.91.09-1.75-.1.44-.55,1.2-1.37,1.54-1.48.76-.26,2.01.81.22,1.59Z"/>
  <path class="cls-7" d="M781.14,63.7c1.26-.8,2.43-1.54,3.37-2.71.37-.15.88-.19,1.36.31-1.26.8-2.43,1.54-3.37,2.71-.37.15-.88.19-1.36-.31Z"/>
  <path class="cls-7" d="M716.86,101.53c-1.16.49-1.88.07-1.74-.11.47-.58,1.23-1.37,1.55-1.49.66-.25,2.07.81.18,1.6Z"/>
  <path class="cls-2" d="M146.06,888.95c-.33.21-.95.7-1.02,1.06-.41-.44-.42-2.25,1.02-1.06Z"/>
  <path class="cls-7" d="M720.83,88.54c-1.13.49-1.85.05-1.69-.15.35-.45,1.23-1.35,1.55-1.47.51-.19,2.11.76.14,1.62Z"/>
  <path class="cls-5" d="M257.47,715.63c-.07-.16-.33-1.31-.4-1.97-.04-.39.41-.99,1.16-.55l-.76,2.52Z"/>
  <path class="cls-7" d="M585.15,181.25c-.5-1.28.95-1.71,1.48-.82l-1.48.82Z"/>
  <rect class="cls-4" x="419.15" y="436.15" width=".71" height=".71" transform="translate(-185.78 424.48) rotate(-45)"/>
  <rect class="cls-4" x="228.15" y="963.14" width=".71" height=".71" transform="translate(-614.37 443.78) rotate(-45)"/>
  <rect class="cls-4" x="227.15" y="965.14" width=".71" height=".71" transform="translate(-616.08 443.66) rotate(-45)"/>
  <rect class="cls-4" x="405.15" y="459.15" width=".71" height=".71" transform="translate(-206.15 421.32) rotate(-45)"/>
  <path class="cls-7" d="M982.24,785.1c-.08,10.19-9.31,12.77-21.19,12.86l-39.02.29-13-1.32-27.02-.15-28.24-.83-19.71-155.87-11.45-199.67c-.46-8.1.06-16.32-2.72-23.51l-11.11-28.8-19.07-37.93,20.68-12.38,51.05,97.77,25.45,45.74c6.58,11.83,34.9,24.87,51.62,60.42l23.44,40.32c6.41,11.02,13.35,21.18,17.66,33.28,2.02,5.67,2.49,12.48,2.51,18.77l.27,101.72.04,24.45-.19,24.86Z"/>
  <path class="cls-7" d="M695.95,966.61l-20.48-22.01-32.72-22.98,8-12.98-21.74-23.64-31.33-28.66c19.38-16.04,38.73-29.73,60.56-41.2l29.84-7.74,73.52-.24,10.17,64.84,8.11,77.96c.08,7.14,1.7,13.25,4.26,19.85l-47.09,40.85-41.1-44.04Z"/>
  <path class="cls-7" d="M853.08,931.65l-28.81,12.58-37.49,23.92-3.33-10.69-6.1-59.71c-3.1-30.31-6.49-59.63-12.65-90.01l84.07.17,13,9.56,13.43,39.43,21.28,60.03-43.4,14.72Z"/>
  <path class="cls-7" d="M905.17,913.99c-1.97-1.19-1.24-4.22-2-6.15l-16.67-42.29-5.68-18.37-9.19-27.17,10.95-2.48,22.81-11.16c3.09-1.51,7.09-3.19,10.68-3.2l49.9-.15c2.37,1.44,4.8,3.6,7.81,4.29l89.65,36.81c-8.68,10.26-14.98,21.21-21.67,32.57l-26.62,5.41-54.47,13.68-55.49,18.21Z"/>
  <path class="cls-7" d="M540.37,896.27l-15.98-19.67-5.59-13.46-10.83-52.12-20.23-24.17c5-12.38,5.28-26.36,3.73-40.16,11.28-5.37,22.86-8.96,35.57-8.87l1.49,30.58,2.28,25.93,6.3,17.41,54.47,42.61-51.22,41.91Z"/>
  <path class="cls-7" d="M464.83,760.26l-12.24-11.05c5.2-5.67,8.18-11.71,11.9-17.72,6.01-9.71,8.06-20,7.76-31.54l-.71-27.51-.62-23.49,27.11-.08,26.59-.63c1.91,29.21,3.1,57.57,2.53,86.54-8.36.43-16.17.81-23.61,3.78l-16.34,6.53-22.36,15.16Z"/>
  <path class="cls-7" d="M509.88,923.51l-33.39-25.01-34.43-25.65c10.68-13.5,21.43-26.13,29.54-41.19l7.08-19.99,7.18-18.76,17.59,20.75,10.15,48.93,7.08,17.69,15.49,19.31-26.28,23.93Z"/>
  <polygon class="cls-7" points="607.01 954.52 595.81 964.46 575.15 938.89 555.29 914.72 543.42 900.22 567.72 879.69 595.1 858.09 620 881 641.03 901.94 620.91 933.93 607.01 954.52"/>
  <polygon class="cls-7" points="492.15 942.19 465.18 973.28 413.93 931.18 401.75 920.64 438.87 876.82 474.34 903.64 505.73 927.79 492.15 942.19"/>
  <polygon class="cls-7" points="944.36 946.24 921.59 957.18 904.66 924.35 943.22 911.26 973.23 902.07 1036.19 887.3 1030.01 930.08 984.97 934.1 944.36 946.24"/>
  <path class="cls-7" d="M435.94,868.43l-34.8-25.93,33.91-47.37c4.71-6.58,9.63-12.16,15.41-17.69l11.98-11.47,15.9,18.1-16.46,47.65-25.95,36.71Z"/>
  <path class="cls-7" d="M434.7,1010.4l-22.17-16.95-29.95-24.39c2.38-5.91,2.16-11.11,2.21-17.1.1-11.41,5.58-21.95,14.06-29.39l16.71,13.89,47.81,39.28-28.67,34.66Z"/>
  <polygon class="cls-7" points="521.04 621.47 524.14 645.26 470.88 646.04 469.73 578 515.89 577.8 521.04 621.47"/>
  <path class="cls-7" d="M591.88,967.86c-6.9,5.3-12.51,10.08-18.03,16.67l-26.63-27.78-33.63-29.84,25.81-23.29,21.23,24.69,11.1,14.97,20.15,24.59Z"/>
  <polygon class="cls-7" points="909.58 963.13 877.68 981.8 858.1 940.68 901.67 925.01 918.72 958.15 909.58 963.13"/>
  <path class="cls-8" d="M456,578.01c.11.66.85,1.05,1.92,1.04l9.09-.05v25c-1.6,3-1.64,10.01.09,12l.89,29-1.01,1.09-21.97.3-.56-15.94-.49-52.4,12.03-.04Z"/>
  <path class="cls-2" d="M1067.62,917.91l-32.76-.68,4.6-30.76,26.31-4.49c1.95,6.09,2.38,11.83,2.24,18.01l-.39,17.92Z"/>
  <path class="cls-7" d="M903,801.59l-22.21,11.19-11.52,2.26c-3.31-5.92-8.32-8.8-14.09-13.5l27.8.12,20.01-.07Z"/>
  <path class="cls-2" d="M602.11,969.89c-1.59,1.26-4.7-2.36-3.6-3.33l10.11-8.92,11.87-17.2,12.86-20.19c1.65-.27,3.72,1.06,4.74,2.77l-11.81,19.29-12.57,18.42c-2.64,3.87-7.46,5.89-11.59,9.16Z"/>
  <path class="cls-2" d="M469.4,828.2c-7.58,16.25-19.17,29.43-30.39,43.05l25.16-38.1,16.63-45.21c.57-.44,2.86,1.54,2.6,2.23l-14,38.03Z"/>
  <path class="cls-7" d="M480.33,777.9l-13.99-15.1,15.88-10.55c-.21,9.2.94,16.52-1.89,25.65Z"/>
  <path class="cls-2" d="M489.14,759.5c-.22,8.91-.07,16.56-3.88,24.15-3.74-2.48-1.24-5.42-1.07-8.5l1.31-24.88c.07-1.34,2.49-1.91,3.02-1.16,2.3,3.29.72,6.68.63,10.39Z"/>
  <path class="cls-2" d="M579.64,989.86c-1.53-.99-2.17-1.65-3.3-3.29l17.4-15.89c1.34.47,2.79,3.29,2.11,3.93l-16.22,15.25Z"/>
  <path class="cls-2" d="M640.64,918.67c-.99,1.6-5.46-1.06-4.68-2.37l6.87-11.45c1.86.6,4.34,3.28,3.56,4.54l-5.74,9.28Z"/>
  <path class="cls-7" d="M467.1,616c-1.73-1.99-1.68-9.01-.09-12l.09,12Z"/>
  <path class="cls-7" d="M467.01,579l-9.09.05c-1.07,0-1.81-.38-1.92-1.04l10.03-.02c.85,0,.98.65.98,1.01Z"/>
  <path class="cls-7" d="M1080.09,856.52l4.75,12.44-38.78,6.8c6.16-11.28,12.32-21.38,20.56-30.23,5.9,2.27,8.97,6.84,13.47,10.99Z"/>
  <path class="cls-7" d="M466.99,646.09l1.01-1.09c.02.56-.45,1.09-1.01,1.09Z"/>
  <path class="cls-9" d="M86.93,592.86l2.48-5.21,141.61,42.15c17.55,5.21,34.59,9.4,51.65,15.62.42,1.41-.25,3.69-1.74,4.83-16.6-6.08-33.15-10.18-50.19-15.23l-143.81-42.16Z"/>
  <path class="cls-7" d="M185.79,835.05c-.67,4.67-7.49,8.91-11.82,9.44-6.23.77-9.88-4.12-10.79-9.26-.85-4.83,2.55-10.48,8.93-11.59,5.02-.87,13.43,5.3,13.67,11.4Z"/>
  <path class="cls-7" d="M202.29,810.94c-.31,3.03-3.84,6.16-5.64,9.26l-24.58-15.02c7.72-6.46,16.68-5.51,24.25-.38,1.94,1.32,6.38,2.22,5.97,6.14Z"/>
  <path class="cls-7" d="M197.11,799.51c-3.73-3.14-7.49-4.07-11.58-5.28,12.49-1.21,22.9-4.22,32.39-11.63l-11.81,23.9c-2.72-3.27-5.18-5.66-9-6.99Z"/>
  <path class="cls-7" d="M149.99,808.03l-2.77-5.45c-.42-.84-.12-1.6.86-1.75l14.34,8.09c-4.83,5.61-6.51,11.3-8.66,18.61l-3.77-19.5Z"/>
  <path class="cls-8" d="M180.03,797.54c-4.2.53-7.74,2.43-11.21,5.8l-14.98-7.99,18.17-.22c2.54-.03,5.04.32,8.03,2.41Z"/>
  <path class="cls-8" d="M1018.42,129.61c.8,3.54,1.49,7.1-.35,10.69l-6.05-28.49,6.4,17.8Z"/>
  <path class="cls-6" d="M765.22,206.88c-3.47,4.49-6.6,7.89-8.49,5.97-.44-.45-1.32-1.65-.11-2.19l8.6-3.78Z"/>
</svg>