<?xml version="1.0" encoding="utf-8"?>
<!-- Generator: Adobe Illustrator 25.0.0, SVG Export Plug-In . SVG Version: 6.00 Build 0)  -->
<svg version="1.1" id="圖層_1" xmlns="http://www.w3.org/2000/svg" xmlns:xlink="http://www.w3.org/1999/xlink" x="0px" y="0px"
	 viewBox="0 0 1280 424" style="enable-background:new 0 0 1280 424;" xml:space="preserve">
<style type="text/css">
	.st0{fill:url(#SVGID_1_);}
	.st1{fill:url(#SVGID_2_);}
	.st2{fill:url(#SVGID_3_);}
</style>
<g>
	
		<linearGradient id="SVGID_1_" gradientUnits="userSpaceOnUse" x1="201.5633" y1="34.6024" x2="201.5633" y2="406.5887" gradientTransform="matrix(1 0 0 -1 0 424)">
		<stop  offset="0.4156" style="stop-color:#FFFFFF;stop-opacity:0"/>
		<stop  offset="1" style="stop-color:#FFFFFF"/>
	</linearGradient>
	<path class="st0" d="M453.8,102.7c-21.2-9.3-44.4-12.1-66.4-9.4c-7.4-19.2-23.5-36.1-46.7-46.2c-35.4-15.4-77-10.6-105.8,9.5
		c-8.7-12.3-21.6-22.9-38-30.1C150.1,6.1,92.3,21.2,67.8,60.2c-4.7,7.5-7.8,15.3-9.5,23.3c-38.6-9.8-81.4,4.3-100.8,35.2
		c-6.3,10.1-9.4,20.8-9.7,31.5c-19.8,5.7-37.1,17.4-47.5,34.1c-21.9,34.8-5.7,77.8,36,96c17.3,7.5,36.2,9.6,54,7
		c5.2,36.6,31.3,70.5,73.5,88.9c59.2,25.8,130.6,12.5,171.5-28.8c9.2,11.1,21.6,20.5,36.9,27.2c50.2,21.9,112.2,5.7,138.5-36.1
		c12.9-20.6,14.7-43.6,7.3-64.2c33.9-4,65-20.9,82.1-48.1C528.2,181.4,507.5,126.1,453.8,102.7z"/>
	
		<linearGradient id="SVGID_2_" gradientUnits="userSpaceOnUse" x1="1015.9648" y1="-103.8204" x2="1015.9648" y2="281.4205" gradientTransform="matrix(1 0 0 -1 0 424)">
		<stop  offset="0.4156" style="stop-color:#FFFFFF;stop-opacity:0"/>
		<stop  offset="1" style="stop-color:#FFFFFF"/>
	</linearGradient>
	<path class="st1" d="M1302.6,333.2c13.5-33.8-8.4-70.3-48.9-81.5c-6.9-1.9-13.9-2.9-20.9-3.2c5.9-43.7-25.3-86.5-77.5-101
		c-48.9-13.6-101.1,1.9-129.5,35.3c-38.1-6.9-77.2,11.1-89.8,42.6c-0.2,0.4-0.3,0.9-0.5,1.3c-4.8-2.2-9.9-4.1-15.3-5.6
		c-45.4-12.6-94.5,7.8-109.6,45.6c-2.2,5.4-3.5,10.9-4.1,16.3c-34.3,4.5-64.5,24.4-76.2,53.7c-16.7,41.8,10.4,87.1,60.6,101.1
		c17.8,4.9,36,5.2,53,1.8c3.3,37.1,32.8,70.8,77.9,83.3c46.8,13,96.5-0.6,125.6-30.9c10.8,11.8,25.8,21,43.9,26.1
		c41.2,11.5,85.2-2.7,107.2-32.1c37-2.6,70.3-23.1,82.8-54.3c9.1-22.8,5.2-46.5-8.3-65.6C1286.4,358.2,1297.1,347,1302.6,333.2z"/>
	
		<linearGradient id="SVGID_3_" gradientUnits="userSpaceOnUse" x1="692.5446" y1="26.6434" x2="692.5446" y2="247.459" gradientTransform="matrix(1 0 0 -1 0 424)">
		<stop  offset="0.4156" style="stop-color:#FFFFFF;stop-opacity:0"/>
		<stop  offset="1" style="stop-color:#FFFFFF"/>
	</linearGradient>
	<path class="st2" d="M862.9,269c0-30.8-29.9-55.6-66.7-55.6c-2.9,0-5.7,0.2-8.6,0.5c-5.6-17-21.7-31.1-43.9-35.7
		c-27.7-5.7-55.8,5.3-68.6,25.5c-4.7-2.4-10-4.2-15.5-5.3c-30.9-6.5-62.3,9.2-70,35l-0.2,0.3c-1.8-0.6-3.8-1.1-5.6-1.5
		c-26.7-5.6-53.7,8-60.3,30.2c-6.6,22.2,9.5,44.8,36.2,50.4c0.3,0,0.6,0.2,0.9,0.2c-1.5,2.6-2.7,5.4-3.5,8.4
		c-4.5,19.2,10.4,37.7,33.3,41.5c7.5,1.2,14.9,0.8,21.7-1.2c6,16.4,21.9,29.9,43.4,34.4c24.4,5.1,49.2-2.9,63.3-18.7
		c3.9,1.7,8,2.9,12.4,3.9c32,6.6,64.4-9.5,72.4-36c2.1-7.1,2.3-14,0.9-20.8C837.5,320.7,862.9,297.3,862.9,269z"/>
</g>
</svg>
