<svg version="1.1" xmlns="http://www.w3.org/2000/svg" xmlns:xlink="http://www.w3.org/1999/xlink" x="0" y="0"
    viewBox="0 0 50 50" style="enable-background:new 0 0 50 50;" xml:space="preserve">

    <radialGradient id="a" cx="25" cy="25" r="15" gradientUnits="userSpaceOnUse">
        <stop offset=".54" stop-color="#c5def7" />
        <stop offset=".68" stop-color="#ccddf5" />
        <stop offset=".88" stop-color="#dedcef" />
        <stop offset=".99" stop-color="#eddbea" />
    </radialGradient>

    <g style="isolation:isolate">
        <path d="M40 25a15 15 0 1 1-15-15 14.78 14.78 0 0 1 1.5.07 13.55 13.55 0 0 1 1.82.3A15 15 0 0 1 40 25Z"
            fill="url(#a)" />
        <path
            d="M37 22.68a1.92 1.92 0 0 1-.42.6 6.44 6.44 0 0 0-.4.62 1.44 1.44 0 0 1-.73.51c-.43.17-.32.07-.7-.21s-1-.31-1.34-.7a1.47 1.47 0 0 1-.26-.88c0-.52.21-.49.47-.86.55-.78-.44-.8-.93-.53-.18.11-.39.37-.6.43-.46.11-.62-.2-1.08-.15-.3 0-.65.39-.92.37s-.56-.38-.67-.53a2.79 2.79 0 0 1-.56-1.69c0-1.16-.65-.2-1.27-.05s-.91-.46-1.42-.73c-.2-.11-.38 0-.59 0s-.17-.17-.31-.2a6.84 6.84 0 0 0-1.11 0 1.88 1.88 0 0 0-1.59.86c-.16.29.09.67-.08.94s-.61.23-.94.29a7.83 7.83 0 0 0-.87.32c-.45.19-.35.23-.61.66a1.63 1.63 0 0 1-.45.57c-.21.15-.63.15-.76.36-.54.83 1.38.26 1.63.29a1.2 1.2 0 0 1 1 1c.07.58 0 1.7-.66 2s-1-.4-1.23-.77-.52-1.38-1.18-1.45-.88.59-1.07 1a3.21 3.21 0 0 0-.37.65c-.05.2.07.38 0 .58s-.28.22-.37.35c-.32.44-.25 1.11-.66 1.49-.11.1-.28.12-.41.23a3.54 3.54 0 0 0-.32.44c-.23.28-.46.42-.46.8a1.58 1.58 0 0 0 1.24 1.2c.28 0 .72-.09 1 0a3.93 3.93 0 0 1 .6.62c.87.88 2.18 1 3.06 1.84.54.53.9.36 1.44-.1.16-.14.31-.42.5-.52s.31 0 .47 0 .33-.19.5-.22a2.55 2.55 0 0 1 1.64.73 2.06 2.06 0 0 1 .79 1.54c.06.62.6.75 1 1.12.6.51.52 1 0 1.48a3 3 0 0 1-.6.4 3.16 3.16 0 0 0-.54.31s0 .29-.07.33c-.61.4-1.4-.28-1.55-.83s-.08-1.1-.6-1.44c-.29-.19-.58-.12-.88-.25-.64-.26-.17-.42-.39-.93s-1 .1-1.2.46 0 .52.16.78a1.5 1.5 0 0 1 .22.39c.05.25-.08.41.08.64s.55.25.77.35a1.94 1.94 0 0 1 .62.4 6.65 6.65 0 0 0 .62.41c.21.16.36.5.59.63s.38 0 .58 0a2.51 2.51 0 0 1 .45.17 4.57 4.57 0 0 0 1 0c.61 0 1.64-.25 1.64.61a1 1 0 0 1 0 .25 15 15 0 0 1-14.64-5.45 1 1 0 0 1 .16-.72 2.34 2.34 0 0 0 .58-1.36V30.52c0-.19-.16-.34-.2-.53a7 7 0 0 1 0-2.14c.08-.33.21-.42.21-.8a1.71 1.71 0 0 0-.2-1 3 3 0 0 1-.62-2c0-.33.18-.49.21-.81a4.61 4.61 0 0 0 0-1.23c-.08-.41-.32-.52-.53-.82s-.2-.53-.34-.77a3.7 3.7 0 0 1-.78-1.89V18a15.06 15.06 0 0 1 9.51-7.53 2.42 2.42 0 0 1 1.29.45 14.51 14.51 0 0 0 1.21 1c.49.32.9-.44 1.36-.69a9.63 9.63 0 0 0 1.4-1.18 13.55 13.55 0 0 1 1.82.3 2.62 2.62 0 0 1 .16 1.17 1.42 1.42 0 0 0 0 .68c.07.12.26.16.32.28s.05.36.09.53.16.38.2.62c.37 0 .56.25 1 .24a5.17 5.17 0 0 1 1 0c.15 0 .17.18.31.2s.33 0 .49 0a2.49 2.49 0 0 1 .87.37 3.41 3.41 0 0 1 1.23 1c.51.75-.65.84-.43 1.44 0 .11.26.2.33.3s0 .23.09.32a6 6 0 0 0 .62.61 6.14 6.14 0 0 1 .52.5c.23.32.16.64.23 1 .31 1.18 2.07 1.69 1.63 3.07ZM34.7 32.06c-.31-.06-.62.21-.85.37s-.63.38-.9.62a5.55 5.55 0 0 0-1 1.19.6.6 0 0 0 0 .72c.15.22.41.24.62.33a4.25 4.25 0 0 0 .64.32 1.93 1.93 0 0 0 .79-.17 8.75 8.75 0 0 0 .75-.49c.2-.12.43-.2.62-.33a3.77 3.77 0 0 0 .95-1.34c.13-.25.3-.64.14-.92s-.52-.27-.79-.3-.37-.18-.74 0c-.2.09-.41.37-.62.41ZM36.06 29.47c-.17 0-.21.13-.28.27s-.14.37-.14.41c0 .35.3.32.55.44s.43.3.72 0a1.71 1.71 0 0 0 .39-.59 1.47 1.47 0 0 0 .13-.91.79.79 0 0 0-.55-.41 3.86 3.86 0 0 0-.66.45c-.17.14-.5.57-.43.79Z"
            style="mix-blend-mode:multiply" fill="#bdbfff" fill-rule="evenodd" opacity=".4" />
    </g>
</svg>