<?xml version="1.0" encoding="UTF-8"?>
<svg id="_圖層_1" xmlns="http://www.w3.org/2000/svg" version="1.1" viewBox="0 0 1831 1013">
  <!-- Generator: Adobe Illustrator 30.4.0, SVG Export Plug-In . SVG Version: 2.1.4 Build 226)  -->
  <defs>
    <style>
      .st0 {
        fill: #395066;
      }

      .st1 {
        fill: #202936;
      }

      .st2 {
        fill: #48665c;
      }
    </style>
  </defs>
  <rect class="st1" x="-42.7" y="-23.6" width="1916.4" height="1060.2"/>
  <path class="st0" d="M1824.6,956.7l-26.3-3.5-36.8-3.8,6.5-12.6c1.7-3.2,3.8-8.1,4.8-13.1,1.3-6.5.8-15.3.3-24.6-.7-12.8-1.5-26.1,2.2-35.5l20-50.9,32.7-83.5v-3.9c0-2.4-1.6-3.8-3.3-4.1-1.7-.3-3.8.3-4.7,2.5l-24,63.6-23.8,62c-4.8,11.9-6.9,21.7-6.8,32.7v38.9c.1,7.9-4.5,14.8-8.6,21-.6.9-1.2,1.8-1.8,2.7-2.3,0-4.4-.9-6.6-1.9l-28-9.3-43.7-6,7.4-74.7,5.6-60.5,3.8-27,.3-58.1,1-32,.8-47.2,21.5-1,25.8,3,61.4,14.5,16.9,4.5c.4.1.8.2,1.1.2,2.4,0,4.3-1.9,4.3-4.3s-1.4-3.7-3.3-4.2l-50-11.9-40.9-8.4-18.7-1c-20.3-1.1-50.8,2.8-71,9.2-22.5,7.1-42,12-61.4,15.4l-39.9,7.1-9.3-14.5-21.4-61.4c-1.8-5.2-2.1-15.7-2.4-26.7-.4-13.3-.8-27-3.7-34.4l-7.7-19.3c-.2-.5-.6-.8-1.1-1.3-.7-.6-1.5-1.3-1.5-2.1l.7-42.8,2.6-84.8,53.3,9.1,35.2,8.9h0s31.3-.4,31.3-.4l36.8-1c5.2-.1,11.7-.3,15.8-4l27.3-24.7c2.5-2.2,6.7-3.2,10.4-4,.9-.2,1.7-.4,2.5-.6l51.2-12.8c1.4-.4,3.7,0,5.6.4.7.1,1.4.2,2,.3l48.1,6.3,9.1-.3c1.1,0,1.9-.9,1.9-2s-.2-1.1-.6-1.4c-.4-.4-.9-.6-1.5-.5l-7,.6-57.5-7.6h0s-52.4,13.3-52.4,13.3c-.8.2-1.6.4-2.4.6-4,.9-8.6,2-11.5,4.5l-28,25c-2.8,2.5-7.5,2.9-12.2,3.1l-28.3.8-38.7.8-38.4-9.6-51.9-8.8.7-27.4,1.7-86.6,1.8-69.9,67.1,1.5,56-.5,48.1-.9c47.4,1,75.7.2,120.8-3.5l14.3-.6c15.8,0,17.6-17.1-5.1-16.4l-48.1,2.5-42,1.2-29,.4h-25.3c0-.1-25.2-.1-25.2-.1l-131.1-.4-2.8-98.4.8-28.5c0-1.2-.4-2.3-1.2-3.1-1.3-1.4-3.5-1.7-5.1-.8-1.3.7-2.2,2.1-2.3,3.6l-1.2,23.8,2.3,85.3c0,1.8.2,3.6.3,5.3.3,4.2.6,8.3-.2,12.8h-57.1c0,.1-106.3.4-106.3.4l-21,.2,2.4-9.9-3.2-36c.6-9.2,4.1-17.5,9.2-27.3l16.7-31.8c.1-.2.2-.5.2-.8,0-.7-.3-1.5-1-1.9-1-.6-2.3-.2-2.8.8l-17.6,33.7c-4.6,8.9-9.4,18-8.6,27.9l3.1,35.1c0,.8-.1,1.7-.3,2.6-.3,1.5-.9,3-1.4,4.4-.4,1.1-.8,2.1-1.1,3.2l-48.2.3-35-42.9-7.8-21.4-8.4-24.7h0c-1.7-2.9-3.3-2.5-3.9-2.3-1.4.7-2,3-1.3,5.1l15.9,47.1h0c0,0,32.8,39.2,32.8,39.2l-90.7-.5-30.6-.5-84-.2c-8.2-3.4-13.8-10.1-17.4-20.6l-16.7-49.4c-.2-.4-17.9-42.1-21.3-54.7-2.4-8.9-4.4-14.8-5.4-17.5,0-.8-.3-1.5-.8-2.1-.7-.8-1.8-1.1-2.7-.7-.7.3-2.2,1.2-2.2,4.8,0,5.6-.2,18.5-.2,19.7l-3.8,9.7c-9.4,4-17.1,9-25,16-1.3,1.2-2.6,2.4-4,3.6-11.8,10.6-24.1,21.5-31.5,35.8-3.2,6.1-3.2,13.4-3.2,20.4,0,3.2,0,6.4-.3,9.5-2.5,1.6-5.1,3.2-7.6,4.8-8.7,5.4-17.6,11-25.9,17.5l-8.2,8.9c-23.9,4.4-45.2,10.3-65.1,18.1l9.9-48.8s2-20.1,2-20.2c1.4-7,3.4-15.1,8.1-22.7l12.2-19.6,9.8-21.5c4.9-10.8,15.5-21.2,28.3-28l15.1-8c1.8-.9,2.2-3,1-5.2-2.4-4.5-10.6-8.8-20.8-3.5-3.6,1.9-12.1,5.2-12.2,5.3-8.6,3.6-20.5,4.6-28.9,2.4l-23.8-6.1-26.4-2.8c-2.4-.3-8.4-2-11.9-2.5s-8.2,1-8,5.1.5,6.5-.3,10.9l-4.8,27.7c-1.4,7.9-6.5,15.3-11.1,21.7-4.8,6.8-11.8,11.7-18.5,16.6-1.2.8-2.3,1.7-3.5,2.5l-24-62.1s-3.5-9.6-5.6-15.2c-.7-1.8-1.9-3-3.5-3.3-1.5-.3-3.2.4-4.2,1.6-.8,1-1,2.1-.6,3.2l27.6,72.3c.4,1.2.8,2.4,1.2,3.5.7,2.4,1.5,4.9,3.1,7.3-21.9,13.2-41.6,25.3-61,39.4l-57.3,41.5c0-.4,0-.7-.2-1.1-.4-1-1.3-1.1-2-1.2-.3,0-.6,0-1-.2l-77.1-22.2c3.3-19.8,5.7-39.1,7.2-59l-2.3-25.2-3.4-23.7c-.1-2-.9-3.6-2.1-4.2-.7-.4-1.5-.3-2.2.1-.8.5-1.2,1.6-1,2.9l3.4,23.5,2.2,26.5c-.5,16.8-3,33.2-5.5,49.1-.4,2.5-.8,5-1.2,7.5-1.5.4-2.8,0-4.5-.5l-34.7-9.9c-16-4.5-31.4-9.8-47.1-16l-13.2-2.7-37.1-13.9-27.3-8.8-52-15.1c-2.3-.7-4.3-1.6-6.3-2.6-2-1-4-1.9-6.4-2.7l-99.3-31.4c-3.2-1-6.2-2.1-9.2-3.2-4.5-1.6-8.7-3.1-13.2-4.3l.4-19.3c0-1.8-1-2.7-1.9-2.7-1.4,0-3,1.6-3.1,5.3l-.4,14.2-32.4-8.2-46.7-7.7-16.7-.3L10.6,5.2c-4.9-1.3-7.8.7-8.5,3.2-.4,1.5,0,3.3,1.3,4.7,0,0,3.3,1.9,3.3,1.9l8.2,2.3c.9.3,1.9.5,2.8.8l4.1,1.1c.3,0,.6.2.8.2,0,0,.2,0,.2,0,0,0,1.3.4,1.3.3l1.2.3c.3,0,.6.2.9.3,0,0,0,0,0,0l1,.3c.5.1.9.2,1.2.3h.1c.1,0,.2,0,.3.1l23.7,5.4c.5.9.6,3.3.3,4.3l-6.3,18-13.3,21.4-8.1,24.1c-.7,1.5-1.7,3-2.9,4.4-.2.2-.3.3-.5.5-.2.2-.3.4-.5.6-.2.2-.3.4-.5.5-2.6,2.5-5.8,4.5-8.8,6.5-1.6,1-4.6,3.4-4.7,3.6,0,0-1.6,1.9-1.6,1.9,0,0,0,0,0,0-.9,2.4,3.4,2.8,4.4,1.1.6-.9,2.6-2.2,5-3.7,5.2-3.3,12.4-7.8,14.6-14.4l7.9-24.3c1.6-3.2,3.8-6.1,6-9,2.9-3.8,5.9-7.8,7.5-12.6l6.3-19.2c.1-.3,0-.8,0-1.3,0-.4,0-.9,0-1.2,0-.3.1-.5.3-.6,0,0,.2,0,.4.2l.5.3c.2.1.5.3.8.4,0,0,.1,0,.1,0,.2,0,.4.2.7.2l24.8,3.1,34.2,6.8,34.1,9.4.8,35.2-5.1,22.6s0,0,0,.2c-.2.7-.3,1.3-.5,2v.4c-.3.5-.4,1-.6,1.4-1,2.8-2.5,5.7-4.1,8.4l-19.7,31.3-46.7,82.2-19.6,63.5-9.5,24.5-12.5,23-14.2,24.3-19.5,29.5-.8,1.6c-.7,1.8-.5,2.6.6,3.6.4.4.9.6,1.4.6s.1,0,.2,0c.2,0,.4,0,.5-.1,1-.5,1.7-.6,2.9-2.3h0c.6-.8,1-1.4,1.1-1.6l3-4.1c6.7-9.2,9.3-12.6,15.8-23.9l10.8-18.7.2-.3s0,0,0,0c.1-.2.3-.4.4-.5l.2-.2c.1-.1.2-.2.4-.3l40.7,101.4c1,2.5,2.1,4.9,3.1,7.2.6,1.4,1.3,2.9,1.9,4.3.5,1.1.9,2.3,1.4,3.4.4,1,.9,2.3,1.3,3.6,6.1,17.8,12.1,33.6,18.5,48.3.8,1.8,1.9,3.4,3.5,5,.4.4.8.8,1.2,1.2l-8.8,21.6-.3.8c-.9,2.2-1.8,4.4-2.6,6.6-.7,1.7-1.4,3.5-2,5.2-3.4,8.7-6.9,17.6-11,26.3,0,.1-.2.3-.3.4,0,0,0,0,0,0,0,0,0,0-.1,0-.2.1-.5.2-.7.3h-.2c0,0,0,0,0,0l-44.9-21.8s-.1,0-.2,0c0,0-2.1-1-2.1-1,0,0-2.5-1.2-2.5-1.2l-.5-.2s0,0,0,0c0,0-4.3-2.1-4.3-2.1-2.2-1.1-4.3-2.1-6.5-3.2-3.6-1.8-7.2-3.6-10.9-5.3h-.2c-.3-.2-.7-.4-1-.5-.7-.3-1.5-.4-2.2-.5-.5,0-1.1-.2-1.7,0-.8.1-1.5.6-1.9,1.4s-.2,1.7.3,2.3c.2.2.4.3.6.5.7.5,1.3,1,2,1.5.4.3.9.7,1.3,1,.5.3,1,.5,1.5.8,3.8,1.8,7.6,3.7,11.5,5.5l9,4.3c.6.3,1.2.6,1.9.9,0,0,.1,0,.2,0,0,0,.7.3.7.3,0,0,4.1,1.9,4.1,2,0,0,.2.1.2,0l44.3,20.7-15.9,32.2c-4.3,8.7-5.9,17.4-6.8,25.5l-1.3-.6s0,0,0,0c0,0-.5-.2-.5-.2,0,0-5.5-2.6-5.6-2.6,0,0-.9-.4-.9-.4l-3.1-1.4c-.2-.1-.4-.2-.7-.3l-1.5-.7s-4.8-2.2-4.8-2.2l-25-11.7s9.9,4.7,0,0-11.4,4.7-3.2,7.9l45.4,22.4-1.9,38.5c0,1,0,1.9-.1,2.9-.3,6.8-.6,13.2-2,19.5-.4,1.8-.9,3.4-1.4,4.9l-6.1,12.4-38.4-20.6c-.1,0-.2-.1-.4-.2-.3-.2-.7-.4-1.1-.6-7.7-3.5-8.4,6.1-2.2,8.1s.8.5,1.2.7c0,0,0,0,0,0l37.1,20.3-27.8,61s-13.1,28-13.7,29.5c-1.7,4.5,3.1,5.5,4.6,2.3s.9-1.8.9-1.8l20-42.2,19.2-42.7c1.1-.2,2,.3,3.2,1,.2.1.5.3.7.4l46,24.9,35.9,19.1,6.1,4.7c.3.2.6.5.9.7,3.9,3.4,4.1,7.3,4.4,12.1l1.1,16.7,4.6,30c.3,2,.2,4.4-.2,6.8-.2.8-.4,1.7-.6,2.5,0,0,0,.1,0,.2,0,0-.1.3-.1.3,0,.3-.2.6-.3.9,0,0,0,0,0,.1v.3c-.2.1-.2.2-.2.3-.3.6-.5,1.2-.8,1.7l-8.4,15.6c-.5.9-.3,2,.5,2.8,0,0,0,0,0,0,.4.4,1,.7,1.4.7h1.6s-12.6,14.4-12.6,14.4c0-.3,0-.6-.1-.9,0,0,0,0,0,0,0-.1,0-.2-.1-.3-.4-.9-1.4-1.2-2.3-1.6-.3,0-.6-.2-.9-.3l-66-26.9s-40.4-15.6-47.7-18.4-10.4,5-.2,8.9,24.6,9.4,24.6,9.4l45.7,17.2,38,16.1.5.2c1.4.6,2.7,1.2,4,1.2s.5,0,.8,0l-16.1,18.6-45.4,54.5-14.4,19.8c-2.5,3.2,3.5,7.1,6.5,3.2s18-24.4,18-24.4l57.8-66.1c0,.1.1.2.2.3,0,0,0,0,0,0,.2.2.4.5.6.7.5.5,1.1.9,1.9,1.3l87.9,34.7s-1.4,3.3-1.4,3.3l-21.6,51.1c0,.2-.1.4-.2.7l-.8,1.9c.3.2.6.5.8.7l.5-1.1c.5.6,1.3,1,2.2.8s1.3-.7,1.6-1.4l.8-2c.5,1.9,2.3,3.4,4.4,3.4s3.3-.9,4.3-2.3c.1.3.3.7.5,1,.7.8,1.7,1.3,2.7,1.3h.2c1.5,0,2.8-.9,3.3-2.3,0-.1,0-.3.2-.4l18.5-46.4c.2-.4.6-.6.9-.5l45.1,12.4c.2,0,.4.2.5.4s.1.4,0,.6l-9.4,34.5c-.2.6,0,1.1.3,1.6.3.5.9.7,1.5.7h.7c.9,0,1.6-.6,1.7-1.5.2-1.2.6-2.3,1-3.7l8-30.3c.1-.4.6-.6,1-.5l23.1,7.1c.3,0,.5,0,.8,0l-6.1,20.5c-.3,1-1.1,3.7,1.1,4.4.5.2,1.1.1,1.6-.2,1.3-.6,2.2-2.4,2.4-3l5.8-18.3c1.5.6,3,1.5,4.8,2.9,0,0,23.9,16.3,26.5,18.3s7.5.2,2.6-3.4l-25.6-19.7-5.9-3.9c0-.8,0-1.8.1-2.8,0,0,0-.2,0-.3,0-.3,0-.6.2-1,0-.2,0-.4.1-.5,0-.1,0-.3.1-.4l9-28.9,37.1,29.1,19,15.1s-8.2,13.4-9.4,15.4,2.3,3.2,3.2,1.5l9.5-14.3,21.7,17.5c1.3,1,2.4,1.4,3.2,1.4s1.3-.3,1.6-.7c.2-.2.3-.5.3-.8,1.1.7,2.3,1,3.4,1s2.8-.5,3.6-1.4c.6-.7.8-1.4.8-2.1,0,0,5.2,5.2,12.6,3.7,3.5-.5,5.6-3.3,6.7-4.6l3.3-3.9,4.4-5.3,5.1-6.2,5.4-6.5,5.2-6.2,4.5-5.4,3.4-4,1.8-2.1.2-.2,32.1-36,14.9,11.9,44.7,44.4-23,21.2c-1.9,1.6,1,4.6,3.8,1.7l21.9-19.4c.9.3,1.9,1.3,2.2,2l-15.7,14.9c-1.8,1.8,1.2,4.3,3.5,2.2.1,0,.2-.2.3-.2l15.3-13.4,14,13.4c3.2,2.6,8.5-.2,5.5-3s-7.4-6.9-11.6-11.5c0,0-.1-.1-.2-.2-1-1.1-2-2.2-3-3.4l16.6-15,13.6,16.5-7.5,13.8c-1.2,2.2,3.8,5.2,5.9.9s.4-.8.6-1.2c1.3-2.5,3.2-5.5,5.1-8.6,1.6,2.1,7,9.3,8.8,11.8,0,0,.1.1.2.2,2.5,3.4,7-1,5.4-3l-27.3-34.2,12.5-10.1,11.5-16.8,13.5-21.7,32.2,22.6,13.2,13.9,42.2,45.6c.2.2,4.4,4.9,14.8,5.3s8.5-1,10.3-2.4l35.6-30.2,20.5,28.5c1,1.4,2.3,1.4,3.1.8.9-.6,1.1-1.8.5-2.6-2.3-3.3-18.5-26-20.9-29.2,10-7.8,18.7-13.5,27.9-18.4,9.8-6.4,20.8-11.6,34.6-16.3l19.2,40.8c-3.9,2.3-36,21.1-38.7,22.7-1.7,1-1.9,2.1-1.5,2.7.2.4.6.6,1.2.7l-.5.3c.3.2.5.5.7.8l3.1-1.8c.3-.1.6-.3.9-.5l36.5-21.3,10.5,20.4c0,0,.1.2.2.3v.3c.5.6.8,1.2,1,1.7.4,0,.7,0,1,0,0-.2-.2-.4-.2-.6.1,0,.3,0,.4,0,.3,0,.5,0,.7-.2,0,0,.2-.1.3-.2l.4.8c.4,0,.7,0,1.1-.1l-11.7-24.5,40.2-23,23.2,45c0,.1.1.2.2.3,0,0,0,0,0,.1,0,0,0,.2.1.2,0,0,0,0,0,0,.3,0,.7.1,1.1.3h1c.5-.2,1.1-.5,1.6-.8l-23.5-46.7c12.6-7,25.5-12.3,40.6-16.7l20.1-5.8,44.4-4.1-2,14.5-16.6,57.2c-1.1,3.5,2.7,5.3,3.9,1.2.2-.5,1-3.4,2.2-7.6,0,0,4.7-16.4,4.7-16.4,0,0,.4-1.3.4-1.3l.5-1.8c.4-1.5.9-3.1,1.3-4.6.6-2.1,1.2-4.3,1.8-6.3,0,0,.7-2.4.7-2.4.7-2.3,1.3-4.4,1.8-6.3v-.2c0,0,.6-1.9.6-1.9.2-.6.4-1.2.5-1.7,0,0,.2-.8.2-.8.2-.8.4-1.5.6-2.1,0,0,.4-1.3.4-1.3.1-.3.2-.6.2-.9,0,0,.1-.4,0-.4,0,0,0-.2,0-.1,0,0,.1-.4.1-.4l4.8-29.5,32.3.7-.7,29.8.3,27.3v1.8c0,.2,0,.5,0,.7,0,0,0,.7,0,.7,0,0,0,1.1,0,1.1,0,.3,0,.6,0,.9,0,0,.2,5.7.3,9.3s3.6,4.3,3.7-.4l-.3-71,36.2-.2c2.4,0,4.8-.1,7.1-.3,5.4-.3,10.6-.6,15.9.5h0s19-.2,19-.2l8.6,39.2s.3,1,.3,1l.2.5,2,6.7c0,.2,0,.3.1.5,0,0,5.3,17.7,6.7,22.7s9,2.8,7.9-1c-1.9-6.6-4.6-15.8-4.6-15.8l-12.8-55.4,12.7-1.6,73.7,7.6c-.5,6.3-5.2,71.3-5.7,77.7-.2,2.9.6,4.1,1.4,4.6.4.2.8.3,1.2.3s.9-.1,1.4-.4c1.2-.7,2-2,2-3.4,0-2.9,2.2-51.3,5.7-78.2l69.9,5.3c-1.3,6.4-1.8,11.9-.2,17.6v15.8c0,6.9-3.2,12.7-6.8,18.8-2.4,4.2-4.9,8.5-6.5,13.4-.6,1.8-.5,3.3.2,4.1s.9.5,1.4.4c.8-.3,1.4-1.1,1.6-2.4.4-2.4,1.5-4.3,4.3-9.1.6-1.1,1.4-2.3,2.2-3.7l-.4-.3s0,0,0-.1l.4.2.3-.5c.2-.4,5.9-8.8,6.3-17,.7-16.8.5-36.1.8-36.6.5-.5,1.4-.6,2-.3s1.1,1,1.1,1.7c0,.2,0,.5,0,.7s.4.3.5.2c-.3-.1,0,20.2,0,20.5,0,10.6-2.2,19-2.4,19.4-1,2.5-2.2,5-3.4,7.5s-1.2,2.4-1.9,3.6-1.1,1.7-1.1,2.2c-.9,1.8-1.8,3.5-2.5,5-2.1,4.1-3.6,7.1-4.8,10.1-.3.9-.6,1.8-.9,2.8-.6,2.1-.6,3.7.1,4.4.3.3.8.4,1.2.3.7-.2,1.3-1,1.5-2,.3-1.6.7-2.8,1.3-4.3.4-1.1,1-2.4,1.9-4.1l10.3-19.4c1.1-2.2,3.8-8,3.8-13.5v-34.5s19.6.8,19.6.8l113.3,7.3-1,24.3s-1,16.5-1.6,28c-.4,6.5,1.9,7.3,2.9,7.4,2.4.1,5.4-3.4,5.7-8.3.5-7.1,2.6-45.5,2.8-50.5l67.7,7.2,45.1,7h.1s18.4-5.1,18.4-5.1l6.8,16.9,21.6,32.4s3.4,5.2,5.2,7.9c.1.2.3.4.4.6.8,1.3,1.6,2.6,3,2.9.2,0,.4,0,.6,0,1,0,2.2-.4,3.7-1.4,0,.3,0,.6,0,1h0c.3,1.5,1.6,2.5,3.1,2.5h65c1.1,0,2.2-.6,2.7-1.6l1.1-1.8c.4,1.9,2.1,3.4,4.1,3.4s2.8-.8,3.6-2.1l33-56.3,56.4,6.2,9.9,1.3c.1,0,.3,0,.4,0,.7,0,1.4-.3,2-.7.6-.6,1-1.4,1-2.2,0-1.5-1.1-2.8-2.6-3ZM1672.8,926.9l-72.2-9.2v-.5c-.1,0-6.1-22.3-6.1-22.3l-5.1-42.9-1.9-27.1,93.2,21.1-7.8,80.9ZM1373.9,782.7l-.6,13.9-41.4-5.8-60.3-8.3.8-18.6v-2.8c.2-39.6.4-76.9,3.5-115.2,3.4-10.6,6.6-19.3,13.6-26.4l15.8-13,20.8,25.3,14.2,13.9,17.5,11.5,19.4,4.9,9.7.9-2.5,32.9-1,23-9.3,63.1v.6c0,0,0,0,0,0ZM1329.9,863.8c-.2,1.5-.5,3-.7,4.5h0c-.1,1-.3,2-.4,2.9-.1,1-.3,2-.4,2.9l-.2,1.2c-.1.8-.2,1.5-.3,2.3h0s0,.1,0,.1v.7c-.2.8-.4,1.7-.5,2.6l-70.4-13.2,6.3-37,8.2-44.5,38.9,5.7,53.8,7.4-13.3,12.4-11.3,16v.2c-1.3,2.7-2.3,5.4-3.2,8-.2.5-.4,1.1-.5,1.6-.2.5-.3.9-.5,1.4,0,0,0,.1,0,.2-.3.9-.6,1.9-.8,2.8h0c0,.2-.1.5-.2.8v.2c0,0,0,.1,0,.2-.8,2.8-1.5,5.7-2.1,8.9,0,0,0,0,0,0v.3c0,.1-.1.2-.1.4-.7,3.3-1.3,6.9-1.9,10.9h0ZM1231.5,777.5c-.7-.2-1.4-.3-2.1-.5-1.3-.3-2.6-.6-3.7-.9l-29.5-11.6c-7-2.8-14.1-5.4-20.9-8-14.4-5.4-29.3-11-44.1-17.8l40.3-56.3,30-18c10.7-6.9,20.1-15.5,28.9-26.2,5.7-5.8,10-12.1,14.5-18.8l14-20.8,21.9,18.4c-7.4,9-12.9,23.6-13.5,35.9l-2.9,69-.9,54.4-5.3,4.4c-5.5-.2-10.9-.7-16.4-1.5-3.4-.5-6.6-1.1-10.1-1.8h0s0,0,0,0ZM691.6,584.1l-.6-27.4-.8-36.5-2.3-55.7c0-.2,0-.3,0-.5,0-.4,0-.8-.1-1.3,0,0,0,0,0,0h0s0,0,0,0c0-.3,0-.6-.1-.9,0,0,0,0,0,0,0-.6-.2-1.2-.4-1.8h0s0,0,0,0c-.2-1-.5-1.9-.8-2.7-.9-2.7-2.1-5-3.4-6.4l-16.8-18-8.7-14.3-32-60.6,95.7-37.7c2,6.1,4.9,12.7,10.9,15.9l12.4,6.6,35.8,13.5c3.4,1.3,8.2,6.2,9.8,9.4l22.7,46.3c.8,1.7,1.5,3.7,2.1,6,0,0,0,0,0,0,.4,1.6.7,3.4.9,5.4.2,1.7.4,3.5.5,5.6l8.3,143.8,3.8,71.3,18.6,144.3c0,.4,0,.7.1,1.1v.5c0,0,0,0,0,0,0,0,0,.1,0,.1.4,3.1.8,6-.7,9.3l-80.4.8-8,1.2h-65.6s-.6-39.4-.6-39.4l.4-48.3.2-100.6-.9-29.1ZM281.5,721.8l-22.9,128-2.5,8.8c-1.8-2.8-1.6-5.4-1.3-8.4,0-.7.1-1.3.2-2l1.4-26.2h0c0,0-5.2-27.8-5.2-27.8-1.6-8.3.5-16.2,2.1-22.5,2-7.7,3.5-13.8-1.8-17h0c-.2-.1-.4-.2-.7-.2s-.2,0-.3,0c0,0,0,0,0,0,0,0,0,0,0,0h0c-.4,0-.7.2-1,.4h0s0,0,0,0c0,0,0,0,0,0,0,0,0,0-.1,0-.1,0-.2.2-.4.2l13.5-29.2,25.4-63.5,5-8.3,5.3,2.4c-6.8,19.6-11.1,38.9-14.7,56.8l-13.9-2.9h-.3s0,0,0,0h-.2s-3.2,8.3-3.2,8.3l15.8,2.9ZM158.1,866c0,0,0-.1,0-.2,0-1.1,0-2.2,0-3.3,0,0,0,0,0,0,0-3.4-.2-6.6-.5-9.5,0-1-.2-2-.3-3,0,0,0,0,0,0,0,0,0,0,0,0v-1.5c-.2-1-.3-2-.4-3h0c-.4-4.8-.7-9.8.3-14.5,0-.3.1-.6.2-.9,1.7-8,4.1-13.5,8-18.6l6.8,3.4c.6.3,1.2.7,1.7,1,.5.4,1,.7,1.4,1.1.8.7,1.4,1.5,1.9,2.5l-.2.3c-4.8-1.3-10.5.4-14.3,4.4h0c-.4.4-.8.9-1.1,1.3-1.1,1.5-1.9,3.2-2.3,5-.9,4.1,0,8.7,2.6,12.6.5.7,1,1.4,1.6,2,.3.3.6.5.9.8,0,0,.1,0,.2.1.3.2.5.4.8.6,0,0,.1,0,.2,0,1,.6,2.2,1.1,3.4,1.5,0,0,0,0,0,0,3,.8,6.6.7,10.3-.5v.2s.1,0,.1,0c0,.5,0,1.1-.3,1.4l-19.6,23.5-.2.2c-.4.5-.9,1-1.3,1.5-.5.5-1,.9-1.4,1,.2-.9.4-1.8.6-2.7.2-1,.3-2,.5-3,0-.1,0-.3,0-.4.1-1.1.2-2.1.3-3.1,0,0,0-.1,0-.2h0ZM212.7,786.8s0,0,0,0c.3-.2.6-.4.9-.6.6-.4,1.2-.8,1.8-1.2h0c.3-.2.7-.5,1-.7l-10.5,21.3c-2.6-3.1-5.1-5.3-8.6-6.5-3-2.5-6.1-3.6-9.3-4.6,6.1-.7,11.2-1.9,15.9-3.6,2.1-.8,4-1.6,5.9-2.6.3-.2.6-.3.9-.5,0,0,0,0,0,0,0,0,0,0,0,0,.6-.3,1.2-.7,1.9-1.1,0,0,0,0,0,0h0ZM239,791.5c.2,1.5.4,3,.6,4.5l2.9,26-.9,8.1c0,.5-.1,1-.2,1.5,0,.7-.2,1.5-.4,2.3,0,.2,0,.4,0,.5h0s0,0,0,0c-1.3,6.5-3.8,11.6-7.7,15.5l-7.4-6.1c-.9-.8-1.8-1.5-2.5-2.3,0,0,0,0,0,0h0c-.3-.5-.6-.9-.9-1.3,0,0-.1-.2-.1-.2h0c0,0,0-.2,0-.2,0,0,0,0,0,0-.1-.2-.2-.5-.3-.8,0,0,0,0,0,0h0c0-.1,0-.2,0-.2,0,0,0,0,0-.1,1.7.4,3.3.6,4.8.6,4.7,0,8.7-1.8,11.8-5.4,1.6-1.9,2.8-4.2,3.3-6.7h0s0,0,0,0c.2-.7.3-1.4.3-2,.1-1.4,0-2.8-.2-4.2-.3-1.6-.9-3.1-1.7-4.5-3.1-5.5-9.8-8.5-15.7-7l-7.5,3.6-10.2,16-9.1,12.1c5.6-7.6,11.3-15.4,16.5-24.2,2-3.3,3.9-6.6,5.9-9.9,7.9-13.2,15.4-25.7,22.4-38.7l-3.6,7.8h0c-1,5.3-.3,10.6.5,15.6ZM217.5,828.3l-.2-.2c-2.6-3.1-1.9-5.4.3-8.6,2.2-3.2,5.5-5.4,8.7-5.8.5,0,.9-.1,1.4-.1,2.1,0,4.1.7,5.8,2.1.3.3.6.5.9.8.2.2.5.5.7.8h0c0,.1,0,.2.1.3.2.2.3.4.5.7v.3h.2c0,0,0,.2.1.3.1.2.2.4.3.7,0,0,0,0,0,0,.9,2.3,1,4.9.3,7.3,0,0,0,0,0,0-.2.7-.5,1.3-.8,1.9-.2.4-.4.7-.6,1-.3.4-.6.8-1,1.2,0,0,0,0,0,0h0s0,0,0,0c-2.5,2.6-6,4-8.9,3.4,0,0,0,0,0,0h0s0,0,0,0h0c-.8-.2-1.5-.4-2.2-.9-2.3-1.4-4.2-3.7-5.5-5.2ZM196,805.2c.5.3,1.1.6,1.7.9,2,1,4.3,2.1,4,4.7h0c-.2,1.8-1.7,3.8-3.2,5.7-.7.9-1.5,1.9-2.1,2.9l-23.5-14.4c6.8-5.3,15.2-5.3,23.1,0ZM176.9,797.7h0s0,0,0,0c0,0,0,0,0,0-.3,0-.5.2-.7.3h0s0,0,0,0h0c-.3,0-.5.2-.7.3-.6.2-1,.5-1.4.7,0,0,0,0,0,0h-.1c-.2.2-.4.3-.6.4-.4.2-.7.4-1,.6h0s-.3.2-.3.2c0,0-.1,0-.2.1h0c-.1.1-.3.2-.4.3-.3.2-.6.4-.9.7-.4.3-.7.6-1,.9,0,0-.1.1-.2.2h0c-.1.1-.3.2-.4.4l-12.9-6.9,16.2-.2c2,0,4.1.2,6.7,1.6-.6.1-1.2.3-1.8.5ZM173.9,844c-1.4.2-2.7,0-3.9-.3-.3,0-.5-.2-.8-.3-.2-.1-.5-.2-.7-.4h0c-.2-.2-.5-.3-.7-.5-1.6-1.2-2.8-3-3.6-5.2-.2-.7-.4-1.4-.5-2.1-.2-1.2-.1-2.5.2-3.8h0s0,0,0,0c.1-.4.2-.7.4-1.1,0,0,0,0,0,0,.2-.4.3-.7.5-1,0,0,0,0,0,0,0-.1.1-.2.2-.4.4-.6.8-1.1,1.3-1.6,0,0,0,0,0,0,0,0,0,0,0,0,1.5-1.5,3.5-2.5,5.8-2.9.5,0,1.2,0,1.8,0,0,0,0,0,0,0,.1,0,.3,0,.4,0h0s0,0,0,0c1.2.2,2.6.8,4,1.6.3.2.6.4,1,.6.9.6,1.6,1.2,2.3,1.9.3.3.6.6.8.9.1.1.2.2.3.4h0c.4.5.7,1,1,1.5,0,0,0,0,0,0h0s0,0,0,0c.4.7.7,1.3.9,2,.2.7.3,1.3.4,2h0c0,.2,0,.5-.1.7,0,0,0,0,0,0v.4c-.3.4-.5.8-.7,1.1,0,0,0,.1-.1.2h0v.3c-.2,0-.2.1-.3.2-2.4,3.2-7,5.6-10.1,6ZM193.3,853.6c1.9,2.9,4.5,5.3,8.4,7.5h0s0,0,0,0c0,0,0,0,0,0,0,0,0,0,0,0,.4.3.9.5,1.3.7.4.3.8.7,1.3,1,0,0,0,0,0,0,2.5,1.9,5.3,3.1,8.1,4.3-1.2,0-2.3,0-3.4,0-1.3,0-2.6,0-3.9,0h0c-3.1,0-5.7.1-8,.3-2.9.2-5.6.6-8.2,1.1l-8.4,2.4,12.7-17.6ZM199.7,852.2s0,0,0,0c-.5-.5-1-1.1-1.4-1.6h0s0,0,0,0c-.5-.6-1-1.3-1.4-2.1l7.7-10.8,21.3,17.2c-7.7,6.1-18.8,5-26.2-2.8ZM219.2,862.9c1,0,2,.1,2.8-.3l8.5-4.1,15.2,12.5.5,1.4c-.3,0-.8.2-1.1.2-9.6-4.5-20-7.2-29.1-9.3,1-.5,2.1-.4,3.2-.4ZM236.9,852.8c.4-.4.7-.7.9-1,.4-.4.7-.8,1-1.2h.3v-.3c.3-.4.7-.9,1-1.3.2-.2.3-.5.5-.8.3-.5.6-1,.9-1.5,1-1.7,1.8-3.5,2.5-5.6,1-2.8,1.6-5.8,2.2-8.8l.4,20.8c0,1.4.6,2.3,1.2,3.1h0s.2.3.2.3c.2.3.4.7.6,1.1h0s1.8,5.8,1.8,5.8l-13.4-10.6ZM1269.2,560.3l-12.7,28.6-52.3-44.1-4.8-4-30.2-37.8-25.4-35.4,39.5-21.7,52.4,70.3,14.9,17.2,19.2,25.6-.6,1.4ZM1274,564.5l26.2,35.4-15.2,12.4-23.8-19.4,12.8-28.4ZM1176.2,525.9l18.2,18.9,59.8,50.2-21.8,31.4c-7.5,10.7-16.8,19.3-25.7,27.2l-36.8,22.7-20.2-36.8-34.9-63.1-23.7-32.4-72.9,43.9-19.4,14.4c-.6-.3-1.3-.7-1.9-1.4,0,0-.1-.1-.2-.2h0c-.1-.2-.2-.3-.3-.5,0,0-.1-.2-.2-.3l-19.5-39.1,74.4-42.3,24.5-13.7,60.3-32.9,40.3,54ZM1166.5,678.9l-23.3,31.5-35.8,50-10.8,11.2-15.5-21.9-43.5-65.1-19.4-40.9-18.1-36.5c0-1.3.9-1.9,2.2-2.8l18.4-13.3,69-41.6,22.2,29.6,54.5,99.8ZM986.5,597.3l31.8,64.2c1.9,3.8,3.7,7.6,5.5,11.5l.8,1.6c.6,1.3,1.2,2.7,1.8,4,0,0,0,0,0,0,0,0,0,0,0,0h0c1.1,2.4,2.5,5.3,3.9,8.3,0,0,0,.1,0,.2h0s0,0,0,0c2.4,4.8,4.5,8.8,6.8,12.5.3.5.5.9.8,1.3.3.5.6.9.9,1.4.2.4.5.7.7,1.1,0,0,0,.2.1.2h0s0,0,0,0c.6.9,1.2,1.8,1.8,2.6l29.1,41.9-39.6,1.4-42.9,1.3-.6-84v-36.2c-.1-4.5-.4-11.1-2.3-16.5-.1-.3-.2-.7-.4-1-4.3-11-10-20.6-16.1-30.8-2.2-3.7-4.5-7.5-6.7-11.3l7.9-4.5,16.4,30.6ZM965.7,561.6s0,0-.1,0c-1.7.6-3.1,1.5-4.6,2.4l-.7.4s0,0,0,0c-.6.3-1.2.7-1.8,1l-15-26.5-2.7-4.7h0c0-.1-.1-.2-.2-.4l-.2-.3c-.8-1.3-1.5-2.7-2.3-4-.5-.8-.9-1.5-1.4-2.3,0,0,0,0,0,0h0s0,0,0,0c-.9-1.5-1.8-3-2.8-4.4-4.3-6.8-8.5-12.1-13.1-16.7-.6-.6-1.3-1.3-2-1.9l-28.3-26.7-30.4-56.4-50.2-96.6-16.4-32.7,8.4-3.8,11.7-5.2,56,96.4,35.4,64.7,44,83.9,17.8,33.5c-.4.1-.7.2-1.1.4ZM767.6,306.6c-.5-1-1-2-1.1-2.9,0,0,0-.1,0-.2h0v-.2c0-.3,0-.7,0-1l21.5-7.8,19.4,38.5-14.6,8.7c-3.2,1.9-5.2,2.5-5.9,1.8l-19.3-36.9ZM779.6,345.7l-34.4-11.2c-5.8-1.9-9.6-4.6-11.4-8l-4.2-8.5c.4-.9,1.1-1.5,2.3-2l27.6-10.7,20.1,40.3ZM763.5,297.8l-18.5-34.4-15.2-29.1,33.7-15.3,13.6-4.2,33.7,63.6-47.3,19.4ZM742.3,273.4l13.9,26.7-29.8,12.4-31.1-62.2,28.5-13.1,18.4,36.1ZM718.5,315.4l-95.9,37.9-18.4-42.2-6-15.8,88.3-40.7,32,60.8ZM612.4,350.3c.1.3.3.6.4.9h0c.4.9.8,1.7,1.1,2.5h0c.4,1.1.6,2,.6,2.9l-74.1,29.2-16.9-41.1-2.9-5.6,17.9-12.4,30.7-17.3,20.7-10.2,22.5,51ZM535.5,387.8l-16.7,7.8-22.5,13.7-23.2,17.9c-10.5,9.2-19.9,19.8-28.9,29.9-2.1,2.3-4.1,4.6-6.2,7h0s0,0,0,0l-9.5,21.2-21,86.5-49.8-12.4c2.5-4.9,5.3-9.9,8.4-15.4,0,0,0-.2.1-.2,0,0,0-.1,0-.2,1.6-2.8,3.4-5.9,5.4-9.3,0,0,0,0,0,0,2.9-4.9,6-9.9,8.9-14.7l.6-1h0s1.2-1.9,1.2-1.9c.9-1.5,1.8-2.9,2.7-4.4.7-1.1,1.3-2.1,1.9-3.2l38.9-64.9,19-26.3,35.1-41.7,21-20c4.7-4.5,9.4-8.8,14.7-12.1.2-.1.4-.3.7-.4l.3.3c1,1.2,1.8,2.3,2.4,3.8l16.4,40ZM428.2,572.8c-1.8,0-3.6.2-5.3.3-3.6.3-7,.5-10.3-.4l12.4-50.3h56.1c0,.1,28,1,28,1l5.6,48.7-86.4.7ZM515.4,578.3l5.1,43.2,3,23.2-52.2.8-1.1-67,45.2-.2ZM466.6,616.2l.9,28.6-.7.8-21.3.3-.5-15.4-.5-51.8h11.2s0,0,0,0c0,0,0,0,0,0,0,0,0,0,0,0h0c0,0,.2.2.2.2,0,0,.2.2.3.2,0,0,0,0,0,0,0,0,0,0,0,0h0s0,0,.1,0c0,0,.1,0,.2,0,0,0,0,0,0,0,0,0,0,0,0,0h0c.3.1.7.2,1.1.2h8.6s0,24.3,0,24.3c-1.5,3-1.7,9.9,0,12.3ZM444.5,645.9l-33.5.9-21.6.4,12.9-33.2,9-34.9c3.1.5,6.2.3,9.4.1,1.5-.1,3.1-.2,4.6-.2l18.2-.3.5,51.8.5,15.4ZM397.8,610.2l-14.2,35.8c-3.5,8.8-8.6,16.8-13.6,24.5-2.3,3.6-4.7,7.3-7,11.1l-21-15.7c-5.4-4-11.7-5.8-18.3-7.8-1.7-.5-3.5-1-5.3-1.6l18.2-53.2,18-38.3c18.5,5.4,35.5,9.4,51.2,12.8l-8,32.3ZM364.5,690.5l42,31.2,39.4,29.6,13.6,12.4-18.1,17.7-9.3,11.8-33.5,46.6-36-25.4c-3.2-2.3-5.8-3.7-9-3.9l.4-62.5c0-14,.5-28.9,4-43.2l6.5-14.3ZM408.5,715.5l-40.9-30.1,10-17,10.4-17.9h45.1c4.5,0,9-.3,13.3-.5,6.8-.3,13.9-.7,21.1-.2l.7,21.2.8,32.6c.4,15.6-8.8,29.9-18.8,43.1l-41.7-31.2ZM472.3,356.4l-22.8,24.3-19.5,24.5-16.3,22.9-50.1,83.7c-16.6,27.7-30.5,55.3-45.2,84.4l-1.5,3.1-17.1,51.1-4.4-1.2h-.1s-.2-.1-.2-.1h0s-.3,0-.3,0v.4c-.2.3-.4.6-.6.9-.3.5-.6,1-1,1.4l42.9-118,20.6-47.3,25.9-50.2,27-44.9,2.4-3.6c1-1.6,2.1-3.2,3.1-4.7h0c10.5-16.1,20.2-30.5,31-44.6,0,0,0-.1.1-.2,3-4,6.2-7.9,9.3-11.7l25.7-30.6,24.3,30.9-33.2,29.6ZM289.8,787.9l4.3-28.1,5.9-33.9,49.1,10-.5,73.8-60.7-8.9,2-12.9ZM340.9,725.5s0,0,0,0c-1.8-.3-3.6-.6-5.3-.9-.6-.1-1.3-.2-1.9-.4-1.3-.3-2.7-.5-4-.8-.7-.1-1.5-.3-2.2-.5-1.4-.3-2.8-.6-4.3-.9-.4,0-.8-.2-1.2-.3-1.8-.4-3.6-.8-5.3-1.2h0s0,0,0,0l-4.6-1c-3.5-.8-7-1.5-10.5-2.3,2.8-13.8,5.4-24.5,8.3-34.6,0,0,0,0,0,0h0c.3-1.2.7-2.4,1.1-3.6.3-1.1.7-2.2,1-3.3.3-1,.7-2,1-3.1v-.4c.1,0,.2,0,.2-.1.7-2.1,1.4-4.2,2.2-6.3,0-.2.1-.3.2-.5.4-1,.7-2,1.1-3,7.3,1.7,14,4.6,21.4,7.8l22.1,16.6-6.9,15.5-3.7,24.5c-2.8-.3-5.7-.8-8.6-1.2ZM353.4,824.1l.4-7.8,13.3,8.9,65.1,47.5-15.2,18.6-21.1,24.4-34-27.7-11.2-7.9c2.1-19.7,3-38,2.6-55.9ZM402.1,842.6l-.3-.2,33.6-47c2.9-4,5.9-7.7,9.2-11.3,0,0,0,0,0,0,.6-.7,1.3-1.4,2-2.1,0,0,0,0,0,0,.7-.7,1.4-1.4,2.1-2.1.6-.6,1.2-1.2,1.8-1.8l.2-.2h0s0,0,0,0l11.6-11.1,15.4,17.5-16.3,47.3-16,22.7-9.6,13.5-33.7-25.1ZM464.9,759.6l-11.6-10.5c.2-.2.4-.5.6-.7,3.5-4,6-8.3,8.5-12.5.7-1.2,1.5-2.5,2.2-3.7,0,0,.1-.2.2-.3h.2v-.4c2-3.3,3.7-6.8,4.9-10.5,0,0,0,0,0,0h0s0,0,0,0c.3-.9.6-1.9.9-2.9,0-.2.1-.5.2-.7.2-.8.4-1.6.5-2.3,0-.3.1-.5.2-.8.2-.9.3-1.9.5-2.8,0,0,0-.1,0-.2.2-1.1.3-2.2.4-3.4,0,0,0,0,0,0,0-.5,0-1.1.1-1.6,0-.6,0-1.1,0-1.7,0-.3,0-.7,0-1,0-.5,0-1,0-1.6,0-.2,0-.3,0-.5,0-.6,0-1.2,0-1.8l-1.3-50.5h26.6c0,0,26.1-.7,26.1-.7,2.2,33.9,3,60.4,2.5,85.5-.8,0-1.6,0-2.4.1,0,0,0,0-.1,0h0c-1.1,0-2.2.1-3.3.2,0,0,0,0,0,0h0s0,0,0,0c-3.3.2-6.1.5-8.6,1h0s0,0,0,0h0c-.7.1-1.4.2-2,.4-.7.1-1.4.3-2.2.5-.3,0-.5.1-.8.2-.3,0-.7.2-1,.3-.5.2-.9.3-1.4.5-.5.2-.9.3-1.4.5l-16.3,6.5-22.1,15ZM492,747c12.5-5.9,23.5-8.7,34.5-8.7l1.5,30.1,2.3,25.9,6.4,17.7,54.1,42.3-50.3,41.2-15.6-19.2-5.5-13.3-10.8-52.2h0c0-.1-20-24-20-24,4.2-10.7,5.5-23.7,3.7-39.8ZM539.8,809.3l-5.7-16.1c-.1-.4-.2-.7-.3-1.1,0-.3-.2-.7-.3-1,0,0,0,0,0,0-.2-.7-.3-1.5-.4-2.2,0,0,0,0,0,0-.4-2.6-.4-5.2-.5-8,0-2,0-4-.2-6-1.2-14.3-2.2-29.7-1.9-45.9.5-23.4-.6-45.7-1.8-69.3l-2.7-26.5-13.7-113.1v-.3s0-.2,0-.2l-38.3-.4-48-.9,7.8-31.1c1.9-7.5,5.1-14.7,8.9-19.8,10.5-14.2,22.6-26,33-35.6l24.8-19.1,23.1-13.9,13.2-5.9,80.7-31.8,35.1,67c4.9,9.3,12.1,16.5,19.2,23,3.3,3.1,5.6,6.8,7.1,11.2.6,1.8,1,3.7,1.3,5.9.2,1.5.3,3.1.4,4.7l1.2,38,2.1,89.2v100.3l.4,101.3-25.9,7.4c-13.9,6-27.4,14-41.3,24.6l-23.1,17.6-54.2-42.3ZM834.6,640.1l-11.5-199.7h0c0-.6,0-1.1,0-1.6,0-.9,0-1.9,0-2.8v-1.7c-.2-3.6-.3-6.8-.7-10-.3-2.3-.8-4.2-1.4-6.1h0s0,0,0,0c0,0,0,0,0,0,0,0,0,0,0,0-.1-.5-.3-.9-.5-1.3l-11.1-28.8-18.9-37.5,19.8-11.9,50.8,97.3,25.5,45.7c2.3,4.2,7.3,8.5,13.6,13.9,11.5,9.9,27.2,23.5,38,46.5l23.4,40.3c1.4,2.4,2.8,4.8,4.3,7.2l.3.5s0,0,0,.1l.2.4c.8,1.3,1.6,2.7,2.4,4,0,0,0,0,0,0h0c.2.3.3.6.5.9.6,1.1,1.2,2.1,1.8,3.2,1.7,3.1,3.2,5.8,4.4,8.4,1.4,3,2.6,5.8,3.6,8.6.1.3.2.7.4,1.1h0c1.9,5.9,2.1,12.9,2.1,17.5l.3,101.7v24.4s-.1,24.8-.1,24.8c0,1.5-.2,2.8-.7,4.1,0,0,0,0,0,.1-2,5.5-8.4,8-20,8.1l-39,.3-13-1.3-27-.2-27.8-.8-19.7-155.4ZM882.7,818l22.9-11.2c.4-.2.8-.4,1.2-.6.3-.2.7-.3,1-.4h.3c0-.1,0-.1,0-.1h0c.4-.2.9-.4,1.3-.5h0c2.6-1,4.8-1.5,6.7-1.5l49.8-.2c.5.3,1.1.7,1.6,1.1.3.2.6.4.9.6h0c.9.6,1.9,1.3,3.1,1.8h0c0,0,.1,0,.2,0,.3.1.6.3.9.4.4.1.8.3,1.1.3l89,36.6c-1.9,2.2-3.7,4.6-5.5,7.1,0,0-.1.1-.2.2-.9,1.3-1.9,2.7-2.8,4,0,0,0,0,0,.1-2.4,3.5-4.8,7.3-7.7,12.2-.8,1.4-1.7,2.8-2.5,4.2l-2.4,4-26.4,5.4-54.5,13.7-55.3,18.1s0,0,0,0c-.8-.7-.9-1.9-1-3.2,0-.9-.2-1.7-.5-2.5l-16.7-42.3-5.7-18.4-9-26.6,10.4-2.4ZM975.8,804.3c6.2-2.6,13.1-7.1,13.3-14.4l.9-33,84.1-2.5,29.2,41.9-8.6,6.3c-4.5,3.4-8.1,5.6-13.5,6.6-4,.8-6.7,5.6-7.6,8.7l-6,21c-.3,1-1.2,1.9-1.8,2.2-.4.3-.7.1-1.5-.3-.3-.2-.6-.4-1-.5l-87.5-36ZM1069.8,843.4c.1-.3.3-.6.5-.9.3-.4.5-.7.7-1.1h0s0,0,0,0c0-.1.1-.3.2-.4l6.2-21.7c0-.1,0-.2.1-.4,1.6-5,5.9-6.4,9.9-7.1,3.8-.7,7.3-3.7,10.6-6.5,2.6-2.2,5.2-4.4,8-5.6l20.4,27.9c1.2,1.7,2.2,3.6,3.1,6,0,.2.2.4.2.7.8,2.3,1.3,4.7,1.8,7.1.2.8.4,1.6.5,2.4l3.6,15.1c-.2.2-.4.5-.6.9l-46.8,8.2c-.6-1.5-1-3-1.5-4.5-1-3.3-1.9-6.5-4.3-8.9l-10.1-9.9c-.4-.4-1.1-.6-1.7-.7-.3,0-.8-.2-1-.3,0,0,0,0,0,0ZM1116.6,799.5l-16.2-22.2,11.9-13,16.6-22.2c29,13.5,57.3,23.4,78.6,30.6l14.6,6-43.2,26.1-38.7,22.2-.6.4c-1.2.7-2.2,1.3-3.3,1.1l-19.7-29.1ZM1331.4,879.7s0,0,0,0c0-.2,0-.3,0-.5v-.2c0-.1,0-.2,0-.3v-.5c.3-1.5.6-3,.8-4.5.3-1.6.5-3.2.8-4.8,0-.6.2-1.2.3-1.8.2-1.5.5-2.9.7-4.4h0s0,0,0,0c.2-1,.3-2,.5-3.1.8-4.5,1.7-8.5,2.6-12.1.6-2.5,1.3-5,2.1-7.5.3-1,.6-2,1-2.9.3-1,.7-1.9,1.1-2.9.6-1.5,1.2-3,1.8-4.3l9.1-12.6,14.4-14.6c.8-.8,1.6-1.4,2.3-1.8.2-.1.4-.2.6-.3,0,0,.2,0,.2,0h.1s0,0,0,0c.2,0,.5-.1.8-.2h0s0,0,0,0c.6,0,1.1,0,1.7.1,0,0,0,0,0,0,.1,0,.3,0,.4.1,0,0,0,0,.1,0l-17,14.4c-1.7,1.5-3.3,3.3-4.9,5.5-9,12.7-13.1,35.5-15.5,51.6-.5,3.3-.9,6.4-1.3,9.3,0,.4-.2.7-.4.8-.4.2-1.1,0-1.6-.3-.1,0-.2-.1-.3-.2,0,0-.2-.1-.2-.2-.2-.2-.3-.4-.4-.6,0,0,0-.1,0-.2,0,0,0,0,0-.1,0-.1,0-.2,0-.4,0,0,0,0,0,0,0-.1,0-.3,0-.5ZM1364.8,650.6c-10.8-2.9-19.4-11.2-26.9-18.4l-18.8-22.2-40.7-54.3c1-4.4,3.4-8.3,7.3-12.1l46.9-45c9.5-9.1,16.6-20.1,23.5-30.7,2.3-3.6,4.7-7.2,7.1-10.8,2.2-3.2,2.6-6,3.1-9.2.1-.9.3-1.8.5-2.8l6.9-36,19.4-59.7,28.9,8.7,47.1,5,19.6.2-1.8,70.9-1.9,77.3-1,48-.5,31.4-1.2,35-.8,35.2-71.9-5.3c-2.9-.2-5.7-.4-8.5-.6-12.5-.8-24.3-1.5-36.3-4.7ZM1593.7,916.9l-119.4-14.7,4.2-50,2.5-35.8c9.7,1.9,18.3,2.1,27.4,2.2l40.7.8c9.8.3,19.8,1.6,32.2,4.2l.3,10.5,7,61.8,5.1,20.9ZM1568.1,655.4l70.4-17.7,4.3-1.1c16.4-4.2,32-8.1,48.8-8.1,1.1,5.5.8,10.9.5,16.2,0,1.4-.2,2.8-.2,4.3l-1.1,29-.6,35.8-.7,53.1-3.7,25.1-4.4,50-94.4-21.4-.4-25.6,3.2-27.5c1.4-3.4,1.6-6.8,1.8-10.1,0-1.4.2-2.8.3-4.2.2-1.3.3-2.7.5-4,1-7.7,1.9-15,.8-22.8h0c0-.1-30.3-44-30.3-44l-15.8-23.5,21.1-3.4ZM1535,660.8c.4,0,.8-.1,1.2-.2,0,0,.2,0,.3,0,1.4-.2,2.8-.2,4.2-.2l19.2,28.6,27.2,39.6c1.3,4.9.6,10.3-.2,15.7-.3,2.2-.6,4.3-.8,6.3,0,0,0,0,0,0h0s0,.2,0,.2c0,.7-.1,1.5-.2,2.2v1.8c-.1,0-.1,0-.1,0h0c-.4,4.5-.9,8.4-2,12.4l-2.9,23.9v28.3c-2.2-.5-4.5-1-7-1.4-1.1-.2-2.3-.4-3.4-.5-.3,0-.7,0-1-.1-1-.1-2.1-.3-3.2-.4h0s0,0,0,0c-1.6-.2-3.3-.3-5.1-.5-2.9-.3-6.1-.4-9.9-.6-.1,0-.2,0-.3,0,0,0,0,0-.1,0-3.3-.2-6.6-.3-10.3-.4h-.5s0,0,0,0l-31-.9h-2.9c-8.4-.3-16.4-.5-24.8-2.3l2.1-46.5,5.1-73.9,2.1-21.6,14.6-3.4c1.8-.4,3.8-.2,5.9,0,2.8.3,5.7.7,8.4-.5,1-.5,2.1-1,3.2-1.5.5-.2,1.1-.5,1.6-.7,0,0,0,0,.1,0h0s.3-.1.3-.1h0c0,0,.2,0,.3-.1.4-.2.8-.3,1.2-.5.2,0,.5-.2.7-.3.4-.2.8-.3,1.2-.5,0,0,0,0,0,0h0s.3-.1.3-.1h0c.4-.2.8-.3,1.2-.4,0,0,.1,0,.2,0,.6-.2,1.1-.4,1.6-.5,0,0,0,0,0,0,.5-.1,1-.3,1.5-.4,0,0,0,0,.1,0,.5-.1,1-.2,1.5-.3.2,0,.3,0,.5,0ZM1493.1,520.6l.7-17.5,5.3,13.3c2.8,11.6,3.2,25.1,3.6,37,.3,10.3.6,19.2,2.4,24.4l21.6,62.1,7.9,11.3c-1.6,1.1-4.2.9-6.6.8h-1c-5.2-.4-9.3,1.4-13.7,3.4-1.3.6-2.6,1.1-3.9,1.7-4.4,1.7-9.1,2.4-13.7,3-1.7.2-3.4.5-5,.7l.9-48.8,1-65.9.6-25.4ZM1346.5,177.1l116.4-.4,29.8-1-.7,44.9-1.1,58.7-.8,33.3-.8,46.9-14.2.3-53.5-5.8-27-8.2,9.5-28h-.5l-17.5-17.7-16.1-15-30.6-29.3c-7.9-7.5-16.8-14.7-28.2-22.6h-.1c-1.7-1.3-3.6-2.5-5.9-4.1-1-.7-2-1.3-3-2-3-2-6.2-4-9.1-5.9l-7.5-13.2-13.7-30.4,74.8-.4ZM1136.7,178.7l97.2-.4,30.8-.6,14.9,32.6,8.3,14.5h0c0,.1,26.7,18.9,26.7,18.9,14.5,10.2,27.2,22.6,39.5,34.6,3.9,3.8,7.9,7.8,12,11.6l18.6,17.6,12.1,11.9-28.5,87-7.6,38.7c-.2.9-.3,1.8-.4,2.6,0,.5-.1,1-.2,1.5,0,.1,0,.2,0,.3,0,.2,0,.4-.1.7h0s-.1.5-.1.5c0,.2-.1.3-.2.5,0,.2-.1.4-.2.5-.2.3-.3.7-.5,1.1,0,0,0,0,0,0-.2.4-.5.8-.7,1.2h0c-2.6,3.9-5.1,7.7-7.5,11.4-6.7,10.3-13,20-21.5,28.5-.4.4-.8.7-1.1,1.1l-46.4,44.5c-.2.2-.4.4-.6.6-2.1,2.2-3.8,4.4-5.4,7.4-.3.5-.6,1.1-.9,1.6-.1.2-.2.5-.4.7h0s0,0,0,.1l-13-17.6-21-26-39.2-51.8-35.1-49c-1.9-2.7-3.9-5.4-5.7-8.1h0c0,0-.1-.2-.2-.3-.4-.5-.7-1.1-1.1-1.6-.5-.8-1.1-1.6-1.6-2.3,0-.1-.2-.3-.3-.4-.4-.6-.8-1.2-1.2-1.8-.3-.5-.6-1-1-1.4-.2-.2-.3-.5-.5-.7-.5-.8-1-1.5-1.5-2.3,0,0,0,0,0,0,0-.1-.1-.2-.2-.3-3.6-5.6-6.5-10.8-9.1-15.8-.1-.3-.3-.6-.4-.9h0s0,0,0,0c-1.5-3-2.9-6-4.1-9l-2.3-22.6c-1.6-54.2-1.6-106.2,0-159.1ZM1126.6,179.1l.4,52.2-.4,109.5,4.5,22.8,15.5,30.8,34.4,48.2-39.3,21.5-38.5-53.2c-.6-.9-1.2-1.7-1.9-2.6h0c-.6-.9-1.2-1.7-1.8-2.6-1.2-1.8-2.3-3.6-3.4-5.2h0c-.5-.9-1.1-1.8-1.6-2.6-1-1.7-2-3.4-3-5.3,0,0,0,0,0,0,0,0,0-.1-.1-.2-4.4-8-8-16.3-11.2-25.3-.4-1.1-.7-2.2-1-3.3h0s0-.2,0-.2h0c0,0,0,0,0,0-1.6-5.8-2.5-12.1-2.8-19.8,0,0,0,0,0,0,0,0,0,0,0,0,0-2.1,0-4.3,0-6.8l.2-37.9-.9-77-.6-42.6,51.7-.3ZM1021.3,149.8c0-.3,0-.6,0-.8,0,0,0,0,0,0,.1-1.5.5-3.3,1.2-5.6,0,0,0,0,0,.1.3.7.6,1.3.9,2,0,0,0,.1,0,.2.3.7.7,1.4,1.1,2.1,0,0,0,0,0,0,2.2,4,5.3,7.6,9,10.7h-8.5c0,0-.2,0-.2,0-2-3-3.1-4.9-3.5-7,0,0,0,0,0,0,0-.3,0-.5-.1-.8,0,0,0,0,0,0,0-.3,0-.5,0-.8,0,0,0,0,0,0ZM1017.9,129.8c.7,3.3,1.2,6.1.3,8.9l-4.2-19.7,3.9,10.9ZM1012.4,134.3l3.1,13.9c0,0,0,.1,0,.2,0,.3.1.6.1.9,0,1.2-.2,2.5-.9,4-.3.6-.6,1.1-.9,1.7,0,0,0,0,0,0,0,0,0,0,0,0-.4.7-.9,1.4-1.4,2.1-.3.5-.6,1-.9,1.4h-10.4c.7-.6,1.3-1.3,1.8-1.9.4-.4.8-.9,1.2-1.4,0,0,0,0,0,0,0,0,0,0,0,0,.4-.4.7-.9,1.1-1.5.4-.5.7-1,1-1.6.3-.5.6-1.1.9-1.6h0s0,0,0,0c.6-1.1,1.2-2.3,1.6-3.4,1.5-3.5,2.6-7.7,3.4-12.8ZM878,160.4c.4-.5.9-1,1.4-1.5,2-2,4.4-3.4,6.9-5,.9-.5,1.8-1.1,2.7-1.7l25-16.2.2-.2v-.2c.1-2,.2-4.1.2-5.9,0-.7,0-1.3,0-2v-.6c0-4.5,0-9.1.7-13.6.5-3.2,1.2-6,2.2-8.6.2-.5.5-1.1.7-1.7,0,0,0,0,0,0,.7-1.3,1.5-2.6,2.6-4.1,0,0,0,0,0,0,0,0,0,0,0,0,.6-.8,1.2-1.6,1.8-2.3,0,0,0,0,0,0h0s0,0,0,0c.7-.8,1.4-1.6,2.1-2.4.6-.7,1.2-1.4,1.8-2.1,5.2-6.1,10.9-12,17.4-17.9,0,0,.1,0,.2-.1,2.5-2.3,5.2-4.6,8-6.9.4-.4.9-.7,1.3-1.1,3.1-2.5,6.3-5,9.9-7.7l13.5-7.7,5.1-10.1c.3,1.8,1.1,3.6,1.8,5.4l17.2,42.4,7,27.9c2.3,9.3-.4,19.8-2.7,26.9-2.1,6.5-6.9,12-13.3,15.2h0s0,0,0,0c-.1,0-.3.1-.4.2-1.2.4-2.7.5-4.4.5l-89.5.4-20.8,2.5c.4-.6.9-1.3,1.3-1.9ZM828.2,192.8l40.9-9.2c8.9-2,17-2.6,26-3.2l15-.9,27.9-.8,26.4-.5h49.1c0,0,29.9,1.1,29.9,1.1l24.1.7v164c.1,0,.1.9.1.9,0,1.8,0,3.6,0,5.3h0s0,0,0,0c0,1.7,0,3.1.2,4.5,0,0,0,0,0,0,0,0,0,0,0,0,0,.4,0,.7,0,1.1,0,.4,0,.7,0,1.1,0,.4,0,.8.1,1.2v.5c.1.4.2.7.2,1.1.4,2.9,1.1,5.6,2.1,8.1l9.3,23.8,13.9,23.2,28.9,37.9,11.2,15.9-49.3,26.9-60.1,33.8-49.5,28.4c-.4-.5-.7-1-1-1.5-1.5-2.2-3.1-4.7-4.7-7.6,0,0,0,0,0,0h0c-2.2-4-4.2-8-6.3-12.2-1.7-3.4-3.4-7-5.3-10.5l-45.9-86-25.5-47.6-15.3-25.9-53.9-94.7-17.1-34.6-1.7-22.6,1.6-14,28.6-7.4ZM804.5,108.2c-1.7-3-4-5.3-6.9-6.9l-12.7-9.9c2.8.3,5.4.2,7.6-.3h0s0,0,0,0c0,0,0,0,0,0,.3,0,.7-.2,1-.2,0,0,0,0,.1,0,0,0,0,0,0,0,0,0,0,0,0,0,.5-.1.9-.3,1.3-.5.3-.1.5-.2.8-.4.1,0,.3-.1.4-.2.3-.2.6-.3.9-.5,0,0,.2-.1.3-.2.3-.2.6-.4.9-.6,0,0,.1-.1.2-.2.3-.2.6-.5.9-.7,0,0,0,0,.1-.1.3-.3.6-.6.9-.9,0,0,0,0,0,0,.6-.7,1.1-1.4,1.6-2.2l3,15.5-.4,8.3ZM769.1,77.6c1.4-1,2.8-2,4.4-3-.8,5.2.5,9,4.7,13.6-2.5-.4-4.5-1.4-6.6-2.5-1.2-.7-2.4-1.3-3.8-1.9l-8-.5c3.3-1.6,6.1-3.5,9.2-5.7ZM757.7,79.4s0,0,0,0c-.5.3-1,.6-1.5.8-.3.2-.6.3-.9.5-.5.3-1.1.5-1.6.8-1,.5-1.9.9-2.7,1.2-1,.4-1.9.7-2.8,1.1-.9.3-1.9.6-2.8.9,0,0,0,0,0,0-.6.2-1.3.4-1.9.5l28.4-15.9-10.3,7.5c-1.2.9-2.5,1.7-3.9,2.5ZM777.8,76.8c.1-1.8.9-3.6,2.3-5.4,0,0,0-.1.1-.2,0-.1.2-.2.3-.3.1-.1.2-.3.3-.4,0,0,.1-.1.2-.2.2-.2.3-.3.5-.5,0,0,.1-.1.2-.2.2-.1.3-.3.5-.4h0c0,0,0,0,0,0,.4-.3.8-.7,1.2-1,.8-.7,1.7-1.3,2.8-2,0,0,0,0,0,0,2.5-1.6,5.5-3.1,9.1-4.6,2.3,4.3,3.6,9.3,4.5,13.6-.3,3.3-1.9,6.8-4.1,9.4-1.8,2-4.9,3-8.4,2.6-.5,0-.9-.1-1.4-.2-.7-.1-1.3-.3-2-.6,0,0,0,0,0,0-.4-.2-.7-.3-1.1-.5-.3-.2-.6-.4-.9-.5,0,0-.2-.1-.3-.2-.3-.3-.7-.5-1-.8-.1-.1-.2-.2-.3-.3-.2-.2-.4-.4-.5-.6-.3-.3-.5-.7-.7-1,0,0,0,0,0,0-.3-.6-.6-1.1-.8-1.7-.4-1.2-.6-2.4-.5-3.6ZM825.4,75.3v.2c-5.2,7.8-9.4,14.5-12.8,21.9,0-.5,0-.9-.1-1.4,0,0,0-.1,0-.2-.1-1.1-.2-2.2-.4-3.2,0,0,0,0,0-.1-.9-6.6-2.2-13-3.4-18.6.2,0,.3.2.5.2.1,0,.2.1.3.2.5.3,1,.6,1.5.9,1.7,1,3.4,2,5.2,2s.7,0,1-.1l8.5-2.1c0,.1-.2.2-.2.4ZM825.4,68.5c-1.6,1.6-3.9,2.7-6.7,3.3h0s0,0,0,0c-4.6,1-9.8-2.9-12.1-7.1v-.3c-1.3-2.1-2.2-4.4-2.7-6.5,0,0,0-.1,0-.2h0c0-.4-.1-.7-.2-1,0-.1,0-.2,0-.3l11.2-5c.2,0,.5,0,.7,0,0,0,.2,0,.3,0,0,0,0,0,.2,0,0,0,0,0,0,0h0s0,0,0,0c6.1-.4,11.1,3,11.9,8.1.6,3.7-.3,6.8-2.5,9ZM839.4,46.6l-6.6,14.3c-.2-5.7-3.3-10.2-9.1-13.3l20.1-7.8-4.4,6.8ZM863.1,21.5h-.2c-.3.3-.5.5-.8.6-.2.1-.4.2-.6.4h-.1c0,0,0,0,0,0,0,0,0,0,0,0h0c-.5.3-1,.7-1.5,1.1h-.1c0,0,0,0,0,0,0,0,0,0,0,0h0c-.5.4-1,.7-1.5,1.1h-.1c-10.3,8.2-21.2,12.5-32.7,16.9-1.9.7-3.9,1.5-5.8,2.3h0c-1.8.7-3.6,1.5-5.4,2.2h0c-.4.2-.8.3-1.2.5.6-.3,1.1-.6,1.7-.8.9-.4,1.8-.9,2.7-1.3h.1c0,0,0,0,0,0l17.6-8.9,28.1-14.2s0,0,0,0ZM855.4,15.2l-52.1,27.2-.6-1.2h0c.7-.4,1.4-.8,2.1-1.1,0,0,0,0,0,0h0c2-1.1,4.1-2.4,6.4-3.9,0,0,0,0,0,0h0c.1,0,.2-.1.3-.2,2.8-1.8,5.5-3.7,8.2-5.5,4-2.7,8.1-5.6,12.4-8.1,6.8-4.1,14.6-5.8,23.2-7.2ZM800.8,10.6l19.7,5c1,.5,2.1.9,3.3,1.1,0,0,0,0,0,0h0s0,0,0,0c1.1.2,2.2.3,3.3.4.9,0,1.8.2,2.7.3,0,0,0,0,.1,0h0c.1,0,.3,0,.4,0l-21.9,14.8-12.4,7.2c-.9-.4-1.4-1.5-1.9-2.6-.3-.7-.6-1.4-1.1-2l-13.1-18.1-8.8-9.2,29.5,2.9ZM787.5,44.1c-1.2.6-2.3,1.2-3.4,1.9-.8.5-1.6.9-2.5,1.4,0,0,0,0,0,0-1.8,1-3.2,1.6-4.7,2.1,0,0,0,0-.1,0l-.9.3h-.1s0,0,0,0c-.3,0-.5.1-.8.2-1.7.4-3.5.5-5.2.3,0,0,0,0-.1,0-.4,0-.8-.1-1.2-.2,0,0,0,0,0,0-.9-.2-1.7-.5-2.4-.8-.2,0-.4-.2-.6-.3-.2-.1-.4-.3-.7-.4-.3-.2-.6-.4-.9-.7,0,0-.2-.1-.3-.2-1-1-1.7-2.3-2-3.7-.5-2.1-.3-4.3.3-6.4,0,0,0,0,0,0,.8-2.7,2.5-5,4.6-6.3,2-1.3,4.2-2,6.4-2s2.9.3,4.3.9h0c.3.1.5.3.8.4h0c.1,0,.2.1.3.2h0c.4.3.8.6,1.2.9l.4.3c0,0,.2.2.3.3.2.2.4.4.7.6,1.6,1.6,3.1,3.8,4.4,6.3.3.6.6,1.2.8,1.8.1.3.2.5.3.8.1.3.3.6.4,1,.2.5.3.9.5,1.4ZM749.5,59.9c2.9-4.9,5.6-9.5,6.5-15.2l4.2-24.7c.2-1,.3-2,.4-2.9.2-2.2.5-4.3,1.6-6.3l9.7,9.3c.1,0,.2.2.3.3,1.1,1.1,1.8,2.3,2.5,3.5.1.2.2.4.4.6-.2,0-.3,0-.5,0-.1,0-.3,0-.4,0-.4,0-.9,0-1.3,0-.1,0-.2,0-.4,0-.5,0-1,0-1.4.1,0,0-.2,0-.3,0-.5,0-1,.2-1.6.3,0,0,0,0-.1,0-2.3.7-4.7,1.9-7,3.6-2.4,1.8-4.3,5.7-5,9.9-.2,1.5-.3,2.9-.1,4.3,0,.1,0,.2,0,.3,0,.3,0,.7.1,1,0,.2,0,.4.1.5,0,.3.1.6.2.8,0,.2.1.4.2.6,0,.2.2.5.3.7,0,.2.2.4.3.6.1.2.2.4.3.6.1.2.2.4.4.6.1.2.2.4.3.5.3.3.5.7.8,1,0,0,0,0,0,0h0s0,0,0,0h0c.1.2.3.3.4.4.3.3.6.5.9.8,0,0,0,0,0,0h0s0,0,0,0c1,.9,1.8,1.5,2.6,2,.9.6,1.8,1,2.8,1.2l-19.7,9.6c.8-1.5,1.7-3,2.5-4.4ZM732.1,81.1s0,0,0,0c0,0,0,0,0,0,1.3-1.1,2.7-2.3,4.1-3.4.8-.6,1.6-1.2,2.3-1.8,1-.8,2-1.5,2.9-2.1,0,0,0,0,0,0h0s0,0,0,0c3-2.1,5.9-3.8,8.6-5.2l40.3-20.3c1-.5,2.5-1,3.8-1.2l-62.5,34.2c0,0,.1-.1.2-.2ZM728.3,97.8s0,0,0,0h.1c0-.1.2-.1.3-.2h0c.1,0,.2-.1.3-.2.6-.3,1.2-.6,1.8-.9.9-.5,1.8-.9,2.7-1.4.3-.2.7-.4,1-.5.7-.3,1.3-.7,2-1,.6-.3,1.3-.6,1.9-.9.4-.2.7-.3,1.1-.5,1-.4,1.9-.9,2.9-1.3,0,0,0,0,0,0h0c.6-.2,1.2-.5,1.8-.7,0,0,0,0,0,0,1.2-.4,2.2-.8,3.3-1.1h0s.3,0,.3,0h0c1.2-.4,2.4-.7,3.7-1,4.5-1.1,11.1-.4,18.5,2,0,0,0,0,.1,0,5.9,1.9,11.6,4.7,14.8,7.3l13.9,11,5.6,10.8-5.6,34.2-2.9,12.2-3.6,20.8-16.6,8.4-30.2-55.9-21.6-38.7c1.5-.8,2.9-1.5,4.3-2.3ZM633.3,155.4l58.8-40,19.8-11.9.3.3c.3.3.6.6.9.8h0s0,0,0,0c.3.3.8.6,1.2.5h.3c0,0,0-.1,0-.1l2.3-.8c0,0,.2.2.3.3.2.2.3.4.5.6.2.3.4.5.6.8,0,0,0,.1.1.2.8,1.1,1.4,2.3,2.1,3.4l34.3,63.6,12.9,25.3c-.6.1-1.1.3-1.7.5h0s0,0,0,0c-.8.3-1.7.6-2.7,1,0,0,0,0,0,0h0s0,0,0,0c-1,.4-1.9.9-3,1.4l-.8.4c-.4.2-.8.4-1.2.6-.8.4-1.7.8-2.6,1.2h0s-50.1,22.9-50.1,22.9c-1.1.5-2.1.9-3.2,1.2,0,0-.1,0-.2,0-5.7,1.8-10.3.6-14.3-3.8l-13.1-17.8c-9.7-13.2-24.9-18.4-39.7-22.5-2.2-.6-4.5-1.2-6.8-1.8-1.2-.3-2.5-.7-3.7-1,0,0-.1,0-.2,0-1.4-.4-2.8-.8-4.2-1.2-.2,0-.3,0-.5-.1-2.2-.6-4.1-1.2-5.8-1.8-3.1-1-5.7-1.5-8.5-.9l27.8-21.4ZM595,184.4h0c0,.1-.1.5-.1.5h0s-.6,1.6-.6,1.6l-.3.5h0s0,.2,0,.2h.6l39,11.6,18.8,7.3c5.7,2.2,9.3,7.7,12.5,12.6v.2c.6.8,1.1,1.5,1.6,2.2,2.2,3.3,4,5.9,4.8,8.9.9,3.1.7,6.4-.7,10.6,0,0,0,0,0,0,0,.3-.2.6-.3.9l-30.1,13.6-68.6,32.3c-14.1,6.6-27.9,13.3-40.9,22.3l-20.1,14.3-22.4-26.9c-.4-.5-.8-.9-1.2-1.3-.7-.8-1.5-1.4-2.2-1.8,0,0,0,0,0,0,0,0,0,0,0,0,0,0,0,0,0,0-.4-.2-.8-.5-1.3-.6l16.5-19.2,39.5-40.4,50.4-45.3,5.1-3.7ZM509.2,162.5l72.6,21-60.3,55-44.8,47.6c-.2-.4-.5-.7-.7-1.1h0s0,0,0,0c-.2-.3-.4-.6-.6-.8h0s0,0,0,0c0,0,0,0,0,0-.7-.9-1.5-1.9-2.6-2.9,0,0,0,0,0,0-.9-.9-1.8-1.7-2.7-2.6-.7-.7-1.5-1.4-2.2-2.1-.4-.4-.8-.8-1.2-1.2-1.6-6.7.5-12.6,2.7-18.9.4-1.1.8-2.2,1.1-3.3,8.7-25.9,17.5-46.9,27.6-66,4.9-9.3,8.3-17,10.9-24.6ZM66,639.3c0-.5.2-.9.3-1.4h0s0,0,0,0c0,0,0,0,0-.1.1-.5.3-1.1.4-1.6,0-.2,0-.3.1-.5.2-.6.4-1.2.6-1.8,0,0,0,0,0,0,.5-1.4,1.1-2.7,1.7-4l18-36.5,143.4,42c1,.3,2,.6,2.9.9h.3c0,0,0,0,0,0,0,0,0,0,0,0h.3c1,.4,1.9.6,2.9.9,0,0,0,0,0,0h0s6.3,1.8,6.3,1.8h0c1.7.5,3.4,1,5.2,1.5l1.1.3s0,0,0,0h0c.1,0,.2,0,.3,0,5.9,1.7,12.2,3.5,18.4,5.5,4.5,1.4,8.5,2.8,12.4,4.2h.3c0,0,.2,0,.2,0,.2-.1.3-.3.5-.4.6-.6,1-1.3,1.3-2.1.3-1,.4-1.9.2-2.7v-.3h-.3c-11.9-4.5-23.6-7.7-35.9-11.2-3.9-1.1-7.8-2.2-11.8-3.4,0,0,0,0,0,0-.5-.1-1-.3-1.5-.4l-143.6-42.7c4.9-10.3,8.9-20.6,13.1-31.6,1.3-3.3,2.6-6.6,3.9-9.9l9.4-23.6h0s.2-.4.2-.4h0s.1-.3.1-.3h-.5c-.3-.2-.5-.4-.8-.5-2.1-1.5-4.1-2.8-5.1-5.2-7-16.6-13.1-32.7-18.7-49.2l-6.5-15.6-43.5-108.1,11.9-22.6,10.3-26.6h0s0,0,0,0l18.1-59.9,42.1-74.8,23.5-37.5c2.6-4.1,4.4-7.7,5.5-11.2.3-.9.5-1.8.8-2.8l5.1-22.6-.5-35.2,68.7,22.6,49.6,15.5,146.8,47.9,80.5,25.5-6.5,15.6-2.6,5.1c-7.9,15.7-15.4,30.5-21.2,46.9l-11.7,33.4c-1.3,3.6-1.5,10.9,0,14.6,1.1,2.1,2.6,4.1,4.6,6.1,0,0,0,0,0,0h0c1.9,1.9,4.2,3.9,6.9,5.7l.4.3h0s-43.4,55.9-43.4,55.9l-36.7,54.3-30.3,53.7-25.1,50-21.5,53.7-33.9,91.8h0c-9.1,24.8-16.6,44.1-24.3,62.4-.1-.6-.3-1.2-.5-1.8-.1-.3-.5-.6-1.9-1.1-.3-.1-.6-.2-.9-.3l-.7-.2h0s-1-.3-1-.3h0s0,0,0,0c-2.2-.7-5.4-1.6-9.7-2.7-.4-.1-.8-.2-1.3-.3h-.4c0-.1-.1-.1-.1-.1h0s-.5-.1-.5-.1h0c-.7-.2-1.4-.4-2.1-.5h0s-.4-.1-.4-.1c-.3,0-.5-.1-.8-.2-.8-.2-1.7-.4-2.5-.6-4.5-1.1-9.4-2.3-14.7-3.6-1.4-.3-2.7-.7-4-1-1.3-.3-2.7-.6-4-.9-1.3-.3-2.6-.6-3.8-.9h0s-4.8-1.1-4.8-1.1c-1.9-.5-3.7-.9-5.3-1.3l-64.5-15.6-48.9-17.7-21.2-8.7c.2-3.6.5-7.8,1.4-11.9ZM139.6,786.2l-45.4-23.6-20.2-10.8c-.5-.3-1-.6-1.5-1,0,0-.2-.2-.3-.3-.2-.2-.4-.3-.6-.5,0,0,0,0,0,0-.5-.5-.9-1-1.3-1.5-.8-.9-1.6-1.9-2.7-2.7h0s0,0,0,0c-.2-.1-.3-.2-.5-.3l-14.3-8.6c5.2-8.7,7.8-16.7,8.1-25.3l1.7-43.2,1.3-6.9,14.2,4.6,36.2,13.8,17.2,5.9,38.5,8.5,86.5,22-7.8,17.8c-.4-.3-.9-.5-1.4-.4-.1,0-.3,0-.3,0,0,0,0,0,0,0,0,0,0,0,0,0h0c-.6.2-1.1.7-1.6,1.7l-7.2,12.4c-.1,0-.2,0-.4,0,0,0-.2,0-.2,0-.5.1-1,.4-1.5.6-1.3.7-2.5,1.7-3.7,3.4h0s0,0,0,0,0,0,0,0c-.3.4-.6.8-.9,1.2-.9,1.3-1.8,2.7-2.7,4.2-3.1,5-6.9,11.3-14.1,16-1.1.7-2.1,1.4-3.1,2-7.6,5-11,7.3-16,8.5-.2,0-.5.1-.7.2h0s0,0,0,0c0,0-.2,0-.3,0,0,0,0,0,0,0h0c-.4,0-.8.1-1.2.2h0s0,0,0,0h-.3c-.8.2-1.7.3-2.7.4-.2,0-.4,0-.6,0h-.1c-.4,0-.8,0-1.3.1-.2,0-.5,0-.7,0-.9,0-1.9,0-3,.1-.5,0-1.1,0-1.6,0h0c-.3,0-.6,0-.9,0,0,0,0,0,0,0h0s0,0,0,0c-.7,0-1.5,0-2.3,0h-4.5c0,0-.2-.1-.2-.1l-.2.2-35.3.9ZM147.7,802.3s0,0,0,0c0-.1,0-.2-.1-.3,0,0,0,0,0,0,0-.1,0-.3.1-.4,0,0,.2-.1.3-.2h0s0,0,0,0l13.6,7.7c-4.2,5-5.9,10.1-7.8,16.3l-3.2-16.8h.2l-.3-.6v-.4c0,0-.2,0-.2,0l-2.6-5.2ZM239.6,909.9l-9.5,24.3c-.6,1.4-.8,2.9-1.1,4.4-.5,2.6-1,5.1-2.9,7.1l-10.1-4.1-60.7-26.1c-1.4-.6-2.9-1.1-4.3-1.6-1.5-.5-2.9-1-4.3-1.6,0,0,0,0,0,0h0c-.1,0-.3-.1-.4-.2-.4-.2-.7-.3-1.1-.5l-.2.4v-.5c0,0,0,0,0,0-.2,0-.3-.2-.5-.3h0s0,0,0,0c-.6-.4-1.1-.7-1.6-1.1l7.6-7.7h0c.1-.1.4-.2,1,0,0,0,0,0,0,0,.6.1,1.2.4,1.8.6.6.2,1.1.4,1.5.5h0c0,0,.2,0,.2,0h.1s0,0,0,0h0l15.5-11.9c5.6-4.3,11-7.3,16.6-9.1h0s0,0,0,0c.8-.3,1.7-.5,2.6-.8.6-.1,1.2-.3,1.7-.4h0c.6-.1,1.2-.2,1.8-.3.3,0,.6-.1.9-.1.5,0,1.1-.1,1.6-.2h0s.2,0,.2,0c.3,0,.6,0,.9,0l38-3,14.9,2.7-10.2,29.6ZM316.3,976.8c-2.2,0-4.2-.8-6.4-1.5-1.1-.4-2.2-.8-3.4-1.1l-53.9-15-1-.3c-2.1-.6-4-1.1-5.9-1.9-.2,0-.4-.2-.6-.2h0c0,0-.2,0-.2,0-.9-.4-1.7-.8-2.4-1.2-.3-.2-.4-.6-.2-1l3.2-4.2,18.1-42.9c.3-.7.6-1.3,1.1-1.9.3-.4.6-.8.9-1.1,1.3-1.3,2.9-2.3,4.6-2.7.2,0,.3,0,.5,0,0,0,.1,0,.2,0,0,0,0,0,0,0,1.5-.2,3.1,0,4.6.5,1.6.6,2.9,1.2,4.1,1.9,2.3,1.3,4.3,2.8,5.9,4.5h0c0,.1,0,.1.1.2,0,0,.1.1.2.1l7.4,4.1c0,0,.1,0,.2.1l33.2,29-10.3,34.9ZM298.2,899.8l-15.2-13.8c-1.9-1.7-4.3-4.1-6.2-7,0,0-.1-.2-.2-.3h0c-.3-.6-.6-1.1-.9-1.6-.4-.8-.8-1.5-1.1-2.4l11.8-59.8,1.2-10.3,61,9.2-1.4,52.2c-.2,8.6-2,16.4-4.7,25.5l-10.3,35.2-34-26.9ZM379.5,966.1l-39.4-33.2-.4-.3c-1.1-.9-1.9-1.6-2.3-2.6,0-.1-.1-.3-.1-.5h0c0-.2,0-.5,0-.8l12.3-44.1c1-.1,2,.2,3.1,1.1l39.2,31.7c.3.2.5.4.8.6.8.6,1.5,1.1,1.8,1.8h0c.2,1.2-1.2,3.1-3.1,5.6-3.9,5-9.7,12.7-9.9,24.7,0,1.2,0,2.4,0,3.6,0,4.2.2,8.2-2,12.6ZM445.5,997.7c-1.8,2.8-7.4,10.2-11,10.2-3.3,0-8.9-5-8.9-5.1l-12.7-9.7-29.7-24.2c2.1-5.3,2.1-10.2,2.1-15.3v-1.6c.1-10.7,5.1-21.1,13.6-28.7l16.4,13.6,47.4,39-17.2,21.9ZM491.8,941.8l-26.7,30.7-50.9-41.8-11.8-10.2,36.5-43.1,35.1,26.5,30.9,23.8-13.2,14ZM476.8,898.1l-34-25.3c.6-.7,1.1-1.4,1.7-2.1,0,0,0,0,0,0h0s0,0,0,0c.7-.8,1.3-1.7,2-2.5,1.3-1.7,2.7-3.3,4-5,5-6.3,10.3-13.2,15-20.3,2.5-3.7,4.6-7.3,6.6-11l7.1-20,6.9-18,16.9,20,10.2,49h0s7,17.6,7,17.6l15.3,19.1-25.6,23.3-33.1-24.8ZM573.8,983.8l-26.1-27.2h0s-33.4-29.7-33.4-29.7l25-22.6,20.9,24.3,11.1,15,19.8,24.2c-3.8,3-8.3,6.5-12.4,10.7h0c-1.1,1.1-2.2,2.2-3.2,3.3-.6.6-1.2,1.3-1.7,2ZM595.5,974.2l-15.9,15c-.3-.2-.6-.4-.8-.6,0,0,0,0,0,0h0c-.1-.1-.2-.2-.3-.3h0s0,0,0,0c0,0,0,0-.1-.1,0,0,0,0,0,0-.4-.4-.7-.8-1.2-1.5l16.8-15.4s0,0,.1,0c0,0,0,0,.1,0,0,0,.1,0,.2.1h0c0,0,0,.4,0,.4h.3s0,0,0,0c.3.4.6.9.8,1.4,0,.1,0,.3.1.4,0,0,0,0,0,0,0,.3,0,.5,0,.5ZM625.9,942l-12.6,18.4c-.5.7-1,1.3-1.6,1.9-1.5,1.5-3.4,2.8-5.5,4.1-1.4.9-2.9,1.9-4.3,3h-.1c0,.2-.2.2-.2.2-.7.2-2-.7-2.5-1.7-.3-.5-.3-.9-.2-1l10-8.8h0l12-17.4,12.7-20c1,0,2.2.5,3.2,1.5h0c.2.3.4.5.6.8l-11.6,19ZM620.5,933.7l-13.9,20.5-10.8,9.6-20.3-25.2-19.9-24.2-11.6-14.1,23.9-20.2,27-21.3,24.6,22.6,20.7,20.7-19.9,31.6ZM746.6,1001.7c-6.2,5.3-13.9,3.5-17,.2-3.4-3.6-31-33.2-33.1-35.5l-20.6-22.2-32.4-22.8,8-12.9-22-23.9-30.9-28.3c21-17.3,40-30.3,60-40.8l29.7-7.7,73-.2,10.1,64.4,8.1,77.9c0,3.1.4,6,.9,9,.7,3.3,1.7,6.7,3.2,10.7-3,2.6-31.1,27.1-37,32.1ZM852.9,931.2l-28.9,12.6-36.9,23.6-3.1-10-6.1-59.7c-2.9-28-6.2-58-12.5-89.5l83.3.2,12.7,9.4,13.4,39.3,21.1,59.6-43,14.6ZM909.7,962.5h0s-31.7,18.6-31.7,18.6l-19.1-40.1,42.6-15.3,16.6,32.3-8.4,4.6ZM1032.3,910.5l-2,14.1h0s-.7,5-.7,5l-44.6,4-24.4,7.3h0s-16.3,4.9-16.3,4.9l-22.4,10.8-16.4-31.9,38-12.9,30-9.2,62.2-14.6-3.3,22.6ZM1067.5,900l-.4,17.4-31.7-.7,4.5-29.8,25.5-4.4c1.6,5.2,2.2,10.5,2.1,17.4ZM1047,875.1c5.4-9.8,11.6-20.1,19.8-29,4,1.6,6.7,4.4,9.6,7.4,1,1.1,2.1,2.2,3.3,3.3l4.5,11.8-37.2,6.5ZM1147.9,915.8c0,.1,0,.3,0,.5,0,.2,0,.5-.1.7,0,0,0,0,0,0-.5.5-1.6.5-2.7.5h-74.1c0-.1-.1-27.7-.1-27.7l-.9-8.2,68.8-11.9,9.2,46h0ZM1244.4,921.9l-42.3-3.5-31-4.2h0s-14.5,1.3-14.5,1.3l-9.3-46.1c.8-1.3,2.1-1.4,3.8-1.6.3,0,.7,0,1,0l29.3-3.4,20.5,2.3,47.5,9.8-5,45.5ZM1211.3,857.6c-10.1-2.3-19.7-4.4-29.6-4.4s-6.4.2-9.6.7l-27.2,4.4-6.7-25.9,22.9-12.1,46-27,20.1-12.8,33.3,4.5c1.2.2,2.8.4,3.4.8.7.5,1.1,1.4,1.2,2.5h0c0,.3,0,.6,0,1,0,.2,0,.4,0,.6l-12.1,63.1-2.2,13.4-39.4-8.9ZM1320.1,927.7l-69.8-5.3,5-45.1,41.6,8.2,15.6,2.8,13.5,2.4-5.9,37ZM1327.2,927.6h0s-.5,0-.5,0c0,0,0,.2-.2.3,0,0,0,0-.1,0,0,0-.2,0-.3.1-1.2.2-1.6,0-1.6,0,0,0,0,0,0,0,0-.3,0-1.1,0-2.1v-.7c.1,0,5.4-33.6,5.4-33.6,1.4.1,2.2.2,2.8.4-.9,12.7-3.3,23.8-5.7,34,0,.2,0,.4,0,.6,0,.2,0,.3,0,.5h0c0,.1,0,.2,0,.2,0,0,0,.1,0,.2l.5.2ZM1463.3,936.8l-113.1-7.4-19.5-1c3-12.2,4.9-23.3,6.1-35.8l37.1,6,90.7,13.5-1.3,24.7ZM1465.6,901.6l-127.3-18.4c1.6-15.5,4.3-29.6,8.2-43,3.2-11.2,9.2-20.1,18.9-27.9l13.8-11.2,37.7,5.3,54.2,8.7-5.4,86.4ZM1471.3,811.1l-46.1-7.2-1.6-.2h0s-43.5-6.4-43.5-6.4l.4-14.2,7.1-40.1,6-79.8,87.3,7.7-9.5,140.2ZM1585.3,951.7l-43.6-6.8-69.2-7.3,1.2-24.5,122.9,14.2,5.7,19.2-16.9,5.2ZM1603.3,928.2l68.2,8.6-1.3,15.9-61.9-7.2-5-17.2ZM1643.1,1005.5c-.5,0-1-.6-1.8-1.8-2-2.9-24.7-37.5-25.6-39l-5.7-15.3,59.7,7.3-2.3,27.8c-1.8,1.6-18.6,16.6-21.3,19l-.2.2c-1.3,1.2-2.2,2-2.8,1.9ZM1717.3,1007.2h0s-2.5,4.2-2.5,4.2c-.4.7-1.1,1.1-1.9,1.1h-65c-1,0-1.8-.7-2.1-1.6h0c-.2-.7,0-1.4.4-2l24.5-22.2h.1c0-.1.1-1.4.1-1.4h0s0,0,0,0l.2-2.2h0s2.3-23.8,2.3-23.8h0s0,0,0,0c.1-1,1-1.8,2-1.8l45.1,6s0,0,0,0l15.9,10.9-19.2,32.9ZM1739.4,969.4l-.5.9-17.9-10.4-46.8-6.8,1.4-15.7,20.9,2.6c3,.4,6.1.6,9.1.9,7.9.7,16.1,1.4,23.7,4.2l20.3,7.5-10.2,16.8Z"/>
  <polygon class="st0" points="579.6 989.9 579.6 989.9 579.6 989.9 579.6 989.9 579.6 989.9 579.6 989.9"/>
  <polygon class="st0" points="591.9 967.9 591.9 967.9 591.9 967.9 591.9 967.9 591.9 967.9"/>
  <path class="st0" d="M1129,453.9h-.1s0,0-.1-.1c0,0,.2,0,.3.1Z"/>
  <path class="st0" d="M1126.3,450.3c0,0-.2-.1-.3-.2h.1c0,0,.1,0,.2.2Z"/>
  <g>
    <path class="st2" d="M1737.2,974.2l-19.4,33.3-2.5,4.2c-.5.8-1.3,1.3-2.3,1.3h-65c-1.2,0-2.3-.8-2.6-2,0,0,0,0,0,0-.2-.8,0-1.7.5-2.3l24.5-22.2v-1.1c.1,0,.1,0,.1,0l.2-2.2,2.3-23.8s0,0,0,0c.2-1.3,1.3-2.2,2.5-2.3l45.1,6c.1,0,.2,0,.3.1l16.2,11.1Z"/>
    <path class="st2" d="M847.6,790.1c.5,3.4.8,6.4-.9,9.8l-80.7.8-8,1.2h-66.1s-.6-39.9-.6-39.9l.4-48.3.2-100.6-.9-29.1-.6-27.4-.8-36.5-2.3-55.7c0-.5,0-1.1-.2-1.7,0-.3,0-.6-.1-.9,0-.6-.2-1.2-.4-1.8-.2-.9-.5-1.8-.8-2.6-.8-2.4-2-4.7-3.3-6.2l-16.9-18-8.8-14.3-32.2-61.1h0s96.7-38.1,96.7-38.1h0c0,0,0,.1,0,.1,2,6.1,4.8,12.8,10.8,16l12.3,6.6,35.8,13.5c3.4,1.3,8.4,6.2,10,9.6l22.7,46.3c.9,1.9,1.6,4,2.1,6.1.4,1.8.7,3.7.9,5.5.2,1.9.4,3.8.5,5.6l8.3,143.8,3.8,71.3,18.6,144.3c0,.5.1,1.1.2,1.6,0,0,0,0,0,.1Z"/>
    <path class="st2" d="M467.1,616l.9,29-1,1.1-22,.3-.6-15.9-.5-52.3h12.1s0,0,0,0c0,0,0,.1,0,.1,0,0,0,.1.1.2,0,0,.1.1.2.2,0,0,.1.1.2.1,0,0,0,0,.1,0,0,0,.1,0,.2,0,.3.1.7.2,1.1.2h9.1s0,25,0,25c-1.6,3-1.6,10,0,12Z"/>
    <polygon class="st2" points="349.6 735.5 349.1 810.3 287.3 801.2 288.2 795 293.6 759.7 299.6 725.3 349.6 735.5"/>
  </g>
</svg>