<?xml version="1.0" encoding="UTF-8" standalone="no"?>
<svg xmlns:ffdec="https://www.free-decompiler.com/flash" xmlns:xlink="http://www.w3.org/1999/xlink" ffdec:objectType="shape" height="27.65px" width="59.95px" xmlns="http://www.w3.org/2000/svg">
  <g transform="matrix(1.0, 0.0, 0.0, 1.0, 0.0, 0.0)">
    <path d="M6.3 6.2 L4.9 6.45 4.05 6.5 Q2.05 6.5 1.2 5.6 0.35 4.65 0.35 3.4 0.35 2.55 0.8 1.7 1.2 0.9 2.05 0.45 2.9 0.0 3.95 0.0 L4.85 0.1 5.5 0.3 5.8 0.4 6.05 1.1 6.0 1.1 Q5.05 0.15 3.8 0.15 2.5 0.15 1.75 0.95 0.95 1.7 0.95 2.8 0.95 3.5 1.3 4.35 1.65 5.2 2.4 5.8 3.2 6.35 4.25 6.35 L5.65 6.1 Q6.35 5.9 6.7 5.5 L6.75 5.5 6.3 6.2" fill="#7c6954" fill-rule="evenodd" stroke="none"/>
    <path d="M14.4 6.05 Q13.9 6.5 13.1 6.5 12.6 6.5 12.15 6.15 L10.75 4.35 10.1 3.35 9.05 3.4 9.05 5.8 9.1 6.25 9.5 6.35 9.5 6.4 7.85 6.4 7.85 6.35 8.25 6.2 8.3 5.75 8.3 0.7 8.25 0.3 Q8.2 0.15 7.85 0.15 L7.85 0.1 10.65 0.1 11.25 0.3 11.75 0.8 11.9 1.5 11.6 2.4 10.8 3.15 12.0 4.95 13.0 6.0 13.65 6.2 14.4 5.95 14.4 6.05 M9.05 0.25 L9.05 3.2 9.7 3.2 Q10.5 3.2 10.85 2.85 11.25 2.45 11.25 1.9 11.25 1.35 10.85 0.8 10.45 0.25 9.55 0.25 L9.05 0.25" fill="#7c6954" fill-rule="evenodd" stroke="none"/>
    <path d="M20.0 0.8 Q20.8 1.6 20.8 2.85 20.8 4.45 19.85 5.45 18.9 6.5 17.25 6.5 15.9 6.5 15.1 5.65 14.25 4.8 14.25 3.6 14.25 2.85 14.65 1.95 15.1 1.05 15.9 0.55 16.6 0.0 17.8 0.0 19.15 0.0 20.0 0.8 M20.05 4.85 Q20.45 4.2 20.45 3.6 20.45 2.8 19.95 1.95 19.4 1.15 18.65 0.75 18.0 0.35 17.2 0.35 16.2 0.35 15.5 1.05 14.75 1.75 14.75 2.8 14.75 4.2 15.65 5.15 16.65 6.2 17.75 6.2 L19.05 5.85 20.05 4.85" fill="#7c6954" fill-rule="evenodd" stroke="none"/>
    <path d="M25.2 0.15 L25.5 0.95 25.45 0.95 25.2 0.7 24.65 0.35 23.95 0.2 Q23.3 0.2 22.95 0.55 22.55 0.95 22.55 1.45 L22.75 2.05 23.5 2.55 24.8 3.05 25.5 3.6 Q25.85 3.95 25.85 4.6 L25.8 5.1 25.6 5.55 25.25 5.95 24.9 6.25 23.75 6.4 22.05 6.4 22.05 4.6 22.1 4.6 Q22.1 5.5 22.55 5.85 L23.85 6.2 Q24.7 6.2 25.05 5.85 L25.5 4.9 25.35 4.35 24.95 3.95 22.9 3.1 22.45 2.5 22.25 1.7 Q22.25 0.95 22.75 0.5 23.2 0.0 24.05 0.0 L24.75 0.05 25.15 0.15 25.2 0.15" fill="#7c6954" fill-rule="evenodd" stroke="none"/>
    <path d="M30.1 0.15 L30.4 0.95 30.35 0.95 30.1 0.7 29.6 0.35 28.9 0.2 Q28.2 0.2 27.85 0.55 27.5 0.9 27.5 1.45 27.5 1.85 27.65 2.05 L28.4 2.55 29.75 3.05 30.4 3.6 Q30.75 3.95 30.75 4.6 L30.7 5.1 30.5 5.55 30.2 5.95 29.8 6.25 28.65 6.4 26.95 6.4 26.95 4.6 27.0 4.6 Q27.1 5.55 27.45 5.85 27.85 6.2 28.75 6.2 L30.0 5.85 Q30.4 5.45 30.4 4.9 L30.25 4.35 29.85 3.95 28.85 3.55 27.85 3.1 27.35 2.5 27.15 1.7 Q27.15 0.95 27.65 0.5 28.15 0.0 29.0 0.0 L29.65 0.05 30.1 0.15" fill="#7c6954" fill-rule="evenodd" stroke="none"/>
    <path d="M33.65 0.1 L33.65 0.15 33.35 0.2 33.2 0.35 33.15 0.8 33.15 5.65 33.2 6.15 33.3 6.3 33.65 6.35 33.65 6.4 31.95 6.4 31.95 6.35 32.35 6.25 32.45 5.65 32.45 0.85 32.35 0.3 Q32.3 0.15 31.95 0.15 L31.95 0.1 33.65 0.1" fill="#7c6954" fill-rule="evenodd" stroke="none"/>
    <path d="M41.0 0.25 L40.9 0.75 40.9 6.5 35.85 1.1 35.85 5.8 35.9 6.15 36.0 6.3 36.3 6.35 36.3 6.4 35.1 6.4 35.1 6.35 35.5 6.25 35.6 5.7 35.6 1.4 35.45 0.5 Q35.25 0.15 34.7 0.15 L34.7 0.1 35.9 0.1 40.65 5.15 40.65 0.65 40.5 0.25 40.2 0.15 40.2 0.1 41.4 0.1 41.4 0.15 41.0 0.25" fill="#7c6954" fill-rule="evenodd" stroke="none"/>
    <path d="M47.55 0.45 L46.25 0.15 Q45.0 0.15 44.25 1.1 43.45 2.05 43.45 3.35 43.45 3.95 43.6 4.4 L44.1 5.25 44.85 5.9 45.75 6.2 46.55 6.25 46.9 6.25 47.6 6.15 47.75 5.7 47.75 4.75 47.65 4.35 47.3 4.3 47.3 4.2 48.95 4.2 48.95 4.3 48.55 4.4 48.5 4.8 48.5 5.8 48.55 6.2 Q48.65 6.35 48.85 6.35 L48.95 6.35 48.95 6.4 46.4 6.4 45.1 6.25 44.0 5.65 43.05 4.55 Q42.7 3.9 42.7 3.2 42.7 2.45 43.15 1.7 43.6 0.95 44.4 0.45 45.25 0.0 46.25 0.0 L48.25 0.4 48.5 1.15 48.45 1.15 47.55 0.45" fill="#7c6954" fill-rule="evenodd" stroke="none"/>
    <path d="M0.55 10.65 L4.75 10.65 5.1 10.6 5.3 10.45 5.35 10.45 5.05 11.2 5.0 11.2 5.0 11.0 4.95 10.9 4.7 10.85 3.05 10.85 3.05 16.25 3.1 16.7 3.25 16.9 3.55 16.9 3.55 16.95 1.85 16.95 1.85 16.9 2.25 16.8 2.3 16.35 2.3 10.85 0.75 10.85 0.45 10.9 0.35 11.0 0.4 11.2 0.3 11.2 0.0 10.45 0.1 10.45 0.25 10.6 0.55 10.65" fill="#7c6954" fill-rule="evenodd" stroke="none"/>
    <path d="M7.55 11.15 L7.55 13.65 11.05 13.65 11.05 11.4 10.95 10.85 Q10.9 10.7 10.6 10.7 L10.6 10.65 12.2 10.65 12.2 10.7 11.9 10.75 11.8 10.9 11.75 11.4 11.75 16.25 11.8 16.7 11.9 16.85 12.2 16.9 12.2 16.95 10.6 16.95 10.6 16.9 10.95 16.8 11.05 16.2 11.05 13.8 7.55 13.8 7.55 16.25 7.6 16.7 7.7 16.85 8.0 16.9 8.0 16.95 6.35 16.95 6.35 16.9 Q6.8 17.0 6.8 16.5 L6.8 11.4 6.75 10.85 6.35 10.7 6.35 10.65 8.0 10.65 8.0 10.7 7.65 10.8 7.55 11.15" fill="#7c6954" fill-rule="evenodd" stroke="none"/>
    <path d="M16.85 10.85 L14.8 10.85 14.8 13.7 16.7 13.7 17.1 13.65 17.15 13.5 17.2 13.5 17.2 14.1 17.15 14.1 17.05 13.9 14.8 13.9 14.8 15.85 14.85 16.45 15.1 16.7 15.65 16.75 17.45 16.75 17.7 16.6 17.85 16.1 17.9 16.1 17.9 16.95 13.6 16.95 13.6 16.9 13.95 16.8 14.05 16.45 14.05 11.35 14.0 10.85 Q13.95 10.7 13.6 10.7 L13.6 10.65 17.6 10.65 17.6 11.5 17.5 11.5 17.3 10.95 16.85 10.85" fill="#7c6954" fill-rule="evenodd" stroke="none"/>
    <path d="M5.55 21.2 L6.8 21.2 6.8 21.25 Q6.5 21.25 6.4 21.4 L6.3 21.85 6.3 27.6 1.25 22.25 1.25 27.25 1.35 27.4 1.7 27.45 1.7 27.55 0.5 27.55 0.5 27.45 0.9 27.35 0.95 26.8 0.95 22.5 0.8 21.6 Q0.65 21.25 0.1 21.25 L0.1 21.2 1.25 21.2 6.0 26.25 6.0 21.8 5.9 21.35 5.55 21.25 5.55 21.2" fill="#7c6954" fill-rule="evenodd" stroke="none"/>
    <path d="M8.1 21.3 L8.1 21.2 12.1 21.2 12.1 22.05 12.05 22.05 11.8 21.5 11.4 21.4 9.3 21.4 9.3 24.25 11.25 24.25 11.6 24.2 11.7 24.05 11.75 24.05 11.75 24.65 11.7 24.65 11.6 24.5 11.3 24.45 9.3 24.45 9.3 26.4 9.4 27.0 9.65 27.25 10.2 27.3 11.95 27.3 12.25 27.15 12.4 26.65 12.45 26.65 12.45 27.55 8.1 27.55 8.1 27.45 8.45 27.4 8.55 27.0 8.55 21.9 8.5 21.4 8.1 21.3" fill="#7c6954" fill-rule="evenodd" stroke="none"/>
    <path d="M18.1 21.45 L19.85 26.35 21.55 21.65 21.6 21.45 21.4 21.25 21.4 21.2 22.3 21.2 22.3 21.25 Q21.9 21.25 21.7 21.9 L19.65 27.65 19.55 27.65 17.8 22.8 16.1 27.65 16.0 27.65 13.95 22.0 13.7 21.45 13.25 21.25 13.25 21.2 14.75 21.2 14.75 21.25 14.55 21.45 14.6 21.7 16.3 26.3 17.65 22.45 17.55 22.05 17.2 21.4 Q17.05 21.25 16.85 21.25 L16.85 21.2 18.3 21.2 18.3 21.25 18.1 21.45" fill="#7c6954" fill-rule="evenodd" stroke="none"/>
    <path d="M26.6 21.25 L26.6 21.2 29.55 21.2 31.3 21.4 32.4 21.9 33.15 22.9 33.45 24.2 33.15 25.55 32.35 26.7 31.3 27.35 29.6 27.55 26.6 27.55 26.6 27.45 26.7 27.45 27.0 27.3 27.1 26.6 27.1 22.0 27.0 21.35 26.6 21.25 M27.8 21.35 L27.8 26.25 Q27.8 26.75 27.95 26.95 L28.5 27.25 29.5 27.35 Q31.35 27.35 32.0 26.45 32.75 25.55 32.75 24.45 32.75 23.25 31.75 22.25 30.8 21.35 28.8 21.35 L27.8 21.35" fill="#7c6954" fill-rule="evenodd" stroke="none"/>
    <path d="M36.4 21.2 L36.4 21.25 36.15 21.3 35.95 21.45 35.9 21.9 35.9 26.8 35.95 27.25 36.1 27.4 36.4 27.45 36.4 27.55 34.7 27.55 34.7 27.45 35.1 27.35 35.2 26.8 35.2 22.0 35.1 21.4 Q35.05 21.25 34.7 21.25 L34.7 21.2 36.4 21.2" fill="#7c6954" fill-rule="evenodd" stroke="none"/>
    <path d="M37.75 21.35 L37.45 21.25 37.45 21.2 38.9 21.2 38.9 21.25 Q38.7 21.25 38.7 21.4 L40.7 26.4 42.7 21.4 Q42.7 21.25 42.45 21.25 L42.45 21.2 43.4 21.2 43.4 21.25 43.2 21.3 43.0 21.5 42.85 21.7 40.5 27.65 40.4 27.65 38.15 22.05 37.75 21.35" fill="#7c6954" fill-rule="evenodd" stroke="none"/>
    <path d="M46.15 21.2 L46.15 21.25 45.85 21.3 45.7 21.45 45.65 21.9 45.65 26.8 45.7 27.25 45.8 27.4 46.15 27.45 46.15 27.55 44.45 27.55 44.45 27.45 44.85 27.35 44.95 26.8 44.95 22.0 44.85 21.4 Q44.8 21.25 44.45 21.25 L44.45 21.2 46.15 21.2" fill="#7c6954" fill-rule="evenodd" stroke="none"/>
    <path d="M47.5 21.25 L47.5 21.2 50.4 21.2 52.15 21.4 53.25 21.9 54.0 22.9 54.3 24.2 54.0 25.55 53.2 26.7 52.15 27.35 50.45 27.55 47.5 27.55 47.5 27.45 47.55 27.45 Q47.8 27.45 47.85 27.3 L47.95 26.6 47.95 22.0 47.85 21.35 47.5 21.25 M48.65 21.35 L48.65 26.25 48.85 26.95 Q49.0 27.2 49.35 27.25 L50.4 27.35 Q52.15 27.35 52.9 26.45 53.6 25.5 53.6 24.45 53.6 23.25 52.6 22.25 51.65 21.35 49.65 21.35 L48.65 21.35" fill="#7c6954" fill-rule="evenodd" stroke="none"/>
    <path d="M56.8 21.4 L56.8 24.25 58.75 24.25 59.1 24.2 59.2 24.05 59.25 24.05 59.25 24.65 59.2 24.65 59.1 24.5 58.8 24.45 56.8 24.45 56.8 26.4 56.9 27.0 57.15 27.25 59.5 27.3 59.75 27.15 59.9 26.65 59.95 26.65 59.95 27.55 55.65 27.55 55.65 27.45 55.95 27.4 56.05 27.0 56.05 21.9 56.0 21.4 55.65 21.3 55.65 21.2 59.6 21.2 59.6 22.05 59.55 22.05 59.3 21.5 58.9 21.4 56.8 21.4" fill="#7c6954" fill-rule="evenodd" stroke="none"/>
  </g>
</svg>
