<?xml version="1.0" encoding="UTF-8"?>
<svg id="_圖層_1" data-name="圖層_1" xmlns="http://www.w3.org/2000/svg" xmlns:xlink="http://www.w3.org/1999/xlink" xmlns:ffdec="https://www.free-decompiler.com/flash" version="1.1" viewBox="0 0 170 71.3">
  <!-- Generator: Adobe Illustrator 30.5.1, SVG Export Plug-In . SVG Version: 2.1.4 Build 3)  -->
  <defs>
    <style>
      .st0 {
        filter: url(#drop-shadow-1);
      }

      .st1 {
        fill: #fff;
      }

      .st2 {
        opacity: .7;
      }
    </style>
    <filter id="drop-shadow-1" x="0" y="0" width="141.8" height="71.3" filterUnits="userSpaceOnUse">
      <feOffset dx="0" dy="0"/>
      <feGaussianBlur result="blur" stdDeviation=".8"/>
      <feFlood flood-color="#231815" flood-opacity=".6"/>
      <feComposite in2="blur" operator="in"/>
      <feComposite in="SourceGraphic"/>
    </filter>
  </defs>
  <g class="st0">
    <path class="st1" d="M113.4,10h16.9s7.1-1.6,7.1-1.6c0,0,1.6-.2,4.4,2.5-.1.8-.9,1.2-2,1.2h-51.8c0,0,0,16.4,0,16.4,0,12.3-.5,28.5-12.4,39.6l-.9-.7c6.2-11.4,6.6-25.8,6.6-38.8V10.7c0-.9.8-1.7,1.7-1.5l6.1.8h17.7s6.7,0,6.7,0Z"/>
    <path class="st1" d="M115.3,37.4h15.9c0,0,.1,0,.2,0l3.1-.2c2.4-.3,4.2,0,4.9.7l1.6,1.6c.3.4.2,1-.2,1.2-5.7,2.9-9.4,6.1-12,8.4-.6.5-1.4-.3-.9-1,1.3-2.2,2.9-5.1,3.2-7.5,0-.5-.2-.9-.7-.9h-13.5c-.4,0-.7.3-.7.7v21.7c0,5-1.1,8.3-9,9.2-.3,0-.8-.2-.7-.6.3-1.4-1.8-5.7-6.5-6.9-.4-.1-.2-.8.2-.7,2.5.2,6.5.5,7.6.5,1.2,0,1.6-.6,1.6-1.5v-21.5c0-.4-.3-.7-.7-.7h-17.6c-.1,0-.3,0-.4-.2l-1-2h24.7s1,0,1,0Z"/>
    <path class="st1" d="M114.5,36.3c-.2,0-.5-.2-.8-.2-1.8-5.9-10.9-11.8-10.9-11.8,6.2.1,10,1.9,12.2,4.1,2.5-2.4,5.7-5.6,7.9-8.3h-26.8s-.6-2.2-.6-2.2h28.3s5-1,5-1c.5,0,1,.1,1.4.6l2.6,3.2c-.5.6-12.2,6.8-16.9,8.8,2.3,3.1,1.6,6.5-.5,6.9h-.9Z"/>
    <path class="st1" d="M14.7,51.3c-1-1.3-1.9-2.7-2.8-4.3l3.2-5.1-3.9-1.2s-.8,3.9-1.4,5c-2.3,4.5-6.8,11.7-9.9,14.7l4.4,5.1c.3-1.5,5.1-13,7.1-17.4,5.4,14.5,13.5,17.8,29.7,17.8h20.5c1.7,0,1.5-4.2,3.7-6.4v-1.1c-5.8.2-18.7.2-24.1.2-12.4,0-20.2-.9-25.6-6.4l-1-1Z"/>
    <path class="st1" d="M19.2,51.6c15-7.7,36.8-31.3,40.8-35.9.4-.4.4-1.1,0-1.6l-1.5-2.3c-.4-.6-1.1-1-1.8-.8l-7.3.8-10.8.6h-2s-7,0-7,0h-3.4s-18.6,0-18.6,0l1.1,1.8c.2.3.6.5.9.5h39.5c-6.5,12.5-19,26.5-31.2,35.7l1.1,1.2Z"/>
    <path class="st1" d="M36.2,10.1V2.9c0-.7.3-1.4,1.6-1.7h-9.1s0,8.9,0,8.9h7.5Z"/>
    <path class="st1" d="M114.9,8.9V1.7c0-.7.3-1.4,1.6-1.7h-9.1s0,8.9,0,8.9h7.5Z"/>
  </g>
  <g class="st2">
    <g>
      <path class="st1" d="M166.2,8.9h2.5c.5,0,.7,0,1.1-.3h0v1.3s0,0,0,0c-.3-.2-.6-.3-1.1-.3h-2.5c-1.3,0-1.7.7-1.7,1.7,0,1.3.9,1.7,1.8,1.7h2.3c.6,0,.8-.1,1.2-.6h0v1.3s0,0,0,0c-.4-.4-.7-.5-1.2-.5h-2.3c-1.1,0-2-.5-2-2.1,0-1.2.5-2.2,1.9-2.2Z"/>
      <path class="st1" d="M164.4,15.5c.4.3.6.3,1.1.3h3.2c.5,0,.7,0,1.1-.3h0v2.1c0,1.3-.5,1.9-1.3,1.9-.7,0-1.2-.4-1.5-1.2l-1.7,1c-.6.3-.8.5-.9.9h0v-1.1s2.6-1.5,2.6-1.5v-1.1s-1.5,0-1.5,0c-.5,0-.7,0-1.1.3h0v-1.3s0,0,0,0ZM169.7,16.5h-2.5s0,1,0,1c0,1,.7,1.3,1.4,1.3.7,0,1.1-.3,1.1-1.3,0-.2,0-.5,0-1Z"/>
      <path class="st1" d="M164.4,22h0c.4.3.6.3,1.1.3h3.2c.5,0,.7,0,1.1-.3h0c0,1.3,0,1.4,0,2,0,1.7-.7,2-1.3,2-.6,0-1.1-.4-1.3-1.1-.1,1-.7,1.4-1.4,1.4-.9,0-1.5-.7-1.5-2.3v-2ZM165.9,25.6c.7,0,1.3-.4,1.3-1.3v-1.3s-2.5,0-2.5,0c0,.3,0,.6,0,1,0,1.1.5,1.6,1.3,1.6ZM167.3,24.2c0,.9.7,1.2,1.2,1.2.8,0,1.1-.5,1.1-1.4,0-.4,0-.7,0-.9h-2.3s0,1.2,0,1.2Z"/>
      <path class="st1" d="M164.4,28.7v-1s0,0,0,0c.3.3.5.4,1.1.7l4.4,1.8v.2s-4.5,1.8-4.5,1.8c-.6.2-.8.4-1,.6h0v-1.3s0,0,0,0c.2.1.5.2,1,0l1-.4v-2.1s-.8-.3-.8-.3c-.6-.3-1,0-1.2,0h0ZM169.1,30l-2.5-1v2s2.5-1,2.5-1Z"/>
      <path class="st1" d="M169.1,35.1h-3.4c-.6,0-.8.1-1.2.6h0v-1.2s0,0,0,0c.4.4.7.4,1.2.4h3.4c.4-.1.6-.3.8-.7h0v1s-4.5,3.8-4.5,3.8h3.2c.6,0,.8-.1,1.2-.5h0v1.1s0,0,0,0c-.4-.4-.7-.4-1.2-.4h-4.2s0-.2,0-.2l4.7-4Z"/>
      <path class="st1" d="M167.1,43.9c1.6,0,2.8,1.4,2.8,3,0,1.6-1.2,3-2.8,3.1-1.6,0-2.8-1.4-2.8-3,0-1.6,1.2-3,2.8-3ZM167.2,49.2c1.5,0,2.7-.8,2.7-2.3,0-1.5-1.2-2.3-2.7-2.3-1.5,0-2.7.8-2.7,2.3,0,1.5,1.1,2.3,2.7,2.3Z"/>
      <path class="st1" d="M164.5,52.2v-1s0,0,0,0c.3.3.5.4,1.1.7l4.4,1.8v.2s-4.5,1.8-4.5,1.8c-.6.2-.8.4-1,.6h0v-1.3s0,0,0,0c.2.1.5.2,1,0l1-.4v-2.1s-.8-.3-.8-.3c-.6-.3-1,0-1.2,0h0ZM169.1,53.5l-2.5-1v2s2.5-1,2.5-1Z"/>
      <path class="st1" d="M168.6,61.4h0c1-.5,1.3-1.1,1.3-1.7,0-.8-.4-1.1-.9-1.1-.7,0-1,.7-1.3,1.5-.3.8-.7,1.7-1.7,1.7-1.1,0-1.5-1-1.5-2.1,0-.6.1-1.1.3-1.6l1.2-.2h0c-.9.6-1.3,1.1-1.3,2,0,.9.5,1.3,1.1,1.3.8,0,1.1-.7,1.4-1.4.3-.8.7-1.7,1.6-1.7.9,0,1.3.8,1.3,1.8,0,.5,0,1-.2,1.3l-1.2.2Z"/>
      <path class="st1" d="M164.5,63.8c.4.3.6.3,1.1.3h3.2c.5,0,.7,0,1.1-.3h0v1.3s0,0,0,0c-.4-.3-.6-.3-1.1-.3h-3.2c-.5,0-.7,0-1.1.3h0v-1.3s0,0,0,0Z"/>
      <path class="st1" d="M168.6,70.5h0c1-.5,1.3-1.1,1.3-1.7,0-.8-.4-1.1-.9-1.1-.7,0-1,.7-1.3,1.5-.3.8-.7,1.7-1.7,1.7-1.1,0-1.5-1-1.5-2.1,0-.6.1-1.1.3-1.6l1.2-.2h0c-.9.6-1.3,1.1-1.3,2,0,.9.5,1.3,1.1,1.3.8,0,1.1-.7,1.4-1.4.3-.8.7-1.7,1.6-1.7.9,0,1.3.8,1.3,1.8,0,.5,0,1-.2,1.3l-1.2.2Z"/>
      <path class="st1" d="M154.2,12.7v-4s0,0,0,0c.4.2.6.3,1,.3h3.3c.4,0,.6-.1,1-.3h0v3.6s-1.2.3-1.2.3h0c.4-.5,1-.9,1-1.2v-1.7s-2.4,0-2.4,0v1c0,.3.4.6.7.8h0c0,0-1.5,0-1.5,0h0c.2-.3.7-.6.7-.9v-1s-2.5,0-2.5,0v1.8c0,.6.6,1.1,1.2,1.5h0c0,0-1.3-.3-1.3-.3Z"/>
      <path class="st1" d="M158.4,18.3h0c1-.5,1.3-1.1,1.3-1.7,0-.8-.4-1.1-.9-1.1-.7,0-1,.7-1.3,1.5-.3.8-.7,1.7-1.7,1.7-1.1,0-1.5-1-1.5-2.1,0-.6.1-1.1.3-1.6l1.2-.2h0c-.9.6-1.3,1.1-1.3,2,0,.9.5,1.3,1.1,1.3.8,0,1.1-.7,1.4-1.4.3-.8.7-1.7,1.6-1.7.9,0,1.3.8,1.3,1.8,0,.5,0,1-.2,1.3l-1.2.2Z"/>
      <path class="st1" d="M154.2,23.5v-1.3s0,0,0,0c.4.3.6.3,1.1.3h4.2s0-1.1,0-1.1c0-.3-.8-.8-1.2-1.1h0c0,0,1.4.2,1.4.2v4.6s-1.4.3-1.4.3h0c.5-.4,1.2-.9,1.2-1.2v-1.1s-4.1,0-4.1,0c-.5,0-.7,0-1.1.3h0Z"/>
      <path class="st1" d="M154.3,27.3v-1s0,0,0,0c.3.3.5.4,1.1.7l4.4,1.8v.2l-4.5,1.8c-.6.2-.8.4-1,.6h0v-1.3s0,0,0,0c.2.1.5.2,1,0l1-.4v-2.1s-.8-.3-.8-.3c-.6-.3-1,0-1.2,0h0ZM158.9,28.6l-2.5-1v2s2.5-1,2.5-1Z"/>
      <path class="st1" d="M154.3,35.5v-1.3s0,0,0,0c.4.3.6.3,1.1.3h4.2s0-1.1,0-1.1c0-.3-.8-.8-1.2-1.1h0c0,0,1.4.2,1.4.2v4.6s-1.4.3-1.4.3h0c.5-.4,1.2-.9,1.2-1.2v-1.1s-4.1,0-4.1,0c-.5,0-.7,0-1.1.3h0Z"/>
      <path class="st1" d="M154.3,43.2v-4s0,0,0,0c.4.2.6.3,1,.3h3.3c.4,0,.6-.1,1-.3h0v3.6s-1.2.3-1.2.3h0c.4-.5,1-.9,1-1.2v-1.7s-2.4,0-2.4,0v1c0,.3.4.6.7.8h0c0,0-1.5,0-1.5,0h0c.2-.3.7-.5.7-.9v-1s-2.5,0-2.5,0v1.8c0,.6.6,1.1,1.2,1.5h0c0,0-1.3-.3-1.3-.3Z"/>
    </g>
  </g>
</svg>