<?xml version="1.0" encoding="UTF-8"?>
<svg id="_圖層_1" data-name=" 圖層 1" xmlns="http://www.w3.org/2000/svg" viewBox="0 0 1831 1013">
  <defs>
    <style>
      .cls-1 {
        fill: #395066;
      }

      .cls-2 {
        fill: #202936;
      }

      .cls-3 {
        fill: #48665c;
      }
    </style>
  </defs>
  <rect class="cls-2" x="-42.68" y="-23.61" width="1916.37" height="1060.23"/>
  <path class="cls-1" d="M1824.6,956.71l-26.3-3.5-36.8-3.83,6.49-12.58c1.65-3.22,3.84-8.1,4.84-13.06,1.29-6.47.79-15.27.26-24.58-.73-12.85-1.49-26.14,2.17-35.49l19.95-50.85,32.66-83.51.04-3.88c0-2.36-1.69-3.76-3.36-4.09-1.67-.33-3.76.31-4.67,2.5l-24.04,63.58-23.78,61.95c-4.83,11.91-6.87,21.7-6.84,32.73l.12,38.9c.03,7.88-4.65,14.85-8.77,21-.6.89-1.19,1.78-1.78,2.68-2.3.09-4.38-.88-6.57-1.91l-28.02-9.34-43.65-6.01,7.42-74.69,5.63-60.54,3.79-27.03.31-58.06.95-32.02.77-47.24,21.5-.98,25.77,2.96,61.39,14.48,16.88,4.52c.39.1.77.16,1.14.16,2.38,0,4.32-1.94,4.32-4.32,0-2-1.36-3.73-3.3-4.21l-50-11.91-40.87-8.41-18.72-1.03c-20.25-1.12-50.77,2.84-70.98,9.2-22.46,7.07-41.96,11.97-61.4,15.43l-39.87,7.09-9.34-14.51-21.35-61.39c-1.8-5.18-2.11-15.66-2.43-26.75-.39-13.28-.79-27-3.72-34.41l-7.66-19.32c-.18-.46-.62-.82-1.13-1.25-.71-.59-1.5-1.25-1.49-2.11l.73-42.83,2.63-84.76,53.27,9.12,35.22,8.86.06.02,31.32-.46,36.76-.95c5.21-.13,11.7-.29,15.79-3.97l27.31-24.67c2.47-2.23,6.7-3.18,10.43-4.01.86-.19,1.69-.38,2.46-.57l51.16-12.84c1.41-.35,3.66.05,5.64.4.71.13,1.39.25,1.99.33l48.11,6.34,9.13-.35c1.07-.04,1.9-.91,1.9-1.97,0-.54-.23-1.07-.63-1.44-.41-.38-.93-.56-1.5-.53l-6.99.59-57.51-7.58h-.09s-52.41,13.25-52.41,13.25c-.76.19-1.58.38-2.41.57-4.04.92-8.62,1.97-11.48,4.52l-27.96,24.97c-2.77,2.48-7.51,2.95-12.21,3.08l-28.35.85-38.65.81-38.44-9.58-51.88-8.83.69-27.4,1.71-86.58,1.85-69.91,67.14,1.51,56-.54,48.12-.95c47.43.96,75.66.15,120.81-3.47l14.25-.6c15.75-.04,17.61-17.11-5.07-16.43l-48.12,2.53-41.99,1.15-29.01.36-25.25-.15h-25.19l-131.07-.42-2.78-98.45.8-28.5c.03-1.19-.4-2.3-1.22-3.14-1.33-1.36-3.49-1.71-5.15-.82-1.34.71-2.23,2.09-2.31,3.62l-1.24,23.84,2.34,85.27c.05,1.81.17,3.58.3,5.3.3,4.24.58,8.26-.21,12.83l-57.07.12-106.25.33-20.96.16,2.35-9.95-3.21-36.03c.56-9.19,4.07-17.55,9.17-27.28l16.67-31.81c.13-.24.21-.51.23-.8.05-.74-.32-1.48-.95-1.85-1.02-.6-2.28-.2-2.81.79l-17.63,33.7c-4.64,8.87-9.45,18.04-8.58,27.95l3.09,35.07c0,.8-.11,1.67-.32,2.58-.34,1.46-.9,2.98-1.45,4.44-.39,1.05-.8,2.14-1.11,3.19l-48.23.34-35.04-42.94-7.76-21.38-8.37-24.66-.05-.11c-1.74-2.77-3.28-2.44-3.86-2.17-1.42.67-2.03,2.98-1.34,5.06l15.87,47.13.03.09,32.77,39.08-90.68-.46-30.59-.55-84.03-.21c-8.15-3.35-13.84-10.09-17.39-20.59l-16.69-49.36c-.18-.42-17.88-42.07-21.28-54.66-2.41-8.92-4.41-14.75-5.4-17.48-.05-.82-.33-1.55-.83-2.11-.72-.82-1.8-1.11-2.75-.74-.67.26-2.23,1.24-2.19,4.76.06,5.6-.2,18.49-.23,19.7l-3.81,9.68c-9.44,4.05-17.15,9-24.97,16.05-1.32,1.19-2.65,2.38-3.98,3.57-11.83,10.56-24.07,21.48-31.48,35.79-3.17,6.12-3.18,13.36-3.18,20.36,0,3.16,0,6.42-.31,9.47-2.53,1.61-5.07,3.19-7.61,4.78-8.65,5.39-17.6,10.97-25.87,17.47l-8.17,8.93c-23.9,4.36-45.22,10.27-65.13,18.05l9.94-48.77s1.97-20.14,1.96-20.16c1.36-6.97,3.38-15.12,8.1-22.69l12.23-19.62,9.78-21.46c4.92-10.79,15.51-21.25,28.35-27.99l15.08-7.99c1.79-.95,2.19-2.99,1.03-5.2-2.38-4.54-10.63-8.79-20.78-3.52-3.63,1.88-12.08,5.23-12.17,5.27-8.6,3.59-20.47,4.59-28.88,2.44l-23.75-6.06-26.44-2.77c-2.41-.25-8.41-2.04-11.87-2.5s-8.19.96-8.03,5.06.5,6.55-.26,10.94l-4.77,27.71c-1.36,7.95-6.55,15.26-11.12,21.71-4.81,6.78-11.76,11.75-18.49,16.55-1.17.83-2.33,1.66-3.47,2.5l-23.96-62.06s-3.52-9.62-5.56-15.22c-.67-1.84-1.91-3-3.47-3.26-1.5-.25-3.17.38-4.16,1.58-.79.96-1.01,2.12-.6,3.18l27.58,72.29c.45,1.17.81,2.37,1.16,3.52.72,2.41,1.47,4.9,3.06,7.26-21.9,13.23-41.63,25.34-60.97,39.37l-57.27,41.54c-.02-.38-.09-.73-.22-1.07-.39-.98-1.27-1.09-2.05-1.18-.32-.04-.64-.08-.96-.17l-77.08-22.17c3.29-19.81,5.66-39.08,7.24-58.99l-2.25-25.18-3.43-23.71c-.11-2.04-.91-3.61-2.14-4.22-.74-.36-1.55-.32-2.18.12-.79.55-1.17,1.61-1.03,2.93l3.41,23.53,2.19,26.53c-.48,16.79-3.05,33.24-5.53,49.14-.39,2.53-.79,5.05-1.16,7.51-1.51.37-2.82,0-4.46-.48l-34.72-9.86c-15.96-4.53-31.35-9.75-47.14-15.99l-13.21-2.68-37.1-13.93-27.31-8.76-52.02-15.13c-2.3-.67-4.27-1.62-6.35-2.63-1.97-.95-4.01-1.94-6.39-2.69l-99.3-31.37c-3.19-1.01-6.24-2.11-9.18-3.16-4.47-1.61-8.71-3.12-13.22-4.3l.41-19.29c.04-1.81-.98-2.65-1.94-2.68-1.41-.04-3,1.61-3.11,5.29l-.4,14.22-32.42-8.21-46.7-7.7-16.69-.29L10.57,5.17c-4.94-1.25-7.82.71-8.48,3.21-.4,1.52-.02,3.33,1.25,4.73,0,0,3.31,1.95,3.32,1.95l8.21,2.27c.93.26,1.87.52,2.8.77l4.08,1.12c.28.08.56.15.82.22,0,0,.22.06.21.06,0,0,1.27.35,1.27.35l1.19.33c.32.09.63.18.92.25,0,0,.06.02.07.02l1,.28c.48.13.88.25,1.17.32l.13.04c.11.03.2.06.26.07l23.73,5.4c.53.88.63,3.26.28,4.27l-6.3,18-13.3,21.39-8.08,24.14c-.74,1.54-1.69,2.97-2.9,4.38-.16.18-.33.35-.49.53-.17.19-.34.38-.53.56-.17.18-.34.35-.51.52-2.61,2.5-5.77,4.54-8.83,6.52-1.58,1.02-4.64,3.4-4.75,3.6,0,.02-1.6,1.92-1.61,1.94,0,0-.01.02-.01.03-.95,2.44,3.38,2.84,4.44,1.09.55-.91,2.6-2.2,4.97-3.69,5.23-3.29,12.4-7.8,14.57-14.44l7.92-24.25c1.62-3.21,3.83-6.13,5.97-8.95,2.91-3.85,5.92-7.83,7.49-12.62l6.3-19.23c.11-.34.08-.81.05-1.35-.02-.36-.05-.86,0-1.25.04-.28.12-.5.29-.57.04,0,.15,0,.45.15l.48.29c.23.13.49.27.83.43.05.02.12.05.14.05.2.07.44.15.69.18l24.79,3.06,34.22,6.82,34.12,9.39.77,35.2-5.06,22.61s-.02.08-.04.16c-.15.68-.33,1.34-.54,2l-.12.42c-.16.48-.32.95-.49,1.43-1.02,2.82-2.45,5.73-4.14,8.41l-19.73,31.35-46.67,82.17-19.59,63.54-9.52,24.46-12.47,23.03-14.17,24.3-19.51,29.53-.84,1.63c-.66,1.77-.51,2.62.64,3.64.41.37.88.56,1.4.56.05,0,.11,0,.16,0,.18-.01.36-.06.55-.11.97-.52,1.71-.64,2.91-2.29l.02-.03c.59-.72,1.03-1.37,1.15-1.57l3-4.1c6.73-9.17,9.25-12.6,15.81-23.91l10.77-18.69.19-.32s.02-.02.03-.04c.13-.19.27-.38.42-.54l.24-.25c.12-.12.24-.24.38-.35l40.69,101.37c1.01,2.51,2.05,4.89,3.06,7.19.64,1.44,1.27,2.88,1.88,4.33.48,1.13.95,2.27,1.4,3.42.4,1.04.87,2.28,1.31,3.59,6.08,17.76,12.14,33.55,18.51,48.29.78,1.81,1.88,3.41,3.48,5.04.39.4.79.78,1.21,1.17l-8.84,21.56-.33.82c-.9,2.19-1.77,4.38-2.63,6.57-.69,1.74-1.37,3.48-2.04,5.21-3.39,8.67-6.89,17.63-11.03,26.29-.07.14-.16.25-.28.36-.03.02-.05.03-.07.05-.04.03-.08.07-.13.1-.22.13-.48.22-.74.28l-.22.05s-.05,0-.07,0l-44.91-21.8s-.15-.07-.15-.07c0,0-2.09-1.02-2.11-1.04,0,0-2.47-1.21-2.47-1.21l-.5-.25s-.04-.02-.06-.03c0,0-4.26-2.09-4.26-2.09-2.17-1.06-4.33-2.13-6.5-3.19-3.62-1.78-7.25-3.56-10.87-5.34l-.16-.08c-.34-.17-.67-.33-1.02-.46-.72-.27-1.49-.38-2.25-.49-.55-.08-1.11-.16-1.66-.08-.79.13-1.53.63-1.87,1.36s-.25,1.66.28,2.26c.17.19.37.34.57.5.66.51,1.32,1.01,1.98,1.52.44.34.88.67,1.35.96.49.3,1,.55,1.52.79,3.82,1.83,7.64,3.67,11.45,5.51l8.96,4.32c.62.3,1.24.6,1.86.9.06.03.13.06.19.09,0,0,.69.33.69.33,0,0,4.05,1.95,4.06,1.95,0,0,.21.1.21.1l44.31,20.67-15.94,32.2c-4.31,8.71-5.86,17.4-6.85,25.53l-1.32-.62s-.02,0-.03-.01c0,0-.49-.23-.49-.23,0,0-5.55-2.59-5.55-2.59,0,0-.86-.4-.86-.4l-3.08-1.44c-.22-.1-.44-.2-.66-.31l-1.5-.7s-4.77-2.23-4.77-2.23l-24.97-11.66s9.92,4.68-.09-.04-11.42,4.67-3.22,7.92l45.37,22.39-1.87,38.52c-.05.97-.09,1.94-.13,2.9-.3,6.77-.59,13.17-2.04,19.54-.41,1.78-.88,3.41-1.4,4.93l-6.09,12.41-38.35-20.62c-.12-.06-.25-.14-.42-.24-.34-.19-.71-.45-1.14-.64-7.66-3.49-8.42,6.06-2.2,8.08.44.14.81.46,1.23.7.01,0,.02.01.03.02l37.12,20.32-27.84,61.03s-13.11,28.03-13.66,29.46c-1.72,4.46,3.05,5.49,4.63,2.28.72-1.46.87-1.84.87-1.83l20.01-42.19,19.17-42.67c1.06-.23,1.98.29,3.23.99.23.13.46.26.7.39l45.96,24.92,35.87,19.11,6.07,4.65c.31.23.6.47.87.71,3.87,3.43,4.12,7.27,4.43,12.13l1.11,16.74,4.59,30.02c.31,2.05.24,4.41-.2,6.82-.16.84-.37,1.68-.61,2.52-.01.05-.03.1-.04.15,0,0-.12.31-.11.32-.1.31-.2.62-.31.91-.01.03-.02.07-.04.1l-.12.31c-.04.11-.09.23-.12.32-.27.63-.54,1.22-.82,1.74l-8.38,15.58c-.48.89-.28,1.96.51,2.79.02.02.04.03.06.05.45.44,1,.7,1.43.7l1.62.02-12.61,14.36c0-.32-.05-.63-.14-.93,0-.01,0-.03,0-.04-.04-.11-.08-.23-.12-.31-.45-.93-1.41-1.25-2.34-1.55-.31-.1-.63-.2-.95-.33l-66.02-26.93s-40.4-15.63-47.75-18.45-10.44,5.02-.23,8.93c5.05,1.93,24.61,9.43,24.61,9.43l45.73,17.21,37.98,16.11.5.22c1.39.6,2.66,1.15,4.02,1.15.27,0,.55-.03.83-.08l-16.11,18.57-45.35,54.54-14.36,19.82c-2.46,3.2,3.52,7.13,6.5,3.17,1.73-2.29,17.95-24.39,17.95-24.39l57.83-66.07c.07.1.14.19.21.29.02.03.04.05.06.08.18.24.36.46.58.68.51.53,1.12.95,1.86,1.27l87.88,34.69s-1.38,3.26-1.37,3.26l-21.61,51.07c-.09.22-.14.45-.16.69l-.79,1.87c.29.21.55.46.78.73l.47-1.11c.49.63,1.3.99,2.2.8.72-.15,1.3-.69,1.59-1.37l.83-1.96c.52,1.95,2.29,3.4,4.4,3.4,1.75,0,3.35-.9,4.27-2.33.13.34.29.68.53.97.67.83,1.67,1.31,2.74,1.31h.23c1.45,0,2.76-.92,3.26-2.29.04-.12.1-.26.17-.44l18.47-46.36c.15-.38.56-.58.94-.47l45.11,12.36c.21.06.38.19.48.38s.13.41.06.61l-9.41,34.48c-.17.56-.07,1.14.28,1.61.34.46.86.72,1.46.72h.7c.87,0,1.6-.63,1.74-1.47.2-1.16.57-2.35,1-3.73l8.04-30.3c.13-.41.57-.65.98-.52l23.08,7.14c.27.08.54.09.79.05l-6.14,20.52c-.3,1.01-1.11,3.69,1.12,4.45.54.18,1.09.13,1.65-.15,1.27-.65,2.17-2.36,2.38-3.04l5.84-18.27c1.5.59,3.01,1.49,4.82,2.91,0,0,23.87,16.33,26.53,18.28,3.04,2.23,7.5.24,2.63-3.39l-25.59-19.67-5.88-3.93c0-.79.01-1.76.13-2.77.01-.09.02-.19.04-.28.04-.32.1-.64.16-.97.04-.18.08-.37.13-.55.03-.13.07-.26.1-.39l9-28.92,37.11,29.09,18.97,15.12s-8.2,13.37-9.43,15.41,2.26,3.21,3.22,1.49l9.49-14.34,21.72,17.51c1.29,1.01,2.37,1.39,3.21,1.39.74,0,1.29-.29,1.62-.71.2-.25.31-.53.35-.83,1.14.65,2.31.95,3.39.95,1.47,0,2.76-.54,3.56-1.44.58-.65.83-1.4.77-2.15,0,0,5.24,5.21,12.63,3.72,3.46-.49,5.65-3.28,6.72-4.56l3.27-3.91,4.44-5.31,5.15-6.16,5.4-6.46,5.19-6.21,4.51-5.4,3.38-4.04,1.78-2.13.16-.19,32.05-35.97,14.9,11.94,44.71,44.41-22.96,21.22c-1.94,1.55.96,4.61,3.84,1.7l21.88-19.36c.93.28,1.93,1.34,2.18,2.02l-15.67,14.9c-1.84,1.8,1.17,4.26,3.46,2.15.13-.07.25-.15.32-.22l15.28-13.44,14.03,13.36c3.16,2.64,8.51-.19,5.51-3.04-2.8-2.66-7.38-6.91-11.64-11.5-.06-.06-.12-.13-.18-.2-.99-1.1-1.99-2.22-3.01-3.37l16.61-14.97,13.59,16.54-7.51,13.82c-1.17,2.22,3.77,5.19,5.95.91.2-.39.4-.78.6-1.18,1.34-2.53,3.18-5.52,5.13-8.64,1.58,2.1,6.99,9.32,8.8,11.77.05.07.11.15.19.23,2.52,3.35,7.02-1.01,5.44-3l-27.26-34.18,12.45-10.09,11.47-16.75,13.46-21.69,32.17,22.58,13.23,13.85,42.17,45.6c.15.16,4.45,4.86,14.77,5.32,4.75.21,8.49-1.01,10.26-2.43l35.59-30.16,20.49,28.45c.99,1.37,2.25,1.4,3.06.83.87-.61,1.11-1.78.55-2.6-2.28-3.28-18.52-25.95-20.86-29.23,10.04-7.78,18.65-13.47,27.9-18.43,9.8-6.38,20.81-11.58,34.62-16.34l19.18,40.78c-3.93,2.3-35.98,21.11-38.66,22.68-1.68.99-1.88,2.09-1.54,2.73.19.36.6.64,1.23.73l-.52.3c.29.2.51.47.66.78l3.11-1.81c.29-.13.6-.3.93-.49l36.46-21.25,10.51,20.36c.05.09.1.19.16.28l.14.28c.31.6.61,1.17.87,1.72.35-.02.7-.04,1.05-.07-.08-.19-.16-.38-.25-.57.13.03.26.06.38.06.26,0,.51-.06.73-.19.07-.04.18-.12.29-.24l.38.8c.35-.04.7-.08,1.05-.12l-11.75-24.48,40.22-23.01,23.19,44.97c.06.11.12.22.21.35.03.04.05.09.08.14.04.08.09.15.13.23.02,0,.03,0,.05,0,.32,0,.73.1,1.06.28l.97.08c.55-.25,1.07-.55,1.58-.85l-23.55-46.66c12.61-7.02,25.53-12.32,40.62-16.67l20.12-5.8,44.37-4.07-1.95,14.47-16.6,57.22c-1.12,3.55,2.74,5.34,3.89,1.18.16-.55.99-3.44,2.2-7.65,0,0,4.71-16.37,4.71-16.37,0,0,.37-1.28.37-1.28l.53-1.84c.45-1.54.89-3.08,1.33-4.62.62-2.14,1.23-4.25,1.81-6.29,0,0,.69-2.4.69-2.4.65-2.26,1.27-4.39,1.82-6.32l.07-.24s.55-1.9.55-1.9c.18-.6.35-1.19.5-1.74,0,0,.23-.79.23-.79.23-.77.43-1.48.6-2.1,0,0,.36-1.27.37-1.27.1-.33.18-.62.25-.85,0,0,.1-.36.1-.36,0,0,.04-.15.05-.15,0,0,.1-.37.1-.38l4.83-29.51,32.25.74-.71,29.82.34,27.27.03,1.76c0,.23,0,.47.01.73,0,0,0,.67.02.67,0,0,.01,1.12,0,1.12,0,.29.01.61.02.92,0,0,.18,5.68.33,9.27s3.63,4.27,3.65-.39l-.3-71.03,36.19-.23c2.38-.02,4.76-.14,7.07-.27,5.43-.29,10.56-.57,15.91.49h.05s18.97-.17,18.97-.17l8.58,39.15s.3,1.02.3,1.02l.16.53,1.99,6.75c.05.16.09.31.14.47,0,0,5.3,17.67,6.7,22.7s8.97,2.79,7.89-.97c-1.92-6.64-4.57-15.76-4.57-15.76l-12.8-55.38,12.74-1.63,73.71,7.59c-.46,6.27-5.23,71.35-5.7,77.74-.21,2.89.64,4.07,1.39,4.55.36.23.77.35,1.2.35s.91-.12,1.36-.37c1.22-.67,2-2,2-3.39,0-2.86,2.19-51.29,5.66-78.21l69.87,5.28c-1.27,6.4-1.76,11.88-.18,17.62l.07,15.78c.03,6.93-3.31,12.71-6.84,18.83-2.4,4.16-4.88,8.45-6.46,13.37-.6,1.83-.51,3.32.24,4.08.39.39.92.52,1.43.35.79-.26,1.37-1.14,1.55-2.36.35-2.36,1.51-4.33,4.31-9.11.63-1.08,1.35-2.31,2.17-3.71l-.43-.25s.04-.07.06-.11l.43.25.3-.51c.21-.36,5.89-8.77,6.26-17.05.74-16.83.49-36.14.82-36.62.55-.46,1.36-.57,2.01-.28s1.1.99,1.11,1.7c0,.22-.03.46.06.66s.38.33.54.17c-.33-.13.09,20.19.09,20.54.02,10.58-2.23,19.04-2.4,19.45-1.04,2.52-2.16,5.01-3.36,7.45-.6,1.22-1.22,2.44-1.86,3.64-.27.52-1.12,1.66-1.12,2.24-.92,1.84-1.76,3.49-2.52,4.99-2.11,4.14-3.64,7.14-4.76,10.11-.34.88-.64,1.79-.93,2.79-.62,2.13-.58,3.68.12,4.37.32.32.76.43,1.2.3.71-.21,1.3-.99,1.53-2,.35-1.58.74-2.85,1.31-4.25.44-1.11,1.03-2.38,1.93-4.13l10.32-19.42c1.14-2.23,3.79-8.02,3.79-13.46l-.03-34.46,19.68.82,113.25,7.3-1.03,24.33s-.96,16.53-1.63,27.99c-.38,6.45,1.91,7.29,2.91,7.35,2.37.14,5.42-3.44,5.75-8.3.47-7.12,2.56-45.54,2.83-50.51l67.71,7.18,45.08,6.95.11.02,18.4-5.11,6.81,16.93,21.64,32.39s3.4,5.24,5.15,7.93c.14.21.27.42.4.62.83,1.32,1.62,2.57,3.03,2.87.2.04.41.06.63.06,1,0,2.19-.44,3.7-1.37-.02.32-.02.64.05.95v.03c.34,1.44,1.62,2.47,3.11,2.47h65.04c1.15,0,2.17-.59,2.74-1.58l1.08-1.85c.35,1.95,2.05,3.44,4.1,3.44,1.47,0,2.84-.79,3.59-2.06l32.99-56.25,56.39,6.16,9.93,1.27c.13.02.25.02.38.02.72,0,1.42-.26,1.97-.74.64-.57,1.01-1.39,1.01-2.25,0-1.49-1.12-2.76-2.59-2.96ZM1672.8,926.88l-72.24-9.24-.13-.48-6.02-22.26-5.07-42.88-1.86-27.13,93.15,21.07-7.84,80.92ZM1373.92,782.66l-.6,13.89-41.42-5.78-60.26-8.26.78-18.58v-2.8c.19-39.55.36-76.91,3.53-115.16,3.42-10.62,6.6-19.3,13.61-26.37l15.78-12.98,20.77,25.27,14.16,13.91,17.47,11.46,19.37,4.92,9.67.89-2.54,32.92-1,23.02-9.31,63.08-.08.57h.08ZM1329.9,863.75c-.24,1.48-.46,2.96-.68,4.45h0c-.15.97-.29,1.96-.43,2.93-.14.98-.29,1.95-.43,2.93l-.18,1.24c-.11.76-.22,1.52-.33,2.28h0s-.01.1-.01.1l-.1.72c-.12.84-.25,1.7-.38,2.59l-70.4-13.17,6.28-36.99,8.2-44.46,38.92,5.71,53.8,7.4-13.34,12.38-11.28,16.03-.1.15c-1.17,2.65-2.23,5.36-3.13,8.05-.19.54-.37,1.09-.54,1.63-.16.47-.3.94-.46,1.44-.02.06-.04.13-.06.19-.29.94-.56,1.87-.82,2.8h0c-.07.25-.14.5-.21.75l-.04.16c-.02.06-.03.12-.05.18-.76,2.77-1.46,5.68-2.12,8.9,0,.01,0,.02,0,.03l-.07.32c-.02.12-.05.24-.08.36-.68,3.33-1.31,6.89-1.93,10.88h0ZM1231.48,777.47c-.72-.15-1.41-.3-2.11-.46-1.31-.29-2.56-.58-3.74-.86l-29.48-11.63c-7-2.76-14.08-5.42-20.93-8-14.4-5.41-29.28-11.01-44.1-17.78l40.31-56.32,29.96-17.95c10.68-6.88,20.14-15.46,28.89-26.21,5.71-5.79,9.96-12.11,14.46-18.8l14.01-20.82,21.93,18.4c-7.43,8.99-12.94,23.65-13.46,35.88l-2.94,69.03-.9,54.39-5.31,4.4c-5.54-.22-10.92-.71-16.43-1.49-3.35-.48-6.65-1.06-10.07-1.76h0s-.06-.01-.1-.02ZM691.56,584.09l-.64-27.38-.8-36.51-2.31-55.73c0-.15-.03-.3-.04-.46-.02-.4-.06-.82-.12-1.31,0,0,0,0,0,0h0s0,0,0,0c-.04-.28-.08-.56-.13-.86,0,0,0,0,0-.01-.09-.58-.22-1.19-.36-1.8h0s0,0,0,0c-.23-.97-.49-1.86-.77-2.66-.91-2.72-2.12-4.97-3.4-6.35l-16.85-18-8.72-14.26-31.99-60.63,95.67-37.65c2.02,6.11,4.92,12.68,10.88,15.88l12.4,6.63,35.84,13.47c3.41,1.29,8.22,6.22,9.76,9.36l22.71,46.28c.84,1.7,1.52,3.67,2.07,6.01,0,.01,0,.02,0,.03.38,1.62.69,3.41.94,5.44.2,1.68.35,3.5.48,5.55l8.3,143.8,3.82,71.33,18.56,144.3c.05.37.1.72.14,1.06l.06.49h0c0,.06.02.11.02.11.41,3.08.8,5.99-.72,9.29l-80.43.81-7.98,1.17-65.56.03-.59-39.4.42-48.29.25-100.64-.94-29.09ZM281.53,721.78l-22.94,127.99-2.54,8.81c-1.82-2.82-1.58-5.42-1.32-8.37.06-.66.12-1.32.16-2l1.45-26.25v-.06s-5.19-27.72-5.19-27.72c-1.55-8.29.47-16.18,2.09-22.52,1.97-7.69,3.53-13.77-1.84-16.98l-.09-.04c-.22-.08-.45-.12-.66-.12-.11,0-.22.01-.32.03,0,0,0,0-.01,0,0,0-.01,0-.02,0h0c-.38.05-.72.21-.98.36h0s0,0,0,0c0,0,0,0,0,0-.04.02-.07.05-.11.07-.12.08-.25.15-.36.24l13.46-29.17,25.38-63.52,4.95-8.33,5.35,2.37c-6.81,19.62-11.08,38.9-14.67,56.84l-13.86-2.86-.27-.04-.05.05h-.16s-3.24,8.31-3.24,8.31l15.8,2.93ZM158.14,866.02c0-.06.01-.12.01-.17.06-1.12.08-2.23.08-3.33,0,0,0-.01,0-.02,0-3.41-.24-6.65-.51-9.48-.09-1-.18-2-.28-2.98,0-.03,0-.06,0-.09,0,0,0,0,0,0l-.15-1.53c-.1-1-.2-1.99-.28-2.97h0c-.42-4.78-.67-9.85.3-14.52.06-.28.12-.56.2-.89,1.73-7.96,4.13-13.55,8.01-18.59l6.8,3.42c.62.32,1.2.65,1.71.99.55.38,1.01.74,1.42,1.12.79.74,1.4,1.55,1.89,2.46l-.23.29c-4.84-1.33-10.55.4-14.31,4.39h0c-.4.43-.77.87-1.1,1.32-1.12,1.5-1.9,3.18-2.33,5-.95,4.08-.02,8.69,2.56,12.64.49.75,1.04,1.42,1.63,2,.27.27.57.53.87.77.06.05.12.1.19.14.26.2.53.39.81.57.05.03.1.07.15.1,1.04.65,2.19,1.14,3.44,1.47.01,0,.02,0,.03,0,3.03.8,6.58.66,10.31-.47l-.04.22.18-.1c.03.51.03,1.06-.28,1.45l-19.56,23.49-.16.19c-.4.49-.85,1.05-1.32,1.52-.52.52-.99.86-1.42,1.02.23-.89.43-1.81.61-2.73.19-1.01.34-2.03.47-3.05.02-.13.04-.25.05-.38.13-1.05.21-2.11.26-3.09,0-.06.01-.13.02-.2h0ZM212.73,786.75s0,0,0,0c.32-.18.63-.38.93-.57.61-.38,1.23-.79,1.84-1.2h0c.34-.24.69-.48,1.03-.73l-10.54,21.34c-2.63-3.08-5.07-5.26-8.64-6.53-3.04-2.54-6.09-3.65-9.29-4.61,6.12-.73,11.24-1.89,15.95-3.6,2.12-.78,4.04-1.61,5.87-2.55.33-.16.64-.33.95-.49,0,0,0,0,0,0,0,0,0,0,0,0,.61-.32,1.21-.67,1.87-1.05,0,0,0,0,0,0h0ZM238.98,791.48c.21,1.48.43,3.01.6,4.5l2.9,26-.86,8.07c-.05.49-.11.97-.17,1.45-.1.72-.22,1.47-.37,2.26-.03.17-.06.36-.1.53h0s0,.02,0,.02c-1.28,6.49-3.81,11.55-7.74,15.46l-7.41-6.11c-.92-.75-1.79-1.47-2.53-2.28-.02-.02-.04-.05-.06-.07l-.09-.11c-.34-.4-.62-.8-.88-1.23-.05-.08-.1-.16-.15-.25v-.09s-.09-.09-.09-.09c0,0,0-.01,0-.02-.12-.24-.23-.49-.33-.75,0,0,0,0,0,0v-.13s-.07-.06-.07-.06c-.02-.05-.03-.1-.05-.14,1.67.39,3.27.59,4.8.59,4.68,0,8.68-1.84,11.76-5.44,1.62-1.9,2.77-4.22,3.34-6.71h0s0,0,0,0c.15-.71.26-1.37.33-2.04.13-1.43.06-2.83-.2-4.16-.29-1.61-.85-3.13-1.66-4.53-3.11-5.45-9.81-8.47-15.67-7l-7.52,3.56-10.19,16.05-9.1,12.07c5.58-7.58,11.3-15.44,16.51-24.2,1.96-3.3,3.93-6.58,5.89-9.85,7.88-13.16,15.38-25.71,22.35-38.74l-3.64,7.83-.04.14c-1.03,5.15-.27,10.41.46,15.5ZM217.47,828.33l-.21-.25c-2.65-3.09-1.94-5.41.31-8.6,2.23-3.18,5.5-5.36,8.74-5.84.46-.07.92-.1,1.38-.1,2.08,0,4.08.71,5.85,2.09.33.26.61.51.86.77.24.24.47.5.69.79l.05.07c.05.06.08.12.13.18.17.22.33.44.46.67l.13.3h.03c.05.09.09.18.14.27.11.22.22.44.32.67.01.03.02.06.04.1.92,2.26,1.04,4.89.31,7.31,0,.02,0,.04-.01.06-.23.69-.48,1.29-.79,1.86-.2.36-.4.67-.62.97-.26.38-.59.78-1.01,1.25,0,0,0,0,0,0h0s-.04.04-.06.06c-2.53,2.63-6.01,3.97-8.9,3.43-.02,0-.04,0-.05,0h0s0,0,0,0h0c-.79-.15-1.54-.45-2.22-.87-2.29-1.4-4.24-3.67-5.53-5.18ZM196.04,805.21c.48.33,1.09.62,1.73.93,2.01.98,4.3,2.08,4.02,4.74h0c-.19,1.82-1.72,3.81-3.21,5.73-.73.95-1.49,1.92-2.1,2.9l-23.55-14.39c6.78-5.31,15.16-5.29,23.1.09ZM176.87,797.71h0s0,0,0,0c0,0,0,0-.01,0-.26.08-.51.17-.75.26h0s0,0,0,0h0c-.25.09-.5.18-.75.29-.57.24-1.01.45-1.42.67,0,0,0,0,0,0l-.12.06c-.2.1-.41.21-.6.33-.38.22-.71.43-1.03.64h-.01s-.34.23-.34.23c-.05.04-.1.07-.15.11l-.05.03h0c-.13.1-.26.2-.39.3-.29.21-.58.43-.87.67-.35.29-.69.59-1.02.89-.07.06-.13.11-.19.17h0c-.13.12-.27.24-.4.37l-12.94-6.9,16.22-.2c1.96-.03,4.13.16,6.65,1.62-.6.12-1.2.27-1.8.46ZM173.91,843.99c-1.38.17-2.69.06-3.88-.35-.27-.09-.53-.2-.79-.32-.23-.11-.46-.22-.69-.36l-.04-.03c-.24-.14-.46-.29-.68-.45-1.59-1.19-2.83-2.99-3.59-5.2-.24-.69-.42-1.4-.55-2.13-.21-1.21-.14-2.51.2-3.77h0s.01-.04.01-.04c.1-.36.23-.72.38-1.06,0-.02.02-.05.03-.07.15-.36.33-.71.53-1.05,0-.02.02-.03.03-.05.06-.11.12-.22.21-.35.38-.57.82-1.12,1.31-1.62.01-.01.02-.02.03-.04,0,0,.02-.02.02-.02,1.53-1.52,3.53-2.53,5.78-2.93.55-.1,1.15-.1,1.8,0,.01,0,.03,0,.04,0,.13.02.28.04.42.07h.06s0,0,0,0c1.24.23,2.63.78,4.01,1.6.33.19.65.41.97.63.86.59,1.63,1.24,2.31,1.91.28.28.55.57.82.88.1.12.2.24.31.37l.07.09c.35.45.67.91.95,1.38,0,0,.01.02.02.03h0s0,0,0,0c.4.67.71,1.33.91,1.97.22.68.35,1.35.38,1.99h0c-.04.24-.09.46-.15.67,0,.01,0,.02,0,.04l-.14.41c-.15.38-.35.75-.57,1.13-.04.07-.09.15-.14.22h-.06l-.12.29c-.04.06-.09.12-.14.19-2.37,3.24-7.01,5.63-10.06,6ZM193.28,853.6c1.89,2.95,4.49,5.28,8.35,7.52h0s.04.02.06.04c0,0,0,0,.01,0,.02.01.05.03.07.04.44.25.88.5,1.34.74.37.34.79.68,1.26,1.04,0,0,0,0,0,0,2.52,1.92,5.25,3.1,8.15,4.29-1.16.02-2.3.03-3.44.03-1.31.01-2.61.02-3.9.04h0c-3.12.04-5.66.14-7.99.32-2.89.22-5.55.57-8.17,1.09l-8.42,2.44,12.67-17.6ZM199.73,852.2s0,0-.01-.01c-.5-.54-.95-1.06-1.36-1.59h0s0,0,0,0c-.51-.65-1-1.35-1.45-2.09l7.67-10.76,21.32,17.21c-7.68,6.13-18.82,5-26.17-2.76ZM219.18,862.91c1.02.06,1.98.11,2.79-.28l8.52-4.11,15.21,12.45.54,1.41c-.32.1-.84.18-1.09.17-9.6-4.54-20.04-7.24-29.14-9.27.97-.49,2.07-.43,3.16-.37ZM236.85,852.78c.36-.36.66-.68.93-.99.36-.4.71-.81,1.05-1.23h.26v-.33c.34-.43.66-.88.96-1.31.17-.25.35-.5.51-.76.32-.5.62-1.01.89-1.51.97-1.72,1.77-3.55,2.46-5.58.96-2.81,1.63-5.81,2.19-8.83l.39,20.79c.03,1.4.61,2.32,1.16,3.12h0s.22.33.22.33c.22.34.45.71.57,1.11h0s1.78,5.77,1.78,5.77l-13.37-10.56ZM1269.2,560.31l-12.69,28.56-52.33-44.14-4.79-4.04-30.21-37.77-25.38-35.43,39.52-21.75,52.38,70.34,14.92,17.22,19.21,25.6-.63,1.42ZM1274.02,564.52l26.19,35.35-15.17,12.44-23.77-19.37,12.75-28.42ZM1176.17,525.87l18.19,18.94,59.8,50.16-21.81,31.42c-7.46,10.74-16.8,19.34-25.65,27.19l-36.79,22.73-20.22-36.79-34.92-63.08-23.74-32.39-72.89,43.9-19.42,14.43c-.62-.31-1.25-.65-1.87-1.37-.05-.07-.11-.12-.16-.19l-.02-.04c-.11-.14-.21-.29-.31-.48-.06-.09-.12-.19-.17-.31l-19.49-39.14,74.39-42.34,24.49-13.7,60.29-32.94,40.33,53.99ZM1166.53,678.89l-23.26,31.52-35.77,50.03-10.76,11.22-15.49-21.91-43.45-65.14-19.36-40.95-18.13-36.47c.05-1.3.89-1.91,2.16-2.82l18.38-13.33,69-41.59,22.19,29.64,54.5,99.8ZM986.48,597.33l31.77,64.18c1.89,3.82,3.66,7.62,5.45,11.5l.75,1.63c.61,1.34,1.23,2.67,1.85,4,.01.03.03.06.04.09,0,0,0,0,0,0l.04.08c1.06,2.28,2.46,5.26,3.93,8.23.03.07.06.13.1.2h0s0,0,0,0c2.38,4.81,4.53,8.78,6.75,12.49.28.46.55.9.82,1.33.29.47.59.94.88,1.4.23.37.46.72.69,1.07.05.07.1.15.14.22h0s0,0,0,0c.58.88,1.17,1.77,1.79,2.65l29.12,41.88-39.62,1.42-42.86,1.32-.65-83.96-.13-36.16c-.02-4.47-.25-11.05-2.12-16.54-.11-.35-.24-.7-.37-1.04-4.29-11.02-10.03-20.62-16.1-30.78-2.2-3.68-4.47-7.48-6.66-11.35l7.94-4.49,16.44,30.62ZM965.67,561.65s-.09.03-.14.05c-1.67.65-3.13,1.49-4.64,2.37l-.7.41s-.06.03-.09.05c-.59.34-1.2.68-1.84,1.03l-15.04-26.54-2.66-4.69h0c-.07-.12-.13-.23-.2-.35l-.16-.29c-.77-1.34-1.53-2.67-2.31-3.99-.45-.77-.9-1.53-1.36-2.29,0,0,0,0,0,0h0s-.02-.04-.03-.05c-.93-1.55-1.83-3.01-2.75-4.45-4.33-6.79-8.48-12.11-13.07-16.74-.63-.64-1.29-1.28-1.95-1.91l-28.34-26.65-30.41-56.42-50.23-96.61-16.41-32.72,8.42-3.77,11.72-5.23,56.05,96.36,35.41,64.69,44,83.88,17.81,33.49c-.37.11-.72.25-1.07.38ZM767.61,306.65c-.5-.95-.96-1.96-1.11-2.89,0-.06-.02-.12-.03-.18h0v-.19c-.02-.33.01-.67.09-1l21.49-7.82,19.37,38.52-14.59,8.69c-3.15,1.88-5.15,2.47-5.94,1.77l-19.28-36.89ZM779.58,345.68l-34.4-11.16c-5.8-1.89-9.63-4.58-11.37-8.01l-4.24-8.46c.35-.86,1.1-1.51,2.29-1.97l27.61-10.71,20.1,40.31ZM763.45,297.76l-18.55-34.41-15.17-29.12,33.66-15.29,13.63-4.16,33.74,63.59-47.31,19.39ZM742.34,273.44l13.93,26.74-29.78,12.4-31.06-62.16,28.5-13.09,18.4,36.12ZM718.52,315.44l-95.88,37.87-18.41-42.16-6.03-15.79,88.31-40.72,32.02,60.8ZM612.43,350.26c.14.31.27.6.4.91h0c.38.86.76,1.69,1.07,2.54h0c.39,1.11.59,2.03.64,2.92l-74.13,29.22-16.94-41.08-2.9-5.56,17.92-12.43,30.73-17.32,20.69-10.2,22.53,51.01ZM535.48,387.76l-16.71,7.8-22.51,13.68-23.16,17.89c-10.54,9.24-19.86,19.75-28.88,29.91-2.06,2.32-4.12,4.64-6.2,6.96h0s0,0,0,0l-9.47,21.16-21,86.48-49.83-12.37c2.54-4.9,5.3-9.95,8.42-15.4.04-.08.09-.15.13-.23.03-.05.06-.11.09-.16,1.63-2.83,3.41-5.87,5.43-9.28,0-.01.01-.02.02-.04,2.92-4.91,5.96-9.9,8.9-14.73l.6-.99h0s1.18-1.94,1.18-1.94c.89-1.47,1.78-2.94,2.67-4.41.65-1.06,1.29-2.13,1.93-3.21l38.91-64.87,18.96-26.29,35.11-41.7,20.95-20.01c4.69-4.48,9.35-8.77,14.73-12.07.22-.14.45-.27.67-.4l.26.34c.98,1.24,1.82,2.31,2.44,3.82l16.38,40.05ZM428.18,572.84c-1.81.02-3.58.15-5.29.29-3.61.28-7.02.55-10.33-.36l12.37-50.3,56.05.14,28.01.85,5.61,48.72-86.41.68ZM515.45,578.3l5.1,43.23,3.03,23.23-52.19.77-1.13-67.04,45.2-.2ZM466.6,616.16l.88,28.65-.73.78-21.26.29-.54-15.44-.48-51.81,11.22-.03c.04.06.07.1.09.12,0,0,0,0,0,0,0,0,.02.02.02.03h0c.07.09.15.18.2.21.09.09.21.18.29.21,0,0,.03.01.04.02,0,0,.01.01.02.02h0s.07.04.13.06c.07.04.14.06.19.08.03.01.07.01.1.02,0,0,0,0,0,0h0c.32.11.69.17,1.13.17l8.59-.05v24.39c-1.52,3.03-1.71,9.88.09,12.27ZM444.49,645.9l-33.53.92-21.58.39,12.85-33.15,8.96-34.95c3.1.53,6.18.33,9.43.1,1.5-.1,3.05-.21,4.61-.24l18.23-.32.49,51.82.54,15.44ZM397.85,610.23l-14.16,35.78c-3.49,8.81-8.64,16.76-13.62,24.45-2.33,3.6-4.74,7.31-6.97,11.11l-20.98-15.71c-5.45-3.99-11.69-5.82-18.3-7.76-1.74-.51-3.54-1.04-5.33-1.61l18.17-53.18,17.99-38.26c18.53,5.43,35.53,9.38,51.16,12.84l-7.96,32.35ZM364.47,690.52l42.03,31.2,39.35,29.58,13.62,12.45-18.1,17.72-9.29,11.79-33.5,46.58-36.03-25.44c-3.18-2.25-5.83-3.7-8.97-3.9l.38-62.46c.08-14,.47-28.88,3.99-43.23l6.52-14.27ZM408.47,715.47l-40.93-30.14,9.99-16.98,10.42-17.86,45.09-.03c4.51-.01,8.98-.23,13.31-.44,6.82-.33,13.87-.67,21.13-.2l.69,21.21.82,32.62c.4,15.62-8.76,29.92-18.81,43.06l-41.73-31.24ZM472.35,356.39l-22.78,24.31-19.51,24.51-16.28,22.87-50.13,83.7c-16.59,27.72-30.49,55.26-45.2,84.42l-1.54,3.06-17.1,51.12-4.43-1.2-.12-.03-.24-.08h-.01s-.27-.05-.27-.05v.45c-.21.29-.4.59-.58.87-.34.53-.65.99-1.01,1.35l42.89-117.98,20.6-47.35,25.85-50.15,27.03-44.89,2.38-3.63c1.04-1.59,2.08-3.17,3.12-4.75h0c10.55-16.06,20.17-30.51,30.98-44.61.05-.06.09-.12.14-.18,3.04-3.96,6.18-7.89,9.35-11.67l25.67-30.65,24.33,30.95-33.16,29.61ZM289.81,787.91l4.27-28.13,5.89-33.9,49.11,9.99-.5,73.83-60.72-8.87,1.96-12.92ZM340.88,725.55s-.02,0-.04,0c-1.78-.29-3.57-.61-5.34-.94-.63-.12-1.26-.23-1.89-.35-1.34-.25-2.67-.52-3.99-.78-.74-.15-1.48-.3-2.22-.45-1.43-.3-2.85-.59-4.25-.9-.4-.09-.81-.17-1.2-.26-1.79-.39-3.57-.78-5.32-1.17h0s0,0,0,0l-4.56-1.01c-3.47-.77-6.97-1.55-10.51-2.31,2.81-13.79,5.39-24.49,8.34-34.62,0,0,0,0,0,0h0c.34-1.18.7-2.38,1.06-3.58.34-1.11.68-2.23,1.03-3.34.32-1.03.65-2.04.99-3.07l.13-.4s.03-.09.05-.14c.69-2.07,1.43-4.2,2.19-6.34.06-.17.12-.33.18-.5.36-1,.72-2,1.1-3,7.33,1.74,14.02,4.57,21.35,7.82l22.1,16.6-6.92,15.49-3.67,24.52c-2.79-.34-5.69-.76-8.62-1.25ZM353.45,824.07l.43-7.81,13.34,8.85,65.07,47.48-15.16,18.58-21.09,24.39-34.03-27.68-11.21-7.87c2.11-19.67,2.97-37.99,2.64-55.94ZM402.14,842.61l-.29-.22,33.62-46.97c2.85-3.99,5.85-7.69,9.17-11.32,0,0,.02-.02.03-.03.65-.71,1.3-1.41,1.98-2.11,0,0,0,0,0,0,.68-.7,1.35-1.39,2.05-2.08.61-.62,1.22-1.21,1.84-1.81l.24-.23.03-.03h0s11.59-11.09,11.59-11.09l15.36,17.48-16.34,47.31-16.04,22.7-9.56,13.52-33.69-25.1ZM464.88,759.63l-11.58-10.45c.21-.24.41-.47.62-.71,3.49-4.04,6.01-8.33,8.45-12.47.73-1.24,1.47-2.49,2.23-3.73.05-.09.11-.18.16-.27h.23v-.36c2.04-3.32,3.69-6.84,4.9-10.45,0,0,0,0,0,0h0s0-.01,0-.02c.32-.95.6-1.91.87-2.89.06-.23.12-.45.17-.68.2-.77.38-1.55.54-2.34.05-.26.11-.51.16-.77.18-.93.34-1.86.48-2.82.01-.07.02-.14.03-.22.15-1.11.28-2.24.37-3.4,0,0,0,0,0,0,.04-.53.08-1.06.11-1.59.03-.57.06-1.14.08-1.71.01-.33.02-.67.03-1,.01-.52.02-1.04.02-1.56,0-.15,0-.31,0-.46,0-.59,0-1.17-.01-1.77l-1.32-50.48,26.6-.08,26.11-.62c2.21,33.95,2.99,60.37,2.51,85.54-.82.04-1.63.09-2.44.14-.04,0-.08,0-.12,0h0c-1.1.05-2.18.12-3.26.2,0,0,0,0,0,0h0s-.03,0-.04,0c-3.34.23-6.06.55-8.55.99h0s0,0,0,0h0c-.68.11-1.36.24-2.02.39-.7.14-1.43.32-2.19.53-.27.06-.54.14-.8.21-.34.09-.69.2-1.02.31-.47.15-.95.31-1.42.47-.48.16-.94.34-1.41.53l-16.34,6.53-22.14,15ZM492.02,747c12.48-5.91,23.48-8.67,34.55-8.67l1.47,30.12,2.28,25.93,6.38,17.67,54.09,42.31-50.35,41.2-15.61-19.21-5.53-13.34-10.85-52.21-.09-.1-20.03-23.93c4.25-10.69,5.46-23.7,3.7-39.77ZM539.84,809.35l-5.7-16.13c-.13-.36-.24-.71-.34-1.07-.1-.33-.19-.66-.26-1,0,0,0,0,0-.01-.18-.72-.3-1.48-.41-2.18,0,0,0-.02,0-.02-.38-2.6-.41-5.2-.45-7.96-.03-1.95-.05-3.97-.22-5.96-1.16-14.29-2.19-29.74-1.87-45.94.47-23.4-.63-45.68-1.8-69.27l-2.69-26.48-13.68-113.11-.05-.29-.02-.24-38.33-.38-47.98-.89,7.82-31.12c1.89-7.51,5.13-14.72,8.89-19.78,10.53-14.17,22.62-25.97,33.02-35.62l24.8-19.1,23.1-13.85,13.23-5.92,80.72-31.83,35.08,67.01c4.9,9.3,12.15,16.47,19.15,23.02,3.32,3.1,5.63,6.76,7.07,11.19.58,1.8,1.02,3.74,1.32,5.91.21,1.54.34,3.13.39,4.74l1.2,38.01,2.09,89.2v100.33l.43,101.33-25.87,7.45c-13.89,5.98-27.41,14.04-41.34,24.64l-23.14,17.65-54.15-42.31ZM834.56,640.05l-11.45-199.67v-.15c-.03-.5-.06-.99-.08-1.49-.04-.94-.07-1.89-.1-2.84l-.05-1.69c-.11-3.6-.23-6.83-.67-10.01-.31-2.25-.75-4.25-1.36-6.09h0s0,0,0,0c0,0,0,0,0,0,0-.02-.01-.04-.02-.06-.14-.45-.29-.9-.47-1.35l-11.13-28.84-18.85-37.5,19.82-11.87,50.81,97.31,25.45,45.74c2.35,4.22,7.32,8.51,13.61,13.94,11.47,9.9,27.18,23.46,38.02,46.49l23.44,40.32c1.41,2.42,2.84,4.79,4.26,7.15l.28.47s.05.09.08.14l.23.38c.81,1.35,1.62,2.7,2.42,4.05,0,0,0,0,0,0h0c.17.29.33.58.5.86.62,1.05,1.23,2.11,1.83,3.17,1.74,3.08,3.19,5.83,4.42,8.41,1.43,3.01,2.61,5.81,3.59,8.58.13.35.24.69.35,1.05h0c1.87,5.93,2.11,12.85,2.13,17.55l.27,101.72.04,24.45-.19,24.84c0,1.47-.23,2.84-.65,4.06-.02.05-.04.1-.06.15-2.01,5.45-8.37,8.04-19.98,8.13l-38.96.29-13.05-1.32-27.01-.15-27.81-.82-19.65-155.39ZM882.69,818.02l22.92-11.2c.39-.19.78-.38,1.19-.57.32-.15.66-.3,1-.44l.27-.11s0,0,0,0h0c.42-.19.85-.36,1.29-.53h0c2.61-1,4.81-1.49,6.72-1.5l49.75-.15c.54.34,1.08.71,1.64,1.09.3.2.6.41.9.61l.03.02c.89.59,1.93,1.26,3.06,1.78h0c.06.03.12.04.17.07.29.13.59.26.88.36.39.14.77.25,1.08.32l89.01,36.55c-1.88,2.24-3.69,4.57-5.52,7.1-.05.07-.11.14-.16.22-.95,1.3-1.89,2.66-2.81,4.01-.03.05-.06.09-.09.14-2.37,3.5-4.75,7.26-7.7,12.19-.83,1.39-1.66,2.79-2.49,4.2l-2.39,4.05-26.41,5.37-54.5,13.69-55.27,18.14s-.07-.05-.1-.07c-.8-.7-.92-1.93-1.05-3.23-.08-.85-.17-1.73-.47-2.49l-16.66-42.25-5.68-18.38-9.01-26.64,10.41-2.36ZM975.82,804.26c6.2-2.59,13.08-7.09,13.28-14.37l.92-33.05,84.08-2.46,29.24,41.91-8.57,6.3c-4.49,3.4-8.15,5.57-13.51,6.6-3.96.75-6.71,5.62-7.6,8.7l-6.04,21.03c-.28.99-1.24,1.88-1.78,2.2-.43.26-.75.13-1.53-.32-.3-.17-.64-.37-1.04-.53l-87.45-36.01ZM1069.83,843.36c.1-.26.32-.55.54-.86.26-.35.52-.72.71-1.13h0s0,0,0,0c.06-.13.11-.27.16-.43l6.15-21.74c.03-.13.07-.24.13-.4,1.62-4.97,5.92-6.4,9.91-7.13,3.81-.71,7.28-3.66,10.64-6.51,2.58-2.19,5.24-4.44,7.99-5.62l20.42,27.91c1.23,1.68,2.23,3.64,3.06,5.99.08.22.17.45.24.69.76,2.29,1.31,4.72,1.84,7.07.18.8.36,1.59.55,2.38l3.59,15.05c-.24.21-.44.51-.61.92l-46.79,8.23c-.59-1.48-1.04-3.02-1.47-4.52-.96-3.34-1.87-6.49-4.28-8.85l-10.1-9.91c-.39-.39-1.08-.56-1.74-.73-.3-.08-.79-.2-.97-.31,0-.03.02-.06.03-.09ZM1116.63,799.46l-16.23-22.2,11.9-12.95,16.62-22.17c29.01,13.5,57.27,23.45,78.64,30.6l14.63,6.04-43.17,26.08-38.69,22.22-.61.36c-1.22.72-2.18,1.29-3.35,1.1l-19.75-29.07ZM1331.42,879.72s0,0,0-.01c.01-.17.03-.35.06-.54l.03-.22c.01-.11.03-.22.04-.29l.09-.52c.24-1.49.47-2.98.71-4.47.25-1.61.51-3.23.77-4.84.09-.6.2-1.2.3-1.81.23-1.45.47-2.91.71-4.36h0s0,0,0,0c.17-1.03.35-2.04.54-3.07.82-4.53,1.66-8.5,2.56-12.14.63-2.52,1.34-5.03,2.1-7.45.31-.98.64-1.97.99-2.95.34-.97.7-1.95,1.07-2.92.6-1.55,1.19-2.95,1.79-4.29l9.11-12.55,14.38-14.6c.78-.79,1.57-1.4,2.35-1.8.19-.1.38-.19.6-.27.08-.04.16-.06.24-.09l.12-.04s0,0,.01,0c.24-.08.48-.13.76-.17h0s.08,0,.08,0c.57-.07,1.14-.03,1.7.12,0,0,0,0,.01,0,.15.04.3.09.44.15.04.01.07.03.11.04l-17.03,14.43c-1.73,1.47-3.34,3.26-4.92,5.48-9.01,12.72-13.14,35.55-15.47,51.62-.47,3.27-.89,6.39-1.27,9.29-.05.4-.19.66-.4.76-.38.19-1.08,0-1.58-.28-.11-.07-.22-.13-.28-.17-.08-.07-.16-.13-.23-.2-.18-.18-.31-.38-.38-.62-.02-.07-.03-.14-.05-.21-.01-.05-.03-.09-.03-.14-.02-.12-.03-.25-.03-.38,0,0,0,0,0-.01,0-.14,0-.29.01-.46ZM1364.81,650.58c-10.77-2.88-19.37-11.16-26.92-18.43l-18.78-22.2-40.74-54.27c1.03-4.42,3.37-8.26,7.34-12.07l46.93-44.97c9.45-9.06,16.58-20.07,23.47-30.72,2.3-3.56,4.68-7.23,7.11-10.78,2.21-3.23,2.64-5.98,3.15-9.17.14-.87.28-1.78.47-2.76l6.94-36.02,19.41-59.68,28.87,8.7,47.14,4.95,19.56.18-1.82,70.94-1.93,77.26-1.04,47.97-.47,31.42-1.15,35-.82,35.23-71.88-5.3c-2.86-.21-5.71-.39-8.55-.57-12.51-.79-24.33-1.53-36.29-4.74ZM1593.67,916.87l-119.44-14.73,4.19-50.04,2.46-35.75c9.68,1.91,18.28,2.07,27.37,2.24l40.72.83c9.79.32,19.75,1.6,32.24,4.15l.35,10.54,7.04,61.84,5.07,20.91ZM1568.08,655.39l70.36-17.72,4.26-1.08c16.43-4.17,31.97-8.12,48.8-8.14,1.08,5.46.78,10.92.5,16.2-.08,1.42-.15,2.83-.21,4.26l-1.08,29.04-.6,35.81-.66,53.11-3.71,25.1-4.45,50.02-94.37-21.39-.45-25.61,3.19-27.5c1.41-3.36,1.61-6.81,1.8-10.15.08-1.37.16-2.79.33-4.18.16-1.34.33-2.66.5-3.98.98-7.69,1.9-14.96.78-22.85l-.02-.12-30.25-43.89-15.82-23.52,21.11-3.42ZM1535.03,660.84c.4-.07.79-.13,1.19-.18.09-.01.19-.02.28-.03,1.39-.16,2.77-.22,4.16-.17l19.2,28.58,27.22,39.64c1.34,4.86.55,10.34-.21,15.65-.32,2.19-.61,4.26-.77,6.29,0,0,0,0,0,0h0s-.02.25-.02.25c-.06.74-.12,1.48-.17,2.21l-.13,1.76s0,.06,0,.08h0c-.38,4.53-.86,8.36-2.03,12.38l-2.89,23.93.07,28.29c-2.28-.51-4.61-.96-7.1-1.37-1.12-.18-2.26-.36-3.44-.52-.33-.05-.67-.09-1-.14-1.03-.14-2.08-.27-3.18-.4h0s0,0,0,0c-1.6-.18-3.25-.34-5.05-.49-2.92-.25-6.06-.45-9.85-.62-.11,0-.22-.01-.33-.02-.05,0-.09,0-.14,0-3.27-.15-6.6-.25-10.3-.36h-.51s0,0,0,0l-30.98-.88-2.91-.08c-8.44-.22-16.41-.42-24.78-2.18l2.11-46.46,5.07-73.92,2.05-21.64,14.57-3.36c1.79-.41,3.78-.17,5.88.09,2.81.35,5.72.7,8.35-.55,1.02-.49,2.12-1.02,3.24-1.53.53-.24,1.06-.49,1.59-.72.04-.02.08-.04.12-.06h0s.3-.13.3-.13h0c.09-.04.17-.08.26-.12.4-.18.79-.34,1.17-.5.23-.1.45-.19.67-.28.42-.17.84-.34,1.23-.49.02,0,.04-.02.06-.02h0s.32-.12.32-.12h0c.42-.15.83-.3,1.24-.44.07-.02.14-.05.2-.07.55-.18,1.1-.35,1.63-.5,0,0,.02,0,.03,0,.5-.14,1-.27,1.49-.39.05-.01.1-.03.15-.04.49-.11.98-.21,1.46-.3.16-.03.32-.05.47-.08ZM1493.08,520.63l.71-17.53,5.31,13.3c2.83,11.58,3.23,25.06,3.58,36.95.31,10.32.57,19.24,2.37,24.42l21.59,62.11,7.86,11.33c-1.64,1.13-4.25.94-6.56.77l-.96-.07c-5.15-.34-9.31,1.51-13.72,3.46-1.26.56-2.56,1.13-3.88,1.65-4.37,1.71-9.14,2.35-13.75,2.97-1.65.22-3.35.45-5.03.73l.86-48.76,1.01-65.93.61-25.42ZM1346.49,177.08l116.42-.41,29.79-1-.73,44.93-1.09,58.75-.84,33.25-.79,46.86-14.23.26-53.52-5.76-27-8.17,9.46-28.03h-.51l-17.53-17.69-16.08-15.04-30.56-29.32c-7.87-7.55-16.84-14.74-28.24-22.64l-.13-.08c-1.71-1.19-3.58-2.45-5.86-3.98-1-.67-2.03-1.34-3.04-2-3.05-2.01-6.17-4.03-9.1-5.91l-7.51-13.21-13.68-30.39,74.77-.43ZM1136.67,178.7l97.24-.43,30.81-.6,14.9,32.56,8.25,14.49v.14l26.66,18.79c14.54,10.25,27.21,22.62,39.47,34.59,3.91,3.81,7.94,7.75,12,11.6l18.58,17.57,12.12,11.89-28.54,86.99-7.57,38.67c-.18.95-.29,1.78-.39,2.58-.06.51-.12.99-.2,1.47-.02.11-.04.21-.07.32-.04.22-.08.45-.14.67h0s-.13.52-.13.52c-.05.16-.11.32-.17.48-.06.18-.12.35-.19.54-.15.34-.32.71-.53,1.08,0,0,0,.01-.01.02-.24.43-.48.81-.74,1.18l-.09.14h0c-2.58,3.72-5.07,7.54-7.48,11.23-6.71,10.29-13.05,20.02-21.55,28.47-.38.38-.75.74-1.14,1.11l-46.41,44.49c-.23.21-.44.42-.62.62-2.15,2.15-3.82,4.43-5.44,7.38-.29.53-.57,1.07-.85,1.64-.12.25-.25.49-.37.74h0s-.04.07-.05.11l-13.03-17.65-21.04-25.97-39.17-51.77-35.1-48.98c-1.94-2.71-3.86-5.4-5.74-8.09h0c-.06-.09-.12-.17-.18-.25-.38-.54-.74-1.07-1.1-1.6-.55-.8-1.08-1.57-1.59-2.33-.09-.13-.18-.27-.27-.4-.42-.62-.82-1.21-1.21-1.8-.32-.48-.64-.96-.95-1.44-.15-.24-.31-.47-.46-.7-.5-.76-.99-1.52-1.46-2.27-.02-.03-.03-.05-.05-.08-.07-.11-.13-.21-.2-.32-3.57-5.62-6.54-10.79-9.06-15.77-.15-.3-.3-.59-.45-.89h0s0,0,0,0c-1.49-2.99-2.86-6-4.09-8.96l-2.28-22.63c-1.64-54.17-1.62-106.23.07-159.15ZM1126.55,179.12l.43,52.18-.43,109.49,4.52,22.83,15.54,30.82,34.39,48.24-39.33,21.52-38.52-53.21c-.63-.87-1.25-1.74-1.86-2.6h0c-.61-.87-1.2-1.73-1.78-2.6-1.23-1.84-2.35-3.56-3.4-5.24h0c-.55-.88-1.09-1.75-1.61-2.64-1.01-1.68-2.01-3.42-3.04-5.29,0-.01-.01-.02-.02-.03-.04-.07-.07-.14-.11-.21-4.38-8.01-8.05-16.28-11.2-25.26-.38-1.09-.73-2.19-1.04-3.26h0s-.06-.22-.06-.22l-.02-.06h0c-1.63-5.78-2.52-12.07-2.78-19.79,0-.01,0-.03,0-.04,0,0,0-.01,0-.02-.06-2.07-.09-4.3-.08-6.79l.18-37.95-.85-76.96-.59-42.58,51.68-.33ZM1021.34,149.76c0-.27.01-.56.03-.84,0-.01,0-.03,0-.04.12-1.52.52-3.27,1.15-5.55.02.05.04.09.06.14.27.68.56,1.35.87,2.01.03.07.06.13.1.2.34.7.7,1.4,1.09,2.09,0,.01.02.03.02.04,2.24,3.95,5.29,7.55,9.04,10.66l-8.53.06h-.21c-2-2.96-3.12-4.94-3.49-7.05,0,0,0,0,0-.01-.05-.26-.08-.53-.1-.8,0-.01,0-.03,0-.04-.02-.26-.03-.53-.03-.81,0-.02,0-.03,0-.05ZM1017.94,129.75c.74,3.27,1.22,6.07.29,8.89l-4.19-19.75,3.9,10.86ZM1012.44,134.31l3.12,13.89c.01.06.02.12.03.18.06.3.11.6.13.92.07,1.25-.22,2.54-.87,3.96-.28.57-.59,1.15-.92,1.7,0,0,0,.01,0,.02,0,0,0,.01,0,.02-.44.72-.91,1.43-1.37,2.1-.33.49-.65.96-.94,1.43l-10.43-.05c.65-.59,1.26-1.2,1.83-1.82.36-.39.83-.9,1.25-1.44,0,0,0,0,0,0,0,0,0,0,0,0,.37-.44.74-.93,1.14-1.48.37-.51.71-1.03,1.05-1.57.32-.53.64-1.05.94-1.6h0s0,0,0,0c.62-1.13,1.16-2.27,1.62-3.4,1.49-3.54,2.6-7.65,3.44-12.84ZM878.03,160.39c.4-.49.87-.98,1.43-1.53,2.04-1.96,4.42-3.41,6.94-4.95.9-.55,1.8-1.1,2.69-1.68l25-16.21.23-.21v-.19c.13-2.03.16-4.08.19-5.85.01-.67.02-1.35.02-2.02v-.64c.05-4.48.1-9.11.74-13.56.45-3.17,1.16-5.98,2.17-8.59.21-.52.45-1.07.75-1.67,0,0,0,0,0,0,.67-1.29,1.53-2.62,2.61-4.06,0,0,0,0,0,0,0,0,0,0,0,0,.59-.78,1.23-1.56,1.83-2.27.01-.01.02-.02.03-.04h0s0,0,0,0c.68-.81,1.38-1.62,2.07-2.41.62-.71,1.23-1.42,1.82-2.11,5.18-6.14,10.89-12.01,17.44-17.94.05-.04.1-.09.15-.13,2.55-2.29,5.23-4.6,7.99-6.88.45-.37.88-.73,1.34-1.1,3.08-2.51,6.33-5.05,9.88-7.72l13.45-7.71,5.08-10.15c.35,1.78,1.09,3.62,1.82,5.41l17.18,42.41,7.05,27.94c2.35,9.28-.4,19.82-2.67,26.94-2.07,6.49-6.9,12.02-13.26,15.18h-.09s-.08.09-.08.09c-.13.06-.26.11-.42.16-1.2.44-2.66.48-4.45.48l-89.53.37-20.76,2.5c.4-.65.85-1.27,1.35-1.86ZM828.22,192.84l40.85-9.25c8.87-2.01,17.03-2.65,26.01-3.22l14.98-.95,27.94-.84,26.44-.49,49.05.09,29.86.97,24.1.69.13,163.98v.88c0,1.76,0,3.58.04,5.33h0s0,.01,0,.02c.02,1.65.08,3.12.17,4.47,0,0,0,.02,0,.02,0,.01,0,.03,0,.04.02.36.04.72.08,1.06.02.37.05.73.09,1.08.03.39.07.78.12,1.15l.06.46c.04.38.09.75.15,1.11.42,2.94,1.1,5.57,2.06,8.06l9.29,23.81,13.87,23.22,28.92,37.93,11.23,15.9-49.27,26.86-60.1,33.84-49.5,28.36c-.35-.49-.7-.97-1.04-1.47-1.52-2.21-3.06-4.7-4.7-7.6-.01-.02-.02-.04-.03-.05h0c-2.21-3.97-4.17-7.98-6.25-12.22-1.67-3.42-3.41-6.96-5.28-10.48l-45.85-86.01-25.55-47.56-15.26-25.91-53.95-94.71-17.12-34.56-1.74-22.59,1.58-13.98,28.6-7.45ZM804.48,108.23c-1.74-3.02-4.01-5.29-6.85-6.88l-12.68-9.85c2.82.28,5.35.16,7.55-.34h0s0,0,0,0c0,0,0,0,.01,0,.33-.07.65-.16.97-.25.04-.01.08-.02.12-.03,0,0,0,0,0,0,0,0,0,0,0,0,.45-.14.89-.29,1.32-.46.27-.11.53-.24.79-.36.15-.07.3-.13.44-.21.29-.15.58-.32.86-.49.1-.06.2-.12.3-.18.3-.19.59-.4.87-.62.07-.05.13-.1.2-.15.3-.24.58-.49.86-.75.04-.04.08-.07.12-.11.3-.28.58-.58.85-.9,0-.01.02-.02.03-.03.58-.67,1.11-1.39,1.59-2.19l3.04,15.49-.38,8.32ZM769.12,77.56c1.39-.97,2.82-1.97,4.38-2.99-.84,5.23.48,9.02,4.73,13.63-2.52-.36-4.49-1.42-6.55-2.54-1.2-.65-2.44-1.32-3.81-1.86l-7.98-.55c3.31-1.57,6.09-3.5,9.23-5.69ZM757.69,79.39s0,0,0,0c-.48.28-1,.56-1.51.84-.29.15-.58.31-.87.46-.53.27-1.06.55-1.62.81-.99.46-1.89.86-2.75,1.21-.96.39-1.89.75-2.79,1.06-.93.33-1.87.64-2.79.93,0,0,0,0-.01,0-.63.19-1.28.37-1.92.55l28.44-15.87-10.31,7.49c-1.22.88-2.48,1.71-3.86,2.51ZM777.8,76.75c.14-1.83.9-3.64,2.29-5.4.05-.06.09-.11.13-.17.09-.11.19-.22.28-.33.11-.13.22-.26.33-.38.06-.06.12-.12.18-.19.16-.17.32-.33.48-.5.07-.07.14-.13.21-.2.15-.15.3-.29.46-.44l.1-.08h0c.38-.34.79-.69,1.21-1.03.83-.66,1.74-1.3,2.78-1.96,0,0,.02-.01.03-.02,2.48-1.57,5.54-3.13,9.09-4.65,2.31,4.33,3.56,9.27,4.47,13.57-.34,3.32-1.87,6.81-4.12,9.35-1.76,2-4.9,2.98-8.38,2.61-.49-.05-.94-.12-1.37-.21-.67-.14-1.34-.34-1.99-.61,0,0-.02,0-.02-.01-.38-.15-.73-.35-1.08-.54-.3-.17-.6-.35-.88-.55-.09-.06-.18-.13-.27-.19-.34-.25-.66-.52-.96-.81-.11-.11-.22-.21-.33-.33-.19-.2-.38-.4-.55-.62-.26-.33-.52-.67-.75-1.03,0,0,0,0,0,0-.33-.55-.59-1.1-.8-1.69-.44-1.22-.62-2.41-.54-3.59ZM825.35,75.27l-.11.17c-5.11,7.77-9.27,14.55-12.72,21.92-.04-.46-.1-.91-.14-1.36,0-.07-.01-.13-.02-.2-.11-1.09-.24-2.16-.38-3.24,0-.05-.01-.1-.02-.15-.86-6.62-2.15-12.97-3.41-18.6.17.07.34.16.51.24.11.06.23.11.34.17.5.26,1,.56,1.52.86,1.69,1,3.44,2.02,5.2,2.02.34,0,.68-.04,1.02-.12l8.45-2.09c-.08.12-.16.24-.24.36ZM825.45,68.47c-1.61,1.6-3.87,2.71-6.72,3.29h0s0,0,0,0c-4.65.96-9.8-2.85-12.11-7.09l-.14-.25c-1.14-2.13-2.03-4.42-2.53-6.5-.01-.05-.03-.11-.04-.16v-.08c-.08-.3-.14-.6-.19-.91-.02-.1-.04-.2-.05-.3l11.21-4.97c.24-.03.47-.06.69-.09.09,0,.18-.03.28-.03.04,0,.08,0,.19-.01,0,0,0,0,0,0h0s.01,0,.02,0c6.07-.44,11.07,2.97,11.9,8.11.59,3.65-.28,6.75-2.51,8.98ZM839.36,46.63l-6.58,14.31c-.21-5.7-3.26-10.15-9.07-13.28l20.07-7.83-4.43,6.8ZM863.12,21.53l-.22.14c-.25.16-.5.33-.75.49-.19.12-.38.24-.57.37l-.13.08h0s0,0,0,0h0c-.51.35-1.02.7-1.53,1.06l-.14.09h0s0,0,0,0h0c-.51.37-1.01.75-1.51,1.14l-.15.11c-10.26,8.11-21.15,12.35-32.68,16.84-1.92.75-3.85,1.5-5.8,2.28h0c-1.78.7-3.6,1.45-5.41,2.22h0c-.4.17-.8.34-1.19.51.56-.28,1.12-.56,1.7-.85.88-.44,1.76-.88,2.66-1.34l.11-.06h0s17.6-8.91,17.6-8.91l28.08-14.21s-.04.02-.06.04ZM855.35,15.19l-52.07,27.21-.62-1.18h0c.7-.37,1.4-.75,2.1-1.15.02-.01.05-.03.07-.04h0c2.01-1.12,4.1-2.38,6.38-3.86,0,0,0,0,0,0h0c.1-.06.2-.13.3-.2,2.76-1.78,5.53-3.66,8.22-5.5,4-2.73,8.14-5.56,12.41-8.11,6.82-4.09,14.58-5.79,23.21-7.17ZM800.81,10.57l19.7,5.03c1.03.51,2.09.86,3.35,1.1,0,0,0,0,0,0h0s.03,0,.04,0c1.07.21,2.15.32,3.31.43.86.08,1.76.18,2.71.31.05,0,.09.01.14.02h0c.13.02.27.04.4.06l-21.93,14.77-12.38,7.23c-.91-.42-1.4-1.48-1.91-2.6-.31-.67-.63-1.37-1.06-1.95l-13.09-18.07-8.8-9.24,29.53,2.91ZM787.48,44.1c-1.15.59-2.27,1.24-3.35,1.86-.81.47-1.63.94-2.46,1.39,0,0,0,0,0,0-1.79.96-3.24,1.61-4.7,2.11-.04.01-.08.03-.11.04l-.87.26-.11.03h0c-.26.07-.52.14-.79.2-1.72.39-3.51.51-5.2.34-.05,0-.1,0-.14,0-.41-.05-.83-.12-1.21-.19,0,0,0,0,0,0-.88-.18-1.67-.46-2.41-.79-.19-.09-.4-.16-.59-.26-.22-.12-.45-.26-.65-.39-.32-.21-.62-.44-.92-.69-.09-.07-.16-.15-.25-.24-1.03-1-1.72-2.25-2.04-3.72-.45-2.09-.35-4.3.3-6.4,0-.03.01-.06.02-.09.83-2.67,2.5-4.97,4.59-6.32,2.02-1.31,4.21-1.97,6.38-1.97,1.48,0,2.94.31,4.32.93l.06.03c.25.12.51.24.76.39h0c.1.07.21.13.32.19l.09.05c.38.23.76.51,1.17.83l.41.33c.1.08.19.17.29.26.23.2.45.41.66.64,1.64,1.65,3.11,3.76,4.39,6.27.29.58.57,1.17.83,1.76.12.28.23.55.34.83.13.32.27.64.39.95.17.46.33.92.49,1.37ZM749.51,59.9c2.86-4.9,5.56-9.52,6.54-15.2l4.24-24.7c.17-1,.27-1.97.36-2.92.23-2.23.45-4.34,1.58-6.29l9.74,9.28c.11.1.21.2.31.31,1.08,1.12,1.79,2.32,2.48,3.49.12.21.25.42.37.62-.16-.02-.32-.02-.49-.03-.14-.01-.28-.02-.43-.03-.45-.03-.9-.03-1.35-.02-.12,0-.25,0-.37.02-.48.03-.95.08-1.43.15-.09.01-.19.03-.28.04-.52.09-1.04.2-1.56.35-.05.01-.1.02-.15.04-2.35.67-4.67,1.87-6.96,3.63-2.38,1.83-4.34,5.72-5,9.92-.23,1.49-.26,2.93-.15,4.29,0,.12.02.23.03.35.04.34.09.66.14.99.03.18.06.36.1.53.06.28.13.55.2.82.06.2.12.4.19.6.08.24.16.48.26.71.08.21.18.4.27.6.1.21.2.43.31.63.11.2.24.4.36.59.11.18.22.36.34.53.25.34.52.67.81.98,0,0,0,.01.01.02h0s0,0,0,0h0c.15.16.29.31.44.44.3.28.58.54.87.78,0,0,0,0,0,0h0s0,0,0,0c.95.86,1.77,1.49,2.58,1.99.88.55,1.79.97,2.77,1.25l-19.66,9.6c.82-1.5,1.67-2.95,2.49-4.36ZM732.1,81.07s0,0,0,0c0,0,0,0,0,0,1.35-1.14,2.74-2.28,4.13-3.38.78-.63,1.56-1.23,2.35-1.83,1.02-.78,1.98-1.48,2.92-2.14,0,0,0,0,0,0h0s.05-.03.07-.05c3.03-2.1,5.86-3.81,8.64-5.2l40.34-20.26c1.01-.5,2.46-.98,3.83-1.19l-62.47,34.22c.06-.05.12-.1.18-.15ZM728.27,97.79s.03-.01.04-.02l.1-.06c.08-.05.16-.09.27-.14h0c.11-.06.22-.11.33-.17.59-.31,1.17-.61,1.75-.92.91-.47,1.79-.93,2.66-1.37.35-.18.69-.35,1.04-.52.66-.33,1.32-.66,1.97-.97.64-.31,1.27-.61,1.9-.9.37-.17.74-.34,1.1-.5.97-.44,1.95-.86,2.93-1.26,0,0,.01,0,.02,0h0c.59-.24,1.17-.47,1.76-.69,0,0,.01,0,.02,0,1.18-.44,2.25-.81,3.28-1.13h0s.29-.09.29-.09h0c1.21-.38,2.45-.72,3.69-1.01,4.53-1.08,11.09-.36,18.48,2.03.04.01.07.02.11.03,5.89,1.92,11.57,4.7,14.81,7.28l13.91,10.98,5.62,10.8-5.59,34.15-2.86,12.22-3.64,20.76-16.56,8.4-30.15-55.94-21.62-38.65c1.46-.76,2.91-1.52,4.34-2.27ZM633.27,155.38l58.85-40,19.85-11.91.29.29c.28.29.58.59.85.82h0s0,0,0,0c.33.27.77.57,1.19.5l.34-.07.06-.06,2.32-.76c.09.09.18.18.26.27.16.18.32.36.47.56.2.25.4.51.59.78.04.05.07.1.11.16.77,1.1,1.45,2.32,2.06,3.44l34.27,63.58,12.89,25.33c-.57.15-1.13.31-1.67.49h0s0,0,0,0c-.83.27-1.7.61-2.67,1.01,0,0,0,0,0,0h0s-.02,0-.03.01c-.99.42-1.93.87-3.04,1.41l-.82.41c-.4.2-.8.4-1.2.59-.85.42-1.7.84-2.59,1.24h0s-50.06,22.94-50.06,22.94c-1.09.5-2.15.91-3.15,1.23-.05.02-.11.03-.16.05-5.74,1.77-10.31.56-14.33-3.78l-13.08-17.77c-9.74-13.23-24.94-18.35-39.68-22.47-2.24-.63-4.49-1.24-6.75-1.85-1.23-.33-2.46-.66-3.7-1-.05-.02-.11-.03-.16-.04-1.42-.39-2.83-.78-4.25-1.19-.16-.04-.31-.09-.46-.14-2.17-.63-4.09-1.21-5.84-1.77-3.05-.98-5.74-1.5-8.54-.93l27.77-21.39ZM595.02,184.42l-.04.13-.12.33h0s-.56,1.57-.56,1.57l-.26.51.07.02-.05.15h.56l39.05,11.57,18.76,7.3c5.68,2.22,9.32,7.74,12.52,12.61l.11.17c.5.76.99,1.49,1.46,2.19,2.21,3.28,3.95,5.87,4.79,8.85.88,3.12.67,6.4-.68,10.63,0,0,0,.02,0,.03-.1.29-.2.6-.3.91l-30.11,13.65-68.65,32.26c-14.11,6.64-27.85,13.33-40.91,22.27l-20.11,14.28-22.35-26.91c-.43-.51-.8-.94-1.18-1.33-.75-.78-1.46-1.36-2.24-1.81,0,0,0,0,0,0,0,0,0,0,0,0,0,0,0,0,0,0-.41-.24-.85-.46-1.33-.65l16.52-19.25,39.55-40.38,50.45-45.35,5.09-3.72ZM509.18,162.53l72.64,20.98-60.3,54.98-44.81,47.64c-.21-.37-.45-.74-.72-1.13h0s0,0,0,0c-.2-.28-.4-.55-.61-.83h0s0,0,0,0c0,0,0,0,0,0-.7-.93-1.51-1.86-2.56-2.91-.02-.02-.04-.04-.06-.06-.88-.89-1.79-1.73-2.68-2.55-.74-.68-1.47-1.36-2.18-2.06-.39-.39-.78-.8-1.16-1.2-1.64-6.69.47-12.63,2.7-18.91.38-1.07.77-2.15,1.14-3.25,8.73-25.9,17.52-46.88,27.65-66.04,4.94-9.34,8.33-16.97,10.95-24.63ZM66.04,639.35c.09-.45.19-.9.3-1.35h0s.01-.06.01-.06c0-.03.02-.07.03-.1.13-.54.28-1.09.44-1.62.04-.15.09-.31.14-.46.18-.59.37-1.19.58-1.77,0,0,0,0,0,0,.49-1.38,1.05-2.72,1.68-4l17.99-36.51,143.4,42.04c.98.3,1.96.58,2.94.86l.26.07h0s0,0,0,0l.3.09c.96.28,1.92.56,2.88.83,0,0,0,0,0,0h0s6.33,1.8,6.33,1.8h0c1.72.49,3.45.98,5.17,1.46l1.12.32s0,0,0,0h0c.11.03.22.06.33.09,5.89,1.68,12.15,3.48,18.4,5.46,4.45,1.42,8.52,2.8,12.43,4.23l.26.1.22-.18c.17-.14.35-.28.46-.42.56-.56,1.01-1.3,1.29-2.13.32-.95.38-1.93.18-2.71v-.32l-.33-.12c-11.91-4.35-23.56-7.63-35.89-11.1-3.91-1.1-7.83-2.21-11.78-3.35,0,0,0,0-.01,0-.49-.13-.97-.27-1.46-.42l-143.58-42.73c4.86-10.26,8.88-20.61,13.14-31.56,1.28-3.29,2.57-6.61,3.89-9.94l9.36-23.64.02-.05.17-.31-.04-.02.11-.3h-.54c-.26-.18-.51-.35-.77-.53-2.13-1.46-4.14-2.83-5.1-5.15-6.96-16.64-13.09-32.72-18.73-49.18l-6.55-15.61-43.45-108.15,11.9-22.57,10.27-26.65v-.04s.01-.01.01-.01l18.12-59.94,42.13-74.77,23.49-37.47c2.57-4.09,4.36-7.74,5.47-11.16.29-.88.54-1.81.76-2.75l5.12-22.61-.48-35.2,68.7,22.57,49.6,15.54,146.76,47.9,80.5,25.5-6.49,15.59-2.58,5.11c-7.94,15.7-15.45,30.52-21.18,46.88l-11.69,33.42c-1.25,3.6-1.51,10.89.08,14.57,1.07,2.06,2.61,4.12,4.57,6.11,0,0,0,0,0,0h0c1.89,1.94,4.21,3.86,6.89,5.72l.44.3h0s-43.36,55.87-43.36,55.87l-36.69,54.25-30.31,53.66-25.1,50.01-21.54,53.65-33.88,91.8-.05.13c-9.09,24.62-16.63,43.92-24.34,62.25-.1-.57-.26-1.17-.53-1.79-.13-.31-.48-.6-1.86-1.14-.26-.1-.55-.21-.88-.32l-.74-.25h0s-.99-.33-.99-.33h0s0,0,0,0c-2.24-.7-5.4-1.59-9.66-2.71-.41-.11-.83-.22-1.26-.33l-.41-.11-.15-.04h0s-.54-.14-.54-.14h0c-.68-.18-1.39-.36-2.09-.53h0s-.42-.11-.42-.11c-.27-.07-.54-.14-.8-.2-.82-.21-1.66-.42-2.52-.63-4.49-1.11-9.43-2.31-14.68-3.56-1.36-.33-2.71-.65-4.04-.96-1.33-.32-2.65-.63-3.95-.93-1.3-.31-2.57-.61-3.82-.9h0s-4.78-1.12-4.78-1.12c-1.91-.45-3.7-.87-5.33-1.25l-64.47-15.58-48.94-17.7-21.22-8.65c.21-3.64.51-7.83,1.37-11.94ZM139.65,786.18l-45.39-23.57-20.17-10.76c-.52-.28-1.03-.62-1.5-1.01-.1-.09-.18-.17-.27-.25-.19-.17-.39-.34-.57-.53,0,0-.01-.01-.02-.02-.46-.47-.88-.97-1.29-1.45-.78-.92-1.59-1.88-2.68-2.66h0s0,0,0,0c-.17-.11-.34-.23-.53-.35l-14.31-8.6c5.18-8.7,7.75-16.74,8.09-25.26l1.71-43.23,1.31-6.92,14.17,4.57,36.18,13.82,17.16,5.95,38.53,8.49,86.52,22-7.82,17.78c-.41-.25-.92-.47-1.37-.41-.15.02-.28.06-.35.1,0,0,0,0-.01,0,0,0-.01,0-.02,0h0c-.56.22-1.08.75-1.63,1.69l-7.22,12.45c-.12.03-.24.05-.35.09-.1.01-.17.04-.23.05-.52.15-1.02.35-1.49.61-1.28.68-2.47,1.75-3.75,3.36h0s0,0,0,0,0,0,0,0c-.28.38-.58.77-.86,1.18-.9,1.27-1.78,2.72-2.72,4.25-3.09,5.02-6.93,11.28-14.06,15.98-1.09.72-2.11,1.4-3.07,2.03-7.55,5.01-11.01,7.3-15.95,8.48-.24.06-.48.11-.73.16h0s-.02,0-.04,0c-.1.03-.19.04-.3.06,0,0,0,0,0,0h0c-.38.08-.78.15-1.19.2h0s-.02,0-.03,0l-.27.04c-.83.12-1.71.22-2.66.31-.21,0-.41.02-.62.04h-.1c-.39.04-.8.07-1.31.1-.23,0-.46.02-.68.04-.92.05-1.9.09-3,.12-.52.02-1.05.04-1.61.05h0c-.29,0-.57,0-.93.02,0,0,0,0,0,0h0s-.02,0-.03,0c-.73,0-1.5.02-2.3.04l-4.5.07-.22-.2-.21.21-35.31.87ZM147.67,802.34s-.01-.03-.02-.04c-.05-.12-.09-.23-.1-.33,0,0,0,0,0-.01-.02-.12-.01-.29.12-.42.07-.08.18-.14.32-.18h0s.01,0,.02,0l13.65,7.7c-4.17,5.02-5.92,10.1-7.77,16.29l-3.25-16.82h.18l-.29-.58-.08-.41h-.13s-2.65-5.2-2.65-5.2ZM239.6,909.93l-9.53,24.32c-.56,1.43-.85,2.95-1.12,4.41-.5,2.64-.97,5.14-2.95,7.14l-10.08-4.08-60.71-26.12c-1.44-.62-2.88-1.14-4.28-1.64-1.49-.54-2.9-1.04-4.26-1.65,0,0,0,0,0,0h0c-.14-.06-.28-.14-.43-.21-.37-.17-.74-.35-1.1-.53l-.23.45.13-.5s-.1-.05-.15-.08c-.17-.09-.33-.18-.5-.28h0s0,0,0,0c-.6-.36-1.14-.72-1.62-1.07l7.58-7.66.03-.03c.11-.07.36-.14,1,0,0,0,0,0,.01,0,.56.13,1.19.37,1.81.61.56.21,1.08.41,1.53.51l.07.06h.18l.13.02.03-.02h.03l15.45-11.87c5.6-4.3,11.02-7.29,16.58-9.13h0s0,0,0,0c.83-.28,1.7-.54,2.59-.77.58-.15,1.16-.29,1.74-.42h.02c.58-.13,1.18-.25,1.79-.35.3-.06.6-.11.91-.15.53-.08,1.07-.14,1.61-.2h0s.22-.03.22-.03c.3-.03.62-.06.93-.08l37.96-2.98,14.87,2.72-10.24,29.64ZM316.26,976.76c-2.19-.03-4.23-.76-6.38-1.54-1.08-.39-2.21-.79-3.39-1.12l-53.88-15-1.04-.29c-2.05-.57-4-1.12-5.94-1.88-.2-.08-.41-.15-.61-.24h0c-.08-.04-.16-.07-.23-.1-.88-.38-1.68-.77-2.45-1.19-.28-.24-.36-.64-.19-.96l3.21-4.22,18.07-42.94c.28-.68.64-1.33,1.07-1.94.27-.38.57-.75.88-1.09,1.27-1.33,2.86-2.25,4.63-2.66.15-.03.31-.06.47-.09.06,0,.12-.03.18-.03.01,0,.02,0,.03,0,1.53-.22,3.12-.05,4.62.51,1.56.59,2.91,1.2,4.14,1.87,2.3,1.25,4.3,2.76,5.94,4.49l.08.08s.08.07.12.09c.07.06.14.1.21.14l7.4,4.12c.06.04.11.07.16.11l33.25,28.97-10.34,34.92ZM298.17,899.82l-15.2-13.82c-1.91-1.74-4.31-4.09-6.24-6.96-.06-.1-.13-.19-.19-.28l-.06-.09c-.34-.52-.64-1.03-.91-1.54-.42-.77-.79-1.55-1.13-2.38l11.8-59.75,1.2-10.33,61.02,9.25-1.42,52.17c-.23,8.58-2.03,16.38-4.67,25.45l-10.25,35.21-33.95-26.93ZM379.51,966.07l-39.42-33.17-.42-.35c-1.09-.9-1.95-1.62-2.32-2.61-.05-.15-.11-.31-.14-.52h0c-.04-.23-.06-.49-.05-.77l12.34-44.13c1.01-.14,2.02.19,3.08,1.05l39.24,31.7c.27.22.55.43.82.63.81.6,1.51,1.12,1.75,1.79l.03.11c.25,1.13-1.21,3.04-3.06,5.46-3.85,5.05-9.68,12.67-9.91,24.65-.03,1.22,0,2.42.02,3.58.08,4.19.16,8.15-1.97,12.58ZM445.46,997.71c-1.84,2.83-7.39,10.18-10.97,10.19-3.33,0-8.85-5.05-8.95-5.13l-12.7-9.71-29.67-24.16c2.06-5.32,2.08-10.17,2.1-15.29v-1.65c.11-10.66,5.05-21.11,13.58-28.74l16.38,13.62,47.43,38.97-17.21,21.89ZM491.79,941.85l-26.66,30.74-50.86-41.78-11.81-10.22,36.49-43.07,35.09,26.53,30.94,23.81-13.19,13.99ZM476.79,898.1l-34.02-25.34c.55-.7,1.11-1.39,1.65-2.09,0,0,.01-.02.02-.02h0s0,0,0,0c.67-.84,1.34-1.68,2-2.52,1.34-1.66,2.67-3.32,3.98-4.97,5.03-6.33,10.34-13.17,15.05-20.34,2.45-3.71,4.6-7.28,6.59-10.99l7.08-19.98,6.88-17.97,16.95,19.99,10.16,48.97.04.04,7.04,17.59,15.26,19.06-25.63,23.34-33.06-24.76ZM573.83,983.78l-26.11-27.23v-.04l-33.37-29.62,25-22.56,20.87,24.27,11.12,14.99,19.82,24.18c-3.85,2.96-8.28,6.52-12.43,10.68h0c-1.14,1.14-2.18,2.23-3.18,3.35-.58.64-1.15,1.3-1.73,1.98ZM595.51,974.25l-15.93,14.97c-.32-.22-.58-.42-.83-.62,0,0-.02-.01-.02-.02h0c-.12-.1-.23-.2-.35-.31h0s-.03-.02-.05-.04c-.03-.02-.06-.05-.13-.13,0,0,0,0,0-.01-.37-.38-.72-.81-1.18-1.45l16.81-15.36s.08.06.12.08c.03.02.07.05.1.07.06.05.11.1.16.15l.06.06v.3h.27s.01.01.02.02c.33.42.63.92.8,1.39.06.15.09.27.12.38,0,0,0,0,0,0,.08.32.05.49.03.51ZM625.86,942.03l-12.57,18.42c-.46.66-.99,1.29-1.63,1.93-1.54,1.51-3.44,2.75-5.45,4.06-1.41.92-2.87,1.87-4.26,2.95l-.14.1c-.08.06-.15.1-.23.12-.74.25-1.96-.71-2.53-1.7-.29-.5-.33-.88-.21-.98l9.96-8.79h.08l12.03-17.43,12.73-19.99c1-.06,2.24.52,3.23,1.54h0c.24.25.44.51.62.76l-11.63,19ZM620.5,933.65l-13.86,20.54-10.76,9.55-20.33-25.17-19.86-24.17-11.56-14.12,23.91-20.2,27.05-21.34,24.57,22.61,20.75,20.66-19.9,31.64ZM746.56,1001.75c-6.23,5.31-13.87,3.5-16.99.16-3.38-3.63-30.95-33.17-33.12-35.49l-20.61-22.16-32.41-22.78,7.95-12.9-22.03-23.95-30.9-28.27c20.96-17.31,40.03-30.27,59.97-40.75l29.72-7.71,73.03-.24,10.1,64.39,8.11,77.92c.04,3.1.35,6.04.95,9,.67,3.33,1.7,6.73,3.22,10.69-3.04,2.65-31.15,27.12-36.99,32.09ZM852.88,931.19l-28.88,12.62-36.94,23.57-3.12-10.02-6.09-59.66c-2.87-28.04-6.2-58.03-12.54-89.46l83.29.17,12.74,9.37,13.38,39.29,21.11,59.55-42.96,14.57ZM909.66,962.52l-.02-.02-31.74,18.59-19.11-40.12,42.64-15.33,16.63,32.32-8.39,4.57ZM1032.33,910.52l-2.04,14.08h0s-.72,5.01-.72,5.01l-44.64,3.98-24.42,7.3h0s-16.3,4.87-16.3,4.87l-22.41,10.76-16.43-31.88,37.99-12.9,29.98-9.18,62.25-14.6-3.26,22.57ZM1067.51,899.98l-.38,17.42-31.69-.66,4.46-29.84,25.52-4.35c1.62,5.22,2.24,10.47,2.09,17.43ZM1047,875.09c5.4-9.84,11.55-20.09,19.76-28.97,4.05,1.64,6.75,4.44,9.6,7.39,1.05,1.08,2.13,2.21,3.31,3.3l4.49,11.76-37.16,6.52ZM1147.9,915.85c-.04.14-.06.32-.09.5-.03.23-.07.47-.13.65-.03.08-.03.08-.03.08-.52.47-1.6.51-2.65.51l-74.09-.15-.14-27.54-.89-8.18,68.82-11.93,9.22,46.05v.02ZM1244.41,921.85l-42.33-3.52-30.97-4.2h-.06s-14.5,1.28-14.5,1.28l-9.32-46.06c.79-1.32,2.13-1.44,3.8-1.58.34-.03.68-.06,1.03-.1l29.31-3.43,20.49,2.32,47.53,9.82-4.99,45.47ZM1211.27,857.62c-10.07-2.27-19.71-4.44-29.64-4.44-3.17,0-6.37.22-9.62.73l-27.21,4.41-6.66-25.9,22.92-12.15,45.96-26.96,20.07-12.76,33.3,4.53c1.24.17,2.79.37,3.4.83.66.49,1.1,1.42,1.2,2.54h0c.02.29.02.61-.01.99-.02.19-.05.39-.08.58l-12.07,63.11-2.17,13.36-39.38-8.86ZM1320.07,927.74l-69.81-5.26,4.95-45.06,41.57,8.23,15.64,2.75,13.5,2.38-5.85,36.96ZM1327.24,927.63h0s-.51-.04-.51-.04c-.04.08-.09.19-.15.26-.04.04-.08.08-.1.1-.07.05-.18.08-.34.11-1.21.2-1.59.09-1.65.09,0,0-.01,0-.01,0-.08-.3-.04-1.13.09-2.14l.11-.74,5.27-33.63c1.38.1,2.18.23,2.84.45-.93,12.67-3.31,23.81-5.75,34.01-.03.21-.06.4-.09.56-.03.16-.06.32-.09.45l-.03.14s0,.02,0,.03c-.02.06-.03.12-.05.18l.47.16ZM1463.3,936.83l-113.14-7.4-19.5-.99c2.96-12.16,4.87-23.27,6.15-35.84l37.07,6.05,90.75,13.51-1.33,24.68ZM1465.63,901.6l-127.33-18.36c1.62-15.5,4.3-29.56,8.18-42.95,3.25-11.2,9.25-20.06,18.88-27.9l13.8-11.22,37.73,5.35,54.15,8.66-5.42,86.44ZM1471.32,811.09l-46.1-7.22-1.64-.25h.01s-43.46-6.37-43.46-6.37l.36-14.17,7.12-40.13,5.96-79.75,87.28,7.71-9.53,140.18ZM1585.25,951.72l-43.62-6.8-69.17-7.26,1.15-24.54,122.87,14.19,5.66,19.24-16.89,5.16ZM1603.34,928.18l68.19,8.59-1.28,15.87-61.92-7.22-5-17.23ZM1643.12,1005.51c-.45-.05-.99-.58-1.81-1.77-2.01-2.94-24.65-37.54-25.63-39.04l-5.67-15.35,59.75,7.25-2.32,27.79c-1.82,1.62-18.62,16.64-21.31,19.05l-.18.16c-1.33,1.2-2.23,1.98-2.83,1.92ZM1717.33,1007.23h0s-2.45,4.18-2.45,4.18c-.39.68-1.09,1.08-1.88,1.08h-65.04c-.99,0-1.85-.66-2.1-1.6l-.02-.09c-.16-.66,0-1.35.4-1.87l24.46-22.2.14-.13.12-1.26h0s0,0,0,0l.22-2.23h0s2.3-23.77,2.3-23.77h0s0-.06,0-.06c.15-1.01.99-1.78,2.01-1.85l45.07,6.03s.04.02.06.02l15.91,10.87-19.21,32.88ZM1739.44,969.45l-.52.86-17.88-10.42-46.81-6.77,1.37-15.71,20.94,2.61c3.02.38,6.09.64,9.06.9,7.93.69,16.13,1.4,23.73,4.24l20.33,7.52-10.21,16.77Z"/>
  <polygon class="cls-1" points="579.65 989.86 579.64 989.86 579.64 989.85 579.64 989.85 579.65 989.86 579.65 989.86"/>
  <polygon class="cls-1" points="591.87 967.86 591.87 967.86 591.87 967.86 591.87 967.86 591.87 967.86"/>
  <path class="cls-1" d="M1129,453.9l-.11.11c-.05-.09-.1-.18-.15-.25.08.05.17.09.26.14Z"/>
  <path class="cls-1" d="M1126.29,450.28c-.09-.06-.2-.12-.3-.18l.12-.12c.06.11.12.2.18.29Z"/>
  <g>
    <path class="cls-3" d="M1737.2,974.2l-19.44,33.28-2.45,4.18c-.48.83-1.35,1.33-2.31,1.33h-65.04c-1.23,0-2.3-.83-2.6-2.02,0-.02-.01-.03-.01-.05-.2-.82-.01-1.68.51-2.32l24.5-22.24.1-1.07h0s.22-2.24.22-2.24l2.3-23.77s0-.05.01-.08c.19-1.29,1.27-2.23,2.53-2.28l45.14,6.04c.11.02.21.06.31.12l16.23,11.12Z"/>
    <path class="cls-3" d="M847.6,790.13c.46,3.43.8,6.39-.9,9.85l-80.67.81-8.05,1.18-66.05.03-.6-39.9.42-48.29.25-100.62-.94-29.09-.64-27.38-.8-36.5-2.31-55.73c-.02-.54-.07-1.12-.16-1.72-.04-.28-.08-.56-.13-.85-.09-.58-.22-1.18-.36-1.79-.21-.87-.46-1.76-.76-2.62-.82-2.45-1.96-4.74-3.29-6.17l-16.88-18.04-8.76-14.33-32.25-61.13h.03s96.67-38.05,96.67-38.05l.03.09h0c2,6.15,4.84,12.83,10.78,16.01l12.34,6.6,35.84,13.47c3.42,1.29,8.38,6.25,10.03,9.61l22.71,46.28c.92,1.87,1.6,3.96,2.12,6.15.42,1.8.72,3.65.95,5.5.22,1.89.37,3.78.48,5.58l8.3,143.8,3.82,71.29,18.56,144.3c.07.53.14,1.05.21,1.55,0,.04.01.08.02.11Z"/>
    <path class="cls-3" d="M467.1,616l.89,29-1.01,1.09-21.96.3-.56-15.94-.49-52.31h.02l12.03-.04h0s.02.1.04.14c.03.08.08.15.13.21.04.06.1.12.17.17.06.06.14.11.22.15.03.02.07.04.11.05.05.04.11.06.17.07.29.11.65.16,1.05.16l9.09-.05v25c-1.59,2.99-1.64,10.01.09,12Z"/>
    <polygon class="cls-3" points="349.58 735.46 349.07 810.28 287.28 801.25 288.23 794.96 293.58 759.7 299.56 725.29 349.58 735.46"/>
  </g>
</svg>