<?xml version="1.0" encoding="UTF-8" standalone="no"?>
<svg xmlns:ffdec="https://www.free-decompiler.com/flash" xmlns:xlink="http://www.w3.org/1999/xlink" ffdec:objectType="shape" height="1099.7px" width="1586.5px" xmlns="http://www.w3.org/2000/svg">
  <g transform="matrix(1.0, 0.0, 0.0, 1.0, 18.15, 10.0)">
    <path d="M1557.15 39.0 L1209.85 39.0 1210.4 40.75 Q1212.0 45.5 1214.6 50.3 L1216.9 50.0 Q1220.4 50.0 1222.9 52.5 1225.4 55.0 1225.4 58.5 1225.4 61.4 1223.7 63.6 L1227.75 68.05 1227.75 48.0 Q1227.75 43.0 1232.75 43.0 L1302.4 43.0 Q1307.4 43.0 1307.4 48.0 L1307.4 58.6 1308.0 58.6 Q1319.5 58.6 1327.6 66.7 1333.2 72.35 1334.95 79.6 L1559.6 79.6 1559.6 93.4 1334.85 93.4 Q1333.1 100.4 1327.6 105.9 1319.4 114.05 1308.0 114.05 1296.6 114.05 1288.4 105.9 1282.9 100.4 1281.15 93.4 L706.05 93.3 Q704.25 100.4 698.75 105.9 690.55 114.05 679.15 114.05 667.7 114.05 659.55 105.9 654.0 100.35 652.3 93.25 L611.0 93.25 Q596.25 93.25 583.1 99.95 569.95 106.65 561.3 118.65 464.9 252.2 401.25 340.5 L404.2 342.6 337.95 436.35 334.2 433.7 286.8 500.0 Q292.35 507.2 292.35 516.7 292.35 528.2 284.25 536.3 276.05 544.45 264.65 544.45 260.8 544.45 257.3 543.55 L158.0 692.55 Q162.95 699.5 162.95 708.35 162.95 719.8 154.75 727.95 146.65 736.05 135.15 736.05 L129.45 735.5 2.85 925.95 -8.65 918.3 116.95 729.25 115.55 727.95 Q107.45 719.85 107.45 708.35 107.45 696.95 115.55 688.75 123.75 680.65 135.15 680.65 141.85 680.65 147.45 683.45 L245.25 536.6 244.95 536.3 Q236.85 528.2 236.85 516.7 236.85 505.2 244.95 497.1 253.15 489.0 264.65 489.0 270.8 489.0 276.0 491.35 289.65 472.0 322.9 425.75 L318.1 422.35 384.4 328.6 389.95 332.55 550.15 110.5 Q560.7 95.95 576.85 87.7 592.95 79.45 611.0 79.45 L652.25 79.45 Q654.0 72.3 659.55 66.7 667.7 58.6 679.15 58.6 690.65 58.6 698.75 66.7 704.3 72.3 706.05 79.45 L1234.65 79.55 Q1226.7 73.35 1220.6 66.2 1218.9 67.0 1216.9 67.0 1213.4 67.0 1210.9 64.5 1208.4 62.0 1208.4 58.5 1208.4 55.0 1210.9 52.5 L1211.1 52.3 Q1208.3 47.15 1206.6 42.1 L1205.65 39.0 594.5 39.0 Q576.15 39.0 559.8 47.4 543.4 55.75 532.7 70.65 L363.6 307.8 371.5 313.4 298.8 416.15 290.5 410.25 131.5 633.15 133.6 635.05 Q141.75 643.25 141.75 654.65 141.75 666.15 133.6 674.25 125.5 682.35 114.0 682.35 105.85 682.35 99.35 678.2 L-1.25 819.25 -4.5 817.0 96.2 675.85 94.45 674.25 Q86.3 666.15 86.3 654.65 86.3 643.25 94.45 635.05 102.6 626.95 114.0 626.95 121.95 626.95 128.3 630.85 L287.25 408.0 279.0 402.1 351.7 299.35 360.35 305.5 529.55 68.3 Q540.8 52.65 558.0 43.85 575.2 35.0 594.5 35.0 L1557.15 35.0 1557.15 39.0 M1298.45 605.05 Q1295.55 607.9 1291.5 607.9 1287.4 607.9 1284.45 605.05 1281.6 602.1 1281.6 598.0 1281.6 593.95 1284.45 591.1 1287.4 588.15 1291.5 588.15 1295.55 588.15 1298.45 591.1 1301.35 594.0 1301.35 598.0 1301.35 602.1 1298.45 605.05 M1300.35 613.05 Q1302.8 614.6 1303.4 617.45 L1314.35 667.55 Q1314.95 670.45 1313.4 672.85 1311.85 675.3 1309.05 675.9 1306.2 676.5 1303.75 674.95 1301.3 673.4 1300.7 670.55 L1289.75 620.45 Q1289.15 617.6 1290.7 615.15 1292.25 612.7 1295.1 612.1 1297.9 611.45 1300.35 613.05 M1310.4 691.45 L1308.6 683.75 1314.4 682.45 1316.2 690.15 1310.4 691.45 M1326.0 732.35 L1320.25 733.75 1318.5 726.05 1324.2 724.7 1326.0 732.35 M1315.35 712.6 L1313.55 704.9 1319.35 703.55 1321.1 711.2 1315.35 712.6 M1325.2 754.8 L1323.35 747.15 1329.15 745.8 1330.9 753.5 1325.2 754.8 M1328.3 768.25 L1334.1 766.9 1335.85 774.65 1330.05 775.95 1328.3 768.25 M1335.4 786.5 Q1340.4 786.5 1343.95 790.05 1347.5 793.55 1347.5 798.55 1347.5 803.55 1343.95 807.1 1340.4 810.65 1335.4 810.65 1330.35 810.65 1326.8 807.1 1323.25 803.55 1323.25 798.55 1323.25 793.6 1326.8 790.05 1330.35 786.5 1335.4 786.5 M1399.6 790.05 L1400.15 796.0 1392.25 796.7 1391.7 790.85 1399.6 790.05 M1456.45 785.0 L1464.25 784.2 1464.8 790.15 1457.0 790.85 1456.45 785.0 M1442.7 786.2 L1443.25 792.1 1435.4 792.75 1434.85 786.9 1442.7 786.2 M1421.1 788.15 L1421.65 794.1 1413.85 794.8 1413.3 788.85 1421.1 788.15 M1485.85 782.3 L1486.4 788.15 1478.5 788.85 1478.0 782.95 1485.85 782.3 M1500.1 786.9 L1499.6 780.95 1507.45 780.25 1508.0 786.15 1500.1 786.9 M1521.75 784.9 L1521.2 778.95 1529.0 778.25 1529.6 784.15 1521.75 784.9 M1550.6 776.25 L1551.15 782.1 1543.35 782.9 1542.7 776.95 1550.6 776.25 M1564.4 780.9 L1563.85 775.0 1567.7 774.65 1568.35 780.5 1564.4 780.9 M1378.5 797.95 L1370.75 798.65 1370.2 792.75 1378.0 792.1 1378.5 797.95 M1343.9 809.2 L1345.75 816.85 1339.95 818.25 1338.15 810.5 1343.9 809.2 M1356.45 794.0 L1357.0 799.85 1349.1 800.55 1348.6 794.7 1356.45 794.0 M1348.8 830.25 L1350.6 838.0 1344.9 839.3 1343.05 831.65 1348.8 830.25 M1331.4 836.2 L1262.4 836.2 1262.4 816.2 1331.4 816.2 1331.4 836.2 M1306.0 804.35 L1305.45 798.5 1313.3 797.8 1313.8 803.65 1306.0 804.35 M1349.75 860.45 L1347.95 852.8 1353.75 851.4 1355.55 859.15 1349.75 860.45 M1358.7 872.55 L1360.45 880.2 1354.7 881.6 1352.9 873.85 1358.7 872.55 M1363.55 893.7 L1365.4 901.35 1359.6 902.7 1357.85 895.0 1363.55 893.7 M1373.45 935.9 L1375.2 943.6 1369.5 944.95 1367.65 937.3 1373.45 935.9 M1362.8 916.15 L1368.5 914.75 1370.25 922.5 1364.55 923.8 1362.8 916.15 M1372.6 958.35 L1378.35 957.05 1380.15 964.75 1374.35 966.05 1372.6 958.35 M1377.5 979.5 L1383.25 978.2 1385.1 985.85 1379.3 987.2 1377.5 979.5 M1384.25 1008.35 L1382.45 1000.65 1388.15 999.35 1389.95 1006.95 1384.25 1008.35 M1394.9 1028.1 L1389.15 1029.4 1387.3 1021.8 1393.1 1020.4 1394.9 1028.1 M1399.8 1049.25 L1394.05 1050.55 1392.25 1042.85 1398.05 1041.55 1399.8 1049.25 M1402.15 1085.15 L1407.85 1083.8 1408.7 1087.15 1402.9 1088.55 1402.15 1085.15 M1398.95 1071.7 L1397.2 1064.0 1403.0 1062.7 1404.75 1070.3 1398.95 1071.7 M977.3 -1.75 L977.3 6.15 971.35 6.15 971.35 -1.75 977.3 -1.75 M532.4 -7.7 L304.15 300.3 311.3 305.35 271.5 361.7 263.05 355.75 -4.65 716.9 -7.8 714.6 259.85 353.5 251.6 347.65 291.5 291.3 300.95 298.0 529.2 -10.0 532.4 -7.7 M146.3 671.55 L139.0 668.7 141.2 663.2 148.5 666.05 146.3 671.55 M85.95 647.7 L78.7 644.85 80.85 639.4 88.2 642.25 85.95 647.7 M65.9 639.75 L58.55 636.9 60.7 631.45 68.05 634.3 65.9 639.75 M47.9 626.35 L45.75 631.8 38.4 628.95 40.65 623.5 47.9 626.35 M25.6 623.85 L18.4 621.0 20.6 615.55 27.85 618.4 25.6 623.85 M7.8 610.45 L5.6 615.9 -1.7 613.05 0.45 607.6 7.8 610.45 M186.55 687.45 L179.2 684.6 181.4 679.1 188.7 681.95 186.55 687.45 M201.5 687.05 L208.85 689.9 206.6 695.45 199.35 692.55 201.5 687.05 M236.3 712.75 L239.8 707.95 246.1 712.6 242.65 717.4 236.3 712.75 M219.8 700.65 L219.45 700.5 221.6 695.0 222.65 695.4 228.7 699.85 225.2 704.6 219.8 700.65 M274.65 733.6 L281.0 738.2 277.55 743.0 271.2 738.35 274.65 733.6 M260.1 730.2 L253.75 725.55 257.25 720.8 263.55 725.4 260.1 730.2 M307.25 750.85 L395.05 815.45 385.45 828.5 297.65 763.85 307.25 750.85 M288.65 751.1 L292.1 746.3 298.45 751.05 294.95 755.8 288.65 751.1 M1241.35 79.55 L1281.1 79.55 Q1281.85 76.45 1283.3 73.65 L1233.75 73.65 1241.35 79.55 M977.3 27.9 L971.35 27.9 971.35 19.95 977.3 19.95 977.3 27.9 M977.3 71.25 L971.35 71.25 971.35 63.4 977.3 63.4 977.3 71.25 M977.3 49.55 L971.35 49.55 971.35 41.6 977.3 41.6 977.3 49.55 M977.3 110.8 Q979.55 111.45 981.3 113.2 984.25 116.15 984.25 120.25 984.25 124.35 981.3 127.2 979.55 129.0 977.3 129.7 L977.3 136.3 971.35 136.3 971.35 129.7 Q969.15 129.0 967.35 127.2 964.5 124.35 964.5 120.25 964.5 116.15 967.35 113.2 969.15 111.45 971.35 110.8 L971.35 106.75 977.3 106.75 977.3 110.8 M977.3 158.0 L971.35 158.0 971.35 150.1 977.3 150.1 977.3 158.0 M977.3 288.15 L971.35 288.15 971.35 280.2 977.3 280.2 977.3 288.15 M978.3 307.9 Q980.35 309.95 980.35 312.85 L980.35 361.85 Q980.35 364.75 978.3 366.8 L977.3 367.65 977.3 374.85 971.35 374.85 971.35 368.6 Q969.7 368.1 968.4 366.8 966.35 364.75 966.35 361.85 L966.35 312.85 Q966.35 309.95 968.4 307.9 969.7 306.6 971.35 306.15 L971.35 301.95 977.3 301.95 977.3 307.05 978.3 307.9 M982.15 271.65 L965.35 271.65 965.35 165.75 982.15 165.75 982.15 271.65 M967.35 434.0 Q970.25 431.1 974.35 431.1 978.45 431.1 981.3 434.0 984.25 436.9 984.25 441.0 984.25 445.1 981.3 447.95 978.45 450.9 974.35 450.9 970.25 450.9 967.35 447.95 964.5 445.1 964.5 441.0 964.5 436.9 967.35 434.0 M971.35 410.35 L977.3 410.35 977.3 418.25 971.35 418.25 971.35 410.35 M971.35 453.75 L977.3 453.75 977.3 461.6 971.35 461.6 971.35 453.75 M971.35 475.4 L977.3 475.4 977.3 483.35 971.35 483.35 971.35 475.4 M971.35 497.1 L977.3 497.1 977.3 505.05 971.35 505.05 971.35 497.1 M971.35 518.85 L977.3 518.85 977.3 526.7 971.35 526.7 971.35 518.85 M971.45 557.15 L984.4 557.05 984.4 563.0 971.5 563.0 971.45 557.15 M971.35 540.55 L977.3 540.55 977.3 548.4 971.35 548.4 971.35 540.55 M1150.05 562.2 L1149.95 556.3 1157.85 556.3 1157.9 562.2 1150.05 562.2 M1136.25 562.3 L1128.3 562.3 1128.3 556.45 1136.15 556.35 1136.25 562.3 M1171.65 556.2 L1179.6 556.2 1179.6 562.05 1171.75 562.15 1171.65 556.2 M1193.4 562.05 L1193.35 556.1 1201.3 556.1 1201.3 562.0 1193.4 562.05 M1236.8 561.85 L1236.8 555.9 1244.65 555.9 1244.65 561.85 1236.8 561.85 M1215.1 561.9 L1215.0 556.05 1222.95 555.95 1222.95 561.9 1215.1 561.9 M1286.6 563.4 L1280.9 564.7 1279.7 559.35 1280.15 559.2 1280.15 555.75 1284.85 555.75 1286.6 563.4 M1258.45 555.8 L1266.35 555.8 1266.35 561.7 1258.45 561.75 1258.45 555.8 M1284.0 578.2 L1289.8 576.8 1291.55 584.5 1285.75 585.85 1284.0 578.2 M1006.05 556.95 L1006.05 562.85 998.2 562.9 998.2 556.95 1006.05 556.95 M1019.9 556.9 L1027.75 556.9 1027.75 562.75 1019.9 562.85 1019.9 556.9 M1035.6 558.2 Q1035.6 555.3 1037.65 553.25 1039.7 551.2 1042.6 551.2 L1091.6 551.2 Q1094.5 551.2 1096.55 553.25 1098.6 555.3 1098.6 558.2 1098.6 561.1 1096.55 563.15 1094.5 565.2 1091.6 565.2 L1042.6 565.2 Q1039.7 565.2 1037.65 563.15 1035.6 561.1 1035.6 558.2 M1114.5 556.5 L1114.55 562.35 1106.6 562.45 1106.6 556.5 1114.5 556.5 M977.3 396.55 L971.35 396.55 971.35 388.7 977.3 388.7 977.3 396.55 M-14.5 607.95 L-18.15 606.6 -16.0 601.05 -12.35 602.5 -14.5 607.95 M1291.7 799.65 L1292.25 805.6 1284.4 806.25 1283.85 800.35 1291.7 799.65 M1270.1 801.55 L1270.65 807.45 1262.85 808.15 1262.3 802.2 1270.1 801.55 M1240.7 804.05 L1248.6 803.4 1249.1 809.3 1241.25 810.0 1240.7 804.05 M1219.75 811.75 L1219.2 805.9 1227.0 805.2 1227.5 811.15 1219.75 811.75 M1189.35 819.7 L1130.85 824.2 1129.85 808.7 1187.85 804.2 1189.35 819.7 M1197.6 807.65 L1205.45 807.05 1205.9 812.9 1198.05 813.6 1197.6 807.65 M1097.95 821.45 L1090.15 822.1 1089.7 816.25 1097.5 815.6 1097.95 821.45 M1111.25 814.55 L1119.1 813.9 1119.55 819.85 1111.7 820.45 1111.25 814.55 M1054.9 825.0 L1047.1 825.65 1046.6 819.8 1054.35 819.1 1054.9 825.0 M1068.65 823.85 L1068.1 817.95 1076.0 817.3 1076.45 823.15 1068.65 823.85 M1094.1 857.1 L1024.35 857.1 1024.35 836.7 1094.1 836.7 1094.1 857.1 M1025.6 827.65 L1024.95 821.8 1032.85 821.0 1033.4 826.9 1025.6 827.65 M990.1 820.4 Q993.05 817.55 997.1 817.55 1001.2 817.55 1004.05 820.4 1005.55 821.9 1006.3 823.7 L1011.3 823.15 1011.95 829.05 1006.8 829.65 Q1006.15 832.3 1004.05 834.35 1001.2 837.3 997.1 837.3 993.05 837.3 990.1 834.35 988.95 833.2 988.25 831.8 L982.75 832.5 981.9 826.65 987.35 825.95 Q987.75 822.8 990.1 820.4 M939.15 834.05 L946.9 832.45 948.05 838.2 940.4 839.85 939.15 834.05 M960.45 829.9 L968.25 828.65 969.2 834.5 961.45 835.75 960.45 829.9 M925.65 837.3 L927.15 843.0 919.65 845.0 918.05 839.4 Q921.75 838.2 925.65 837.3 M899.3 851.65 L897.25 846.1 904.75 843.45 906.6 849.1 Q903.35 850.1 899.3 851.65 M841.65 879.25 L838.25 874.4 Q841.95 871.85 845.05 870.0 L848.05 875.0 841.65 879.25 M827.05 882.75 L830.75 887.35 824.75 892.4 820.9 887.85 827.05 882.75 M879.45 859.6 L877.05 854.2 884.3 851.1 886.65 856.6 879.45 859.6 M857.4 863.45 Q861.55 861.3 864.5 860.0 L867.05 865.3 860.0 868.7 857.4 863.45 M875.8 937.2 L806.8 937.2 806.8 916.2 875.8 916.2 875.8 937.2 M814.55 901.5 L808.95 906.8 804.85 902.55 810.55 897.15 814.55 901.5 M799.75 910.35 Q802.7 913.3 802.7 917.4 802.7 921.45 799.75 924.35 796.9 927.25 792.8 927.25 788.7 927.25 785.8 924.35 782.9 921.45 782.9 917.4 782.9 913.3 785.8 910.35 788.7 907.5 792.8 907.5 796.9 907.5 799.75 910.35 M774.8 934.15 L780.05 928.25 784.45 932.3 779.2 938.05 774.8 934.15 M756.3 965.0 L751.3 971.0 746.75 967.3 751.65 961.2 756.3 965.0 M760.55 950.55 L765.7 944.55 770.2 948.4 765.1 954.4 760.55 950.55 M742.7 981.75 L737.8 987.9 733.15 984.3 738.1 978.1 742.7 981.75 M745.2 1086.05 L741.95 1083.75 745.5 1078.95 748.65 1081.25 745.2 1086.05 M730.9 1075.55 L724.5 1070.95 728.05 1066.15 734.4 1070.85 730.9 1075.55 M772.45 1049.65 L714.25 1049.65 714.25 1029.2 772.45 1029.2 772.45 1049.65 M724.65 995.15 L729.35 998.8 724.6 1005.05 719.9 1001.4 724.65 995.15 M703.45 1033.35 L701.75 1035.75 Q705.05 1039.2 705.05 1044.1 705.05 1049.1 701.5 1052.65 697.95 1056.2 693.05 1056.2 690.2 1056.2 687.85 1055.1 L686.25 1057.35 681.4 1053.95 683.3 1051.3 Q680.9 1048.2 680.9 1044.1 680.9 1039.05 684.45 1035.5 688.0 1031.95 693.05 1031.95 L696.8 1032.5 698.65 1029.9 703.45 1033.35 M711.55 1022.3 L706.85 1018.75 711.55 1012.45 716.25 1016.0 711.55 1022.3 M654.85 1019.8 L658.3 1015.0 664.65 1019.6 661.15 1024.4 654.85 1019.8 M678.6 1037.2 L672.2 1032.6 675.75 1027.8 682.1 1032.45 678.6 1037.2 M666.1 1086.45 L663.95 1089.7 659.0 1086.45 661.15 1083.1 666.1 1086.45 M678.3 1068.6 L673.8 1075.1 668.95 1071.8 673.45 1065.2 678.3 1068.6 M713.5 1062.85 L707.1 1058.1 710.65 1053.35 716.95 1058.05 713.5 1062.85 M532.75 930.2 L536.25 925.5 542.55 930.1 539.1 934.9 532.75 930.2 M497.9 904.65 L501.35 899.85 507.7 904.5 504.2 909.3 497.9 904.65 M486.8 896.45 L480.45 891.85 483.95 887.05 490.25 891.7 486.8 896.45 M515.35 917.45 L518.8 912.7 525.15 917.3 521.65 922.1 515.35 917.45 M556.55 947.65 L550.2 943.0 553.7 938.2 560.0 942.9 556.55 947.65 M577.45 955.65 L573.95 960.45 567.65 955.8 571.1 951.05 577.45 955.65 M591.4 973.25 L585.1 968.6 588.55 963.85 594.9 968.45 591.4 973.25 M606.0 976.65 L612.3 981.25 608.85 986.05 602.5 981.45 606.0 976.65 M420.5 840.55 L417.05 845.3 410.7 840.7 414.2 835.9 420.5 840.55 M434.45 858.15 L428.15 853.5 431.6 848.7 437.95 853.35 434.45 858.15 M463.0 879.05 L466.5 874.25 472.8 878.95 469.35 883.65 463.0 879.05 M445.6 866.25 L449.05 861.5 455.4 866.15 451.9 870.95 445.6 866.25 M393.25 827.9 L396.75 823.1 403.05 827.8 399.6 832.5 393.25 827.9 M626.3 998.85 L619.95 994.15 623.45 989.35 629.75 994.1 626.3 998.85 M640.85 1002.2 L647.2 1006.9 643.75 1011.6 637.4 1006.95 640.85 1002.2" fill="#000000" fill-rule="evenodd" stroke="none"/>
  </g>
</svg>
