<svg width="140" height="40" viewBox="0 0 140 40" fill="none" xmlns="http://www.w3.org/2000/svg">
<g clip-path="url(#clip0_2_626)">
<path d="M20 40C14.7544 40 10.0441 36.8651 7.98987 32.0101C3.1349 29.9559 0 25.2456 0 20C0 14.7544 3.1349 10.0441 7.98987 7.98987C10.0441 3.1349 14.7544 0 20 0C25.2456 0 29.9559 3.1349 32.0087 7.98987C36.8636 10.0427 39.9985 14.7544 39.9985 20C39.9985 25.2456 36.8636 29.9559 32.0087 32.0101C29.9559 36.8651 25.2441 40 20 40ZM20 0.133092C14.7993 0.133092 10.1295 3.24774 8.10271 8.06655L8.09258 8.09114L8.06799 8.10127C3.24629 10.1295 0.133092 14.7993 0.133092 20C0.133092 25.2007 3.24774 29.8705 8.06654 31.8973L8.09114 31.9074L8.10126 31.932C10.128 36.7523 14.7978 39.8655 19.9985 39.8655C25.1993 39.8655 29.8691 36.7508 31.8958 31.932L31.906 31.9074L31.9306 31.8973C36.7508 29.8705 39.864 25.2007 39.864 20C39.864 14.7993 36.7494 10.1295 31.9306 8.10271L31.906 8.09259L31.8958 8.06799C29.8705 3.24629 25.2007 0.133092 20 0.133092Z" fill="#9C1E23"/>
<path d="M31.0495 8.949C29.111 4.54973 24.7957 1.72007 19.9985 1.72007C15.2014 1.72007 10.8875 4.55117 8.94755 8.949C4.54828 10.8875 1.71862 15.2029 1.71862 20C1.71862 24.7971 4.54973 29.111 8.94755 31.0495C10.8861 35.4488 15.2 38.2799 19.9985 38.2799C24.7971 38.2799 29.1096 35.4488 31.0495 31.0495C35.4488 29.111 38.2785 24.7971 38.2785 19.9985C38.2785 15.2 35.4474 10.8875 31.0495 8.94755M10.6098 8.01302C12.6032 4.77396 16.1302 2.75587 20 2.75587C21.5928 2.75587 23.1277 3.09873 24.5222 3.72658C26.06 4.42097 27.1117 5.87486 27.3504 7.54575C27.3736 7.71067 27.3938 7.80614 27.4098 7.90596C27.3331 8.27631 27.1928 8.65388 26.9613 8.89981C26.5273 9.3613 25.2224 9.28028 24.7667 8.6047C24.3877 8.0405 23.9407 7.51537 23.4763 7.01772C23.226 6.75009 22.8513 6.60253 22.575 6.3537C21.7389 5.60144 20.7175 5.28318 19.647 5.19927C18.4622 5.10669 17.2673 5.10379 16.1042 5.49728C15.5385 5.68969 15.3461 6.15696 15.7338 6.62278C16.0651 7.01916 16.4514 7.37938 16.7204 7.81482C17.0951 8.42097 17.6911 8.65967 18.2973 8.80434C19.0409 8.98083 19.3635 9.18915 19.5212 9.91103C19.5356 9.97613 19.5602 10.0398 19.5863 10.1034C19.9291 10.9382 20.7392 11.1957 21.4524 11.5168C21.8937 11.715 22.4419 11.6629 22.9324 11.7685C23.9682 11.9913 24.9027 11.8032 25.7649 11.1855C26.0007 11.0163 26.3132 10.889 26.5244 11.1812C26.5345 11.1957 26.5432 11.2116 26.5533 11.2289C26.1483 11.7439 25.6868 12.1389 25.2962 12.421C25.0069 12.6293 24.6886 12.7942 24.353 12.9172L22.2221 13.6911C18.7096 14.6474 13.8778 13.5855 10.847 10.507C10.4911 10.1425 10.374 9.53924 10.3479 9.00542C10.332 8.65678 10.426 8.31247 10.6083 8.01446M10.6401 32.0723C10.2061 31.4141 10.0412 30.6098 10.2061 29.8387C10.2611 29.5812 10.3233 29.4221 10.3233 29.4221C9.88499 29.6173 9.61591 29.6969 9.11681 29.7273C8.79421 29.7461 8.4745 29.6651 8.19674 29.5016C4.84918 27.5298 2.75732 23.9436 2.75732 20C2.75732 16.324 4.57721 12.9577 7.53707 10.9208C8.23291 10.4419 9.08354 10.2351 9.92115 10.3378C9.93562 10.3392 9.94864 10.3407 9.96166 10.3436C10.3725 10.3971 10.7515 10.591 11.0481 10.8817C13.5566 13.3497 17.464 14.4579 20.9273 13.992C21.2166 13.9501 21.5089 13.9009 21.8011 13.843C21.5841 13.9269 21.3642 14.0007 21.1501 14.0919C20.3443 14.4347 19.566 14.8774 18.7298 15.1002C18.0571 15.2796 17.3136 15.2116 16.6018 15.2188C16.3732 15.2217 16.1403 15.1233 15.9132 15.0553C15.5139 14.9353 15.1262 14.7747 14.7212 14.685C14.3132 14.5953 13.8893 14.5779 13.4756 14.5143C13.1327 14.4608 12.7957 14.3494 12.4528 14.3306C11.945 14.3016 11.4199 14.2611 10.928 14.3595C10.4868 14.4477 10.0745 14.7023 9.6622 14.9092C9.4698 15.0047 9.32369 15.2029 9.12694 15.2752C8.73924 15.4184 8.31103 15.4633 7.9349 15.6268C7.09294 15.9942 6.57794 16.609 6.46076 17.574C6.39276 18.1381 6.17866 18.6908 5.58698 18.9946C5.42929 19.0756 5.22242 19.3779 5.26582 19.4749C5.37721 19.7208 5.50452 19.9841 5.89222 20.0275C6.96275 20.1461 8.05497 20.1461 9.05316 20.7002C9.6434 21.0271 10.3089 21.247 10.9656 21.4235C11.608 21.5957 12.2937 21.7823 12.9403 21.7258C13.6882 21.6622 14.4159 21.3439 14.9237 20.7089C15.1306 20.4499 15.3808 20.3052 15.7237 20.3559C16.0463 20.4036 16.311 20.272 16.4817 20.013C16.7103 19.6644 16.9533 19.3085 17.0951 18.9208C17.5334 17.7287 18.3132 16.8014 19.2564 15.9899C19.3027 15.9508 19.3895 15.9624 19.4503 15.9334C20.0694 15.6282 20.7132 15.3649 21.2962 15.0018C22.1324 14.481 22.9801 14.0586 23.9985 14.1338C24.0333 14.1367 24.1201 14.102 24.2112 14.0687C24.3414 14.0195 24.4846 14.1049 24.5034 14.2438C24.6495 15.3215 24.3501 16.5179 24.0116 17.5262C23.3548 19.4879 21.7461 21.072 19.7078 21.762C17.3743 22.5533 13.2542 24.4195 11.8698 28.0333C11.1971 29.7866 11.2506 31.728 12.0231 33.8228C11.5501 33.3251 11.0568 32.7045 10.643 32.0767M32.9765 28.7045C32.2213 29.6058 30.5996 30.0586 30.0152 30.196C29.6651 26.7761 26.0571 24.0868 21.6564 24.0868C21.626 24.0868 21.5957 24.0882 21.5653 24.0882C25.8835 24.1273 29.3685 26.915 29.3685 30.3494C29.3685 31.4228 29.0271 32.4325 28.4268 33.315C26.3638 35.7671 23.3085 37.2427 20 37.2427C18.2582 37.2427 16.5859 36.8318 15.0915 36.0882C15.4025 35.8148 15.5819 35.3953 15.5183 34.9352C15.4546 34.4796 15.1421 34.0976 14.7284 33.9269C14.7197 34.2148 14.5808 34.4665 14.3407 34.5635C14.0152 34.6951 13.626 34.4955 13.4307 34.1179C13.4307 34.1179 13.4278 34.1193 13.4264 34.1208C13.4148 34.0962 13.4061 34.0716 13.3946 34.047C13.3917 34.0412 13.3888 34.0354 13.3859 34.0296C13.3844 34.0253 13.3844 34.021 13.3816 34.0166C12.4875 31.958 12.3472 30.0904 12.975 28.4528C14.0137 25.7418 16.7725 24.0492 18.9295 23.1841C19.0857 23.1219 19.3389 23.0177 19.5949 22.9396C19.5949 22.9396 19.5978 22.9396 19.6007 22.9381C19.6571 22.9208 19.715 22.9049 19.77 22.8919C20.311 22.711 21.2673 22.1468 21.5349 21.9848C23.077 21.0184 24.2864 19.7078 24.7566 17.8951C25.124 16.4788 25.1154 15.307 24.8058 13.9197C25.2629 13.6564 26.5258 13.0503 27.1985 12.2995C27.3085 12.2618 27.4025 12.2503 27.4546 12.285C27.7844 12.5005 27.9566 12.7797 27.9957 13.2065C28.1157 14.4984 27.2767 14.9396 27.0192 16.1403C26.9208 16.6018 26.7964 16.6452 26.5389 16.9852C26.2582 17.3555 26.0152 18.238 25.6781 18.5418C25.0792 19.0814 25.4756 19.8973 25.4235 20.6278C25.3859 21.166 25.519 21.7143 25.5595 22.2582C25.6304 23.2159 25.9935 24.0333 26.6777 24.7146C26.9136 24.949 27.1248 24.9114 27.3201 24.7074C27.4922 24.5266 27.6166 24.3023 27.7787 24.1114C28.0796 23.7584 28.3472 23.3591 28.7103 23.0828C29.4076 22.5519 30.1787 22.1193 30.8817 21.5957C31.1609 21.3873 31.3548 21.0561 31.5617 20.7624C31.6528 20.6336 31.6687 20.4542 31.7396 20.3067C32.256 19.2318 31.9117 18.4492 31.145 17.3439C31.1219 17.3107 31.1031 17.2716 31.0828 17.234C30.9251 18.0586 30.4188 18.8166 29.6868 19.2926C29.5204 19.3982 29.3439 19.4893 29.1689 19.5761C29.3801 19.3852 29.6202 19.1985 29.8141 18.9917C30.4969 18.3349 30.8904 17.4495 30.9598 16.5208C30.9237 15.3996 30.4752 14.4188 29.9023 13.477C29.6101 12.9953 29.302 12.5237 29.0199 12.0362C28.9186 11.8626 28.8752 11.6542 28.8014 11.4647C28.6481 11.0698 28.5121 10.6705 28.4354 10.2626C28.8318 9.16021 28.8853 7.97251 28.596 6.71392L29.5812 8.21121C30.0036 8.89981 30.0513 9.76202 29.6839 10.4825C29.639 10.5707 29.5624 10.6589 29.5624 10.6589C29.8575 10.3638 30.3132 10.2293 30.7617 10.1758C31.0119 10.1454 31.2622 10.196 31.4835 10.3175C35.0163 12.2459 37.2427 15.932 37.2427 20C37.2427 23.4589 35.6311 26.643 32.9765 28.7045Z" fill="#9C1E23"/>
</g>
<g clip-path="url(#clip1_2_626)">
<path d="M50.8894 29.0932C50.1419 29.7574 49.5525 30.0509 49.1165 29.9691C48.6804 29.8873 48.3402 29.5937 48.091 29.0932C47.8419 28.5927 48.1006 28.1163 48.8673 27.6591C50.0077 27.0961 50.9517 26.5041 51.6944 25.8785C52.0681 25.4839 52.3556 25.3491 52.5665 25.4742C52.7533 25.6186 52.7725 25.8929 52.6287 26.2875C52.3365 27.1009 51.7567 28.0345 50.8894 29.0981V29.0932ZM52.8492 24.632C52.4562 24.3385 51.9675 24.1219 51.3877 23.9775C51.0954 23.8957 50.736 23.7177 50.3 23.4482C50.1323 23.323 50.0077 23.2172 49.9262 23.1354C49.4471 22.2835 49.9981 21.5328 51.5746 20.8879C52.2358 20.6377 52.5712 20.4403 52.5712 20.296C52.5281 20.1708 52.279 20.0168 51.8237 19.8292C51.1194 19.5789 50.6019 19.3527 50.2712 19.141C49.979 18.9533 49.8352 18.7656 49.8352 18.5779C49.8544 17.933 50.3719 17.2978 51.3877 16.6721C53.1702 15.3391 54.0615 14.3188 54.0615 13.6114C54.0806 13.3804 54.2292 13.135 54.4975 12.8606C54.7035 12.6729 54.8808 12.5815 55.0246 12.5815C55.3121 12.6008 55.5612 12.7163 55.7721 12.9232C56.7879 13.9435 56.2704 15.0792 54.2196 16.3256C53.0169 17.1149 52.4179 17.6683 52.4179 17.9812C52.461 18.1881 52.7677 18.4191 53.3523 18.6693C53.9129 18.9196 54.3154 19.0447 54.5646 19.0447C54.8137 19.0447 55.3504 18.7945 56.1794 18.294C56.4477 18.087 56.625 17.909 56.7065 17.7646C56.6873 17.6828 56.4765 17.2641 56.0835 16.5133C56.0835 16.369 56.1746 16.2005 56.3615 16.0128C56.5675 15.8059 56.7735 15.7 56.9844 15.7C57.3342 15.7193 57.6456 15.8059 57.9187 15.9503C57.9619 15.9503 58.0098 15.9791 58.0721 16.0417C60.2044 17.3315 58.8819 19.1458 54.095 21.475C53.0792 21.8937 52.5712 22.1729 52.5712 22.3172C52.5712 22.5049 52.9737 22.7215 53.7835 22.9717C54.8185 23.3279 55.7721 23.2845 56.6442 22.8466C57.0562 22.553 57.339 22.3365 57.4827 22.1921C57.545 22.0237 57.3294 21.629 56.831 21.0034C56.831 20.6906 56.9556 20.4307 57.2048 20.2238C57.4923 19.9735 57.7415 19.8484 57.9523 19.8484C58.3021 19.8484 58.7285 20.142 59.2269 20.7243C59.4952 21.0563 59.6294 21.475 59.6294 21.9755C59.6294 22.2884 59.476 22.6734 59.1646 23.1305C58.834 23.5877 58.4698 23.9102 58.0769 24.0979C57.6408 24.2663 57.2575 24.4732 56.9269 24.7235C56.6154 24.993 56.2417 25.171 55.8056 25.2529C55.681 25.6475 55.6523 26.095 55.7146 26.5955C55.8583 28.0537 55.8583 29.2906 55.7146 30.3108C55.6092 31.1241 55.3121 31.5188 54.8137 31.4995C54.2962 31.4995 53.9944 31.1771 53.9129 30.5322C53.726 29.4494 53.7356 28.1789 53.9417 26.7207C53.9417 25.9507 53.8698 25.3972 53.726 25.0652C53.3523 24.9208 53.0648 24.7716 52.854 24.6272L52.8492 24.632ZM51.541 12.389C50.7935 12.62 50.2569 12.543 49.9262 12.1724C49.6771 11.7971 49.7825 11.4458 50.2377 11.1089C51.4835 10.1319 52.485 9.67475 53.2517 9.73732C54.2483 9.88169 55.1252 9.96832 55.8919 9.98757C55.8296 9.84319 55.7673 9.70844 55.705 9.58332C55.4558 9.10688 55.499 8.70744 55.8296 8.39463C56.4094 7.93744 57.085 7.90375 57.8517 8.30319C58.2446 8.55344 58.4027 8.90475 58.3165 9.36675C58.2542 9.51113 58.211 9.72288 58.1919 9.99238C58.7717 9.99238 59.3227 10.002 59.8402 10.0213C60.5877 10.0213 60.9998 10.2523 61.086 10.7094C61.1483 11.0656 60.8896 11.2725 60.3098 11.3351C59.5623 11.3976 58.8387 11.4891 58.1344 11.6142C58.1152 12.9232 57.981 13.7076 57.7319 13.9579C57.4635 14.2081 57.1904 14.1648 56.9221 13.8328C56.5292 13.3563 56.3327 12.6778 56.3327 11.8019C54.1956 11.9463 52.6 12.1436 51.5458 12.3938L51.541 12.389ZM59.2508 26.0036C60.0367 26.4849 60.444 26.918 60.4631 27.3126C60.4823 27.7313 60.329 28.1019 59.9983 28.4387C59.6054 28.8141 59.1167 28.7179 58.5369 28.1596C57.9762 27.3896 57.4396 26.8458 56.9221 26.5378C56.486 26.3068 56.2992 26.0902 56.3615 25.8833C56.4237 25.6764 56.6394 25.5801 57.0131 25.6042C57.4492 25.5609 58.1967 25.6956 59.2508 26.0084V26.0036ZM61.5221 28.3762C61.5029 26.5667 61.4933 25.4742 61.4933 25.0989C61.4933 23.8717 61.6275 23.1642 61.8958 22.9765C62.1881 22.7263 62.8685 22.6012 63.9467 22.6012C66.745 22.4953 69.2319 22.5097 71.4073 22.63C72.2171 22.7119 72.7729 22.9236 73.0844 23.2557C73.5204 23.7562 73.6642 24.4203 73.5204 25.2529C73.4581 25.609 73.4294 25.917 73.4294 26.1913C73.4294 27.5051 73.3671 28.4724 73.2425 29.0932C74.1769 29.1751 75.1783 29.2906 76.2565 29.4349C76.7117 29.4975 76.8362 29.7237 76.6302 30.1231C75.7198 31.5573 74.795 32.0914 73.8654 31.7161C72.4135 31.0904 70.976 30.7151 69.5433 30.5899C65.2117 30.2338 62.0108 30.6188 59.936 31.7449C59.1694 32.1203 58.556 32.077 58.1008 31.6198C57.8085 31.1386 57.9235 30.5562 58.441 29.8729C58.7908 29.4782 59.1981 29.2906 59.6533 29.3098C59.984 29.3098 60.6165 29.2809 61.5508 29.2184C61.5077 28.9681 61.4981 28.689 61.5221 28.3762ZM73.3958 15.4835C73.5635 15.7963 73.5108 16.2101 73.2425 16.7347C72.7633 17.6924 72.4327 18.7319 72.2458 19.858C71.9152 20.9601 71.4983 21.6194 71.0048 21.8263C70.6502 22.0333 70.195 22.067 69.6392 21.9178C68.8917 21.7108 67.9285 21.6146 66.7498 21.6387C65.4848 21.682 64.6031 21.8071 64.1096 22.014C63.6735 22.245 63.3333 22.2306 63.0842 21.9852C62.7727 21.7157 62.514 21.2248 62.3079 20.5173C61.7665 18.1255 61.4262 16.7299 61.2825 16.3353C61.0142 15.7722 60.9806 15.3583 61.1915 15.084C61.4598 14.7086 62.0108 14.5113 62.8398 14.4921C69.1408 14.136 72.6627 14.4728 73.4102 15.4931L73.3958 15.4835ZM66.4958 19.1025C65.6669 19.6655 65.0679 19.8821 64.6942 19.757C64.2773 19.55 64.0617 19.3094 64.0425 19.0399C63.9994 18.7704 64.1144 18.5635 64.3827 18.4143C65.0056 18.1207 65.5135 17.8223 65.9065 17.5095C66.2802 17.0956 66.4335 16.5422 66.3712 15.854C64.5073 15.8733 63.501 16.0225 63.3573 16.292C63.2758 16.4171 63.2423 16.6336 63.2662 16.9465C63.3285 18.78 63.5777 19.8484 64.0137 20.1612C64.1575 20.2238 64.4881 20.243 65.0104 20.2238C66.5437 20.0987 67.8806 20.0698 69.021 20.1323C69.7446 20.1516 70.1806 20.1227 70.3244 20.0409C70.5544 19.8725 70.8515 18.7897 71.2252 16.7925C71.3067 16.4796 71.2156 16.2294 70.9473 16.0417C70.5112 15.7722 69.4858 15.7 67.871 15.8251C67.9525 16.0946 67.8998 16.5422 67.7177 17.1678C67.8854 17.1871 68.3694 17.3651 69.1792 17.6972C69.8212 18.1159 70.1519 18.4865 70.1758 18.8233C70.219 19.1554 70.0848 19.4586 69.7733 19.7281C69.4619 19.9976 69.0594 19.9062 68.561 19.449C68.0004 18.7608 67.5883 18.3469 67.3152 18.1977C67.0852 18.5538 66.8169 18.8522 66.5054 19.1025H66.4958ZM64.7852 28.9056C64.7852 28.9056 64.7948 28.8767 64.814 28.8767C64.9817 27.9816 64.9673 26.4945 64.7852 24.4107C63.9754 24.4925 63.5298 24.6417 63.4483 24.8486C63.3429 25.0989 63.3237 26.1384 63.386 27.9719C63.386 28.3906 63.3573 28.7323 63.295 29.0018C63.7933 28.9392 64.2917 28.9104 64.7852 28.9104V28.9056ZM67.0852 11.6719C65.7771 11.5901 64.8379 11.6094 64.2581 11.7345C63.8412 11.8596 63.5633 11.7538 63.4196 11.4217C63.2519 11.0271 63.3285 10.6613 63.6352 10.3293C63.9275 9.95388 64.33 9.8095 64.8475 9.89132C65.6333 9.93463 66.4 9.95388 67.1475 9.95388C67.1667 9.66513 67.1762 9.45338 67.1762 9.32825C67.114 8.72669 67.3631 8.31763 67.9237 8.11069C68.4221 7.94225 68.8965 8.05775 69.3517 8.45238C69.7062 8.87106 69.7781 9.27532 69.5673 9.66994C69.4858 9.75175 69.4331 9.85763 69.414 9.98276C71.0719 10.002 72.7825 10.1079 74.5458 10.2956C75.001 10.3389 75.0969 10.5891 74.8237 11.0463C74.4931 11.7104 73.9756 12.2013 73.2712 12.5141C72.7346 12.9088 72.0877 12.9088 71.345 12.5141C70.4537 12.1821 69.5912 11.9511 68.7671 11.8259C68.5371 12.827 68.2592 13.4622 67.9285 13.7317C67.6171 13.9194 67.3583 13.8472 67.1523 13.5151C66.9654 13.0387 66.9462 12.4227 67.09 11.6719H67.0852ZM68.0196 28.7804C68.0196 28.7804 68.0292 28.7516 68.0483 28.7516C68.216 27.8131 68.2017 26.3453 68.0196 24.3481C68.0004 24.2663 67.9908 24.2134 67.9908 24.1941C67.3056 24.1508 66.86 24.1652 66.654 24.223C66.5102 25.3491 66.5006 26.8747 66.6252 28.8141C67.0996 28.7708 67.5692 28.7612 68.0244 28.7852L68.0196 28.7804ZM71.4983 28.9392L71.4696 24.6946C71.2396 24.4444 70.7125 24.2904 69.8835 24.2278C69.8644 24.3096 69.8548 24.3818 69.8548 24.4444C69.6679 25.6715 69.6679 27.1394 69.8548 28.8478C70.3723 28.8478 70.9233 28.8767 71.5031 28.9392H71.4983Z" fill="#C49B59"/>
<path d="M83.2523 24.7524C82.0496 25.4165 81.1583 25.6812 80.5785 25.532C79.9556 25.3443 79.6777 24.993 79.74 24.4684C79.7831 23.992 80.2671 23.4674 81.2015 22.9092C84.4981 21.1189 86.6112 19.1217 87.5408 16.9128C87.3971 16.8935 87.2821 16.8935 87.2006 16.9128C85.5235 17.0186 84.2681 17.2063 83.4392 17.4758C82.0927 17.8512 81.2637 17.8512 80.9523 17.4758C80.6408 17.062 80.6217 16.5903 80.89 16.0706C81.12 15.676 81.4506 15.3824 81.8867 15.1947C82.2987 14.9637 84.2202 14.853 87.6367 14.853C87.6175 13.52 87.6079 12.6248 87.6079 12.1676C87.5648 11.8981 87.5456 11.6671 87.5456 11.4794C85.5954 11.5853 84.4071 11.5949 83.971 11.5083C83.3721 11.4265 83.1085 11.2292 83.1948 10.9164C83.2571 10.7479 83.5685 10.6276 84.1292 10.541C88.044 9.41488 90.066 8.76038 90.1906 8.57269C90.665 8.1155 91.0004 7.92781 91.1873 8.00962C91.5179 8.09144 91.8485 8.36575 92.184 8.82294C92.596 9.40525 92.7733 9.86244 92.711 10.1945C92.6919 10.5266 92.2942 10.7864 91.5275 10.9741C90.9669 11.0559 90.4398 11.1426 89.9415 11.2244C89.9606 11.3928 89.9415 12.5959 89.8792 14.8482H93.4873C94.46 14.8482 94.9056 15.0359 94.8242 15.4113C94.7619 15.7866 94.345 16.2342 93.5783 16.754C93.1231 17.0235 92.4571 17.086 91.5898 16.9416C91.0531 16.8791 90.459 16.8598 89.8169 16.8791C89.7546 20.5414 89.7642 24.247 89.8456 27.996C89.9702 29.4301 89.7737 30.4119 89.2562 30.9316C88.9017 31.3455 88.4369 31.2637 87.8571 30.6814C87.5887 30.3252 87.4929 29.6082 87.5792 28.5254C87.6415 25.7582 87.6702 22.9573 87.6702 20.1275C86.3429 22.1247 84.8719 23.6647 83.2571 24.7475L83.2523 24.7524ZM94.0383 20.912C94.4121 21.6627 94.4312 22.2835 94.1006 22.784C93.77 23.2412 93.2812 23.4 92.6392 23.2509C91.9348 23.0439 91.5083 22.4712 91.3646 21.5328C91.1777 20.9312 90.8567 20.243 90.4015 19.473C90.2337 19.1602 90.2865 18.9629 90.5548 18.8811C90.8662 18.7993 91.3646 18.9437 92.045 19.319C93.2285 19.9832 93.8898 20.5173 94.0335 20.912H94.0383ZM99.1079 24.1941C98.3221 24.401 97.7279 24.3818 97.335 24.1315C96.9421 23.862 96.7025 22.9669 96.621 21.4462C96.5779 19.781 96.5587 18.4095 96.5587 17.3266C96.5587 16.4315 96.6929 15.8155 96.9612 15.4835C97.2104 15.1706 97.5315 15.0263 97.9244 15.0455C98.4227 15.1081 98.8587 15.1514 99.2325 15.1706C103.751 14.8578 106.391 14.9204 107.158 15.3583C107.8 15.753 107.987 16.3353 107.719 17.1053C107.613 17.3988 107.575 17.7598 107.594 18.1977C107.675 20.551 107.565 22.0814 107.254 22.7889C107.048 23.246 106.727 23.6022 106.291 23.8524C105.754 24.1219 105.141 24.2182 104.455 24.1315C102.342 23.838 100.56 23.862 99.1079 24.1941ZM101.657 16.7925C100.229 16.8117 99.3762 16.9272 99.1079 17.1341C98.8779 17.3026 98.7773 18.1015 98.7965 19.5404C98.8396 20.8109 98.9306 21.5472 99.0744 21.759C99.2181 21.8841 99.611 21.937 100.258 21.913C101.748 21.8071 103.004 21.7686 104.019 21.7878C104.288 21.7878 104.527 21.759 104.733 21.6964C105.107 21.4654 105.26 20.5703 105.198 19.011C105.179 17.9282 105.045 17.2833 104.796 17.0764C104.566 16.8695 103.521 16.7732 101.657 16.7973V16.7925Z" fill="#C49B59"/>
<path d="M124.844 28.1596C124.906 27.866 124.935 27.2212 124.935 26.225C123.589 26.2442 122.439 26.3309 121.485 26.4752C120.364 26.6822 119.669 26.5282 119.401 26.0084C119.195 25.5705 119.286 25.1662 119.679 24.7909C120.115 24.3529 121.854 24.1989 124.901 24.324C124.858 23.3856 124.83 22.784 124.81 22.5145C124.791 22.4087 124.782 22.3461 124.782 22.3268C124.202 22.3461 123.569 22.452 122.884 22.6397C122.137 22.8466 121.629 22.8562 121.36 22.6685C120.968 22.4183 120.781 21.9803 120.8 21.3547C120.819 20.835 120.79 20.3248 120.709 19.8243C120.167 18.4528 119.995 17.6058 120.182 17.2978C120.412 16.9031 120.833 16.7155 121.456 16.7347C122.347 16.778 123.239 16.7876 124.13 16.7636C124.192 16.7443 124.264 16.7347 124.346 16.7347C127.475 16.5278 129.506 16.6096 130.441 16.985C130.79 17.1919 131.04 17.4662 131.188 17.7983C131.294 18.1111 131.188 18.7127 130.877 19.6078C130.671 20.0265 130.522 20.45 130.441 20.8879C130.359 21.6146 130.182 22.0525 129.914 22.2017C129.291 22.5338 128.754 22.6589 128.299 22.5771C127.906 22.4953 127.479 22.4231 127.024 22.3605C126.943 22.7985 126.9 23.453 126.9 24.3289C130.029 24.3481 131.749 24.4973 132.06 24.7668C132.29 24.9978 132.338 25.3058 132.214 25.7052C132.07 26.0806 131.581 26.2683 130.752 26.2683C129.343 26.225 128.069 26.2057 126.928 26.2057C126.947 27.2693 126.971 27.9671 126.991 28.2992C131.092 28.3425 135.012 28.4532 138.74 28.6409C139.487 28.6842 139.899 28.8382 139.981 29.1077C140.062 29.3387 139.722 29.8969 138.955 30.7921C138.625 31.1674 138.179 31.4562 137.619 31.6679C137.101 31.8556 136.425 31.8123 135.596 31.5428C133.67 30.6284 130.56 30.0654 126.272 29.8584C121.835 29.9402 118.375 30.4504 115.888 31.3888C114.623 31.8267 113.828 31.9422 113.492 31.7305C113.119 31.5621 112.922 31.2829 112.903 30.8883C112.903 30.3445 113.195 29.8151 113.775 29.2954C114.312 28.7756 114.988 28.4821 115.797 28.4195C117.992 28.3136 121.001 28.2751 124.81 28.2944C124.81 28.2318 124.82 28.1885 124.839 28.1692L124.844 28.1596ZM124.844 11.7345C124.739 10.7143 124.647 10.0164 124.566 9.64107C124.523 8.82775 124.782 8.35131 125.342 8.20694C125.922 8.08181 126.377 8.2695 126.708 8.77C126.727 8.78925 126.751 8.83256 126.77 8.89513C126.976 9.33306 126.976 10.5314 126.77 12.4853C126.77 12.7981 126.761 13.0772 126.741 13.3274C131.734 13.2456 134.791 13.5151 135.913 14.1408C136.574 14.4728 137.01 14.8578 137.221 15.2958C137.365 15.7145 137.427 16.1476 137.408 16.6096C137.427 17.0042 137.47 17.3603 137.532 17.6731C137.863 18.7367 137.801 19.5789 137.345 20.2045C137.096 20.5366 136.866 20.7147 136.66 20.7339C135.956 20.8157 135.467 19.7955 135.199 17.6731C135.031 16.5711 134.796 15.9166 134.485 15.7048C134.092 15.4353 133.014 15.2573 131.25 15.1755C130.441 15.1129 129.497 15.084 128.423 15.084C123.325 14.9396 119.813 15.084 117.886 15.522C116.976 15.7096 116.521 16.2486 116.521 17.1438C116.502 19.0399 116.368 20.142 116.118 20.4548C115.807 20.6858 115.486 20.7868 115.155 20.7676C114.801 20.705 114.523 20.5077 114.317 20.1757C114.173 19.8869 114.111 19.2613 114.13 18.3036C114.274 16.2438 114.595 14.9011 115.093 14.2755C115.567 13.7991 116.597 13.5151 118.169 13.4333C120.139 13.3708 122.347 13.3515 124.791 13.3708C124.748 12.9136 124.772 12.3698 124.854 11.7489L124.844 11.7345ZM122.204 9.86244C122.659 10.3004 122.693 10.8105 122.295 11.3928C121.964 11.8741 121.384 12.1195 120.555 12.1436C120.057 12.1436 119.611 12.1869 119.219 12.2687C118.677 12.3505 118.222 12.3505 117.853 12.2687C117.604 12.2254 117.489 12.1147 117.513 11.927C117.594 11.7201 117.949 11.4794 118.572 11.2099C119.444 10.7528 120.043 10.3581 120.373 10.0213C121.015 9.45819 121.629 9.40525 122.209 9.86725L122.204 9.86244ZM124.039 18.1688C123.315 18.2121 122.764 18.3662 122.391 18.6357C122.328 18.6982 122.371 19.0207 122.515 19.603C122.621 20.0217 122.745 20.3008 122.889 20.4452C123.057 20.6136 123.478 20.6617 124.164 20.5992C127.067 20.3297 128.524 20.1949 128.548 20.1949C128.61 20.1323 128.653 20.0409 128.672 19.9158L128.859 18.5731C128.672 18.3036 128.136 18.1592 127.245 18.1351C126.061 18.0918 124.997 18.1063 124.044 18.164L124.039 18.1688ZM131.5 10.2667C132.683 10.5988 133.522 10.9308 134.015 11.2677C134.284 11.4987 134.379 11.6864 134.293 11.8308C134.125 12.0184 133.876 12.081 133.546 12.0184C132.654 11.8308 131.648 11.8115 130.532 11.9559C129.497 12.1628 128.84 11.8837 128.572 11.1137C128.404 10.5747 128.519 10.1464 128.912 9.83357C129.267 9.54 129.698 9.53038 130.22 9.80469C130.551 9.97313 130.977 10.1271 131.495 10.2715L131.5 10.2667Z" fill="#C49B59"/>
</g>
<defs>
<clipPath id="clip0_2_626">
<rect width="40" height="40" fill="white"/>
</clipPath>
<clipPath id="clip1_2_626">
<rect width="92" height="24" fill="white" transform="translate(48 8)"/>
</clipPath>
</defs>
</svg>
