<?xml version="1.0" encoding="UTF-8"?>
<svg id="_圖層_1" xmlns="http://www.w3.org/2000/svg" xmlns:ffdec="https://www.free-decompiler.com/flash" version="1.1" viewBox="0 0 141.9 71.3">
  <!-- Generator: Adobe Illustrator 30.6.0, SVG Export Plug-In . SVG Version: 2.1.4 Build 109)  -->
  <defs>
    <style>
      .st0 {
        fill: #fff;
      }
    </style>
  </defs>
  <path class="st0" d="M113.5,10h16.9l7.1-1.6s1.6-.2,4.4,2.5c-.1.8-.9,1.2-2,1.2h-51.8v16.4c0,12.3-.5,28.5-12.4,39.6l-.9-.7c6.2-11.4,6.6-25.8,6.6-38.8V10.7c0-.9.8-1.7,1.7-1.5l6.1.8h24.4,0Z"/>
  <path class="st0" d="M115.4,37.4h16.1l3.1-.2c2.4-.3,4.2,0,4.9.7l1.6,1.6c.3.4.2,1-.2,1.2-5.7,2.9-9.4,6.1-12,8.4-.6.5-1.4-.3-.9-1,1.3-2.2,2.9-5.1,3.2-7.5,0-.5-.2-.9-.7-.9h-13.5c-.4,0-.7.3-.7.7v21.7c0,5-1.1,8.3-9,9.2-.3,0-.8-.2-.7-.6.3-1.4-1.8-5.7-6.5-6.9-.4,0-.2-.8.2-.7,2.5.2,6.5.5,7.6.5s1.6-.6,1.6-1.5v-21.5c0-.4-.3-.7-.7-.7h-17.6c0,0-.3,0-.4-.2l-1-2h25.7v-.3Z"/>
  <path class="st0" d="M114.6,36.3c-.2,0-.5-.2-.8-.2-1.8-5.9-10.9-11.8-10.9-11.8,6.2.1,10,1.9,12.2,4.1,2.5-2.4,5.7-5.6,7.9-8.3h-26.8l-.6-2.2h28.3l5-1c.5,0,1,.1,1.4.6l2.6,3.2c-.5.6-12.2,6.8-16.9,8.8,2.3,3.1,1.6,6.5-.5,6.9h-.9,0Z"/>
  <path class="st0" d="M14.8,51.3c-1-1.3-1.9-2.7-2.8-4.3l3.2-5.1-3.9-1.2s-.8,3.9-1.4,5c-2.3,4.5-6.8,11.7-9.9,14.7l4.4,5.1c.3-1.5,5.1-13,7.1-17.4,5.4,14.5,13.5,17.8,29.7,17.8h20.5c1.7,0,1.5-4.2,3.7-6.4v-1.1c-5.8.2-18.7.2-24.1.2-12.4,0-20.2-.9-25.6-6.4l-1-1h.1Z"/>
  <path class="st0" d="M19.3,51.6c15-7.7,36.8-31.3,40.8-35.9.4-.4.4-1.1,0-1.6l-1.5-2.3c-.4-.6-1.1-1-1.8-.8l-7.3.8-10.8.6H7.7l1.1,1.8c.2.3.6.5.9.5h39.5c-6.5,12.5-19,26.5-31.2,35.7l1.1,1.2h.2Z"/>
  <path class="st0" d="M36.3,10.1V2.9c0-.7.3-1.4,1.6-1.7h-9.1v8.9s7.5,0,7.5,0Z"/>
  <path class="st0" d="M115,8.9V1.7c0-.7.3-1.4,1.6-1.7h-9.1v8.9h7.5Z"/>
</svg>