<?xml version="1.0" encoding="UTF-8" standalone="no"?>
<svg xmlns:ffdec="https://www.free-decompiler.com/flash" xmlns:xlink="http://www.w3.org/1999/xlink" ffdec:objectType="shape" height="104.1px" width="207.3px" xmlns="http://www.w3.org/2000/svg">
  <g transform="matrix(1.0, 0.0, 0.0, 1.0, 0.0, 0.0)">
    <path d="M200.9 12.3 L202.6 12.65 Q204.75 13.5 207.3 16.0 207.0 17.75 204.45 17.75 L128.7 17.75 128.7 41.6 Q128.7 60.15 126.1 71.25 122.05 88.7 110.55 99.4 L109.15 98.45 Q115.25 87.3 117.4 71.0 118.85 60.1 118.85 41.7 L118.85 15.6 Q118.85 14.55 119.6 13.9 120.4 13.2 121.4 13.35 L130.3 14.6 190.6 14.6 200.9 12.3" fill="#7c6954" fill-rule="evenodd" stroke="none"/>
    <path d="M130.95 54.65 L191.95 54.65 196.55 54.3 Q202.0 53.6 203.7 55.3 L206.0 57.7 Q206.4 58.1 206.3 58.65 206.2 59.2 205.7 59.4 200.3 62.1 195.25 65.85 L188.15 71.6 186.9 71.55 Q186.3 70.95 186.75 70.2 190.8 63.5 191.5 59.25 191.6 58.75 191.3 58.4 191.0 58.0 190.55 58.0 L170.8 58.0 Q169.85 58.0 169.85 59.05 L169.85 90.7 Q169.85 96.9 167.55 99.7 164.65 103.25 156.6 104.1 L155.85 103.9 Q155.45 103.6 155.55 103.2 156.0 101.25 153.5 98.05 150.65 94.35 146.05 93.05 145.65 92.95 145.75 92.45 145.9 91.9 146.3 91.95 L157.35 92.65 Q158.65 92.65 159.2 92.1 159.65 91.6 159.65 90.5 L159.65 59.05 Q159.65 58.0 158.7 58.0 L132.95 58.0 132.4 57.65 130.95 54.65" fill="#7c6954" fill-rule="evenodd" stroke="none"/>
    <path d="M184.05 35.7 Q174.25 40.9 169.45 42.95 171.9 46.2 171.5 49.5 171.1 52.6 168.65 53.05 L167.35 53.05 166.2 52.7 Q164.6 47.3 157.25 40.8 L150.25 35.4 Q162.3 35.65 168.1 41.45 174.4 35.65 179.65 29.3 L140.45 29.3 139.65 26.0 181.0 26.0 188.25 24.65 Q189.45 24.4 190.3 25.5 L194.1 30.1 Q193.5 30.75 184.05 35.7" fill="#7c6954" fill-rule="evenodd" stroke="none"/>
    <path d="M95.55 85.55 L95.55 87.05 Q93.95 88.6 92.55 92.95 91.4 96.4 90.1 96.4 L60.1 96.4 Q41.6 96.4 32.5 91.3 22.45 85.65 16.75 70.3 L10.7 84.6 Q6.75 94.2 6.4 95.7 L0.0 88.15 Q3.15 85.15 7.65 78.25 11.45 72.4 14.45 66.7 15.0 65.65 15.8 62.4 L16.55 59.35 22.25 61.1 17.5 68.55 Q19.25 71.9 21.5 74.8 L23.0 76.35 Q28.5 82.05 37.8 84.1 45.4 85.75 60.4 85.75 87.1 85.75 95.55 85.55" fill="#7c6954" fill-rule="evenodd" stroke="none"/>
    <path d="M14.4 21.35 Q13.55 21.35 13.05 20.55 L11.4 17.95 56.55 17.95 72.3 17.15 83.0 15.95 Q84.7 15.65 85.7 17.15 L87.95 20.5 Q88.3 21.05 88.25 21.65 L87.8 22.8 Q77.7 34.25 63.95 47.3 42.1 68.05 28.05 75.2 L26.45 73.5 Q40.0 63.35 52.35 49.3 64.95 34.95 72.05 21.35 L14.4 21.35" fill="#7c6954" fill-rule="evenodd" stroke="none"/>
    <path d="M52.95 14.5 L42.05 14.5 42.05 1.55 55.35 1.55 Q53.2 2.05 53.0 4.0 L52.95 14.5" fill="#7c6954" fill-rule="evenodd" stroke="none"/>
    <path d="M170.45 0.0 Q168.3 0.5 168.1 2.45 L168.05 13.0 157.15 13.0 157.15 0.0 170.45 0.0" fill="#7c6954" fill-rule="evenodd" stroke="none"/>
  </g>
</svg>
