<?xml version="1.0" encoding="UTF-8"?>
<svg id="OBJECTS" xmlns="http://www.w3.org/2000/svg" viewBox="0 0 500 214">
  <defs>
    <style>
      .cls-1 {
        fill: #faeeb8;
      }

      .cls-2 {
        fill: #f0f1fa;
      }

      .cls-3 {
        fill: #fff;
      }

      .cls-4 {
        fill: #dde1ed;
      }

      .cls-5 {
        fill: #faefef;
      }

      .cls-6 {
        fill: #fafcfd;
      }

      .cls-7 {
        fill: #6b64ba;
      }

      .cls-8 {
        fill: #7c7dc3;
      }
    </style>
  </defs>
  <polygon class="cls-2" points="439.35 139.01 439.35 127.33 414.48 127.33 414.48 139.01 410.17 139.01 410.17 94.5 376.14 94.5 376.14 175.42 360.79 175.42 360.79 121.64 355.16 121.64 355.16 111.11 330.29 111.11 330.29 121.64 324.66 121.64 324.66 168.55 304.73 168.55 304.73 135.64 301.43 135.64 301.43 130.18 298.4 130.18 298.4 126.06 293.64 126.06 293.64 104.84 292.6 104.84 292.6 126.06 287.84 126.06 287.84 130.18 284.81 130.18 284.81 135.64 281.51 135.64 281.51 147.52 254.33 147.52 254.33 92.86 248.71 92.86 248.71 79 223.83 79 223.83 92.86 218.21 92.86 218.21 156.21 211.65 156.21 211.65 128.84 177.62 128.84 177.62 156.21 167.69 156.21 167.69 99.73 162.85 99.73 162.85 91.72 158.41 91.72 158.41 85.68 151.44 85.68 151.44 54.57 149.9 54.57 149.9 85.68 142.93 85.68 142.93 91.72 138.49 91.72 138.49 99.73 133.66 99.73 133.66 181.03 126.28 181.03 126.28 94.5 92.25 94.5 92.25 139.01 89.56 139.01 89.56 127.33 64.69 127.33 64.69 139.01 59.06 139.01 59.06 212.72 92.25 212.72 95.19 212.72 118.11 212.72 126.28 212.72 133.66 212.72 142.64 212.72 161.35 212.72 167.69 212.72 177.62 212.72 211.65 212.72 218.21 212.72 249.17 212.72 251.4 212.72 254.33 212.72 281.51 212.72 285.43 212.72 302.45 212.72 304.73 212.72 324.66 212.72 327.83 212.72 352.77 212.72 360.79 212.72 376.14 212.72 394.26 212.72 408.85 212.72 410.17 212.72 444.98 212.72 444.98 139.01 439.35 139.01"/>
  <path class="cls-8" d="M448.98,213.96H51.02c-.28,0-.5-.22-.5-.5s.22-.5.5-.5h497.95c.28,0,.5.22.5.5s-.22.5-.5.5Z"/>
  <g>
    <path class="cls-2" d="M258.25,25.41h-24.37c-1.83,0-3.31-1.48-3.31-3.32h0c0-1.83,1.48-3.31,3.31-3.31h6.52c1.95,0,3.65-1.47,3.78-3.41.14-2.13-1.55-3.9-3.65-3.9h-83.06c-1.95,0-3.65,1.47-3.78,3.41-.14,2.13,1.55,3.9,3.65,3.9h24.23c1.83,0,3.31,1.48,3.31,3.31h0c0,1.83-1.48,3.32-3.31,3.32h-36.88c-2.02,0-3.66,1.64-3.66,3.66h0c0,2.02,1.64,3.66,3.66,3.66h45.7c1.83,0,3.31,1.48,3.31,3.32h0c0,1.83-1.48,3.32-3.31,3.32h-22.92c-1.95,0-3.65,1.47-3.78,3.41-.14,2.13,1.55,3.9,3.65,3.9h83.06c1.95,0,3.65-1.47,3.78-3.41.14-2.13-1.55-3.9-3.65-3.9h-18.14c-1.83,0-3.31-1.48-3.31-3.32h0c0-1.83,1.48-3.32,3.31-3.32h45.86c2.02,0,3.66-1.64,3.66-3.66h0c0-2.02-1.64-3.66-3.66-3.66Z"/>
    <g>
      <path class="cls-3" d="M302.07,109.92h-105.36c-2.58,0-4.68,2.09-4.68,4.68v74.36c0,2.58,2.09,4.68,4.68,4.68h41.6v14.59h-3.78c-1.46,0-2.64,1.18-2.64,2.64s1.18,2.64,2.64,2.64h49.04c1.46,0,2.64-1.18,2.64-2.64s-1.18-2.64-2.64-2.64h-3.09v-14.59h41.6c2.58,0,4.68-2.09,4.68-4.68v-74.36c0-2.58-2.09-4.68-4.68-4.68Z"/>
      <rect class="cls-4" x="221.89" y="208.22" width="54.31" height="5.27" rx="2.64" ry="2.64"/>
      <rect class="cls-4" x="249.39" y="194.21" width="21.08" height="14.02"/>
      <g>
        <g>
          <path class="cls-4" d="M196.28,193.64h106.21c2.35,0,4.25-1.9,4.25-4.25v-15.29h-114.72v15.29c0,2.35,1.9,4.25,4.25,4.25ZM249.39,180.89c1.71,0,3.1,1.39,3.1,3.11s-1.39,3.1-3.1,3.1-3.1-1.39-3.1-3.1,1.39-3.11,3.1-3.11Z"/>
          <path class="cls-8" d="M300.67,194.14h-102.56c-3.63,0-6.58-2.95-6.58-6.58v-71.55c0-3.63,2.95-6.58,6.58-6.58h102.56c3.63,0,6.58,2.95,6.58,6.58v71.55c0,3.63-2.95,6.58-6.58,6.58ZM198.11,110.42c-3.08,0-5.58,2.5-5.58,5.58v71.55c0,3.08,2.5,5.58,5.58,5.58h102.56c3.08,0,5.58-2.5,5.58-5.58v-71.55c0-3.08-2.5-5.58-5.58-5.58h-102.56Z"/>
          <path class="cls-8" d="M270.47,208.72h-42.16c-.28,0-.5-.22-.5-.5v-14.59c0-.28.22-.5.5-.5h42.16c.28,0,.5.22.5.5v14.59c0,.28-.22.5-.5.5ZM228.81,207.72h41.16v-13.59h-41.16v13.59Z"/>
          <path class="cls-8" d="M273.57,214h-49.04c-1.73,0-3.14-1.41-3.14-3.14s1.41-3.14,3.14-3.14h49.04c1.73,0,3.14,1.41,3.14,3.14s-1.41,3.14-3.14,3.14ZM224.53,208.72c-1.18,0-2.14.96-2.14,2.14s.96,2.14,2.14,2.14h49.04c1.18,0,2.14-.96,2.14-2.14s-.96-2.14-2.14-2.14h-49.04Z"/>
          <path class="cls-1" d="M249.39,180.89c1.71,0,3.1,1.39,3.1,3.11s-1.39,3.1-3.1,3.1-3.1-1.39-3.1-3.1,1.39-3.11,3.1-3.11Z"/>
          <path class="cls-8" d="M249.39,187.6c-1.99,0-3.6-1.62-3.6-3.61s1.62-3.6,3.6-3.6,3.6,1.62,3.6,3.6-1.62,3.61-3.6,3.61ZM249.39,181.39c-1.44,0-2.6,1.17-2.6,2.6s1.17,2.61,2.6,2.61,2.6-1.17,2.6-2.61-1.17-2.6-2.6-2.6Z"/>
          <path class="cls-8" d="M249.39,208.44c-.28,0-.5-.22-.5-.5v-13.73c0-.28.22-.5.5-.5s.5.22.5.5v13.73c0,.28-.22.5-.5.5Z"/>
          <path class="cls-8" d="M300.91,194.14h-103.03c-3.5,0-6.34-2.85-6.34-6.34v-13.7c0-.28.22-.5.5-.5h114.72c.28,0,.5.22.5.5v13.7c0,3.5-2.85,6.34-6.34,6.34ZM192.53,174.59v13.2c0,2.95,2.4,5.34,5.34,5.34h103.03c2.95,0,5.34-2.4,5.34-5.34v-13.2h-113.72ZM249.39,187.6c-1.99,0-3.6-1.62-3.6-3.61s1.62-3.6,3.6-3.6,3.6,1.62,3.6,3.6-1.62,3.61-3.6,3.61ZM249.39,181.39c-1.44,0-2.6,1.17-2.6,2.6s1.17,2.61,2.6,2.61,2.6-1.17,2.6-2.61-1.17-2.6-2.6-2.6Z"/>
        </g>
        <path class="cls-8" d="M273.57,211.71h-44.77c-.28,0-.5-.22-.5-.5s.22-.5.5-.5h44.77c.28,0,.5.22.5.5s-.22.5-.5.5Z"/>
      </g>
      <path class="cls-8" d="M196.74,156.35c-.28,0-.5-.22-.5-.5v-36.22c0-.28.22-.5.5-.5s.5.22.5.5v36.22c0,.28-.22.5-.5.5Z"/>
      <path class="cls-8" d="M196.74,166.38c-.28,0-.5-.22-.5-.5v-7.11c0-.28.22-.5.5-.5s.5.22.5.5v7.11c0,.28-.22.5-.5.5Z"/>
    </g>
    <g>
      <g>
        <path class="cls-3" d="M156.71,112.96h-21.63v-25.33c0-2.21,1.79-4,4-4h17.63v29.33Z"/>
        <path class="cls-4" d="M139.08,83.23c-2.43,0-4.4,1.97-4.4,4.4v36.36c0,2.16,1.75,3.92,3.92,3.92h24.44v-44.68h-23.95ZM156.71,112.96h-21.63v-25.33c0-2.21,1.79-4,4-4h17.63v29.33Z"/>
        <rect class="cls-5" x="134.68" y="109.45" width="22.03" height="3.51"/>
      </g>
      <polygon class="cls-5" points="303.63 68.27 142.64 68.27 148 64.71 301.1 64.71 303.63 68.27"/>
      <g>
        <g>
          <path class="cls-8" d="M179.11,214h-15.88c-.28,0-.5-.22-.5-.5V68.73c0-.28.22-.5.5-.5s.5.22.5.5v144.27h14.88V68.73c0-.28.22-.5.5-.5s.5.22.5.5v144.77c0,.28-.22.5-.5.5Z"/>
          <g>
            <path class="cls-8" d="M178.75,85.09c-.13,0-.26-.05-.36-.15l-15.52-15.87c-.19-.2-.19-.51,0-.71.2-.19.51-.19.71,0l15.52,15.87c.19.2.19.51,0,.71-.1.1-.22.14-.35.14Z"/>
            <path class="cls-8" d="M163.23,85.09c-.13,0-.25-.05-.35-.14-.2-.19-.2-.51,0-.71l15.52-15.87c.19-.2.51-.2.71,0,.2.19.2.51,0,.71l-15.52,15.87c-.1.1-.23.15-.36.15Z"/>
          </g>
          <g>
            <path class="cls-8" d="M178.75,101.21c-.13,0-.26-.05-.36-.15l-15.52-16.16c-.19-.2-.18-.52.01-.71.2-.19.52-.19.71.01l15.52,16.16c.19.2.18.52-.01.71-.1.09-.22.14-.35.14Z"/>
            <path class="cls-8" d="M163.23,101.21c-.12,0-.25-.05-.35-.14-.2-.19-.21-.51-.01-.71l15.52-16.16c.19-.2.51-.21.71-.01.2.19.21.51.01.71l-15.52,16.16c-.1.1-.23.15-.36.15Z"/>
          </g>
          <g>
            <path class="cls-8" d="M178.75,117.32c-.13,0-.26-.05-.36-.15l-15.52-16.16c-.19-.2-.18-.52.01-.71.2-.19.52-.19.71.01l15.52,16.16c.19.2.18.52-.01.71-.1.09-.22.14-.35.14Z"/>
            <path class="cls-8" d="M163.23,117.32c-.12,0-.25-.05-.35-.14-.2-.19-.21-.51-.01-.71l15.52-16.16c.19-.2.51-.21.71-.01.2.19.21.51.01.71l-15.52,16.16c-.1.1-.23.15-.36.15Z"/>
          </g>
          <g>
            <path class="cls-8" d="M178.75,133.43c-.13,0-.26-.05-.36-.15l-15.52-16.16c-.19-.2-.18-.52.01-.71.2-.19.52-.19.71.01l15.52,16.16c.19.2.18.52-.01.71-.1.09-.22.14-.35.14Z"/>
            <path class="cls-8" d="M163.23,133.43c-.12,0-.25-.05-.35-.14-.2-.19-.21-.51-.01-.71l15.52-16.16c.19-.2.51-.21.71-.01.2.19.21.51.01.71l-15.52,16.16c-.1.1-.23.15-.36.15Z"/>
          </g>
          <g>
            <path class="cls-8" d="M178.75,149.55c-.13,0-.26-.05-.36-.15l-15.52-16.16c-.19-.2-.18-.52.01-.71.2-.19.52-.19.71.01l15.52,16.16c.19.2.18.52-.01.71-.1.09-.22.14-.35.14Z"/>
            <path class="cls-8" d="M163.23,149.55c-.12,0-.25-.05-.35-.14-.2-.19-.21-.51-.01-.71l15.52-16.16c.19-.2.51-.21.71-.01.2.19.21.51.01.71l-15.52,16.16c-.1.1-.23.15-.36.15Z"/>
          </g>
          <g>
            <path class="cls-8" d="M178.75,165.66c-.13,0-.26-.05-.36-.15l-15.52-16.16c-.19-.2-.18-.52.01-.71.2-.19.52-.19.71.01l15.52,16.16c.19.2.18.52-.01.71-.1.09-.22.14-.35.14Z"/>
            <path class="cls-8" d="M163.23,165.66c-.12,0-.25-.05-.35-.14-.2-.19-.21-.51-.01-.71l15.52-16.16c.19-.2.51-.21.71-.01.2.19.21.51.01.71l-15.52,16.16c-.1.1-.23.15-.36.15Z"/>
          </g>
          <g>
            <path class="cls-8" d="M178.75,181.77c-.13,0-.26-.05-.36-.15l-15.52-16.16c-.19-.2-.18-.52.01-.71.2-.19.52-.19.71.01l15.52,16.16c.19.2.18.52-.01.71-.1.09-.22.14-.35.14Z"/>
            <path class="cls-8" d="M163.23,181.77c-.12,0-.25-.05-.35-.14-.2-.19-.21-.51-.01-.71l15.52-16.16c.19-.2.51-.21.71-.01.2.19.21.51.01.71l-15.52,16.16c-.1.1-.23.15-.36.15Z"/>
          </g>
          <g>
            <path class="cls-8" d="M178.75,197.89c-.13,0-.26-.05-.36-.15l-15.52-16.16c-.19-.2-.18-.52.01-.71.2-.19.52-.19.71.01l15.52,16.16c.19.2.18.52-.01.71-.1.09-.22.14-.35.14Z"/>
            <path class="cls-8" d="M163.23,197.89c-.12,0-.25-.05-.35-.14-.2-.19-.21-.51-.01-.71l15.52-16.16c.19-.2.51-.21.71-.01.2.19.21.51.01.71l-15.52,16.16c-.1.1-.23.15-.36.15Z"/>
          </g>
          <g>
            <path class="cls-8" d="M178.75,214c-.13,0-.26-.05-.36-.15l-15.52-16.16c-.19-.2-.18-.52.01-.71.2-.19.52-.18.71.01l15.52,16.16c.19.2.18.52-.01.71-.1.09-.22.14-.35.14Z"/>
            <path class="cls-8" d="M163.23,214c-.12,0-.25-.05-.35-.14-.2-.19-.21-.51-.01-.71l15.52-16.16c.19-.2.51-.21.71-.01.2.19.21.51.01.71l-15.52,16.16c-.1.1-.23.15-.36.15Z"/>
          </g>
        </g>
        <g>
          <path class="cls-8" d="M193.77,65.14c-.09,0-.19-.03-.28-.08l-17.97-11.87-17.2,11.87c-.23.16-.54.1-.7-.13-.16-.23-.1-.54.13-.7l17.48-12.06c.17-.12.39-.12.56,0l18.25,12.06c.23.15.29.46.14.69-.1.15-.26.22-.42.22Z"/>
          <g>
            <path class="cls-8" d="M303.63,68.99h-160.99c-.22,0-.41-.14-.48-.35-.07-.21,0-.43.18-.56l21.78-15.88c.09-.06.19-.1.29-.1h130.08c.18,0,.34.1.43.25l9.14,15.88c.09.15.09.35,0,.5-.09.15-.25.25-.43.25ZM144.17,67.99h158.6l-8.56-14.88h-129.63l-20.4,14.88Z"/>
            <path class="cls-8" d="M301.1,65.14h-153.1c-.28,0-.5-.22-.5-.5s.22-.5.5-.5h153.1c.28,0,.5.22.5.5s-.22.5-.5.5Z"/>
            <path class="cls-8" d="M229.17,65.14c-.09,0-.19-.03-.28-.08l-17.97-11.87-17.2,11.87c-.23.16-.54.1-.7-.13-.16-.23-.1-.54.13-.7l17.48-12.06c.17-.12.39-.12.56,0l18.25,12.06c.23.15.29.46.14.69-.1.15-.26.22-.42.22Z"/>
          </g>
          <path class="cls-8" d="M264.57,65.14c-.09,0-.19-.03-.28-.08l-17.97-11.87-17.2,11.87c-.23.16-.54.1-.7-.13-.16-.23-.1-.54.13-.7l17.48-12.06c.17-.12.39-.12.56,0l18.25,12.06c.23.15.29.46.14.69-.1.15-.25.22-.42.22Z"/>
          <path class="cls-8" d="M299.96,65.14c-.09,0-.19-.03-.28-.08l-17.97-11.87-17.2,11.87c-.23.16-.54.1-.7-.13-.16-.23-.1-.54.13-.7l17.48-12.06c.17-.11.39-.12.56,0l18.25,12.06c.23.15.29.46.14.69-.1.15-.25.22-.42.22Z"/>
        </g>
      </g>
      <g>
        <rect class="cls-6" x="285.86" y="98.88" width="15.76" height="3.61"/>
        <path class="cls-4" d="M296.31,106.62h-5.14c-2.27,0-4.12-1.84-4.12-4.12h13.38c0,2.28-1.84,4.12-4.12,4.12Z"/>
        <path class="cls-4" d="M300.11,98.86c-.05-3.48-2.88-6.28-6.37-6.28s-6.32,2.8-6.37,6.28h12.75Z"/>
        <path class="cls-8" d="M301.62,103h-15.76c-.28,0-.5-.22-.5-.5v-3.61c0-.28.22-.5.5-.5h15.76c.28,0,.5.22.5.5v3.61c0,.28-.22.5-.5.5ZM286.36,102h14.76v-2.61h-14.76v2.61Z"/>
        <path class="cls-8" d="M296.31,107.12h-5.14c-2.55,0-4.62-2.07-4.62-4.62,0-.28.22-.5.5-.5h13.38c.28,0,.5.22.5.5,0,2.55-2.07,4.62-4.62,4.62ZM287.58,103c.24,1.76,1.76,3.12,3.58,3.12h5.14c1.83,0,3.34-1.36,3.58-3.12h-12.31Z"/>
        <path class="cls-8" d="M293.85,125.69c-1.61,0-3.16-.55-4.41-1.57-1.6-1.32-2.52-3.26-2.52-5.34,0-.28.22-.5.5-.5s.5.22.5.5c0,1.77.79,3.44,2.15,4.56,1.37,1.13,3.18,1.58,4.95,1.23,2.31-.45,4.16-2.3,4.61-4.61.35-1.78-.1-3.58-1.23-4.95-1.13-1.37-2.79-2.15-4.56-2.15-.28,0-.5-.22-.5-.5v-5.59c0-.28.22-.5.5-.5s.5.22.5.5v5.11c1.88.13,3.62,1.03,4.84,2.5,1.32,1.6,1.84,3.71,1.44,5.78-.53,2.7-2.69,4.87-5.4,5.4-.46.09-.91.13-1.37.13Z"/>
        <path class="cls-8" d="M300.11,99.36h-12.75c-.13,0-.26-.05-.36-.15-.09-.1-.15-.22-.14-.36.06-3.73,3.14-6.77,6.87-6.77s6.81,3.04,6.87,6.77c0,.13-.05.26-.14.36-.09.1-.22.15-.36.15ZM287.9,98.36h11.69c-.3-2.95-2.83-5.28-5.84-5.28s-5.54,2.32-5.84,5.28Z"/>
      </g>
      <path class="cls-8" d="M293.74,93.09c-.28,0-.5-.22-.5-.5v-23.79c0-.28.22-.5.5-.5s.5.22.5.5v23.79c0,.28-.22.5-.5.5Z"/>
      <path class="cls-8" d="M155.79,213.91h-3.3c-.28,0-.5-.22-.5-.5v-85.45c0-.28.22-.5.5-.5h4.3c.28,0,.5.22.5.5v85.45c0,.28-.22.5-.5.5ZM152.99,212.91h2.3v-84.45h-2.3v84.45Z"/>
      <path class="cls-8" d="M155.79,83.73h-3.3c-.28,0-.5-.22-.5-.5v-14.74c0-.28.22-.5.5-.5h4.3c.28,0,.5.22.5.5v14.74c0,.28-.22.5-.5.5ZM152.99,82.73h2.3v-13.74h-2.3v13.74Z"/>
      <g>
        <path class="cls-8" d="M163.04,128.41h-23.5c-2.95,0-5.36-2.4-5.36-5.36v-34.36c0-3.29,2.67-5.96,5.96-5.96h22.89c.28,0,.5.22.5.5v44.68c0,.28-.22.5-.5.5ZM140.14,83.73c-2.74,0-4.96,2.23-4.96,4.96v34.36c0,2.4,1.95,4.36,4.36,4.36h23v-43.68h-22.39Z"/>
        <path class="cls-8" d="M157.12,113.87h-22.43c-.28,0-.5-.22-.5-.5v-24.68c0-3.29,2.67-5.96,5.96-5.96h16.97c.28,0,.5.22.5.5v30.14c0,.28-.22.5-.5.5ZM135.18,112.87h21.43v-29.14h-16.47c-2.74,0-4.96,2.23-4.96,4.96v24.18Z"/>
        <path class="cls-8" d="M163.04,128.41h-23.5c-2.95,0-5.36-2.4-5.36-5.36v-34.36c0-3.29,2.67-5.96,5.96-5.96h22.89c.28,0,.5.22.5.5v44.68c0,.28-.22.5-.5.5ZM140.14,83.73c-2.74,0-4.96,2.23-4.96,4.96v34.36c0,2.4,1.95,4.36,4.36,4.36h23v-43.68h-22.39Z"/>
      </g>
      <path class="cls-8" d="M157.12,109.95h-22.43c-.28,0-.5-.22-.5-.5s.22-.5.5-.5h22.43c.28,0,.5.22.5.5s-.22.5-.5.5Z"/>
      <path class="cls-8" d="M138.1,106.09c-.28,0-.5-.22-.5-.5v-3.16c0-.28.22-.5.5-.5s.5.22.5.5v3.16c0,.28-.22.5-.5.5Z"/>
      <path class="cls-8" d="M138.1,100.14c-.28,0-.5-.22-.5-.5v-10.4c0-.28.22-.5.5-.5s.5.22.5.5v10.4c0,.28-.22.5-.5.5Z"/>
    </g>
    <g>
      <path class="cls-8" d="M436.85,214h-15.88c-.28,0-.5-.22-.5-.5V68.43c0-.28.22-.5.5-.5h15.88c.28,0,.5.22.5.5v145.07c0,.28-.22.5-.5.5ZM421.46,213h14.88V68.93h-14.88v144.07Z"/>
      <g>
        <path class="cls-8" d="M421.33,85.09c-.12,0-.25-.05-.35-.14-.2-.19-.21-.51-.01-.71l15.52-16.16c.19-.2.51-.2.71-.01.2.19.21.51.01.71l-15.52,16.16c-.1.1-.23.15-.36.15Z"/>
        <path class="cls-8" d="M436.85,85.09c-.13,0-.26-.05-.36-.15l-15.52-16.16c-.19-.2-.19-.52.01-.71.2-.19.52-.19.71.01l15.52,16.16c.19.2.19.52-.01.71-.1.09-.22.14-.35.14Z"/>
      </g>
      <g>
        <path class="cls-8" d="M421.33,101.21c-.12,0-.25-.05-.35-.14-.2-.19-.21-.51-.01-.71l15.52-16.16c.19-.2.51-.2.71-.01.2.19.21.51.01.71l-15.52,16.16c-.1.1-.23.15-.36.15Z"/>
        <path class="cls-8" d="M436.85,101.21c-.13,0-.26-.05-.36-.15l-15.52-16.16c-.19-.2-.19-.52.01-.71.2-.19.52-.19.71.01l15.52,16.16c.19.2.19.52-.01.71-.1.09-.22.14-.35.14Z"/>
      </g>
      <g>
        <path class="cls-8" d="M421.33,117.32c-.12,0-.25-.05-.35-.14-.2-.19-.21-.51-.01-.71l15.52-16.16c.19-.2.51-.2.71-.01.2.19.21.51.01.71l-15.52,16.16c-.1.1-.23.15-.36.15Z"/>
        <path class="cls-8" d="M436.85,117.32c-.13,0-.26-.05-.36-.15l-15.52-16.16c-.19-.2-.19-.52.01-.71.2-.19.52-.19.71.01l15.52,16.16c.19.2.19.52-.01.71-.1.09-.22.14-.35.14Z"/>
      </g>
      <g>
        <path class="cls-8" d="M421.33,133.43c-.12,0-.25-.05-.35-.14-.2-.19-.21-.51-.01-.71l15.52-16.16c.19-.2.51-.21.71-.01.2.19.21.51.01.71l-15.52,16.16c-.1.1-.23.15-.36.15Z"/>
        <path class="cls-8" d="M436.85,133.43c-.13,0-.26-.05-.36-.15l-15.52-16.16c-.19-.2-.19-.52.01-.71.2-.19.52-.19.71.01l15.52,16.16c.19.2.19.52-.01.71-.1.09-.22.14-.35.14Z"/>
      </g>
      <g>
        <path class="cls-8" d="M421.33,149.55c-.12,0-.25-.05-.35-.14-.2-.19-.21-.51-.01-.71l15.52-16.16c.19-.2.51-.2.71-.01.2.19.21.51.01.71l-15.52,16.16c-.1.1-.23.15-.36.15Z"/>
        <path class="cls-8" d="M436.85,149.55c-.13,0-.26-.05-.36-.15l-15.52-16.16c-.19-.2-.19-.52.01-.71.2-.19.52-.19.71.01l15.52,16.16c.19.2.19.52-.01.71-.1.09-.22.14-.35.14Z"/>
      </g>
      <g>
        <path class="cls-8" d="M421.33,165.66c-.12,0-.25-.05-.35-.14-.2-.19-.21-.51-.01-.71l15.52-16.16c.19-.2.51-.2.71-.01.2.19.21.51.01.71l-15.52,16.16c-.1.1-.23.15-.36.15Z"/>
        <path class="cls-8" d="M436.85,165.66c-.13,0-.26-.05-.36-.15l-15.52-16.16c-.19-.2-.19-.52.01-.71.2-.19.52-.19.71.01l15.52,16.16c.19.2.19.52-.01.71-.1.09-.22.14-.35.14Z"/>
      </g>
      <g>
        <path class="cls-8" d="M421.33,181.77c-.12,0-.25-.05-.35-.14-.2-.19-.21-.51-.01-.71l15.52-16.16c.19-.2.51-.21.71-.01s.21.51.01.71l-15.52,16.16c-.1.1-.23.15-.36.15Z"/>
        <path class="cls-8" d="M436.85,181.77c-.13,0-.26-.05-.36-.15l-15.52-16.16c-.19-.2-.19-.52.01-.71.2-.19.52-.19.71.01l15.52,16.16c.19.2.19.52-.01.71-.1.09-.22.14-.35.14Z"/>
      </g>
      <g>
        <path class="cls-8" d="M421.33,197.89c-.12,0-.25-.05-.35-.14-.2-.19-.21-.51-.01-.71l15.52-16.16c.19-.2.51-.21.71-.01s.21.51.01.71l-15.52,16.16c-.1.1-.23.15-.36.15Z"/>
        <path class="cls-8" d="M436.85,197.89c-.13,0-.26-.05-.36-.15l-15.52-16.16c-.19-.2-.19-.52.01-.71.2-.19.52-.19.71.01l15.52,16.16c.19.2.19.52-.01.71-.1.09-.22.14-.35.14Z"/>
      </g>
      <g>
        <path class="cls-8" d="M421.33,214c-.12,0-.25-.05-.35-.14-.2-.19-.21-.51-.01-.71l15.52-16.16c.19-.2.51-.21.71-.01s.21.51.01.71l-15.52,16.16c-.1.1-.23.15-.36.15Z"/>
        <path class="cls-8" d="M436.85,214c-.13,0-.26-.05-.36-.15l-15.52-16.16c-.19-.2-.19-.52.01-.71.2-.19.52-.19.71.01l15.52,16.16c.19.2.19.52-.01.71-.1.09-.22.14-.35.14Z"/>
      </g>
    </g>
    <g>
      <path class="cls-8" d="M331.71,214h-15.88c-.28,0-.5-.22-.5-.5v-112.84c0-.28.22-.5.5-.5h15.88c.28,0,.5.22.5.5v112.84c0,.28-.22.5-.5.5ZM316.32,213h14.88v-111.84h-14.88v111.84Z"/>
      <g>
        <path class="cls-8" d="M316.18,117.32c-.12,0-.25-.05-.35-.14-.2-.19-.2-.51-.01-.71l15.52-16.16c.19-.2.51-.2.71-.01.2.19.21.51.01.71l-15.52,16.16c-.1.1-.23.15-.36.15Z"/>
        <path class="cls-8" d="M331.71,117.32c-.13,0-.26-.05-.36-.15l-15.52-16.16c-.19-.2-.19-.52.01-.71.2-.19.52-.19.71.01l15.52,16.16c.19.2.19.52-.01.71-.1.09-.22.14-.35.14Z"/>
      </g>
      <g>
        <path class="cls-8" d="M316.18,133.43c-.12,0-.25-.05-.35-.14-.2-.19-.2-.51-.01-.71l15.52-16.16c.19-.2.51-.2.71-.01.2.19.21.51.01.71l-15.52,16.16c-.1.1-.23.15-.36.15Z"/>
        <path class="cls-8" d="M331.71,133.43c-.13,0-.26-.05-.36-.15l-15.52-16.16c-.19-.2-.19-.52.01-.71.2-.19.52-.19.71.01l15.52,16.16c.19.2.19.52-.01.71-.1.09-.22.14-.35.14Z"/>
      </g>
      <g>
        <path class="cls-8" d="M316.18,149.54c-.12,0-.25-.05-.35-.14-.2-.19-.2-.51-.01-.71l15.52-16.16c.19-.2.51-.2.71-.01.2.19.21.51.01.71l-15.52,16.16c-.1.1-.23.15-.36.15Z"/>
        <path class="cls-8" d="M331.71,149.54c-.13,0-.26-.05-.36-.15l-15.52-16.16c-.19-.2-.19-.52.01-.71.2-.19.52-.19.71.01l15.52,16.16c.19.2.19.52-.01.71-.1.09-.22.14-.35.14Z"/>
      </g>
      <g>
        <path class="cls-8" d="M316.18,165.66c-.12,0-.25-.05-.35-.14-.2-.19-.2-.51-.01-.71l15.52-16.16c.19-.2.51-.2.71-.01.2.19.21.51.01.71l-15.52,16.16c-.1.1-.23.15-.36.15Z"/>
        <path class="cls-8" d="M331.71,165.66c-.13,0-.26-.05-.36-.15l-15.52-16.16c-.19-.2-.19-.52.01-.71.2-.19.52-.19.71.01l15.52,16.16c.19.2.19.52-.01.71-.1.09-.22.14-.35.14Z"/>
      </g>
      <g>
        <path class="cls-8" d="M316.18,181.77c-.12,0-.25-.05-.35-.14-.2-.19-.2-.51-.01-.71l15.52-16.16c.19-.2.51-.2.71-.01.2.19.21.51.01.71l-15.52,16.16c-.1.1-.23.15-.36.15Z"/>
        <path class="cls-8" d="M331.71,181.77c-.13,0-.26-.05-.36-.15l-15.52-16.16c-.19-.2-.19-.52.01-.71.2-.19.52-.19.71.01l15.52,16.16c.19.2.19.52-.01.71-.1.09-.22.14-.35.14Z"/>
      </g>
      <g>
        <path class="cls-8" d="M316.18,197.88c-.12,0-.25-.05-.35-.14-.2-.19-.2-.51-.01-.71l15.52-16.16c.19-.2.51-.2.71-.01.2.19.21.51.01.71l-15.52,16.16c-.1.1-.23.15-.36.15Z"/>
        <path class="cls-8" d="M331.71,197.88c-.13,0-.26-.05-.36-.15l-15.52-16.16c-.19-.2-.19-.52.01-.71.2-.19.52-.18.71.01l15.52,16.16c.19.2.19.52-.01.71-.1.09-.22.14-.35.14Z"/>
      </g>
      <g>
        <path class="cls-8" d="M316.18,214c-.12,0-.25-.05-.35-.14-.2-.19-.2-.51-.01-.71l15.52-16.16c.19-.2.51-.21.71-.01.2.19.21.51.01.71l-15.52,16.16c-.1.1-.23.15-.36.15Z"/>
        <path class="cls-8" d="M331.71,214c-.13,0-.26-.05-.36-.15l-15.52-16.16c-.19-.2-.19-.52.01-.71.2-.19.52-.19.71.01l15.52,16.16c.19.2.19.52-.01.71-.1.09-.22.14-.35.14Z"/>
      </g>
    </g>
    <g>
      <path class="cls-3" d="M202.48,205.56l-.33-2.55c.32-.66.63-2.98,0-11.65-.22-3.04-1.28-5.09-3.16-6.11-3.41-1.84-8.4.34-9.99,1.13l-3.09-30.34c-.04-.46-.28-.88-.64-1.16-.37-.29-.83-.4-1.29-.33l-1.94.3c-1.08.17-2.01.8-2.58,1.73l-1.16,1.93-26.08-8.89c-1.17-.4-2.38-.58-3.62-.55l-3.1.08c-3.59.1-6.83,2.01-8.65,5.1l-6.54,11.13c-2.08-.86-4.36-1.34-6.74-1.34h-11.41c-.21,0-.38.17-.38.38v13.37h-13.09v-4.48c0-1.6-1.3-2.89-2.89-2.89h-14.38c-1.6,0-2.89,1.3-2.89,2.89v4.48h-3.06c-2.23,0-4.05,1.82-4.05,4.05v13.29c0,1.35.67,2.54,1.69,3.28h-1.43c-4.16,0-7.54,3.38-7.54,7.54s3.38,7.54,7.54,7.54h70.7c4.16,0,7.54-3.38,7.54-7.54s-3.38-7.54-7.54-7.54h-2.4c.78-.63,1.3-1.59,1.3-2.67v-14c0-.32,0-.64-.03-.96,0-.11-.02-.22-.03-.33-.01-.2-.03-.41-.05-.61-.01-.14-.04-.28-.05-.42-.02-.17-.04-.33-.07-.5-.03-.16-.06-.32-.09-.48-.03-.14-.05-.28-.08-.41-.04-.18-.08-.36-.12-.54-.03-.11-.05-.21-.08-.32-.05-.2-.11-.4-.17-.6-.02-.07-.04-.14-.06-.2-.07-.23-.15-.46-.24-.69,0,0,0-.01,0-.02-.66-1.82-1.63-3.51-2.85-5.03l6.37-8.18c2.14-2.75,5.59-4.02,9.01-3.32l23.18,4.75,7.2,32.06s0,0,0,.01c.02.06.05.12.1.17,0,0,.01.01.02.02,0,0,0,0,0,.01l13.63,11.27.78,4.94c.02.14.12.25.25.3.04.02.09.02.13.02.09,0,.18-.03.25-.09l2.22-1.88c1.51-1.28,2.25-3.21,2-5.16Z"/>
      <rect class="cls-5" x="78.9" y="174.96" width="19.4" height="3.24"/>
      <path class="cls-5" d="M123.57,164.44h-11.41v34.37s0,0,0,0h25.67c1.69,0,3.05-1.37,3.05-3.05v-14c0-9.56-7.75-17.31-17.31-17.31ZM140.48,193.69h-17.76c-1.73,0-3.13-1.4-3.13-3.13v-18.76c0-1.73,1.4-3.13,3.13-3.13h11.54s.01,0,.02.02c.02.01.03.02.05.04.4.33.78.68,1.15,1.04.03.03.05.05.08.08,1.88,1.89,3.32,4.23,4.14,6.83.01.03.02.07.03.1.15.49.28.99.39,1.5.01.06.02.12.03.18.1.5.18,1.01.23,1.52,0,.05,0,.1.01.16.05.53.08,1.07.08,1.62v11.94Z"/>
      <path class="cls-4" d="M143.09,161.97l-6.26,8.03c-.38-.43-.79-.84-1.21-1.23-.03-.03-.06-.06-.09-.09-.18-.16-.36-.32-.55-.48.97-1.24,1.89-2.6,2.85-4.04,3.67-5.47,7.46-11.13,14.37-9.99,4.34,1.45,8.35,2.58,12.59,3.79,2.5.71,5.08,1.44,7.8,2.26.22.06.44-.06.5-.27.06-.21-.06-.44-.27-.5-2.73-.82-5.32-1.55-7.82-2.26-4.23-1.2-8.23-2.33-12.61-3.79-7.48-1.24-11.6,4.9-15.23,10.32-.96,1.43-1.86,2.77-2.81,3.99-.04-.03-.08-.06-.12-.09-.05-.04-.1-.08-.16-.12-.44-.33-.9-.63-1.37-.92-.06-.03-.11-.06-.17-.1-.46-.27-.92-.52-1.41-.75-.03-.01-.05-.03-.08-.04l6.48-11.03c1.68-2.86,4.67-4.63,7.99-4.72l3.1-.08c1.13-.03,2.27.14,3.34.51l30.54,10.41c.69.24,1.16.86,1.21,1.59.04.58-.2,1.13-.65,1.5-.45.37-1.03.5-1.62.35l-28.57-5.85c-3.71-.76-7.46.62-9.79,3.61Z"/>
      <path class="cls-4" d="M181.26,165c.82.21,1.66.03,2.31-.51s1-1.33.94-2.17c-.07-1.05-.75-1.96-1.75-2.3l-3.69-1.26,1.06-1.76c.44-.73,1.18-1.23,2.02-1.36l1.94-.3c.24-.04.49.02.68.18.2.15.32.37.34.62l3.14,30.77-1.21,2.06-.5.86c-.55-3.26-1.14-6.12-1.71-8.89-.62-3.01-1.26-6.12-1.85-9.74-.04-.22-.24-.37-.46-.33-.22.04-.37.24-.33.46.59,3.64,1.24,6.76,1.86,9.77.62,3.01,1.26,6.12,1.85,9.74,0,.02.01.04.02.06l-2.28,3.89-6.9-30.7,4.51.93Z"/>
      <path class="cls-5" d="M71.79,190.93h42.7v7.33h-39.97c-1.51,0-2.73-1.22-2.73-2.73v-4.6h0Z"/>
      <path class="cls-5" d="M200.52,209.58l-.65-4.46c-.01-.1-.07-.2-.15-.26l-14.48-11.2,3.73-6.37c.79-.41,6.27-3.17,9.66-1.34,1.62.88,2.55,2.72,2.75,5.47.68,9.43.19,11,.09,11.22-.08.09-.13.21-.11.34l.35,2.69c.19,1.43-.25,2.84-1.18,3.91Z"/>
      <g>
        <path class="cls-4" d="M142.37,198.81h-70.7c-3.95,0-7.15,3.2-7.15,7.15s3.2,7.15,7.15,7.15h70.7c3.95,0,7.15-3.2,7.15-7.15s-3.2-7.15-7.15-7.15ZM142.37,211.12h-70.7c-2.96,0-5.34-2.5-5.15-5.49.17-2.75,2.59-4.83,5.35-4.83h70.29c2.76,0,5.18,2.08,5.35,4.83.19,2.99-2.19,5.49-5.15,5.49Z"/>
        <g>
          <path class="cls-8" d="M137.83,199.31h-62.38c-2.29,0-4.16-1.87-4.16-4.16v-13.29c0-2.29,1.87-4.16,4.16-4.16h46.21v-13.26c0-.28.22-.5.5-.5h11.41c9.82,0,17.81,7.99,17.81,17.81v14c0,1.96-1.59,3.55-3.55,3.55ZM75.45,178.7c-1.74,0-3.16,1.42-3.16,3.16v13.29c0,1.74,1.42,3.16,3.16,3.16h62.38c1.41,0,2.55-1.15,2.55-2.55v-14c0-9.27-7.54-16.81-16.81-16.81h-10.91v13.26c0,.28-.22.5-.5.5h-36.71Z"/>
          <path class="cls-8" d="M98.29,178.7h-19.4c-.28,0-.5-.22-.5-.5v-4.86c0-1.66,1.35-3.01,3.01-3.01h14.38c1.66,0,3.01,1.35,3.01,3.01v4.86c0,.28-.22.5-.5.5ZM79.4,177.7h18.4v-4.36c0-1.11-.9-2.01-2.01-2.01h-14.38c-1.11,0-2.01.9-2.01,2.01v4.36Z"/>
          <path class="cls-8" d="M140.89,194.6h-18.16c-2.22,0-4.03-1.81-4.03-4.03v-18.76c0-2.22,1.81-4.03,4.03-4.03h11.7c.11,0,.22.04.31.11,4.23,3.4,6.65,8.46,6.65,13.88v12.34c0,.28-.22.5-.5.5ZM122.73,168.77c-1.67,0-3.03,1.36-3.03,3.03v18.76c0,1.67,1.36,3.03,3.03,3.03h17.66v-11.84c0-5.05-2.24-9.78-6.14-12.99h-11.52Z"/>
          <g>
            <path class="cls-8" d="M142.37,213.62h-70.7c-4.22,0-7.65-3.43-7.65-7.65s3.43-7.65,7.65-7.65h70.7c4.22,0,7.65,3.43,7.65,7.65s-3.43,7.65-7.65,7.65ZM71.67,199.31c-3.67,0-6.65,2.98-6.65,6.65s2.98,6.65,6.65,6.65h70.7c3.67,0,6.65-2.98,6.65-6.65s-2.98-6.65-6.65-6.65h-70.7Z"/>
            <path class="cls-8" d="M142.37,211.62h-70.7c-1.55,0-3.06-.65-4.13-1.79-1.08-1.15-1.62-2.66-1.52-4.24.19-2.97,2.76-5.3,5.85-5.3h70.29c3.09,0,5.66,2.33,5.85,5.3.1,1.58-.44,3.08-1.52,4.24-1.07,1.14-2.57,1.79-4.13,1.79ZM71.87,201.3c-2.57,0-4.7,1.91-4.85,4.36-.08,1.3.36,2.54,1.25,3.49.89.95,2.1,1.47,3.4,1.47h70.7c1.3,0,2.5-.52,3.4-1.47.89-.95,1.34-2.19,1.25-3.49-.15-2.44-2.29-4.36-4.85-4.36h-70.29Z"/>
          </g>
          <g>
            <path class="cls-8" d="M138.02,210.2c-2.34,0-4.24-1.9-4.24-4.24s1.9-4.24,4.24-4.24,4.24,1.9,4.24,4.24-1.9,4.24-4.24,4.24ZM138.02,202.72c-1.79,0-3.24,1.45-3.24,3.24s1.45,3.24,3.24,3.24,3.24-1.45,3.24-3.24-1.45-3.24-3.24-3.24Z"/>
            <path class="cls-4" d="M138.02,208.2c1.23,0,2.24-1,2.24-2.24s-1-2.24-2.24-2.24-2.24,1-2.24,2.24,1,2.24,2.24,2.24Z"/>
            <path class="cls-8" d="M129.16,210.2c-2.34,0-4.24-1.9-4.24-4.24s1.9-4.24,4.24-4.24,4.24,1.9,4.24,4.24-1.9,4.24-4.24,4.24ZM129.16,202.72c-1.79,0-3.24,1.45-3.24,3.24s1.45,3.24,3.24,3.24,3.24-1.45,3.24-3.24-1.45-3.24-3.24-3.24Z"/>
            <path class="cls-4" d="M129.16,208.2c1.23,0,2.24-1,2.24-2.24s-1-2.24-2.24-2.24-2.24,1-2.24,2.24,1,2.24,2.24,2.24Z"/>
            <path class="cls-8" d="M120.31,210.2c-2.34,0-4.24-1.9-4.24-4.24s1.9-4.24,4.24-4.24,4.24,1.9,4.24,4.24-1.9,4.24-4.24,4.24ZM120.31,202.72c-1.79,0-3.24,1.45-3.24,3.24s1.45,3.24,3.24,3.24,3.24-1.45,3.24-3.24-1.45-3.24-3.24-3.24Z"/>
            <path class="cls-4" d="M120.31,208.2c1.23,0,2.24-1,2.24-2.24s-1-2.24-2.24-2.24-2.24,1-2.24,2.24,1,2.24,2.24,2.24Z"/>
            <path class="cls-8" d="M111.45,210.2c-2.34,0-4.24-1.9-4.24-4.24s1.9-4.24,4.24-4.24,4.24,1.9,4.24,4.24-1.9,4.24-4.24,4.24ZM111.45,202.72c-1.79,0-3.24,1.45-3.24,3.24s1.45,3.24,3.24,3.24,3.24-1.45,3.24-3.24-1.45-3.24-3.24-3.24Z"/>
            <path class="cls-4" d="M111.45,208.2c1.23,0,2.24-1,2.24-2.24s-1-2.24-2.24-2.24-2.24,1-2.24,2.24,1,2.24,2.24,2.24Z"/>
            <path class="cls-8" d="M102.59,210.2c-2.34,0-4.24-1.9-4.24-4.24s1.9-4.24,4.24-4.24,4.24,1.9,4.24,4.24-1.9,4.24-4.24,4.24ZM102.59,202.72c-1.79,0-3.24,1.45-3.24,3.24s1.45,3.24,3.24,3.24,3.24-1.45,3.24-3.24-1.45-3.24-3.24-3.24Z"/>
            <path class="cls-4" d="M102.59,208.2c1.23,0,2.24-1,2.24-2.24s-1-2.24-2.24-2.24-2.24,1-2.24,2.24,1,2.24,2.24,2.24Z"/>
            <path class="cls-8" d="M93.73,210.2c-2.34,0-4.24-1.9-4.24-4.24s1.9-4.24,4.24-4.24,4.24,1.9,4.24,4.24-1.9,4.24-4.24,4.24ZM93.73,202.72c-1.79,0-3.24,1.45-3.24,3.24s1.45,3.24,3.24,3.24,3.24-1.45,3.24-3.24-1.45-3.24-3.24-3.24Z"/>
            <path class="cls-4" d="M93.73,208.2c1.23,0,2.24-1,2.24-2.24s-1-2.24-2.24-2.24-2.24,1-2.24,2.24,1,2.24,2.24,2.24Z"/>
            <path class="cls-8" d="M84.88,210.2c-2.34,0-4.24-1.9-4.24-4.24s1.9-4.24,4.24-4.24,4.24,1.9,4.24,4.24-1.9,4.24-4.24,4.24ZM84.88,202.72c-1.79,0-3.24,1.45-3.24,3.24s1.45,3.24,3.24,3.24,3.24-1.45,3.24-3.24-1.45-3.24-3.24-3.24Z"/>
            <path class="cls-4" d="M84.88,208.2c1.23,0,2.24-1,2.24-2.24s-1-2.24-2.24-2.24-2.24,1-2.24,2.24,1,2.24,2.24,2.24Z"/>
            <path class="cls-8" d="M76.02,210.2c-2.34,0-4.24-1.9-4.24-4.24s1.9-4.24,4.24-4.24,4.24,1.9,4.24,4.24-1.9,4.24-4.24,4.24ZM76.02,202.72c-1.79,0-3.24,1.45-3.24,3.24s1.45,3.24,3.24,3.24,3.24-1.45,3.24-3.24-1.45-3.24-3.24-3.24Z"/>
            <path class="cls-4" d="M76.02,208.2c1.23,0,2.24-1,2.24-2.24s-1-2.24-2.24-2.24-2.24,1-2.24,2.24,1,2.24,2.24,2.24Z"/>
          </g>
          <path class="cls-8" d="M71.79,191.43c-.27,0-.5-.22-.5-.49,0-.28.22-.5.49-.51,10.2-.14,20.94-.14,31.06,0,.28,0,.5.23.49.51,0,.28-.24.49-.51.49-10.11-.14-20.84-.14-31.03,0h0Z"/>
          <path class="cls-8" d="M109.25,191.43h-4.9c-.28,0-.5-.22-.5-.5s.22-.5.5-.5h4.9c.28,0,.5.22.5.5s-.22.5-.5.5Z"/>
          <path class="cls-8" d="M98.16,175.46h-19.27c-.28,0-.5-.22-.5-.5s.22-.5.5-.5h19.27c.28,0,.5.22.5.5s-.22.5-.5.5Z"/>
          <path class="cls-8" d="M112.16,199.15c-.28,0-.5-.22-.5-.5v-20.45c0-.28.22-.5.5-.5s.5.22.5.5v20.45c0,.28-.22.5-.5.5Z"/>
          <g>
            <path class="cls-8" d="M183.48,196.36s-.05,0-.08,0c-.2-.03-.37-.18-.41-.38l-7.25-32.29c-.06-.27.11-.54.38-.6.27-.06.54.11.6.38l6.98,31.05,4.47-7.64-3.13-30.74c-.02-.22-.13-.42-.3-.55-.18-.14-.39-.19-.61-.16l-1.94.3c-.82.13-1.53.61-1.95,1.32l-1.3,2.16c-.14.24-.45.31-.69.17-.24-.14-.31-.45-.17-.69l1.3-2.16c.58-.96,1.55-1.61,2.66-1.79l1.94-.3c.49-.08.99.05,1.38.35.39.3.64.76.69,1.25l3.15,30.9c.01.11-.01.21-.07.3l-5.2,8.87c-.09.15-.26.25-.43.25Z"/>
            <path class="cls-8" d="M198.01,212.81c-.06,0-.12-.01-.17-.03-.17-.06-.29-.21-.32-.39l-.77-4.9-13.59-11.25c-.19-.16-.24-.43-.11-.64l5.2-8.87c.05-.08.11-.14.19-.18.27-.15,6.54-3.6,10.62-1.4,1.91,1.03,3,3.12,3.22,6.2.61,8.45.33,10.91,0,11.67l.33,2.52c.26,2-.5,3.96-2.04,5.27l-2.22,1.88c-.09.08-.21.12-.32.12ZM184.12,195.75l13.41,11.1c.09.08.16.19.18.31l.66,4.21,1.54-1.31c1.28-1.08,1.91-2.71,1.69-4.37l-.35-2.69c-.02-.15.03-.3.13-.4.1-.25.56-1.91-.11-11.16-.2-2.72-1.1-4.53-2.7-5.39-3.31-1.79-8.68.88-9.54,1.33l-4.91,8.38Z"/>
          </g>
          <path class="cls-8" d="M136.84,171.14c-.15,0-.29-.07-.38-.18-1.67-1.99-3.81-3.59-6.18-4.63-.13-.06-.23-.17-.28-.3-.04-.14-.03-.28.04-.41l6.71-11.42c1.84-3.13,5.11-5.06,8.74-5.16l3.1-.08c1.25-.03,2.48.15,3.66.56l30.54,10.41c1.04.36,1.75,1.29,1.82,2.39.05.88-.3,1.7-.98,2.25-.68.56-1.55.75-2.4.53l-28.54-5.85c-3.37-.69-6.78.57-8.9,3.28l-6.56,8.42c-.09.12-.23.19-.39.19h0ZM131.19,165.65c2.12,1.01,4.05,2.45,5.63,4.2l6.19-7.94c2.35-3.02,6.14-4.41,9.89-3.65l28.57,5.85c.56.15,1.11.02,1.54-.33.43-.35.65-.87.62-1.42-.04-.69-.49-1.28-1.14-1.5l-30.54-10.41c-1.07-.36-2.18-.53-3.31-.5l-3.1.08c-3.29.09-6.24,1.83-7.91,4.67l-6.43,10.94Z"/>
          <path class="cls-8" d="M181.56,164.12c-.97,0-1.77-.79-1.77-1.77s.79-1.77,1.77-1.77,1.77.79,1.77,1.77-.79,1.77-1.77,1.77ZM181.56,161.58c-.42,0-.77.34-.77.77s.34.77.77.77.77-.34.77-.77-.34-.77-.77-.77Z"/>
          <path class="cls-8" d="M138.02,187.13c-.28,0-.5-.22-.5-.5v-8.14c0-.28.22-.5.5-.5s.5.22.5.5v8.14c0,.28-.22.5-.5.5Z"/>
          <path class="cls-8" d="M138.02,192.13c-.28,0-.5-.22-.5-.5v-2.95c0-.28.22-.5.5-.5s.5.22.5.5v2.95c0,.28-.22.5-.5.5Z"/>
          <path class="cls-8" d="M182.24,169.63c-.24,0-.45-.17-.49-.42l-.47-2.89c-.04-.27.14-.53.41-.57.28-.05.53.14.57.41l.47,2.89c.04.27-.14.53-.41.57-.03,0-.05,0-.08,0Z"/>
          <path class="cls-8" d="M186.3,191.26c-.24,0-.45-.17-.49-.42-.59-3.62-1.23-6.73-1.85-9.73-.62-3.02-1.27-6.14-1.86-9.78-.04-.27.14-.53.41-.57.27-.04.53.14.57.41.59,3.62,1.23,6.73,1.85,9.74.62,3.02,1.27,6.13,1.86,9.78.04.27-.14.53-.41.57-.03,0-.05,0-.08,0Z"/>
          <path class="cls-8" d="M134.42,168.77c-.11,0-.22-.04-.31-.11-.22-.17-.25-.49-.08-.7,1.03-1.29,2.01-2.75,3.04-4.29,3.65-5.45,7.78-11.62,15.33-10.36,4.4,1.46,8.39,2.59,12.62,3.79,2.51.71,5.09,1.44,7.82,2.26.26.08.41.36.33.62-.08.26-.36.41-.62.34-2.73-.82-5.3-1.55-7.81-2.26-4.24-1.2-8.24-2.34-12.59-3.79-6.83-1.13-10.61,4.5-14.26,9.95-1.05,1.56-2.04,3.04-3.1,4.36-.1.12-.24.19-.39.19Z"/>
          <path class="cls-8" d="M177.67,161.74s-.09,0-.14-.02l-3-.85c-.27-.08-.42-.35-.34-.62.08-.27.35-.42.62-.34l3,.85c.27.08.42.35.34.62-.06.22-.26.36-.48.36Z"/>
          <path class="cls-8" d="M200.24,210.93c-.24,0-.46-.18-.49-.43l-.74-5.05-14.53-11.24c-.22-.17-.26-.48-.09-.7.17-.22.48-.26.7-.09l14.69,11.37c.1.08.17.2.19.32l.77,5.25c.04.27-.15.53-.42.57-.02,0-.05,0-.07,0Z"/>
        </g>
      </g>
    </g>
    <g>
      <g>
        <path class="cls-3" d="M327.6,195.71c-5.01,0-9.09,4.08-9.09,9.09s4.08,9.09,9.09,9.09,9.09-4.08,9.09-9.09-4.08-9.09-9.09-9.09Z"/>
        <path class="cls-3" d="M388.7,195.71c-5.01,0-9.09,4.08-9.09,9.09s4.08,9.09,9.09,9.09,9.09-4.08,9.09-9.09-4.08-9.09-9.09-9.09Z"/>
        <path class="cls-3" d="M410.94,195.71c-5.01,0-9.09,4.08-9.09,9.09s4.08,9.09,9.09,9.09,9.09-4.08,9.09-9.09-4.08-9.09-9.09-9.09Z"/>
        <path class="cls-3" d="M428.76,167.19h-76.45v-6.04c0-.23-.18-.41-.41-.41h-18.1c-.23,0-.41.18-.41.41v3.97c0,.23.18.41.41.41h13.23v33.4h-1.27v-32.07c0-.23-.18-.41-.41-.41h-18.19c-2.34,0-4.56,1.12-5.96,2.99l-11.12,14.89c-.15.2-.29.42-.42.63-.03.05-.06.1-.09.16-.11.2-.21.4-.31.6-.01.02-.02.04-.03.07,0,0,0,0,0,0-.41.94-.63,1.96-.63,2.99v12.74h-1.75c-1.49,0-2.71,1.21-2.71,2.71s1.22,2.71,2.71,2.71h10.49c.12,0,.24-.05.31-.14.08-.09.11-.21.09-.33-.09-.56-.14-1.12-.14-1.67,0-.93.13-1.85.39-2.75,1.22-4.27,5.17-7.26,9.62-7.26s8.4,2.98,9.62,7.26c.26.9.39,1.82.39,2.75,0,.55-.05,1.11-.14,1.67-.02.12.01.24.09.33.08.09.19.14.31.14h7.48s.04,0,.05-.01c.02,0,.03.01.05.01h43.24c.12,0,.24-.05.31-.15.08-.09.11-.22.09-.33-.1-.56-.14-1.12-.14-1.67,0-1.86.53-3.67,1.53-5.23,1.81-2.83,4.88-4.52,8.23-4.52s6.42,1.69,8.23,4.52c0,0,0,0,0,0,1,1.57,1.53,3.38,1.53,5.23,0,.55-.05,1.11-.14,1.67-.02.12.01.24.09.33.08.09.19.15.31.15h2.21c.12,0,.24-.05.31-.15.08-.09.11-.22.09-.33-.1-.56-.14-1.12-.14-1.67,0-1.86.53-3.67,1.53-5.23,0,0,0,0,0,0,1.81-2.83,4.88-4.52,8.22-4.52s6.42,1.69,8.23,4.52c0,0,0,0,0,0,1,1.57,1.53,3.38,1.53,5.23,0,.55-.05,1.11-.14,1.67-.02.12.01.24.09.33.08.09.19.15.31.15h4.59c.23,0,.41-.18.41-.41v-6.78h4.81c.23,0,.41-.18.41-.41v-31.74c0-.23-.18-.41-.41-.41Z"/>
        <path class="cls-4" d="M347.43,180.74v10.16h81.33v-23.3h-76.86v-6.45h-18.1v3.97h13.64v15.62ZM423.99,170.27h2.42v17.85h-2.42v-17.85ZM418.03,170.27h2.42v17.85h-2.42v-17.85ZM412.08,170.27h2.42v17.85h-2.42v-17.85ZM406.13,170.27h2.42v17.85h-2.42v-17.85ZM400.18,170.27h2.42v17.85h-2.42v-17.85ZM394.23,170.27h2.42v17.85h-2.42v-17.85ZM388.28,170.27h2.42v17.85h-2.42v-17.85ZM382.33,170.27h2.42v17.85h-2.42v-17.85ZM376.38,170.27h2.42v17.85h-2.42v-17.85ZM370.43,170.27h2.42v17.85h-2.42v-17.85ZM364.48,170.27h2.42v17.85h-2.42v-17.85ZM358.53,170.27h2.42v17.85h-2.42v-17.85ZM352.58,170.27h2.42v17.85h-2.42v-17.85Z"/>
      </g>
      <g>
        <path class="cls-4" d="M410.94,196.12c-4.79,0-8.68,3.89-8.68,8.68s3.89,8.68,8.68,8.68,8.68-3.89,8.68-8.68-3.89-8.68-8.68-8.68ZM415.23,209.08c-2.37,2.37-6.21,2.37-8.58,0-2.37-2.37-2.37-6.21,0-8.58,2.37-2.37,6.21-2.37,8.58,0,2.37,2.37,2.37,6.21,0,8.58Z"/>
        <path class="cls-4" d="M388.7,196.12c-4.79,0-8.68,3.89-8.68,8.68s3.89,8.68,8.68,8.68,8.68-3.89,8.68-8.68-3.89-8.68-8.68-8.68ZM392.99,209.08c-2.37,2.37-6.21,2.37-8.58,0-2.37-2.37-2.37-6.21,0-8.58,2.37-2.37,6.21-2.37,8.58,0s2.37,6.21,0,8.58Z"/>
        <path class="cls-4" d="M327.6,196.12c-4.79,0-8.68,3.89-8.68,8.68s3.89,8.68,8.68,8.68,8.68-3.89,8.68-8.68-3.89-8.68-8.68-8.68ZM331.89,209.08c-2.37,2.37-6.21,2.37-8.58,0-2.37-2.37-2.37-6.21,0-8.58,2.37-2.37,6.21-2.37,8.58,0,2.37,2.37,2.37,6.21,0,8.58Z"/>
        <g>
          <path class="cls-4" d="M309.99,185.19c.12-.21.26-.42.41-.61-.15.2-.28.4-.41.61Z"/>
          <path class="cls-4" d="M309.6,185.95c.1-.22.21-.43.32-.64-.12.21-.23.42-.32.64Z"/>
          <path class="cls-5" d="M327.15,166.86c-2.22,0-4.31,1.05-5.63,2.82l-.48.65h8.16c1.17,0,2.12.95,2.12,2.12v9.09c0,2.43-1.97,4.41-4.41,4.41h-17.31c-.39.89-.6,1.85-.6,2.83v13.15h8.58c1.24-4.36,5.25-7.55,10.01-7.55s8.77,3.19,10.01,7.55h7.73v-35.07h-18.19ZM343.46,184.04c0,1.06-.86,1.91-1.91,1.91h-6.09c-1.06,0-1.91-.86-1.91-1.91v-11.79c0-1.06.86-1.91,1.91-1.91h6.09c1.06,0,1.91.86,1.91,1.91v11.79Z"/>
        </g>
        <path class="cls-8" d="M345.34,202.43h-7.73c-.22,0-.42-.15-.48-.36-1.21-4.23-5.13-7.19-9.53-7.19s-8.32,2.96-9.53,7.19c-.06.21-.26.36-.48.36h-8.58c-.28,0-.5-.22-.5-.5v-13.15c0-1.61.53-3.21,1.5-4.51l11.12-14.89c1.41-1.89,3.67-3.02,6.03-3.02h18.19c.28,0,.5.22.5.5v35.07c0,.28-.22.5-.5.5ZM337.98,201.43h6.86v-34.07h-17.69c-2.05,0-4.01.98-5.23,2.62l-11.12,14.89c-.84,1.12-1.3,2.51-1.3,3.91v12.65h7.71c1.44-4.47,5.66-7.55,10.38-7.55s8.94,3.09,10.38,7.55Z"/>
        <g>
          <path class="cls-8" d="M317.33,207.03h-10.49c-1.54,0-2.8-1.25-2.8-2.8s1.26-2.8,2.8-2.8h10.75c.16,0,.3.07.4.2.09.12.12.29.08.44-.25.89-.38,1.8-.38,2.72,0,.55.05,1.1.14,1.65.02.15-.02.29-.11.41-.09.11-.23.18-.38.18ZM306.83,202.43c-.99,0-1.8.81-1.8,1.8s.81,1.8,1.8,1.8h9.92c-.05-.41-.07-.83-.07-1.24,0-.79.09-1.58.26-2.36h-10.11Z"/>
          <path class="cls-8" d="M345.34,207.03h-7.48c-.15,0-.29-.06-.38-.18-.09-.11-.14-.26-.11-.41.09-.55.14-1.11.14-1.65,0-.92-.13-1.84-.38-2.72-.04-.15-.01-.31.08-.44.09-.13.24-.2.4-.2h7.73c.28,0,.5.22.5.5v4.6c0,.28-.22.5-.5.5ZM338.44,206.03h6.4v-3.6h-6.59c.17.78.26,1.57.26,2.36,0,.41-.02.82-.07,1.24Z"/>
        </g>
        <path class="cls-8" d="M326.91,186.45h-17.31c-.17,0-.33-.09-.42-.23-.09-.14-.11-.32-.04-.48.23-.53.52-1.03.86-1.47l10.64-14.25c.09-.13.24-.2.4-.2h8.16c1.44,0,2.62,1.18,2.62,2.62v9.09c0,2.71-2.2,4.91-4.91,4.91ZM310.41,185.45h16.49c2.15,0,3.91-1.75,3.91-3.91v-9.09c0-.89-.73-1.62-1.62-1.62h-7.91l-10.49,14.04c-.14.18-.26.38-.38.58Z"/>
        <path class="cls-8" d="M341.55,186.45h-6.09c-1.33,0-2.41-1.08-2.41-2.41v-11.79c0-1.33,1.08-2.41,2.41-2.41h6.09c1.33,0,2.41,1.08,2.41,2.41v11.79c0,1.33-1.08,2.41-2.41,2.41ZM335.46,170.83c-.78,0-1.41.63-1.41,1.41v11.79c0,.78.63,1.41,1.41,1.41h6.09c.78,0,1.41-.63,1.41-1.41v-11.79c0-.78-.63-1.41-1.41-1.41h-6.09Z"/>
        <g>
          <g>
            <path class="cls-7" d="M324.53,201.82c.56.18.87.79.69,1.35-.18.56-.79.87-1.35.69-.56-.18-.87-.78-.69-1.35.18-.56.78-.87,1.35-.69Z"/>
            <path class="cls-7" d="M331.32,205.74c.56.18.87.78.69,1.35-.18.56-.78.87-1.35.69-.56-.18-.87-.78-.69-1.35.18-.56.78-.87,1.35-.69Z"/>
          </g>
          <g>
            <path class="cls-7" d="M323.49,205.96c.44-.4,1.11-.36,1.51.08.4.44.36,1.11-.08,1.51-.44.4-1.11.36-1.51-.08-.39-.44-.36-1.11.08-1.51Z"/>
            <path class="cls-7" d="M330.27,202.04c.44-.4,1.11-.36,1.51.08.4.44.36,1.11-.08,1.51-.44.4-1.11.36-1.51-.08-.4-.44-.36-1.11.08-1.51Z"/>
          </g>
          <g>
            <path class="cls-8" d="M327.6,213.97c-5.06,0-9.18-4.12-9.18-9.18s4.12-9.18,9.18-9.18,9.18,4.12,9.18,9.18-4.12,9.18-9.18,9.18ZM327.6,196.62c-4.51,0-8.18,3.67-8.18,8.18s3.67,8.18,8.18,8.18,8.18-3.67,8.18-8.18-3.67-8.18-8.18-8.18ZM327.59,211.36c-1.68,0-3.36-.64-4.64-1.92-1.24-1.24-1.92-2.89-1.92-4.64s.68-3.4,1.92-4.64c2.56-2.56,6.73-2.56,9.29,0,1.24,1.24,1.92,2.89,1.92,4.64s-.68,3.4-1.92,4.64h0c-1.28,1.28-2.96,1.92-4.64,1.92ZM327.59,199.23c-1.42,0-2.85.54-3.94,1.63s-1.63,2.45-1.63,3.94.58,2.88,1.63,3.94c2.17,2.17,5.7,2.17,7.87,0h0c1.05-1.05,1.63-2.45,1.63-3.94s-.58-2.88-1.63-3.94c-1.08-1.08-2.51-1.63-3.94-1.63Z"/>
            <g>
              <path class="cls-7" d="M328.64,200.65c.12.58-.25,1.14-.82,1.27-.58.12-1.14-.25-1.27-.82-.12-.58.25-1.14.82-1.27.58-.12,1.14.25,1.27.82Z"/>
              <path class="cls-7" d="M328.64,208.49c.12.58-.25,1.14-.82,1.27-.58.12-1.14-.25-1.27-.82-.12-.58.25-1.14.82-1.27.58-.12,1.14.25,1.27.82Z"/>
            </g>
            <path class="cls-8" d="M327.6,206.84c-1.13,0-2.04-.92-2.04-2.04s.92-2.04,2.04-2.04,2.04.92,2.04,2.04-.92,2.04-2.04,2.04ZM327.6,203.75c-.58,0-1.04.47-1.04,1.04s.47,1.04,1.04,1.04,1.04-.47,1.04-1.04-.47-1.04-1.04-1.04Z"/>
          </g>
        </g>
        <g>
          <g>
            <path class="cls-7" d="M385.64,201.82c.56.18.87.79.69,1.35-.18.56-.78.87-1.35.69-.56-.18-.87-.78-.69-1.35s.78-.87,1.35-.69Z"/>
            <path class="cls-7" d="M392.43,205.74c.56.18.87.78.69,1.35-.18.56-.78.87-1.35.69-.56-.18-.87-.78-.69-1.35s.78-.87,1.35-.69Z"/>
          </g>
          <g>
            <path class="cls-7" d="M384.59,205.96c.44-.4,1.11-.36,1.51.08.4.44.36,1.11-.08,1.51s-1.11.36-1.51-.08c-.39-.44-.36-1.11.08-1.51Z"/>
            <path class="cls-7" d="M391.38,202.04c.44-.4,1.11-.36,1.51.08.4.44.36,1.11-.08,1.51-.44.4-1.11.36-1.51-.08-.4-.44-.36-1.11.08-1.51Z"/>
          </g>
          <g>
            <path class="cls-8" d="M388.7,213.97c-5.06,0-9.18-4.12-9.18-9.18s4.12-9.18,9.18-9.18,9.18,4.12,9.18,9.18-4.12,9.18-9.18,9.18ZM388.7,196.62c-4.51,0-8.18,3.67-8.18,8.18s3.67,8.18,8.18,8.18,8.18-3.67,8.18-8.18-3.67-8.18-8.18-8.18Z"/>
            <path class="cls-8" d="M388.7,211.36c-1.68,0-3.36-.64-4.64-1.92-2.56-2.56-2.56-6.73,0-9.29,2.56-2.56,6.73-2.56,9.29,0,2.56,2.56,2.56,6.73,0,9.29-1.28,1.28-2.96,1.92-4.64,1.92ZM388.7,199.23c-1.43,0-2.85.54-3.94,1.63-2.17,2.17-2.17,5.7,0,7.87s5.7,2.17,7.87,0,2.17-5.7,0-7.87c-1.08-1.08-2.51-1.63-3.94-1.63Z"/>
            <g>
              <path class="cls-7" d="M389.75,200.65c.12.58-.25,1.14-.82,1.27-.58.12-1.14-.25-1.27-.82-.12-.58.25-1.14.82-1.27.58-.12,1.14.25,1.27.82Z"/>
              <path class="cls-7" d="M389.75,208.49c.12.58-.25,1.14-.82,1.27-.58.12-1.14-.25-1.27-.82-.12-.58.25-1.14.82-1.27.58-.12,1.14.25,1.27.82Z"/>
            </g>
            <path class="cls-8" d="M388.7,206.84c-1.13,0-2.04-.92-2.04-2.04s.92-2.04,2.04-2.04,2.04.92,2.04,2.04-.92,2.04-2.04,2.04ZM388.7,203.75c-.58,0-1.04.47-1.04,1.04s.47,1.04,1.04,1.04,1.04-.47,1.04-1.04-.47-1.04-1.04-1.04Z"/>
          </g>
        </g>
        <g>
          <g>
            <path class="cls-7" d="M407.88,201.82c.56.18.87.79.69,1.35-.18.56-.78.87-1.35.69-.56-.18-.87-.78-.69-1.35.18-.56.78-.87,1.35-.69Z"/>
            <path class="cls-7" d="M414.66,205.74c.56.18.87.78.69,1.35-.18.56-.78.87-1.35.69-.56-.18-.87-.78-.69-1.35.18-.56.79-.87,1.35-.69Z"/>
          </g>
          <g>
            <path class="cls-7" d="M406.83,205.96c.44-.4,1.11-.36,1.51.08.4.44.36,1.11-.08,1.51-.44.4-1.11.36-1.51-.08s-.36-1.11.08-1.51Z"/>
            <path class="cls-7" d="M413.62,202.04c.44-.4,1.11-.36,1.51.08.4.44.36,1.11-.08,1.51-.44.4-1.11.36-1.51-.08s-.36-1.11.08-1.51Z"/>
          </g>
          <g>
            <path class="cls-8" d="M410.94,213.97c-5.06,0-9.18-4.12-9.18-9.18s4.12-9.18,9.18-9.18,9.18,4.12,9.18,9.18-4.12,9.18-9.18,9.18ZM410.94,196.62c-4.51,0-8.18,3.67-8.18,8.18s3.67,8.18,8.18,8.18,8.18-3.67,8.18-8.18-3.67-8.18-8.18-8.18Z"/>
            <path class="cls-8" d="M410.94,211.36c-1.68,0-3.36-.64-4.64-1.92-2.56-2.56-2.56-6.73,0-9.29,2.56-2.56,6.73-2.56,9.29,0,2.56,2.56,2.56,6.73,0,9.29-1.28,1.28-2.96,1.92-4.64,1.92ZM410.94,199.23c-1.43,0-2.85.54-3.94,1.63-2.17,2.17-2.17,5.7,0,7.87,2.17,2.17,5.7,2.17,7.87,0,2.17-2.17,2.17-5.7,0-7.87-1.09-1.08-2.51-1.63-3.94-1.63Z"/>
            <g>
              <path class="cls-7" d="M411.98,200.65c.12.58-.25,1.14-.82,1.27-.58.12-1.14-.25-1.27-.82-.12-.58.25-1.14.82-1.27.58-.12,1.14.25,1.27.82Z"/>
              <path class="cls-7" d="M411.98,208.49c.12.58-.25,1.14-.82,1.27s-1.14-.25-1.27-.82c-.12-.58.25-1.14.82-1.27.58-.12,1.14.25,1.27.82Z"/>
            </g>
            <path class="cls-8" d="M410.94,206.84c-1.13,0-2.04-.92-2.04-2.04s.92-2.04,2.04-2.04,2.04.92,2.04,2.04-.92,2.04-2.04,2.04ZM410.94,203.75c-.58,0-1.04.47-1.04,1.04s.47,1.04,1.04,1.04,1.04-.47,1.04-1.04-.47-1.04-1.04-1.04Z"/>
          </g>
        </g>
        <path class="cls-8" d="M388.7,213.97c-5.06,0-9.18-4.12-9.18-9.18s4.12-9.18,9.18-9.18,9.18,4.12,9.18,9.18-4.12,9.18-9.18,9.18ZM388.7,196.62c-4.51,0-8.18,3.67-8.18,8.18s3.67,8.18,8.18,8.18,8.18-3.67,8.18-8.18-3.67-8.18-8.18-8.18Z"/>
        <g>
          <path class="cls-8" d="M378.69,207.03h-33.24c-.28,0-.5-.22-.5-.5v-7.19c0-.28.22-.5.5-.5h44.68c.18,0,.35.1.44.26.09.16.08.36-.02.51-.99,1.55-1.52,3.35-1.52,5.19,0,.54.05,1.1.14,1.65.02.15-.02.29-.11.41-.1.11-.24.18-.38.18ZM345.95,206.03h42.16c-.05-.41-.07-.83-.07-1.24,0-1.73.42-3.43,1.23-4.95h-33.31v6.19Z"/>
          <g>
            <path class="cls-8" d="M424.54,207.03h-3.59c-.15,0-.29-.07-.38-.18-.09-.11-.13-.26-.11-.41.1-.55.14-1.11.14-1.65,0-1.84-.52-3.63-1.52-5.19-.1-.15-.1-.35-.02-.51.09-.16.26-.26.44-.26h5.03c.28,0,.5.22.5.5v7.19c0,.28-.22.5-.5.5ZM421.53,206.03h2.51v-6.19h-3.66c.8,1.53,1.22,3.22,1.22,4.95,0,.41-.02.82-.07,1.24Z"/>
            <path class="cls-8" d="M400.92,207.03h-2.21c-.15,0-.29-.07-.38-.18-.09-.11-.13-.26-.11-.41.1-.55.14-1.11.14-1.65,0-1.84-.52-3.63-1.52-5.19-.1-.15-.1-.35-.02-.51.09-.16.26-.26.44-.26h5.09c.18,0,.35.1.44.26.09.16.08.36-.02.51-.99,1.55-1.52,3.35-1.52,5.19,0,.54.05,1.1.14,1.65.02.15-.02.29-.11.41-.1.11-.24.18-.38.18ZM399.29,206.03h1.05c-.05-.41-.07-.83-.07-1.24,0-1.73.42-3.43,1.23-4.95h-3.36c.8,1.53,1.23,3.22,1.23,4.95,0,.41-.02.82-.07,1.24Z"/>
          </g>
        </g>
        <path class="cls-8" d="M410.94,213.97c-5.06,0-9.18-4.12-9.18-9.18s4.12-9.18,9.18-9.18,9.18,4.12,9.18,9.18-4.12,9.18-9.18,9.18ZM410.94,196.62c-4.51,0-8.18,3.67-8.18,8.18s3.67,8.18,8.18,8.18,8.18-3.67,8.18-8.18-3.67-8.18-8.18-8.18Z"/>
        <path class="cls-8" d="M428.76,199.84h-9.25c-.17,0-.33-.09-.42-.23-1.79-2.81-4.84-4.48-8.15-4.48s-6.36,1.67-8.15,4.48c-.09.14-.25.23-.42.23h-5.09c-.17,0-.33-.09-.42-.23-1.79-2.81-4.84-4.48-8.15-4.48s-6.36,1.67-8.15,4.48c-.09.14-.25.23-.42.23h-32.7c-.28,0-.5-.22-.5-.5v-33.72h-13.14c-.28,0-.5-.22-.5-.5v-3.97c0-.28.22-.5.5-.5h18.1c.28,0,.5.22.5.5v5.95h76.36c.28,0,.5.22.5.5v31.74c0,.28-.22.5-.5.5ZM419.78,198.84h8.48v-30.74h-76.36c-.28,0-.5-.22-.5-.5v-5.95h-17.1v2.97h13.14c.28,0,.5.22.5.5v33.72h41.93c1.99-2.96,5.28-4.71,8.84-4.71s6.85,1.76,8.84,4.71h4.55c1.99-2.96,5.28-4.71,8.84-4.71s6.85,1.76,8.84,4.71Z"/>
        <path class="cls-8" d="M354.99,188.62h-2.42c-.28,0-.5-.22-.5-.5v-17.85c0-.28.22-.5.5-.5h2.42c.28,0,.5.22.5.5v17.85c0,.28-.22.5-.5.5ZM353.08,187.62h1.42v-16.85h-1.42v16.85Z"/>
        <path class="cls-8" d="M360.94,188.62h-2.42c-.28,0-.5-.22-.5-.5v-17.85c0-.28.22-.5.5-.5h2.42c.28,0,.5.22.5.5v17.85c0,.28-.22.5-.5.5ZM359.03,187.62h1.42v-16.85h-1.42v16.85Z"/>
        <path class="cls-8" d="M366.9,188.62h-2.42c-.28,0-.5-.22-.5-.5v-17.85c0-.28.22-.5.5-.5h2.42c.28,0,.5.22.5.5v17.85c0,.28-.22.5-.5.5ZM364.98,187.62h1.42v-16.85h-1.42v16.85Z"/>
        <path class="cls-8" d="M372.85,188.62h-2.42c-.28,0-.5-.22-.5-.5v-17.85c0-.28.22-.5.5-.5h2.42c.28,0,.5.22.5.5v17.85c0,.28-.22.5-.5.5ZM370.93,187.62h1.42v-16.85h-1.42v16.85Z"/>
        <path class="cls-8" d="M378.8,188.62h-2.42c-.28,0-.5-.22-.5-.5v-17.85c0-.28.22-.5.5-.5h2.42c.28,0,.5.22.5.5v17.85c0,.28-.22.5-.5.5ZM376.88,187.62h1.42v-16.85h-1.42v16.85Z"/>
        <path class="cls-8" d="M384.75,188.62h-2.42c-.28,0-.5-.22-.5-.5v-17.85c0-.28.22-.5.5-.5h2.42c.28,0,.5.22.5.5v17.85c0,.28-.22.5-.5.5ZM382.83,187.62h1.42v-16.85h-1.42v16.85Z"/>
        <path class="cls-8" d="M390.7,188.62h-2.42c-.28,0-.5-.22-.5-.5v-17.85c0-.28.22-.5.5-.5h2.42c.28,0,.5.22.5.5v17.85c0,.28-.22.5-.5.5ZM388.78,187.62h1.42v-16.85h-1.42v16.85Z"/>
        <path class="cls-8" d="M396.65,188.62h-2.42c-.28,0-.5-.22-.5-.5v-17.85c0-.28.22-.5.5-.5h2.42c.28,0,.5.22.5.5v17.85c0,.28-.22.5-.5.5ZM394.73,187.62h1.42v-16.85h-1.42v16.85Z"/>
        <path class="cls-8" d="M402.6,188.62h-2.42c-.28,0-.5-.22-.5-.5v-17.85c0-.28.22-.5.5-.5h2.42c.28,0,.5.22.5.5v17.85c0,.28-.22.5-.5.5ZM400.68,187.62h1.42v-16.85h-1.42v16.85Z"/>
        <path class="cls-8" d="M408.55,188.62h-2.42c-.28,0-.5-.22-.5-.5v-17.85c0-.28.22-.5.5-.5h2.42c.28,0,.5.22.5.5v17.85c0,.28-.22.5-.5.5ZM406.63,187.62h1.42v-16.85h-1.42v16.85Z"/>
        <path class="cls-8" d="M414.5,188.62h-2.42c-.28,0-.5-.22-.5-.5v-17.85c0-.28.22-.5.5-.5h2.42c.28,0,.5.22.5.5v17.85c0,.28-.22.5-.5.5ZM412.58,187.62h1.42v-16.85h-1.42v16.85Z"/>
        <path class="cls-8" d="M420.45,188.62h-2.42c-.28,0-.5-.22-.5-.5v-17.85c0-.28.22-.5.5-.5h2.42c.28,0,.5.22.5.5v17.85c0,.28-.22.5-.5.5ZM418.53,187.62h1.42v-16.85h-1.42v16.85Z"/>
        <path class="cls-8" d="M426.4,188.62h-2.42c-.28,0-.5-.22-.5-.5v-17.85c0-.28.22-.5.5-.5h2.42c.28,0,.5.22.5.5v17.85c0,.28-.22.5-.5.5ZM424.49,187.62h1.42v-16.85h-1.42v16.85Z"/>
      </g>
      <path class="cls-8" d="M378.54,203.06h-30.91c-.28,0-.5-.22-.5-.5s.22-.5.5-.5h40.91c.28,0,.5.22.5.5s-.22.5-.5.5Z"/>
      <path class="cls-8" d="M315.45,204.73h-10.91c-.28,0-.5-.22-.5-.5s.22-.5.5-.5h10.91c.28,0,.5.22.5.5s-.22.5-.5.5Z"/>
      <path class="cls-8" d="M347.34,163.89h-13.43c-.28,0-.5-.22-.5-.5s.22-.5.5-.5h13.43c.28,0,.5.22.5.5s-.22.5-.5.5Z"/>
      <path class="cls-8" d="M320.75,175.46c-.11,0-.21-.03-.3-.1-.22-.17-.26-.48-.1-.7l1.55-2.05c.17-.22.48-.26.7-.1.22.17.26.48.1.7l-1.55,2.05c-.1.13-.25.2-.4.2Z"/>
      <path class="cls-8" d="M314.47,183.76c-.11,0-.21-.03-.3-.1-.22-.17-.26-.48-.1-.7l3.87-5.12c.17-.22.48-.26.7-.1.22.17.26.48.1.7l-3.87,5.12c-.1.13-.25.2-.4.2Z"/>
    </g>
    <path class="cls-2" d="M132.15,69.71h-17.22c-1.25,0-2.26-1.01-2.26-2.26h0c0-1.25,1.01-2.26,2.26-2.26h5.07c1.33,0,2.48-1,2.57-2.32.09-1.45-1.05-2.66-2.48-2.66h-42.36c-1.33,0-2.48,1-2.57,2.32-.09,1.45,1.05,2.66,2.48,2.66h16.49c1.25,0,2.26,1.01,2.26,2.26h0c0,1.25-1.01,2.26-2.26,2.26h-25.1c-1.37,0-2.49,1.11-2.49,2.49h0c0,1.38,1.11,2.49,2.49,2.49h24.3c1.25,0,2.26,1.01,2.26,2.26h0c0,1.25-1.01,2.26-2.26,2.26h-15.6c-1.33,0-2.48,1-2.57,2.32-.09,1.45,1.05,2.66,2.48,2.66h42.36c1.33,0,2.48-1,2.57-2.32.09-1.45-1.05-2.66-2.48-2.66h-2.27c-1.25,0-2.26-1.01-2.26-2.26h0c0-1.25,1.01-2.26,2.26-2.26h14.33c1.38,0,2.49-1.11,2.49-2.49h0c0-1.38-1.11-2.49-2.49-2.49Z"/>
    <g>
      <path class="cls-2" d="M371.23,28.15h-16.59c-1.25,0-2.26-1.01-2.26-2.26h0c0-1.25,1.01-2.26,2.26-2.26h4.44c1.33,0,2.48-1,2.57-2.32.09-1.45-1.05-2.66-2.48-2.66h-56.53c-1.33,0-2.48,1-2.57,2.32-.09,1.45,1.05,2.66,2.48,2.66h16.49c1.25,0,2.26,1.01,2.26,2.26h0c0,1.25-1.01,2.26-2.26,2.26h-25.1c-1.37,0-2.49,1.11-2.49,2.49h0c0,1.38,1.11,2.49,2.49,2.49h24.3c1.25,0,2.26,1.01,2.26,2.26h0c0,1.25-1.01,2.26-2.26,2.26h-15.6c-1.33,0-2.48,1-2.57,2.32-.09,1.45,1.05,2.66,2.48,2.66h56.53c1.33,0,2.48-1,2.57-2.32.09-1.45-1.05-2.66-2.48-2.66h-12.34c-1.25,0-2.26-1.01-2.26-2.26h0c0-1.25,1.01-2.26,2.26-2.26h24.41c1.38,0,2.49-1.11,2.49-2.49h0c0-1.38-1.11-2.49-2.49-2.49Z"/>
      <path class="cls-2" d="M293.2,42.62h-5.6c-1.34,0-2.43-1.09-2.43-2.43h0c0-1.34,1.09-2.43,2.43-2.43h5.6c1.34,0,2.43,1.09,2.43,2.43h0c0,1.34-1.09,2.43-2.43,2.43Z"/>
      <path class="cls-2" d="M373.67,23.52h-5.6c-1.34,0-2.43-1.09-2.43-2.43h0c0-1.34,1.09-2.43,2.43-2.43h5.6c1.34,0,2.43,1.09,2.43,2.43h0c0,1.34-1.09,2.43-2.43,2.43Z"/>
    </g>
    <g>
      <path class="cls-2" d="M331.21,77.81h23.27c1.27,0,2.3-1.03,2.3-2.3h0c0-1.27-1.03-2.3-2.3-2.3h-10.9c-1.35,0-2.53-1.02-2.62-2.37-.1-1.48,1.07-2.7,2.53-2.7h57.54c1.35,0,2.53,1.02,2.62,2.37.1,1.48-1.07,2.7-2.53,2.7h-16.78c-1.27,0-2.3,1.03-2.3,2.3h0c0,1.27,1.03,2.3,2.3,2.3h10.12c1.4,0,2.53,1.13,2.53,2.53h0c0,1.4-1.13,2.53-2.53,2.53h-9.3c-1.27,0-2.3,1.03-2.3,2.3h0c0,1.27,1.03,2.3,2.3,2.3h26.16c1.35,0,2.53,1.02,2.62,2.37.1,1.48-1.07,2.7-2.53,2.7h-67.82c-1.35,0-2.53-1.02-2.62-2.37-.1-1.48,1.07-2.7,2.53-2.7h2.31c1.27,0,2.3-1.03,2.3-2.3h0c0-1.27-1.03-2.3-2.3-2.3h-14.59c-1.4,0-2.53-1.13-2.53-2.53h0c0-1.4,1.13-2.53,2.53-2.53Z"/>
      <path class="cls-2" d="M402.87,82.7h5.6c1.34,0,2.43-1.09,2.43-2.43h0c0-1.34-1.09-2.43-2.43-2.43h-5.6c-1.34,0-2.43,1.09-2.43,2.43h0c0,1.34,1.09,2.43,2.43,2.43Z"/>
    </g>
  </g>
</svg>